<?xml version="1.0" encoding="UTF-8" standalone="no"?>
<svg
   xmlns:lucid="lucid"
   xmlns:dc="http://purl.org/dc/elements/1.1/"
   xmlns:cc="http://creativecommons.org/ns#"
   xmlns:rdf="http://www.w3.org/1999/02/22-rdf-syntax-ns#"
   xmlns:svg="http://www.w3.org/2000/svg"
   xmlns="http://www.w3.org/2000/svg"
   xmlns:xlink="http://www.w3.org/1999/xlink"
   xmlns:sodipodi="http://sodipodi.sourceforge.net/DTD/sodipodi-0.dtd"
   xmlns:inkscape="http://www.inkscape.org/namespaces/inkscape"
   width="1680"
   height="1837"
   id="svg4636"
   version="1.1"
   inkscape:version="0.91 r13725"
   sodipodi:docname="deploy.svg">
  <metadata
     id="metadata5381">
    <rdf:RDF>
      <cc:Work
         rdf:about="">
        <dc:format>image/svg+xml</dc:format>
        <dc:type
           rdf:resource="http://purl.org/dc/dcmitype/StillImage" />
        <dc:title></dc:title>
      </cc:Work>
    </rdf:RDF>
  </metadata>
  <defs
     id="defs5379" />
  <sodipodi:namedview
     pagecolor="#ffffff"
     bordercolor="#666666"
     borderopacity="1"
     objecttolerance="10"
     gridtolerance="10"
     guidetolerance="10"
     inkscape:pageopacity="0"
     inkscape:pageshadow="2"
     inkscape:window-width="640"
     inkscape:window-height="480"
     id="namedview5377"
     showgrid="false"
     inkscape:zoom="0.318454"
     inkscape:cx="840"
     inkscape:cy="918.5"
     inkscape:window-x="0"
     inkscape:window-y="0"
     inkscape:window-maximized="0"
     inkscape:current-layer="svg4636" />
  <g
     transform="translate(-12 -12)"
     lucid:page-tab-id="0_0"
     id="g4638">
    <path
       d="M52 589h1200v1220H52z"
       fill-opacity="0"
       id="path4640" />
    <path
       d="M55 589c0 1.66-1.34 3-3 3s-3-1.34-3-3 1.34-3 3-3 3 1.34 3 3zm24 0c0 1.66-1.34 3-3 3s-3-1.34-3-3 1.34-3 3-3 3 1.34 3 3zm24 0c0 1.66-1.34 3-3 3s-3-1.34-3-3 1.34-3 3-3 3 1.34 3 3zm24 0c0 1.66-1.34 3-3 3s-3-1.34-3-3 1.34-3 3-3 3 1.34 3 3zm24 0c0 1.66-1.34 3-3 3s-3-1.34-3-3 1.34-3 3-3 3 1.34 3 3zm24 0c0 1.66-1.34 3-3 3s-3-1.34-3-3 1.34-3 3-3 3 1.34 3 3zm24 0c0 1.66-1.34 3-3 3s-3-1.34-3-3 1.34-3 3-3 3 1.34 3 3zm24 0c0 1.66-1.34 3-3 3s-3-1.34-3-3 1.34-3 3-3 3 1.34 3 3zm24 0c0 1.66-1.34 3-3 3s-3-1.34-3-3 1.34-3 3-3 3 1.34 3 3zm24 0c0 1.66-1.34 3-3 3s-3-1.34-3-3 1.34-3 3-3 3 1.34 3 3zm24 0c0 1.66-1.34 3-3 3s-3-1.34-3-3 1.34-3 3-3 3 1.34 3 3zm24 0c0 1.66-1.34 3-3 3s-3-1.34-3-3 1.34-3 3-3 3 1.34 3 3zm24 0c0 1.66-1.34 3-3 3s-3-1.34-3-3 1.34-3 3-3 3 1.34 3 3zm24 0c0 1.66-1.34 3-3 3s-3-1.34-3-3 1.34-3 3-3 3 1.34 3 3zm24 0c0 1.66-1.34 3-3 3s-3-1.34-3-3 1.34-3 3-3 3 1.34 3 3zm24 0c0 1.66-1.34 3-3 3s-3-1.34-3-3 1.34-3 3-3 3 1.34 3 3zm24 0c0 1.66-1.34 3-3 3s-3-1.34-3-3 1.34-3 3-3 3 1.34 3 3zm24 0c0 1.66-1.34 3-3 3s-3-1.34-3-3 1.34-3 3-3 3 1.34 3 3zm24 0c0 1.66-1.34 3-3 3s-3-1.34-3-3 1.34-3 3-3 3 1.34 3 3zm24 0c0 1.66-1.34 3-3 3s-3-1.34-3-3 1.34-3 3-3 3 1.34 3 3zm24 0c0 1.66-1.34 3-3 3s-3-1.34-3-3 1.34-3 3-3 3 1.34 3 3zm24 0c0 1.66-1.34 3-3 3s-3-1.34-3-3 1.34-3 3-3 3 1.34 3 3zm24 0c0 1.66-1.34 3-3 3s-3-1.34-3-3 1.34-3 3-3 3 1.34 3 3zm24 0c0 1.66-1.34 3-3 3s-3-1.34-3-3 1.34-3 3-3 3 1.34 3 3zm24 0c0 1.66-1.34 3-3 3s-3-1.34-3-3 1.34-3 3-3 3 1.34 3 3zm24 0c0 1.66-1.34 3-3 3s-3-1.34-3-3 1.34-3 3-3 3 1.34 3 3zm24 0c0 1.66-1.34 3-3 3s-3-1.34-3-3 1.34-3 3-3 3 1.34 3 3zm24 0c0 1.66-1.34 3-3 3s-3-1.34-3-3 1.34-3 3-3 3 1.34 3 3zm24 0c0 1.66-1.34 3-3 3s-3-1.34-3-3 1.34-3 3-3 3 1.34 3 3zm24 0c0 1.66-1.34 3-3 3s-3-1.34-3-3 1.34-3 3-3 3 1.34 3 3zm24 0c0 1.66-1.34 3-3 3s-3-1.34-3-3 1.34-3 3-3 3 1.34 3 3zm24 0c0 1.66-1.34 3-3 3s-3-1.34-3-3 1.34-3 3-3 3 1.34 3 3zm24 0c0 1.66-1.34 3-3 3s-3-1.34-3-3 1.34-3 3-3 3 1.34 3 3zm24 0c0 1.66-1.34 3-3 3s-3-1.34-3-3 1.34-3 3-3 3 1.34 3 3zm24 0c0 1.66-1.34 3-3 3s-3-1.34-3-3 1.34-3 3-3 3 1.34 3 3zm24 0c0 1.66-1.34 3-3 3s-3-1.34-3-3 1.34-3 3-3 3 1.34 3 3zm24 0c0 1.66-1.34 3-3 3s-3-1.34-3-3 1.34-3 3-3 3 1.34 3 3zm24 0c0 1.66-1.34 3-3 3s-3-1.34-3-3 1.34-3 3-3 3 1.34 3 3zm24 0c0 1.66-1.34 3-3 3s-3-1.34-3-3 1.34-3 3-3 3 1.34 3 3zm24 0c0 1.66-1.34 3-3 3s-3-1.34-3-3 1.34-3 3-3 3 1.34 3 3zm24 0c0 1.66-1.34 3-3 3s-3-1.34-3-3 1.34-3 3-3 3 1.34 3 3zm24 0c0 1.66-1.34 3-3 3s-3-1.34-3-3 1.34-3 3-3 3 1.34 3 3zm24 0c0 1.66-1.34 3-3 3s-3-1.34-3-3 1.34-3 3-3 3 1.34 3 3zm24 0c0 1.66-1.34 3-3 3s-3-1.34-3-3 1.34-3 3-3 3 1.34 3 3zm24 0c0 1.66-1.34 3-3 3s-3-1.34-3-3 1.34-3 3-3 3 1.34 3 3zm24 0c0 1.66-1.34 3-3 3s-3-1.34-3-3 1.34-3 3-3 3 1.34 3 3zm24 0c0 1.66-1.34 3-3 3s-3-1.34-3-3 1.34-3 3-3 3 1.34 3 3zm24 0c0 1.66-1.34 3-3 3s-3-1.34-3-3 1.34-3 3-3 3 1.34 3 3zm24 0c0 1.66-1.34 3-3 3s-3-1.34-3-3 1.34-3 3-3 3 1.34 3 3zm24 0c0 1.66-1.34 3-3 3s-3-1.34-3-3 1.34-3 3-3 3 1.34 3 3zm24 0c0 1.66-1.34 3-3 3s-3-1.34-3-3 1.34-3 3-3 3 1.34 3 3zm0 23.92c0 1.66-1.34 3-3 3s-3-1.34-3-3 1.34-3 3-3 3 1.34 3 3zm0 23.92c0 1.66-1.34 3-3 3s-3-1.34-3-3c0-1.65 1.34-3 3-3s3 1.35 3 3zm0 23.92c0 1.66-1.34 3-3 3s-3-1.34-3-3c0-1.65 1.34-3 3-3s3 1.35 3 3zm0 23.93c0 1.64-1.34 3-3 3s-3-1.36-3-3c0-1.67 1.34-3 3-3s3 1.33 3 3zm0 23.9c0 1.66-1.34 3-3 3s-3-1.34-3-3c0-1.65 1.34-3 3-3s3 1.35 3 3zm0 23.93c0 1.66-1.34 3-3 3s-3-1.34-3-3 1.34-3 3-3 3 1.34 3 3zm0 23.92c0 1.66-1.34 3-3 3s-3-1.34-3-3 1.34-3 3-3 3 1.34 3 3zm0 23.92c0 1.66-1.34 3-3 3s-3-1.34-3-3c0-1.65 1.34-3 3-3s3 1.35 3 3zm0 23.92c0 1.65-1.34 3-3 3s-3-1.35-3-3c0-1.66 1.34-3 3-3s3 1.34 3 3zm0 23.92c0 1.65-1.34 3-3 3s-3-1.35-3-3c0-1.66 1.34-3 3-3s3 1.34 3 3zm0 23.92c0 1.65-1.34 3-3 3s-3-1.35-3-3c0-1.66 1.34-3 3-3s3 1.34 3 3zm0 23.92c0 1.66-1.34 3-3 3s-3-1.34-3-3 1.34-3 3-3 3 1.34 3 3zm0 23.92c0 1.66-1.34 3-3 3s-3-1.34-3-3 1.34-3 3-3 3 1.34 3 3zm0 23.92c0 1.66-1.34 3-3 3s-3-1.34-3-3c0-1.65 1.34-3 3-3s3 1.35 3 3zm0 23.92c0 1.66-1.34 3-3 3s-3-1.34-3-3c0-1.65 1.34-3 3-3s3 1.35 3 3zm0 23.93c0 1.65-1.34 3-3 3s-3-1.35-3-3c0-1.66 1.34-3 3-3s3 1.34 3 3zm0 23.92c0 1.65-1.34 3-3 3s-3-1.35-3-3c0-1.66 1.34-3 3-3s3 1.34 3 3zm0 23.92c0 1.65-1.34 3-3 3s-3-1.35-3-3c0-1.67 1.34-3 3-3s3 1.33 3 3zm0 23.9c0 1.67-1.34 3-3 3s-3-1.33-3-3c0-1.65 1.34-3 3-3s3 1.35 3 3zm0 23.93c0 1.66-1.34 3-3 3s-3-1.34-3-3 1.34-3 3-3 3 1.34 3 3zm0 23.92c0 1.66-1.34 3-3 3s-3-1.34-3-3c0-1.65 1.34-3 3-3s3 1.35 3 3zm0 23.92c0 1.66-1.34 3-3 3s-3-1.34-3-3c0-1.65 1.34-3 3-3s3 1.35 3 3zm0 23.93c0 1.65-1.34 3-3 3s-3-1.35-3-3c0-1.66 1.34-3 3-3s3 1.34 3 3zm0 23.92c0 1.65-1.34 3-3 3s-3-1.35-3-3c0-1.66 1.34-3 3-3s3 1.34 3 3zm0 23.92c0 1.66-1.34 3-3 3s-3-1.34-3-3 1.34-3 3-3 3 1.34 3 3zm0 23.92c0 1.66-1.34 3-3 3s-3-1.34-3-3 1.34-3 3-3 3 1.34 3 3zm0 23.92c0 1.66-1.34 3-3 3s-3-1.34-3-3c0-1.65 1.34-3 3-3s3 1.35 3 3zm0 23.92c0 1.66-1.34 3-3 3s-3-1.34-3-3c0-1.65 1.34-3 3-3s3 1.35 3 3zm0 23.93c0 1.65-1.34 3-3 3s-3-1.35-3-3c0-1.66 1.34-3 3-3s3 1.34 3 3zm0 23.92c0 1.65-1.34 3-3 3s-3-1.35-3-3c0-1.66 1.34-3 3-3s3 1.34 3 3zm0 23.92c0 1.66-1.34 3-3 3s-3-1.34-3-3 1.34-3 3-3 3 1.34 3 3zm0 23.92c0 1.65-1.34 3-3 3s-3-1.35-3-3c0-1.67 1.34-3 3-3s3 1.33 3 3zm0 23.9c0 1.67-1.34 3-3 3s-3-1.33-3-3c0-1.65 1.34-3 3-3s3 1.35 3 3zm0 23.93c0 1.66-1.34 3-3 3s-3-1.34-3-3c0-1.65 1.34-3 3-3s3 1.35 3 3zm0 23.92c0 1.66-1.34 3-3 3s-3-1.34-3-3c0-1.65 1.34-3 3-3s3 1.35 3 3zm0 23.93c0 1.65-1.34 3-3 3s-3-1.35-3-3c0-1.66 1.34-3 3-3s3 1.34 3 3zm0 23.92c0 1.65-1.34 3-3 3s-3-1.35-3-3c0-1.66 1.34-3 3-3s3 1.34 3 3zm0 23.92c0 1.66-1.34 3-3 3s-3-1.34-3-3 1.34-3 3-3 3 1.34 3 3zm0 23.92c0 1.66-1.34 3-3 3s-3-1.34-3-3 1.34-3 3-3 3 1.34 3 3zm0 23.92c0 1.66-1.34 3-3 3s-3-1.34-3-3c0-1.65 1.34-3 3-3s3 1.35 3 3zm0 23.92c0 1.66-1.34 3-3 3s-3-1.34-3-3c0-1.65 1.34-3 3-3s3 1.35 3 3zm0 23.93c0 1.66-1.34 3-3 3s-3-1.34-3-3c0-1.65 1.34-3 3-3s3 1.35 3 3zm0 23.93c0 1.65-1.34 3-3 3s-3-1.35-3-3c0-1.66 1.34-3 3-3s3 1.34 3 3zm0 23.92c0 1.66-1.34 3-3 3s-3-1.34-3-3 1.34-3 3-3 3 1.34 3 3zm0 23.92c0 1.66-1.34 3-3 3s-3-1.34-3-3 1.34-3 3-3 3 1.34 3 3zm0 23.92c0 1.65-1.34 3-3 3s-3-1.35-3-3c0-1.66 1.34-3 3-3s3 1.34 3 3zm0 23.9c0 1.67-1.34 3-3 3s-3-1.33-3-3c0-1.64 1.34-3 3-3s3 1.36 3 3zm0 23.94c0 1.65-1.34 3-3 3s-3-1.35-3-3c0-1.66 1.34-3 3-3s3 1.34 3 3zm0 23.92c0 1.65-1.34 3-3 3s-3-1.35-3-3c0-1.66 1.34-3 3-3s3 1.34 3 3zm0 23.92c0 1.66-1.34 3-3 3s-3-1.34-3-3 1.34-3 3-3 3 1.34 3 3zm0 23.92c0 1.66-1.34 3-3 3s-3-1.34-3-3 1.34-3 3-3 3 1.34 3 3zm-24 0c0 1.66-1.34 3-3 3s-3-1.34-3-3 1.34-3 3-3 3 1.34 3 3zm-24 0c0 1.66-1.34 3-3 3s-3-1.34-3-3 1.34-3 3-3 3 1.34 3 3zm-24 0c0 1.66-1.34 3-3 3s-3-1.34-3-3 1.34-3 3-3 3 1.34 3 3zm-24 0c0 1.66-1.34 3-3 3s-3-1.34-3-3 1.34-3 3-3 3 1.34 3 3zm-24 0c0 1.66-1.34 3-3 3s-3-1.34-3-3 1.34-3 3-3 3 1.34 3 3zm-24 0c0 1.66-1.34 3-3 3s-3-1.34-3-3 1.34-3 3-3 3 1.34 3 3zm-24 0c0 1.66-1.34 3-3 3s-3-1.34-3-3 1.34-3 3-3 3 1.34 3 3zm-24 0c0 1.66-1.34 3-3 3s-3-1.34-3-3 1.34-3 3-3 3 1.34 3 3zm-24 0c0 1.66-1.34 3-3 3s-3-1.34-3-3 1.34-3 3-3 3 1.34 3 3zm-24 0c0 1.66-1.34 3-3 3s-3-1.34-3-3 1.34-3 3-3 3 1.34 3 3zm-24 0c0 1.66-1.34 3-3 3s-3-1.34-3-3 1.34-3 3-3 3 1.34 3 3zm-24 0c0 1.66-1.34 3-3 3s-3-1.34-3-3 1.34-3 3-3 3 1.34 3 3zm-24 0c0 1.66-1.34 3-3 3s-3-1.34-3-3 1.34-3 3-3 3 1.34 3 3zm-24 0c0 1.66-1.34 3-3 3s-3-1.34-3-3 1.34-3 3-3 3 1.34 3 3zm-24 0c0 1.66-1.34 3-3 3s-3-1.34-3-3 1.34-3 3-3 3 1.34 3 3zm-24 0c0 1.66-1.34 3-3 3s-3-1.34-3-3 1.34-3 3-3 3 1.34 3 3zm-24 0c0 1.66-1.34 3-3 3s-3-1.34-3-3 1.34-3 3-3 3 1.34 3 3zm-24 0c0 1.66-1.34 3-3 3s-3-1.34-3-3 1.34-3 3-3 3 1.34 3 3zm-24 0c0 1.66-1.34 3-3 3s-3-1.34-3-3 1.34-3 3-3 3 1.34 3 3zm-24 0c0 1.66-1.34 3-3 3s-3-1.34-3-3 1.34-3 3-3 3 1.34 3 3zm-24 0c0 1.66-1.34 3-3 3s-3-1.34-3-3 1.34-3 3-3 3 1.34 3 3zm-24 0c0 1.66-1.34 3-3 3s-3-1.34-3-3 1.34-3 3-3 3 1.34 3 3zm-24 0c0 1.66-1.34 3-3 3s-3-1.34-3-3 1.34-3 3-3 3 1.34 3 3zm-24 0c0 1.66-1.34 3-3 3s-3-1.34-3-3 1.34-3 3-3 3 1.34 3 3zm-24 0c0 1.66-1.34 3-3 3s-3-1.34-3-3 1.34-3 3-3 3 1.34 3 3zm-24 0c0 1.66-1.34 3-3 3s-3-1.34-3-3 1.34-3 3-3 3 1.34 3 3zm-24 0c0 1.66-1.34 3-3 3s-3-1.34-3-3 1.34-3 3-3 3 1.34 3 3zm-24 0c0 1.66-1.34 3-3 3s-3-1.34-3-3 1.34-3 3-3 3 1.34 3 3zm-24 0c0 1.66-1.34 3-3 3s-3-1.34-3-3 1.34-3 3-3 3 1.34 3 3zm-24 0c0 1.66-1.34 3-3 3s-3-1.34-3-3 1.34-3 3-3 3 1.34 3 3zm-24 0c0 1.66-1.34 3-3 3s-3-1.34-3-3 1.34-3 3-3 3 1.34 3 3zm-24 0c0 1.66-1.34 3-3 3s-3-1.34-3-3 1.34-3 3-3 3 1.34 3 3zm-24 0c0 1.66-1.34 3-3 3s-3-1.34-3-3 1.34-3 3-3 3 1.34 3 3zm-24 0c0 1.66-1.34 3-3 3s-3-1.34-3-3 1.34-3 3-3 3 1.34 3 3zm-24 0c0 1.66-1.34 3-3 3s-3-1.34-3-3 1.34-3 3-3 3 1.34 3 3zm-24 0c0 1.66-1.34 3-3 3s-3-1.34-3-3 1.34-3 3-3 3 1.34 3 3zm-24 0c0 1.66-1.34 3-3 3s-3-1.34-3-3 1.34-3 3-3 3 1.34 3 3zm-24 0c0 1.66-1.34 3-3 3s-3-1.34-3-3 1.34-3 3-3 3 1.34 3 3zm-24 0c0 1.66-1.34 3-3 3s-3-1.34-3-3 1.34-3 3-3 3 1.34 3 3zm-24 0c0 1.66-1.34 3-3 3s-3-1.34-3-3 1.34-3 3-3 3 1.34 3 3zm-24 0c0 1.66-1.34 3-3 3s-3-1.34-3-3 1.34-3 3-3 3 1.34 3 3zm-24 0c0 1.66-1.34 3-3 3s-3-1.34-3-3 1.34-3 3-3 3 1.34 3 3zm-24 0c0 1.66-1.34 3-3 3s-3-1.34-3-3 1.34-3 3-3 3 1.34 3 3zm-24 0c0 1.66-1.34 3-3 3s-3-1.34-3-3 1.34-3 3-3 3 1.34 3 3zm-24 0c0 1.66-1.34 3-3 3s-3-1.34-3-3 1.34-3 3-3 3 1.34 3 3zm-24 0c0 1.66-1.34 3-3 3s-3-1.34-3-3 1.34-3 3-3 3 1.34 3 3zm-24 0c0 1.66-1.34 3-3 3s-3-1.34-3-3 1.34-3 3-3 3 1.34 3 3zm-24 0c0 1.66-1.34 3-3 3s-3-1.34-3-3 1.34-3 3-3 3 1.34 3 3zm-24 0c0 1.66-1.34 3-3 3s-3-1.34-3-3 1.34-3 3-3 3 1.34 3 3zm-24 0c0 1.66-1.34 3-3 3s-3-1.34-3-3 1.34-3 3-3 3 1.34 3 3zm0-23.92c0 1.66-1.34 3-3 3s-3-1.34-3-3 1.34-3 3-3 3 1.34 3 3zm0-23.92c0 1.65-1.34 3-3 3s-3-1.35-3-3c0-1.66 1.34-3 3-3s3 1.34 3 3zm0-23.92c0 1.65-1.34 3-3 3s-3-1.35-3-3c0-1.66 1.34-3 3-3s3 1.34 3 3zm0-23.93c0 1.67-1.34 3-3 3s-3-1.33-3-3c0-1.64 1.34-3 3-3s3 1.36 3 3zm0-23.9c0 1.65-1.34 3-3 3s-3-1.35-3-3c0-1.66 1.34-3 3-3s3 1.34 3 3zm0-23.93c0 1.66-1.34 3-3 3s-3-1.34-3-3 1.34-3 3-3 3 1.34 3 3zm0-23.92c0 1.66-1.34 3-3 3s-3-1.34-3-3 1.34-3 3-3 3 1.34 3 3zm0-23.92c0 1.65-1.34 3-3 3s-3-1.35-3-3c0-1.66 1.34-3 3-3s3 1.34 3 3zm0-23.92c0 1.66-1.34 3-3 3s-3-1.34-3-3c0-1.65 1.34-3 3-3s3 1.35 3 3zm0-23.92c0 1.66-1.34 3-3 3s-3-1.34-3-3c0-1.65 1.34-3 3-3s3 1.35 3 3zm0-23.92c0 1.66-1.34 3-3 3s-3-1.34-3-3c0-1.65 1.34-3 3-3s3 1.35 3 3zm0-23.92c0 1.66-1.34 3-3 3s-3-1.34-3-3 1.34-3 3-3 3 1.34 3 3zm0-23.92c0 1.66-1.34 3-3 3s-3-1.34-3-3 1.34-3 3-3 3 1.34 3 3zm0-23.92c0 1.65-1.34 3-3 3s-3-1.35-3-3c0-1.66 1.34-3 3-3s3 1.34 3 3zm0-23.92c0 1.65-1.34 3-3 3s-3-1.35-3-3c0-1.66 1.34-3 3-3s3 1.34 3 3zm0-23.93c0 1.66-1.34 3-3 3s-3-1.34-3-3c0-1.65 1.34-3 3-3s3 1.35 3 3zm0-23.92c0 1.66-1.34 3-3 3s-3-1.34-3-3c0-1.65 1.34-3 3-3s3 1.35 3 3zm0-23.92c0 1.67-1.34 3-3 3s-3-1.33-3-3c0-1.65 1.34-3 3-3s3 1.35 3 3zm0-23.9c0 1.65-1.34 3-3 3s-3-1.35-3-3c0-1.67 1.34-3 3-3s3 1.33 3 3zm0-23.93c0 1.66-1.34 3-3 3s-3-1.34-3-3 1.34-3 3-3 3 1.34 3 3zm0-23.92c0 1.65-1.34 3-3 3s-3-1.35-3-3c0-1.66 1.34-3 3-3s3 1.34 3 3zm0-23.92c0 1.65-1.34 3-3 3s-3-1.35-3-3c0-1.66 1.34-3 3-3s3 1.34 3 3zm0-23.93c0 1.66-1.34 3-3 3s-3-1.34-3-3c0-1.65 1.34-3 3-3s3 1.35 3 3zm0-23.92c0 1.66-1.34 3-3 3s-3-1.34-3-3c0-1.65 1.34-3 3-3s3 1.35 3 3zm0-23.92c0 1.66-1.34 3-3 3s-3-1.34-3-3 1.34-3 3-3 3 1.34 3 3zm0-23.92c0 1.66-1.34 3-3 3s-3-1.34-3-3 1.34-3 3-3 3 1.34 3 3zm0-23.92c0 1.65-1.34 3-3 3s-3-1.35-3-3c0-1.66 1.34-3 3-3s3 1.34 3 3zm0-23.92c0 1.65-1.34 3-3 3s-3-1.35-3-3c0-1.66 1.34-3 3-3s3 1.34 3 3zm0-23.93c0 1.66-1.34 3-3 3s-3-1.34-3-3c0-1.65 1.34-3 3-3s3 1.35 3 3zm0-23.92c0 1.66-1.34 3-3 3s-3-1.34-3-3c0-1.65 1.34-3 3-3s3 1.35 3 3zm0-23.92c0 1.66-1.34 3-3 3s-3-1.34-3-3 1.34-3 3-3 3 1.34 3 3zm0-23.92c0 1.67-1.34 3-3 3s-3-1.33-3-3c0-1.65 1.34-3 3-3s3 1.35 3 3zm0-23.9c0 1.65-1.34 3-3 3s-3-1.35-3-3c0-1.67 1.34-3 3-3s3 1.33 3 3zm0-23.93c0 1.65-1.34 3-3 3s-3-1.35-3-3c0-1.66 1.34-3 3-3s3 1.34 3 3zm0-23.92c0 1.65-1.34 3-3 3s-3-1.35-3-3c0-1.66 1.34-3 3-3s3 1.34 3 3zm0-23.93c0 1.66-1.34 3-3 3s-3-1.34-3-3c0-1.65 1.34-3 3-3s3 1.35 3 3zm0-23.92c0 1.66-1.34 3-3 3s-3-1.34-3-3c0-1.65 1.34-3 3-3s3 1.35 3 3zm0-23.92c0 1.66-1.34 3-3 3s-3-1.34-3-3 1.34-3 3-3 3 1.34 3 3zm0-23.92c0 1.66-1.34 3-3 3s-3-1.34-3-3 1.34-3 3-3 3 1.34 3 3zm0-23.92c0 1.65-1.34 3-3 3s-3-1.35-3-3c0-1.66 1.34-3 3-3s3 1.34 3 3zm0-23.92c0 1.65-1.34 3-3 3s-3-1.35-3-3c0-1.66 1.34-3 3-3s3 1.34 3 3zm0-23.93c0 1.65-1.34 3-3 3s-3-1.35-3-3c0-1.66 1.34-3 3-3s3 1.34 3 3zm0-23.93c0 1.66-1.34 3-3 3s-3-1.34-3-3c0-1.65 1.34-3 3-3s3 1.35 3 3zm0-23.92c0 1.66-1.34 3-3 3s-3-1.34-3-3 1.34-3 3-3 3 1.34 3 3zm0-23.92c0 1.66-1.34 3-3 3s-3-1.34-3-3 1.34-3 3-3 3 1.34 3 3zm0-23.92c0 1.66-1.34 3-3 3s-3-1.34-3-3c0-1.65 1.34-3 3-3s3 1.35 3 3zm0-23.9c0 1.64-1.34 3-3 3s-3-1.36-3-3c0-1.67 1.34-3 3-3s3 1.33 3 3zm0-23.94c0 1.66-1.34 3-3 3s-3-1.34-3-3c0-1.65 1.34-3 3-3s3 1.35 3 3zm0-23.92c0 1.66-1.34 3-3 3s-3-1.34-3-3c0-1.65 1.34-3 3-3s3 1.35 3 3zm0-23.92c0 1.66-1.34 3-3 3s-3-1.34-3-3 1.34-3 3-3 3 1.34 3 3zM55 589c0 1.66-1.34 3-3 3s-3-1.34-3-3 1.34-3 3-3 3 1.34 3 3z"
       id="path4642" />
    <use
       xlink:href="#a"
       transform="matrix(1,0,0,1,52,589) translate(457.58024691358025 24.888888888888893)"
       id="use4644" />
    <use
       xlink:href="#b"
       transform="matrix(1,0,0,1,52,589) translate(559.4691358024692 24.888888888888893)"
       id="use4646" />
    <use
       xlink:href="#c"
       transform="matrix(1,0,0,1,52,589) translate(659.4567901234568 24.888888888888893)"
       id="use4648" />
    <path
       d="M32 540h1640v1289H32z"
       fill-opacity="0"
       id="path4650" />
    <path
       d="M35 540c0 1.66-1.34 3-3 3s-3-1.34-3-3 1.34-3 3-3 3 1.34 3 3zm24.12 0c0 1.66-1.35 3-3 3-1.66 0-3-1.34-3-3s1.34-3 3-3c1.65 0 3 1.34 3 3zm24.12 0c0 1.66-1.35 3-3 3-1.66 0-3-1.34-3-3s1.34-3 3-3c1.65 0 3 1.34 3 3zm24.1 0c0 1.66-1.33 3-3 3-1.64 0-3-1.34-3-3s1.36-3 3-3c1.67 0 3 1.34 3 3zm24.13 0c0 1.66-1.34 3-3 3s-3-1.34-3-3 1.34-3 3-3 3 1.34 3 3zm24.12 0c0 1.66-1.35 3-3 3-1.67 0-3-1.34-3-3s1.33-3 3-3c1.65 0 3 1.34 3 3zm24.1 0c0 1.66-1.34 3-3 3-1.65 0-3-1.34-3-3s1.35-3 3-3c1.66 0 3 1.34 3 3zm24.12 0c0 1.66-1.34 3-3 3-1.65 0-3-1.34-3-3s1.35-3 3-3c1.66 0 3 1.34 3 3zm24.12 0c0 1.66-1.34 3-3 3s-3-1.34-3-3 1.34-3 3-3 3 1.34 3 3zm24.12 0c0 1.66-1.34 3-3 3s-3-1.34-3-3 1.34-3 3-3 3 1.34 3 3zm24.12 0c0 1.66-1.35 3-3 3-1.66 0-3-1.34-3-3s1.34-3 3-3c1.65 0 3 1.34 3 3zm24.1 0c0 1.66-1.33 3-3 3-1.64 0-3-1.34-3-3s1.36-3 3-3c1.67 0 3 1.34 3 3zm24.13 0c0 1.66-1.33 3-3 3-1.65 0-3-1.34-3-3s1.35-3 3-3c1.67 0 3 1.34 3 3zm24.13 0c0 1.66-1.34 3-3 3s-3-1.34-3-3 1.34-3 3-3 3 1.34 3 3zm24.12 0c0 1.66-1.35 3-3 3-1.66 0-3-1.34-3-3s1.34-3 3-3c1.65 0 3 1.34 3 3zm24.1 0c0 1.66-1.33 3-3 3-1.64 0-3-1.34-3-3s1.36-3 3-3c1.67 0 3 1.34 3 3zm24.13 0c0 1.66-1.34 3-3 3-1.65 0-3-1.34-3-3s1.35-3 3-3c1.66 0 3 1.34 3 3zm24.12 0c0 1.66-1.34 3-3 3s-3-1.34-3-3 1.34-3 3-3 3 1.34 3 3zm24.12 0c0 1.66-1.35 3-3 3-1.66 0-3-1.34-3-3s1.34-3 3-3c1.65 0 3 1.34 3 3zm24.12 0c0 1.66-1.35 3-3 3-1.66 0-3-1.34-3-3s1.34-3 3-3c1.65 0 3 1.34 3 3zm24.1 0c0 1.66-1.33 3-3 3-1.64 0-3-1.34-3-3s1.36-3 3-3c1.67 0 3 1.34 3 3zm24.13 0c0 1.66-1.34 3-3 3s-3-1.34-3-3 1.34-3 3-3 3 1.34 3 3zm24.12 0c0 1.66-1.35 3-3 3-1.67 0-3-1.34-3-3s1.33-3 3-3c1.65 0 3 1.34 3 3zm24.1 0c0 1.66-1.34 3-3 3-1.65 0-3-1.34-3-3s1.35-3 3-3c1.66 0 3 1.34 3 3zm24.12 0c0 1.66-1.34 3-3 3-1.65 0-3-1.34-3-3s1.35-3 3-3c1.66 0 3 1.34 3 3zm24.12 0c0 1.66-1.34 3-3 3s-3-1.34-3-3 1.34-3 3-3 3 1.34 3 3zm24.12 0c0 1.66-1.34 3-3 3s-3-1.34-3-3 1.34-3 3-3 3 1.34 3 3zm24.12 0c0 1.66-1.35 3-3 3-1.66 0-3-1.34-3-3s1.34-3 3-3c1.65 0 3 1.34 3 3zm24.1 0c0 1.66-1.33 3-3 3-1.64 0-3-1.34-3-3s1.36-3 3-3c1.67 0 3 1.34 3 3zm24.13 0c0 1.66-1.33 3-3 3-1.65 0-3-1.34-3-3s1.35-3 3-3c1.67 0 3 1.34 3 3zm24.13 0c0 1.66-1.34 3-3 3s-3-1.34-3-3 1.34-3 3-3 3 1.34 3 3zm24.12 0c0 1.66-1.35 3-3 3-1.66 0-3-1.34-3-3s1.34-3 3-3c1.65 0 3 1.34 3 3zm24.1 0c0 1.66-1.33 3-3 3-1.64 0-3-1.34-3-3s1.36-3 3-3c1.67 0 3 1.34 3 3zm24.13 0c0 1.66-1.34 3-3 3-1.65 0-3-1.34-3-3s1.35-3 3-3c1.66 0 3 1.34 3 3zm24.12 0c0 1.66-1.34 3-3 3s-3-1.34-3-3 1.34-3 3-3 3 1.34 3 3zm24.12 0c0 1.66-1.35 3-3 3-1.66 0-3-1.34-3-3s1.34-3 3-3c1.65 0 3 1.34 3 3zm24.12 0c0 1.66-1.35 3-3 3-1.66 0-3-1.34-3-3s1.34-3 3-3c1.65 0 3 1.34 3 3zm24.1 0c0 1.66-1.33 3-3 3-1.64 0-3-1.34-3-3s1.36-3 3-3c1.67 0 3 1.34 3 3zm24.13 0c0 1.66-1.34 3-3 3s-3-1.34-3-3 1.34-3 3-3 3 1.34 3 3zm24.12 0c0 1.66-1.35 3-3 3-1.67 0-3-1.34-3-3s1.33-3 3-3c1.65 0 3 1.34 3 3zm24.1 0c0 1.66-1.34 3-3 3-1.65 0-3-1.34-3-3s1.35-3 3-3c1.66 0 3 1.34 3 3zm24.12 0c0 1.66-1.34 3-3 3-1.65 0-3-1.34-3-3s1.35-3 3-3c1.66 0 3 1.34 3 3zm24.12 0c0 1.66-1.34 3-3 3s-3-1.34-3-3 1.34-3 3-3 3 1.34 3 3zm24.12 0c0 1.66-1.34 3-3 3s-3-1.34-3-3 1.34-3 3-3 3 1.34 3 3zm24.12 0c0 1.66-1.35 3-3 3-1.66 0-3-1.34-3-3s1.34-3 3-3c1.65 0 3 1.34 3 3zm24.1 0c0 1.66-1.33 3-3 3-1.64 0-3-1.34-3-3s1.36-3 3-3c1.67 0 3 1.34 3 3zm24.13 0c0 1.66-1.33 3-3 3-1.65 0-3-1.34-3-3s1.35-3 3-3c1.67 0 3 1.34 3 3zm24.13 0c0 1.66-1.34 3-3 3s-3-1.34-3-3 1.34-3 3-3 3 1.34 3 3zm24.12 0c0 1.66-1.35 3-3 3-1.66 0-3-1.34-3-3s1.34-3 3-3c1.65 0 3 1.34 3 3zm24.1 0c0 1.66-1.33 3-3 3-1.64 0-3-1.34-3-3s1.36-3 3-3c1.67 0 3 1.34 3 3zm24.13 0c0 1.66-1.34 3-3 3-1.65 0-3-1.34-3-3s1.35-3 3-3c1.66 0 3 1.34 3 3zm24.12 0c0 1.66-1.34 3-3 3s-3-1.34-3-3 1.34-3 3-3 3 1.34 3 3zm24.12 0c0 1.66-1.35 3-3 3-1.66 0-3-1.34-3-3s1.34-3 3-3c1.65 0 3 1.34 3 3zm24.12 0c0 1.66-1.35 3-3 3-1.66 0-3-1.34-3-3s1.34-3 3-3c1.65 0 3 1.34 3 3zm24.1 0c0 1.66-1.33 3-3 3-1.64 0-3-1.34-3-3s1.36-3 3-3c1.67 0 3 1.34 3 3zm24.13 0c0 1.66-1.34 3-3 3s-3-1.34-3-3 1.34-3 3-3 3 1.34 3 3zm24.12 0c0 1.66-1.35 3-3 3-1.67 0-3-1.34-3-3s1.33-3 3-3c1.65 0 3 1.34 3 3zm24.1 0c0 1.66-1.34 3-3 3-1.65 0-3-1.34-3-3s1.35-3 3-3c1.66 0 3 1.34 3 3zm24.12 0c0 1.66-1.34 3-3 3-1.65 0-3-1.34-3-3s1.35-3 3-3c1.66 0 3 1.34 3 3zm24.12 0c0 1.66-1.34 3-3 3s-3-1.34-3-3 1.34-3 3-3 3 1.34 3 3zm24.12 0c0 1.66-1.34 3-3 3s-3-1.34-3-3 1.34-3 3-3 3 1.34 3 3zm24.12 0c0 1.66-1.35 3-3 3-1.66 0-3-1.34-3-3s1.34-3 3-3c1.65 0 3 1.34 3 3zm24.1 0c0 1.66-1.33 3-3 3-1.64 0-3-1.34-3-3s1.36-3 3-3c1.67 0 3 1.34 3 3zm24.13 0c0 1.66-1.33 3-3 3-1.65 0-3-1.34-3-3s1.35-3 3-3c1.67 0 3 1.34 3 3zm24.13 0c0 1.66-1.34 3-3 3s-3-1.34-3-3 1.34-3 3-3 3 1.34 3 3zm24.12 0c0 1.66-1.35 3-3 3-1.66 0-3-1.34-3-3s1.34-3 3-3c1.65 0 3 1.34 3 3zm24.1 0c0 1.66-1.33 3-3 3-1.64 0-3-1.34-3-3s1.36-3 3-3c1.67 0 3 1.34 3 3zm24.13 0c0 1.66-1.34 3-3 3-1.65 0-3-1.34-3-3s1.35-3 3-3c1.66 0 3 1.34 3 3zm24.12 0c0 1.66-1.34 3-3 3s-3-1.34-3-3 1.34-3 3-3 3 1.34 3 3zm0 23.87c0 1.66-1.34 3-3 3s-3-1.34-3-3 1.34-3 3-3 3 1.34 3 3zm0 23.87c0 1.66-1.34 3-3 3s-3-1.34-3-3 1.34-3 3-3 3 1.34 3 3zm0 23.87c0 1.67-1.34 3-3 3s-3-1.33-3-3c0-1.65 1.34-3 3-3s3 1.35 3 3zm0 23.88c0 1.66-1.34 3-3 3s-3-1.34-3-3 1.34-3 3-3 3 1.34 3 3zm0 23.87c0 1.66-1.34 3-3 3s-3-1.34-3-3 1.34-3 3-3 3 1.34 3 3zm0 23.87c0 1.66-1.34 3-3 3s-3-1.34-3-3c0-1.65 1.34-3 3-3s3 1.35 3 3zm0 23.87c0 1.65-1.34 3-3 3s-3-1.35-3-3c0-1.66 1.34-3 3-3s3 1.34 3 3zm0 23.86c0 1.66-1.34 3-3 3s-3-1.34-3-3c0-1.65 1.34-3 3-3s3 1.35 3 3zm0 23.87c0 1.66-1.34 3-3 3s-3-1.34-3-3c0-1.65 1.34-3 3-3s3 1.35 3 3zm0 23.87c0 1.66-1.34 3-3 3s-3-1.34-3-3c0-1.65 1.34-3 3-3s3 1.35 3 3zm0 23.87c0 1.66-1.34 3-3 3s-3-1.34-3-3c0-1.65 1.34-3 3-3s3 1.35 3 3zm0 23.87c0 1.66-1.34 3-3 3s-3-1.34-3-3c0-1.65 1.34-3 3-3s3 1.35 3 3zm0 23.87c0 1.67-1.34 3-3 3s-3-1.33-3-3c0-1.64 1.34-3 3-3s3 1.36 3 3zm0 23.9c0 1.64-1.34 3-3 3s-3-1.36-3-3c0-1.67 1.34-3 3-3s3 1.33 3 3zm0 23.86c0 1.65-1.34 3-3 3s-3-1.35-3-3c0-1.66 1.34-3 3-3s3 1.34 3 3zm0 23.87c0 1.65-1.34 3-3 3s-3-1.35-3-3c0-1.66 1.34-3 3-3s3 1.34 3 3zm0 23.87c0 1.65-1.34 3-3 3s-3-1.35-3-3c0-1.66 1.34-3 3-3s3 1.34 3 3zm0 23.87c0 1.65-1.34 3-3 3s-3-1.35-3-3c0-1.66 1.34-3 3-3s3 1.34 3 3zm0 23.87c0 1.65-1.34 3-3 3s-3-1.35-3-3c0-1.66 1.34-3 3-3s3 1.34 3 3zm0 23.87c0 1.66-1.34 3-3 3s-3-1.34-3-3c0-1.65 1.34-3 3-3s3 1.35 3 3zm0 23.88c0 1.65-1.34 3-3 3s-3-1.35-3-3c0-1.66 1.34-3 3-3s3 1.34 3 3zm0 23.87c0 1.66-1.34 3-3 3s-3-1.34-3-3 1.34-3 3-3 3 1.34 3 3zm0 23.87c0 1.66-1.34 3-3 3s-3-1.34-3-3 1.34-3 3-3 3 1.34 3 3zm0 23.87c0 1.65-1.34 3-3 3s-3-1.35-3-3c0-1.67 1.34-3 3-3s3 1.33 3 3zm0 23.86c0 1.66-1.34 3-3 3s-3-1.34-3-3 1.34-3 3-3 3 1.34 3 3zm0 23.87c0 1.66-1.34 3-3 3s-3-1.34-3-3 1.34-3 3-3 3 1.34 3 3zm0 23.87c0 1.66-1.34 3-3 3s-3-1.34-3-3 1.34-3 3-3 3 1.34 3 3zm0 23.87c0 1.66-1.34 3-3 3s-3-1.34-3-3 1.34-3 3-3 3 1.34 3 3zm0 23.87c0 1.66-1.34 3-3 3s-3-1.34-3-3 1.34-3 3-3 3 1.34 3 3zm0 23.87c0 1.67-1.34 3-3 3s-3-1.33-3-3c0-1.65 1.34-3 3-3s3 1.35 3 3zm0 23.88c0 1.66-1.34 3-3 3s-3-1.34-3-3 1.34-3 3-3 3 1.34 3 3zm0 23.87c0 1.66-1.34 3-3 3s-3-1.34-3-3 1.34-3 3-3 3 1.34 3 3zm0 23.87c0 1.66-1.34 3-3 3s-3-1.34-3-3c0-1.65 1.34-3 3-3s3 1.35 3 3zm0 23.87c0 1.65-1.34 3-3 3s-3-1.35-3-3c0-1.66 1.34-3 3-3s3 1.34 3 3zm0 23.86c0 1.66-1.34 3-3 3s-3-1.34-3-3c0-1.65 1.34-3 3-3s3 1.35 3 3zm0 23.87c0 1.66-1.34 3-3 3s-3-1.34-3-3c0-1.65 1.34-3 3-3s3 1.35 3 3zm0 23.87c0 1.66-1.34 3-3 3s-3-1.34-3-3c0-1.65 1.34-3 3-3s3 1.35 3 3zm0 23.87c0 1.66-1.34 3-3 3s-3-1.34-3-3c0-1.65 1.34-3 3-3s3 1.35 3 3zm0 23.87c0 1.66-1.34 3-3 3s-3-1.34-3-3c0-1.65 1.34-3 3-3s3 1.35 3 3zm0 23.87c0 1.67-1.34 3-3 3s-3-1.33-3-3c0-1.64 1.34-3 3-3s3 1.36 3 3zm0 23.9c0 1.64-1.34 3-3 3s-3-1.36-3-3c0-1.67 1.34-3 3-3s3 1.33 3 3zm0 23.86c0 1.65-1.34 3-3 3s-3-1.35-3-3c0-1.66 1.34-3 3-3s3 1.34 3 3zm0 23.87c0 1.65-1.34 3-3 3s-3-1.35-3-3c0-1.66 1.34-3 3-3s3 1.34 3 3zm0 23.87c0 1.65-1.34 3-3 3s-3-1.35-3-3c0-1.66 1.34-3 3-3s3 1.34 3 3zm0 23.87c0 1.65-1.34 3-3 3s-3-1.35-3-3c0-1.66 1.34-3 3-3s3 1.34 3 3zm0 23.87c0 1.65-1.34 3-3 3s-3-1.35-3-3c0-1.66 1.34-3 3-3s3 1.34 3 3zm0 23.87c0 1.66-1.34 3-3 3s-3-1.34-3-3c0-1.65 1.34-3 3-3s3 1.35 3 3zm0 23.88c0 1.65-1.34 3-3 3s-3-1.35-3-3c0-1.66 1.34-3 3-3s3 1.34 3 3zm0 23.87c0 1.66-1.34 3-3 3s-3-1.34-3-3 1.34-3 3-3 3 1.34 3 3zm0 23.87c0 1.66-1.34 3-3 3s-3-1.34-3-3 1.34-3 3-3 3 1.34 3 3zm0 23.87c0 1.65-1.34 3-3 3s-3-1.35-3-3c0-1.67 1.34-3 3-3s3 1.33 3 3zm0 23.86c0 1.66-1.34 3-3 3s-3-1.34-3-3 1.34-3 3-3 3 1.34 3 3zm0 23.87c0 1.66-1.34 3-3 3s-3-1.34-3-3 1.34-3 3-3 3 1.34 3 3zm0 23.87c0 1.66-1.34 3-3 3s-3-1.34-3-3 1.34-3 3-3 3 1.34 3 3zm-24.12 0c0 1.66-1.34 3-3 3-1.65 0-3-1.34-3-3s1.35-3 3-3c1.66 0 3 1.34 3 3zm-24.12 0c0 1.66-1.34 3-3 3-1.65 0-3-1.34-3-3s1.35-3 3-3c1.66 0 3 1.34 3 3zm-24.1 0c0 1.66-1.36 3-3 3-1.67 0-3-1.34-3-3s1.33-3 3-3c1.64 0 3 1.34 3 3zm-24.13 0c0 1.66-1.34 3-3 3s-3-1.34-3-3 1.34-3 3-3 3 1.34 3 3zm-24.12 0c0 1.66-1.33 3-3 3-1.65 0-3-1.34-3-3s1.35-3 3-3c1.67 0 3 1.34 3 3zm-24.1 0c0 1.66-1.35 3-3 3-1.66 0-3-1.34-3-3s1.34-3 3-3c1.65 0 3 1.34 3 3zm-24.12 0c0 1.66-1.35 3-3 3-1.66 0-3-1.34-3-3s1.34-3 3-3c1.65 0 3 1.34 3 3zm-24.12 0c0 1.66-1.34 3-3 3s-3-1.34-3-3 1.34-3 3-3 3 1.34 3 3zm-24.12 0c0 1.66-1.34 3-3 3s-3-1.34-3-3 1.34-3 3-3 3 1.34 3 3zm-24.12 0c0 1.66-1.34 3-3 3-1.65 0-3-1.34-3-3s1.35-3 3-3c1.66 0 3 1.34 3 3zm-24.1 0c0 1.66-1.36 3-3 3-1.67 0-3-1.34-3-3s1.33-3 3-3c1.64 0 3 1.34 3 3zm-24.13 0c0 1.66-1.35 3-3 3-1.67 0-3-1.34-3-3s1.33-3 3-3c1.65 0 3 1.34 3 3zm-24.13 0c0 1.66-1.34 3-3 3s-3-1.34-3-3 1.34-3 3-3 3 1.34 3 3zm-24.12 0c0 1.66-1.34 3-3 3-1.65 0-3-1.34-3-3s1.35-3 3-3c1.66 0 3 1.34 3 3zm-24.1 0c0 1.66-1.36 3-3 3-1.67 0-3-1.34-3-3s1.33-3 3-3c1.64 0 3 1.34 3 3zm-24.13 0c0 1.66-1.35 3-3 3-1.66 0-3-1.34-3-3s1.34-3 3-3c1.65 0 3 1.34 3 3zm-24.12 0c0 1.66-1.34 3-3 3s-3-1.34-3-3 1.34-3 3-3 3 1.34 3 3zm-24.12 0c0 1.66-1.34 3-3 3-1.65 0-3-1.34-3-3s1.35-3 3-3c1.66 0 3 1.34 3 3zm-24.12 0c0 1.66-1.34 3-3 3-1.65 0-3-1.34-3-3s1.35-3 3-3c1.66 0 3 1.34 3 3zm-24.1 0c0 1.66-1.36 3-3 3-1.67 0-3-1.34-3-3s1.33-3 3-3c1.64 0 3 1.34 3 3zm-24.13 0c0 1.66-1.34 3-3 3s-3-1.34-3-3 1.34-3 3-3 3 1.34 3 3zm-24.12 0c0 1.66-1.33 3-3 3-1.65 0-3-1.34-3-3s1.35-3 3-3c1.67 0 3 1.34 3 3zm-24.1 0c0 1.66-1.35 3-3 3-1.66 0-3-1.34-3-3s1.34-3 3-3c1.65 0 3 1.34 3 3zm-24.12 0c0 1.66-1.35 3-3 3-1.66 0-3-1.34-3-3s1.34-3 3-3c1.65 0 3 1.34 3 3zm-24.12 0c0 1.66-1.34 3-3 3s-3-1.34-3-3 1.34-3 3-3 3 1.34 3 3zm-24.12 0c0 1.66-1.34 3-3 3s-3-1.34-3-3 1.34-3 3-3 3 1.34 3 3zm-24.12 0c0 1.66-1.34 3-3 3-1.65 0-3-1.34-3-3s1.35-3 3-3c1.66 0 3 1.34 3 3zm-24.1 0c0 1.66-1.36 3-3 3-1.67 0-3-1.34-3-3s1.33-3 3-3c1.64 0 3 1.34 3 3zm-24.13 0c0 1.66-1.35 3-3 3-1.67 0-3-1.34-3-3s1.33-3 3-3c1.65 0 3 1.34 3 3zm-24.13 0c0 1.66-1.34 3-3 3s-3-1.34-3-3 1.34-3 3-3 3 1.34 3 3zm-24.12 0c0 1.66-1.34 3-3 3-1.65 0-3-1.34-3-3s1.35-3 3-3c1.66 0 3 1.34 3 3zm-24.1 0c0 1.66-1.36 3-3 3-1.67 0-3-1.34-3-3s1.33-3 3-3c1.64 0 3 1.34 3 3zm-24.13 0c0 1.66-1.35 3-3 3-1.66 0-3-1.34-3-3s1.34-3 3-3c1.65 0 3 1.34 3 3zm-24.12 0c0 1.66-1.34 3-3 3s-3-1.34-3-3 1.34-3 3-3 3 1.34 3 3zm-24.12 0c0 1.66-1.34 3-3 3-1.65 0-3-1.34-3-3s1.35-3 3-3c1.66 0 3 1.34 3 3zm-24.12 0c0 1.66-1.34 3-3 3-1.65 0-3-1.34-3-3s1.35-3 3-3c1.66 0 3 1.34 3 3zm-24.1 0c0 1.66-1.36 3-3 3-1.67 0-3-1.34-3-3s1.33-3 3-3c1.64 0 3 1.34 3 3zm-24.13 0c0 1.66-1.34 3-3 3s-3-1.34-3-3 1.34-3 3-3 3 1.34 3 3zm-24.12 0c0 1.66-1.33 3-3 3-1.65 0-3-1.34-3-3s1.35-3 3-3c1.67 0 3 1.34 3 3zm-24.1 0c0 1.66-1.35 3-3 3-1.66 0-3-1.34-3-3s1.34-3 3-3c1.65 0 3 1.34 3 3zm-24.12 0c0 1.66-1.35 3-3 3-1.66 0-3-1.34-3-3s1.34-3 3-3c1.65 0 3 1.34 3 3zm-24.12 0c0 1.66-1.34 3-3 3s-3-1.34-3-3 1.34-3 3-3 3 1.34 3 3zm-24.12 0c0 1.66-1.34 3-3 3s-3-1.34-3-3 1.34-3 3-3 3 1.34 3 3zm-24.12 0c0 1.66-1.34 3-3 3-1.65 0-3-1.34-3-3s1.35-3 3-3c1.66 0 3 1.34 3 3zm-24.1 0c0 1.66-1.36 3-3 3-1.67 0-3-1.34-3-3s1.33-3 3-3c1.64 0 3 1.34 3 3zm-24.13 0c0 1.66-1.35 3-3 3-1.67 0-3-1.34-3-3s1.33-3 3-3c1.65 0 3 1.34 3 3zm-24.13 0c0 1.66-1.34 3-3 3s-3-1.34-3-3 1.34-3 3-3 3 1.34 3 3zm-24.12 0c0 1.66-1.34 3-3 3-1.65 0-3-1.34-3-3s1.35-3 3-3c1.66 0 3 1.34 3 3zm-24.1 0c0 1.66-1.36 3-3 3-1.67 0-3-1.34-3-3s1.33-3 3-3c1.64 0 3 1.34 3 3zm-24.13 0c0 1.66-1.35 3-3 3-1.66 0-3-1.34-3-3s1.34-3 3-3c1.65 0 3 1.34 3 3zm-24.12 0c0 1.66-1.34 3-3 3s-3-1.34-3-3 1.34-3 3-3 3 1.34 3 3zm-24.12 0c0 1.66-1.34 3-3 3-1.65 0-3-1.34-3-3s1.35-3 3-3c1.66 0 3 1.34 3 3zm-24.12 0c0 1.66-1.34 3-3 3-1.65 0-3-1.34-3-3s1.35-3 3-3c1.66 0 3 1.34 3 3zm-24.1 0c0 1.66-1.36 3-3 3-1.67 0-3-1.34-3-3s1.33-3 3-3c1.64 0 3 1.34 3 3zm-24.13 0c0 1.66-1.34 3-3 3s-3-1.34-3-3 1.34-3 3-3 3 1.34 3 3zm-24.12 0c0 1.66-1.33 3-3 3-1.65 0-3-1.34-3-3s1.35-3 3-3c1.67 0 3 1.34 3 3zm-24.1 0c0 1.66-1.35 3-3 3-1.66 0-3-1.34-3-3s1.34-3 3-3c1.65 0 3 1.34 3 3zm-24.12 0c0 1.66-1.35 3-3 3-1.66 0-3-1.34-3-3s1.34-3 3-3c1.65 0 3 1.34 3 3zm-24.12 0c0 1.66-1.34 3-3 3s-3-1.34-3-3 1.34-3 3-3 3 1.34 3 3zm-24.12 0c0 1.66-1.34 3-3 3s-3-1.34-3-3 1.34-3 3-3 3 1.34 3 3zm-24.12 0c0 1.66-1.34 3-3 3-1.65 0-3-1.34-3-3s1.35-3 3-3c1.66 0 3 1.34 3 3zm-24.1 0c0 1.66-1.36 3-3 3-1.67 0-3-1.34-3-3s1.33-3 3-3c1.64 0 3 1.34 3 3zm-24.13 0c0 1.66-1.35 3-3 3-1.67 0-3-1.34-3-3s1.33-3 3-3c1.65 0 3 1.34 3 3zm-24.13 0c0 1.66-1.34 3-3 3s-3-1.34-3-3 1.34-3 3-3 3 1.34 3 3zm-24.12 0c0 1.66-1.34 3-3 3-1.65 0-3-1.34-3-3s1.35-3 3-3c1.66 0 3 1.34 3 3zm-24.1 0c0 1.66-1.36 3-3 3-1.67 0-3-1.34-3-3s1.33-3 3-3c1.64 0 3 1.34 3 3zm-24.13 0c0 1.66-1.35 3-3 3-1.66 0-3-1.34-3-3s1.34-3 3-3c1.65 0 3 1.34 3 3zM35 1829c0 1.66-1.34 3-3 3s-3-1.34-3-3 1.34-3 3-3 3 1.34 3 3zm0-23.87c0 1.66-1.34 3-3 3s-3-1.34-3-3 1.34-3 3-3 3 1.34 3 3zm0-23.87c0 1.66-1.34 3-3 3s-3-1.34-3-3 1.34-3 3-3 3 1.34 3 3zm0-23.87c0 1.65-1.34 3-3 3s-3-1.35-3-3c0-1.67 1.34-3 3-3s3 1.33 3 3zm0-23.88c0 1.66-1.34 3-3 3s-3-1.34-3-3 1.34-3 3-3 3 1.34 3 3zm0-23.87c0 1.66-1.34 3-3 3s-3-1.34-3-3 1.34-3 3-3 3 1.34 3 3zm0-23.87c0 1.65-1.34 3-3 3s-3-1.35-3-3c0-1.66 1.34-3 3-3s3 1.34 3 3zm0-23.87c0 1.66-1.34 3-3 3s-3-1.34-3-3c0-1.65 1.34-3 3-3s3 1.35 3 3zm0-23.86c0 1.65-1.34 3-3 3s-3-1.35-3-3c0-1.66 1.34-3 3-3s3 1.34 3 3zm0-23.87c0 1.65-1.34 3-3 3s-3-1.35-3-3c0-1.66 1.34-3 3-3s3 1.34 3 3zm0-23.87c0 1.65-1.34 3-3 3s-3-1.35-3-3c0-1.66 1.34-3 3-3s3 1.34 3 3zm0-23.87c0 1.65-1.34 3-3 3s-3-1.35-3-3c0-1.66 1.34-3 3-3s3 1.34 3 3zm0-23.87c0 1.65-1.34 3-3 3s-3-1.35-3-3c0-1.66 1.34-3 3-3s3 1.34 3 3zm0-23.87c0 1.64-1.34 3-3 3s-3-1.36-3-3c0-1.67 1.34-3 3-3s3 1.33 3 3zm0-23.9c0 1.67-1.34 3-3 3s-3-1.33-3-3c0-1.64 1.34-3 3-3s3 1.36 3 3zm0-23.86c0 1.66-1.34 3-3 3s-3-1.34-3-3c0-1.65 1.34-3 3-3s3 1.35 3 3zm0-23.87c0 1.66-1.34 3-3 3s-3-1.34-3-3c0-1.65 1.34-3 3-3s3 1.35 3 3zm0-23.87c0 1.66-1.34 3-3 3s-3-1.34-3-3c0-1.65 1.34-3 3-3s3 1.35 3 3zm0-23.87c0 1.66-1.34 3-3 3s-3-1.34-3-3c0-1.65 1.34-3 3-3s3 1.35 3 3zm0-23.87c0 1.66-1.34 3-3 3s-3-1.34-3-3c0-1.65 1.34-3 3-3s3 1.35 3 3zm0-23.87c0 1.65-1.34 3-3 3s-3-1.35-3-3c0-1.66 1.34-3 3-3s3 1.34 3 3zm0-23.88c0 1.66-1.34 3-3 3s-3-1.34-3-3c0-1.65 1.34-3 3-3s3 1.35 3 3zm0-23.87c0 1.66-1.34 3-3 3s-3-1.34-3-3 1.34-3 3-3 3 1.34 3 3zm0-23.87c0 1.66-1.34 3-3 3s-3-1.34-3-3 1.34-3 3-3 3 1.34 3 3zm0-23.87c0 1.67-1.34 3-3 3s-3-1.33-3-3c0-1.65 1.34-3 3-3s3 1.35 3 3zm0-23.86c0 1.66-1.34 3-3 3s-3-1.34-3-3 1.34-3 3-3 3 1.34 3 3zm0-23.87c0 1.66-1.34 3-3 3s-3-1.34-3-3 1.34-3 3-3 3 1.34 3 3zm0-23.87c0 1.66-1.34 3-3 3s-3-1.34-3-3 1.34-3 3-3 3 1.34 3 3zm0-23.87c0 1.66-1.34 3-3 3s-3-1.34-3-3 1.34-3 3-3 3 1.34 3 3zm0-23.87c0 1.66-1.34 3-3 3s-3-1.34-3-3 1.34-3 3-3 3 1.34 3 3zm0-23.87c0 1.65-1.34 3-3 3s-3-1.35-3-3c0-1.67 1.34-3 3-3s3 1.33 3 3zm0-23.88c0 1.66-1.34 3-3 3s-3-1.34-3-3 1.34-3 3-3 3 1.34 3 3zm0-23.87c0 1.66-1.34 3-3 3s-3-1.34-3-3 1.34-3 3-3 3 1.34 3 3zm0-23.87c0 1.65-1.34 3-3 3s-3-1.35-3-3c0-1.66 1.34-3 3-3s3 1.34 3 3zm0-23.87c0 1.66-1.34 3-3 3s-3-1.34-3-3c0-1.65 1.34-3 3-3s3 1.35 3 3zm0-23.86c0 1.65-1.34 3-3 3s-3-1.35-3-3c0-1.66 1.34-3 3-3s3 1.34 3 3zm0-23.87c0 1.65-1.34 3-3 3s-3-1.35-3-3c0-1.66 1.34-3 3-3s3 1.34 3 3zm0-23.87c0 1.65-1.34 3-3 3s-3-1.35-3-3c0-1.66 1.34-3 3-3s3 1.34 3 3zm0-23.87c0 1.65-1.34 3-3 3s-3-1.35-3-3c0-1.66 1.34-3 3-3s3 1.34 3 3zm0-23.87c0 1.65-1.34 3-3 3s-3-1.35-3-3c0-1.66 1.34-3 3-3s3 1.34 3 3zm0-23.87c0 1.64-1.34 3-3 3s-3-1.36-3-3c0-1.67 1.34-3 3-3s3 1.33 3 3zm0-23.9c0 1.67-1.34 3-3 3s-3-1.33-3-3c0-1.64 1.34-3 3-3s3 1.36 3 3zm0-23.86c0 1.66-1.34 3-3 3s-3-1.34-3-3c0-1.65 1.34-3 3-3s3 1.35 3 3zm0-23.87c0 1.66-1.34 3-3 3s-3-1.34-3-3c0-1.65 1.34-3 3-3s3 1.35 3 3zm0-23.87c0 1.66-1.34 3-3 3s-3-1.34-3-3c0-1.65 1.34-3 3-3s3 1.35 3 3zm0-23.87c0 1.66-1.34 3-3 3s-3-1.34-3-3c0-1.65 1.34-3 3-3s3 1.35 3 3zm0-23.87c0 1.66-1.34 3-3 3s-3-1.34-3-3c0-1.65 1.34-3 3-3s3 1.35 3 3zm0-23.87c0 1.65-1.34 3-3 3s-3-1.35-3-3c0-1.66 1.34-3 3-3s3 1.34 3 3zm0-23.88c0 1.66-1.34 3-3 3s-3-1.34-3-3c0-1.65 1.34-3 3-3s3 1.35 3 3zm0-23.87c0 1.66-1.34 3-3 3s-3-1.34-3-3 1.34-3 3-3 3 1.34 3 3zm0-23.87c0 1.66-1.34 3-3 3s-3-1.34-3-3 1.34-3 3-3 3 1.34 3 3zm0-23.87c0 1.67-1.34 3-3 3s-3-1.33-3-3c0-1.65 1.34-3 3-3s3 1.35 3 3zm0-23.86c0 1.66-1.34 3-3 3s-3-1.34-3-3 1.34-3 3-3 3 1.34 3 3zm0-23.87c0 1.66-1.34 3-3 3s-3-1.34-3-3 1.34-3 3-3 3 1.34 3 3zM35 540c0 1.66-1.34 3-3 3s-3-1.34-3-3 1.34-3 3-3 3 1.34 3 3z"
       id="path4652" />
    <use
       xlink:href="#d"
       transform="matrix(1,0,0,1,32,540) translate(698.320987654321 24.888888888888893)"
       id="use4654" />
    <use
       xlink:href="#e"
       transform="matrix(1,0,0,1,32,540) translate(770.7407407407408 24.888888888888893)"
       id="use4656" />
    <use
       xlink:href="#f"
       transform="matrix(1,0,0,1,32,540) translate(862.3456790123457 24.888888888888893)"
       id="use4658" />
    <path
       d="M912 926h320v490H912z"
       fill-opacity="0"
       id="path4660" />
    <path
       d="M931.4 926h19.38m9.7 0h19.4m9.7 0h19.38m9.7 0h19.4m9.7 0h19.4m9.68 0h19.4m9.7 0h19.4m9.7 0h19.38m9.7 0h19.4m9.7 0h19.38m9.7 0h9.7v10.2m0 10.22v20.4m0 10.22v20.42m0 10.2v20.42m0 10.2v20.43m0 10.22v20.4m0 10.22v20.42m0 10.2v20.42m0 10.2v20.43m0 10.22v20.4m0 10.22v20.42m0 10.2v20.42m0 10.2v20.43m0 10.22v20.4m0 10.22v20.42m0 10.2v20.42m0 10.2V1416h-9.7m-9.7 0h-19.4m-9.7 0h-19.38m-9.7 0h-19.4m-9.7 0h-19.4m-9.68 0h-19.4m-9.7 0h-19.4m-9.68 0h-19.4m-9.7 0h-19.4m-9.7 0H960.5m-9.7 0h-19.4m-9.7 0H912v-10.2m0-10.22v-20.4m0-10.22v-20.42m0-10.2v-20.42m0-10.2v-20.43m0-10.22v-20.4m0-10.22v-20.42m0-10.2v-20.42m0-10.2v-20.43m0-10.22v-20.4m0-10.22v-20.42m0-10.2v-20.42m0-10.2v-20.43m0-10.22v-20.4m0-10.22v-20.42m0-10.2V946.4m0-10.2V926h9.7"
       stroke="#000"
       stroke-width="2"
       fill="none"
       id="path4662" />
    <use
       xlink:href="#g"
       transform="matrix(1,0,0,1,911.9952000479998,925.9999999524325) translate(20.086419753086403 24.888888888888893)"
       id="use4664" />
    <use
       xlink:href="#h"
       transform="matrix(1,0,0,1,911.9952000479998,925.9999999524325) translate(116.01234567901234 24.888888888888893)"
       id="use4666" />
    <path
       d="M72 1189h780v560H72z"
       fill-opacity="0"
       id="path4668" />
    <path
       d="M92 1189h20m10 0h20m10 0h20m10 0h20m10 0h20m10 0h20m10 0h20m10 0h20m10 0h20m10 0h20m10 0h20m10 0h20m10 0h20m10 0h20m10 0h20m10 0h20m10 0h20m10 0h20m10 0h20m10 0h20m10 0h20m10 0h20m10 0h20m10 0h20m10 0h20m10 0h10v9.82m0 9.83v19.65m0 9.82v19.65m0 9.83v19.65m0 9.82v19.65m0 9.82v19.65m0 9.82v19.65m0 9.82v19.64m0 9.82v19.65m0 9.84v19.65m0 9.8v19.66m0 9.83v19.64m0 9.82v19.65m0 9.83v19.65m0 9.83v19.66m0 9.82v19.65m0 9.82v19.65m0 9.83v19.65m0 9.82v19.65m0 9.83v9.82h-10m-10 0h-20m-10 0h-20m-10 0h-20m-10 0h-20m-10 0h-20m-10 0h-20m-10 0h-20m-10 0h-20m-10 0h-20m-10 0h-20m-10 0h-20m-10 0h-20m-10 0h-20m-10 0h-20m-10 0h-20m-10 0h-20m-10 0h-20m-10 0h-20m-10 0h-20m-10 0h-20m-10 0h-20m-10 0h-20m-10 0h-20m-10 0h-20m-10 0H92m-10 0H72v-9.82m0-9.83v-19.65m0-9.82v-19.65m0-9.83v-19.65m0-9.82v-19.65m0-9.82v-19.65m0-9.82v-19.65m0-9.82v-19.64m0-9.82v-19.65m0-9.84v-19.65m0-9.8v-19.66m0-9.83v-19.64m0-9.82v-19.65m0-9.83v-19.65m0-9.83v-19.66m0-9.82v-19.65m0-9.82v-19.65m0-9.83v-19.65m0-9.82v-19.65m0-9.83V1189h10"
       stroke="#000"
       stroke-width="2"
       fill="none"
       id="path4670" />
    <use
       xlink:href="#g"
       transform="matrix(1,0,0,1,72,1189) translate(274.75925925925924 24.888888888888893)"
       id="use4672" />
    <use
       xlink:href="#i"
       transform="matrix(1,0,0,1,72,1189) translate(370.68518518518516 24.888888888888893)"
       id="use4674" />
    <path
       d="M592 116.33h520v368H592z"
       stroke="#000"
       stroke-width="2"
       fill-opacity="0"
       id="path4676" />
    <path
       d="M72 649h780v520H72z"
       fill-opacity="0"
       id="path4678" />
    <path
       d="M92 649h20m10 0h20m10 0h20m10 0h20m10 0h20m10 0h20m10 0h20m10 0h20m10 0h20m10 0h20m10 0h20m10 0h20m10 0h20m10 0h20m10 0h20m10 0h20m10 0h20m10 0h20m10 0h20m10 0h20m10 0h20m10 0h20m10 0h20m10 0h20m10 0h20m10 0h10v10.2m0 10.2v20.38m0 10.2v20.4m0 10.2v20.38m0 10.2v20.4m0 10.2v20.38m0 10.2v20.4m0 10.18v20.4m0 10.2v20.38m0 10.2v20.4m0 10.2v20.38m0 10.2v20.4m0 10.18v20.4m0 10.2v20.38m0 10.2v20.4m0 10.2V1118m0 10.2v20.4m0 10.18v10.2h-10m-10 0h-20m-10 0h-20m-10 0h-20m-10 0h-20m-10 0h-20m-10 0h-20m-10 0h-20m-10 0h-20m-10 0h-20m-10 0h-20m-10 0h-20m-10 0h-20m-10 0h-20m-10 0h-20m-10 0h-20m-10 0h-20m-10 0h-20m-10 0h-20m-10 0h-20m-10 0h-20m-10 0h-20m-10 0h-20m-10 0h-20m-10 0h-20m-10 0H92m-10 0H72v-10.2m0-10.2v-20.38m0-10.2v-20.4m0-10.2v-20.38m0-10.2v-20.4m0-10.2v-20.38m0-10.2v-20.4m0-10.18v-20.4m0-10.2V914.1m0-10.2v-20.4m0-10.2v-20.38m0-10.2v-20.4m0-10.18v-20.4m0-10.2v-20.38m0-10.2v-20.4m0-10.2V700m0-10.2v-20.4m0-10.18V649h10"
       stroke="#000"
       stroke-width="2"
       fill="none"
       id="path4680" />
    <use
       xlink:href="#g"
       transform="matrix(1,0,0,1,72,649) translate(274.75925925925924 24.888888888888893)"
       id="use4682" />
    <use
       xlink:href="#j"
       transform="matrix(1,0,0,1,72,649) translate(370.68518518518516 24.888888888888893)"
       id="use4684" />
    <path
       d="M412 899c0 16.57-13.43 30-30 30s-30-13.43-30-30 13.43-30 30-30 30 13.43 30 30zm-51.22-21.22l42.44 42.44m-42.44 0l42.44-42.44M232 829c0 22.1-17.9 40-40 40s-40-17.9-40-40 17.9-40 40-40 40 17.9 40 40z"
       stroke="#000"
       stroke-width="2"
       fill-opacity="0"
       id="path4686" />
    <use
       xlink:href="#k"
       transform="matrix(1,0,0,1,152,789) translate(24.416666666666664 44.888888888888886)"
       id="use4688" />
    <path
       d="M312 729c0 22.1-17.9 40-40 40s-40-17.9-40-40 17.9-40 40-40 40 17.9 40 40z"
       stroke="#000"
       stroke-width="2"
       fill-opacity="0"
       id="path4690" />
    <use
       xlink:href="#l"
       transform="matrix(1,0,0,1,232,689) translate(24.416666666666664 44.888888888888886)"
       id="use4692" />
    <path
       d="M232 989c0 22.1-17.9 40-40 40s-40-17.9-40-40 17.9-40 40-40 40 17.9 40 40z"
       stroke="#000"
       stroke-width="2"
       fill-opacity="0"
       id="path4694" />
    <use
       xlink:href="#m"
       transform="matrix(1,0,0,1,152,949) translate(24.416666666666664 44.888888888888886)"
       id="use4696" />
    <path
       d="M352 1080c0 22.1-17.9 40-40 40s-40-17.9-40-40 17.9-40 40-40 40 17.9 40 40z"
       stroke="#000"
       stroke-width="2"
       fill-opacity="0"
       id="path4698" />
    <use
       xlink:href="#n"
       transform="matrix(1,0,0,1,272,1040) translate(24.416666666666664 44.888888888888886)"
       id="use4700" />
    <path
       d="M622 899c0 24.85-20.15 45-45 45s-45-20.15-45-45 20.15-45 45-45 45 20.15 45 45zm-90 0h90m-45-45v90M1012 1169c0 22.1-17.9 40-40 40s-40-17.9-40-40 17.9-40 40-40 40 17.9 40 40zm-68.3-28.3l56.6 56.6m-56.6 0l56.6-56.6"
       stroke="#000"
       stroke-width="2"
       fill-opacity="0"
       id="path4702" />
    <path
       d="M272 769l.03 1.52.1 1.47.17 1.4.22 1.4.28 1.35.34 1.33.4 1.32.47 1.3.54 1.32.6 1.32.7 1.32.77 1.34.88 1.37 1 1.4 1.1 1.46 1.3 1.5 1.47 1.58 1.7 1.68 2 1.78 2.36 1.93 2.87 2.1 3.56 2.4 4.64 2.83 6.57 3.6 12.64 6.16 29.28 13.77 6.57 3.6 4.64 2.82 3.56 2.4 2.86 2.1 2.36 1.94 2 1.78 1.7 1.67 1.46 1.57 1.3 1.5 1.1 1.45 1 1.4.87 1.38.77 1.34.68 1.32.6 1.32.54 1.3.46 1.32.4 1.32.34 1.33.28 1.36.22 1.4.17 1.4.1 1.48.03 1.52"
       stroke="#000"
       stroke-width="2"
       fill="none"
       id="path4704" />
    <path
       d="M279.87 781.77l-9 2.2L272 769z"
       id="path4706" />
    <path
       d="M272 769l1.15-.04 8.3 13.46-11.7 2.84 1.25-16.32zm-.03 13.66l6.33-1.54-5.54-8.97zM382 869l-7.87-12.77 9-2.2z"
       id="path4708" />
    <path
       d="M383 869.08l-1-.08-1.15.04-8.3-13.45 11.7-2.85zm-7.3-12.2l5.54 8.98.8-10.52z"
       id="path4710" />
    <path
       d="M192 869l.05 2.66.15 2.4.23 2.16.3 1.97.34 1.8.4 1.68.43 1.56.47 1.45.5 1.35.54 1.28.58 1.2.6 1.16.64 1.1.66 1.04.7 1 .73.97.8.94.8.9.86.88.9.86.97.83 1.02.82 1.1.8 1.16.77 1.27.75 1.36.75 1.48.73 1.62.72 1.77.7 1.95.68 2.18.66 2.45.6 2.8.6 3.2.55 3.77.47 4.5.38 5.5.22h7l9.62-.42 15.75-1.36 64.52-7.15 10.3-.46L352 899"
       stroke="#000"
       stroke-width="2"
       fill="none"
       id="path4712" />
    <path
       d="M198.57 882.48l-9.18 1.3L192 869z"
       id="path4714" />
    <path
       d="M192 869l1.1-.04 6.98 14.32-11.9 1.68 2.82-16.02zm-1.38 13.6l6.45-.9-4.62-9.5zM352 899l-14.08 5.16-.35-9.26z"
       id="path4716" />
    <path
       d="M352.08 897.98L352 899l.04 1.05-15.07 5.52-.45-12zm-13.22 4.77l9.9-3.63-10.14-2.88z"
       id="path4718" />
    <path
       d="M232 989l8.18-.17 7.34-.46 6.7-.7 6.18-.9 5.8-1.12 5.47-1.28 5.24-1.46 5.08-1.64 4.95-1.84 4.9-2.06 4.88-2.3 4.95-2.58 5.08-2.93 5.3-3.37 5.63-3.92 6.16-4.68 7-5.8 8.4-7.58 11.42-11.2 10.6-11.12"
       stroke="#000"
       stroke-width="2"
       fill="none"
       id="path4720" />
    <path
       d="M246.44 993.07L232 989l14.07-5.2z"
       id="path4722" />
    <path
       d="M247.5 994.4l-15.56-4.38.06-1.02-.04-1.05 15.06-5.56zm-12.26-5.53l10.15 2.86-.27-6.5zM354.74 935.4l-6.7-6.4 13.2-7.12z"
       id="path4724" />
    <path
       d="M362.45 921.65l-7.4 15.42-8.7-8.3 15.04-8.12zm-12.73 7.58l4.72 4.5 4.56-9.5z"
       id="path4726" />
    <path
       d="M340.87 1050.97l4.92-4.86 4.25-4.55 3.73-4.34 3.3-4.18 2.94-4.08 2.65-4 2.4-4 2.2-4 2-4.07 1.83-4.17 1.7-4.33 1.56-4.55 1.45-4.85 1.34-5.28 1.23-5.88 1.1-6.73 1-8.08.83-10.47.6-16.32.1-13.23"
       stroke="#000"
       stroke-width="2"
       fill="none"
       id="path4728" />
    <path
       d="M354.1 1043.9l-13.23 7.07 6.54-13.5z"
       id="path4730" />
    <path
       d="M355.78 1044.12l-15.12 8.1-1-1.07 7.45-15.36zm-12.67 4.5l9.3-4.96-4.7-4.52zM386.48 943.32l-9.27-.1L382 929z"
       id="path4732" />
    <path
       d="M382 929l1.04-.04 4.8 15.37-12.02-.13 5.15-15.3zm-3.4 13.23l6.5.07-3.14-10.06z"
       id="path4734" />
    <path
       d="M412 899h120"
       stroke="#000"
       stroke-width="2"
       fill="none"
       id="path4736" />
    <path
       d="M426.27 903.64L412 899l14.27-4.64z"
       id="path4738" />
    <path
       d="M427.27 905l-15.36-4.98.1-1.02-.04-1.04 15.3-4.97zm-12.03-6l10.03 3.26v-6.52zM532 899l-14.27 4.64v-9.28z"
       id="path4740" />
    <path
       d="M532.06 897.97L532 899v.7l.03.34-15.3 4.97v-12zm-13.33 4.3l10.03-3.27-10.03-3.26z"
       id="path4742" />
    <path
       d="M622 899l5.95.12 5.64.36 5.36.56 5.16.76 4.96.95 4.8 1.13 4.68 1.3 4.56 1.48 4.48 1.67 4.42 1.85 4.37 2.06 4.34 2.28 4.35 2.5 4.37 2.8 4.42 3.06 4.48 3.42 4.6 3.8 4.75 4.28 4.94 4.84 5.2 5.53 5.53 6.42 6 7.6 6.72 9.24 7.85 11.86 10.22 16.93 53.12 95.7 7.72 11.65 6.58 9.07 5.88 7.42 5.4 6.26 5.05 5.4 4.8 4.7 4.6 4.14 4.47 3.7 4.35 3.3 4.27 2.97 4.22 2.68 4.2 2.43 4.18 2.2 4.2 1.97 4.24 1.8 4.3 1.58 4.36 1.42 4.47 1.25 4.6 1.08 4.73.9 4.92.72 5.1.54 5.37.34 5.65.1 5.7-.1"
       stroke="#000"
       stroke-width="2"
       fill="none"
       id="path4744" />
    <path
       d="M636 904.42L622 899l14.5-3.84z"
       id="path4746" />
    <path
       d="M636.9 905.85l-14.96-5.8.06-1.05v-.7l-.03-.33 15.6-4.12zm-11.66-6.67l9.83 3.8.36-6.5zM930.67 1169l-14.34 4.4.14-9.25z"
       id="path4748" />
    <path
       d="M932.04 1168.4l-.04.6.02.63-16.7 5.15.17-12.03zm-14.7 3.65l10.1-3.1-10-3.4z"
       id="path4750" />
    <path
       d="M1072 1046h100v240h-100zM412 1459c0 16.57-13.43 30-30 30s-30-13.43-30-30 13.43-30 30-30 30 13.43 30 30zm-51.22-21.22l42.44 42.44m-42.44 0l42.44-42.44M232 1389c0 22.1-17.9 40-40 40s-40-17.9-40-40 17.9-40 40-40 40 17.9 40 40z"
       stroke="#000"
       stroke-width="2"
       fill-opacity="0"
       id="path4752" />
    <use
       xlink:href="#m"
       transform="matrix(1,0,0,1,152,1349) translate(24.416666666666664 44.888888888888886)"
       id="use4754" />
    <path
       d="M332 1289c0 22.1-17.9 40-40 40s-40-17.9-40-40 17.9-40 40-40 40 17.9 40 40z"
       stroke="#000"
       stroke-width="2"
       fill-opacity="0"
       id="path4756" />
    <use
       xlink:href="#k"
       transform="matrix(1,0,0,1,252,1249) translate(24.416666666666664 44.888888888888886)"
       id="use4758" />
    <path
       d="M232 1549c0 22.1-17.9 40-40 40s-40-17.9-40-40 17.9-40 40-40 40 17.9 40 40z"
       stroke="#000"
       stroke-width="2"
       fill-opacity="0"
       id="path4760" />
    <use
       xlink:href="#n"
       transform="matrix(1,0,0,1,152,1509) translate(24.416666666666664 44.888888888888886)"
       id="use4762" />
    <path
       d="M332 1640c0 22.1-17.9 40-40 40s-40-17.9-40-40 17.9-40 40-40 40 17.9 40 40z"
       stroke="#000"
       stroke-width="2"
       fill-opacity="0"
       id="path4764" />
    <use
       xlink:href="#o"
       transform="matrix(1,0,0,1,252,1600) translate(24.416666666666664 44.888888888888886)"
       id="use4766" />
    <path
       d="M622 1459c0 24.02-20.15 43.5-45 43.5s-45-19.48-45-43.5 20.15-43.5 45-43.5 45 19.48 45 43.5zm-90 0h90m-45-43.5v87"
       stroke="#000"
       stroke-width="2"
       fill-opacity="0"
       id="path4768" />
    <path
       d="M292 1329l.05 2.03.15 1.93.23 1.86.3 1.8.4 1.73.5 1.7.56 1.68.64 1.66.75 1.64.85 1.67.97 1.7 1.1 1.7 1.3 1.77 1.45 1.83 1.7 1.92 2 2.04 2.4 2.2 2.95 2.47 3.77 2.83 5.2 3.52 9.22 5.56 26.18 15.08 5.2 3.52 3.78 2.83 2.94 2.46 2.4 2.2 2 2.05 1.7 1.92 1.47 1.83 1.27 1.77 1.1 1.7.98 1.7.86 1.66.76 1.65.65 1.67.58 1.68.48 1.7.4 1.74.3 1.78.24 1.86.15 1.93.05 2.03"
       stroke="#000"
       stroke-width="2"
       fill="none"
       id="path4770" />
    <path
       d="M299.36 1342.07l-9.1 1.83L292 1329z"
       id="path4772" />
    <path
       d="M292 1329l1.12-.04 7.8 13.82-11.8 2.37 1.88-16.2zm-.58 13.65l6.4-1.3-5.18-9.18zM382 1429l-7.36-13.07 9.1-1.83z"
       id="path4774" />
    <path
       d="M383 1429.08l-1-.08-1.13.04-7.78-13.82 11.78-2.37zm-6.8-12.44l5.16 9.2 1.22-10.5z"
       id="path4776" />
    <path
       d="M192 1429l.05 2.66.15 2.4.23 2.16.3 1.97.34 1.8.4 1.68.43 1.56.47 1.45.5 1.35.54 1.28.58 1.2.6 1.16.64 1.1.66 1.04.7 1 .73.97.8.94.8.9.86.88.9.86.97.83 1.02.82 1.1.8 1.16.77 1.27.75 1.36.75 1.48.73 1.62.72 1.77.7 1.95.68 2.18.66 2.45.6 2.8.6 3.2.55 3.77.47 4.5.38 5.5.22h7l9.62-.42 15.75-1.36 64.52-7.15 10.3-.46 4.06-.04"
       stroke="#000"
       stroke-width="2"
       fill="none"
       id="path4778" />
    <path
       d="M198.57 1442.48l-9.18 1.3L192 1429z"
       id="path4780" />
    <path
       d="M192 1429l1.1-.04 6.98 14.32-11.9 1.68 2.82-16.02zm-1.38 13.6l6.45-.9-4.62-9.5zM352 1459l-14.08 5.16-.35-9.26z"
       id="path4782" />
    <path
       d="M352.08 1457.98L352 1459l.04 1.05-15.07 5.52-.45-12zm-13.22 4.77l9.9-3.63-10.14-2.88z"
       id="path4784" />
    <path
       d="M232 1549l8.18-.17 7.34-.46 6.7-.7 6.18-.9 5.8-1.12 5.47-1.28 5.24-1.46 5.08-1.64 4.95-1.84 4.9-2.06 4.88-2.3 4.95-2.58 5.08-2.93 5.3-3.37 5.63-3.92 6.16-4.68 7-5.8 8.4-7.58 11.42-11.2 10.6-11.12"
       stroke="#000"
       stroke-width="2"
       fill="none"
       id="path4786" />
    <path
       d="M246.44 1553.07L232 1549l14.07-5.2z"
       id="path4788" />
    <path
       d="M247.5 1554.4l-15.56-4.38.06-1.02-.04-1.05 15.06-5.56zm-12.26-5.53l10.15 2.86-.27-6.5zM354.74 1495.4l-6.7-6.4 13.2-7.12z"
       id="path4790" />
    <path
       d="M362.45 1481.65l-7.4 15.42-8.7-8.3 15.04-8.12zm-12.73 7.58l4.72 4.5 4.56-9.5z"
       id="path4792" />
    <path
       d="M310.2 1603.32l2.1-4.33 2.34-4.3 2.6-4.32 2.93-4.4 3.37-4.64 4.04-5.07 5.25-6 9.6-10.03 16.5-16.86 4.3-4.93 3.13-3.93 2.5-3.43 2.08-3.14 1.78-2.96 1.55-2.84 1.36-2.78 1.2-2.75 1.05-2.75.93-2.77.82-2.82.7-2.9.58-3.03.47-3.16.35-3.33.22-3.53.06-3.34"
       stroke="#000"
       stroke-width="2"
       fill="none"
       id="path4794" />
    <path
       d="M321.1 1593.02l-10.9 10.3 2.76-14.74z"
       id="path4796" />
    <path
       d="M322.8 1592.8l-12.42 11.7-1.32-.6 3.18-16.86zm-11.06 7.68l7.67-7.24-5.7-3.13zM385.28 1503.64l-9.23-.87L382 1489z"
       id="path4798" />
    <path
       d="M382 1489l1.02-.04 3.54 15.8-11.97-1.12 6.35-14.73zm-4.48 12.9l6.5.6-2.32-10.28z"
       id="path4800" />
    <path
       d="M412 1459h118.87"
       stroke="#000"
       stroke-width="2"
       fill="none"
       id="path4802" />
    <path
       d="M426.27 1463.64L412 1459l14.27-4.64z"
       id="path4804" />
    <path
       d="M427.27 1465l-15.36-4.98.1-1.02-.04-1.04 15.3-4.97zm-12.03-6l10.03 3.26v-6.52zM530.87 1459l-14.26 4.64v-9.28z"
       id="path4806" />
    <path
       d="M532.04 1458.33l-.04.67v.68l-16.4 5.33v-12zm-14.43 3.93l10.04-3.26-10.03-3.26z"
       id="path4808" />
    <path
       d="M622 1459l5.1-.1 4.9-.3 4.72-.5 4.58-.7 4.47-.84 4.37-1.02 4.3-1.2 4.24-1.38 4.2-1.57 4.2-1.77 4.2-1.98 4.2-2.2 4.28-2.46 4.33-2.76 4.4-3.08 4.55-3.45 4.7-3.88 4.9-4.42 5.17-5.05 5.5-5.86 5.92-6.88 6.53-8.25 7.4-10.2 8.84-13.35 11.9-19.7 58.08-103.94 8.85-13.34 7.4-10.2 6.53-8.26 5.93-6.87 5.48-5.85 5.16-5.05 4.9-4.42 4.7-3.9 4.55-3.44 4.4-3.08 4.34-2.75 4.26-2.45 4.22-2.2 4.2-1.98 4.2-1.76 4.2-1.56 4.24-1.38 4.3-1.2 4.37-1.02 4.46-.85 4.58-.7 4.73-.5 4.9-.3 5.1-.1"
       stroke="#000"
       stroke-width="2"
       fill="none"
       id="path4810" />
    <path
       d="M636.53 1462.73L622 1459l13.95-5.53z"
       id="path4812" />
    <path
       d="M637.62 1464.04l-15.68-4.02.06-1.02v-.65l-.04-.4 14.9-5.9zm-12.4-5.24l10.23 2.6-.4-6.5zM932 1169l-13.95 5.53-.58-9.26z"
       id="path4814" />
    <path
       d="M932.06 1167.98L932 1169l.04 1.06-14.9 5.9-.75-12zm-13.1 5.1l9.8-3.88-10.2-2.62z"
       id="path4816" />
    <path
       d="M492 1640c0 22.1-17.9 40-40 40s-40-17.9-40-40 17.9-40 40-40 40 17.9 40 40z"
       stroke="#000"
       stroke-width="2"
       fill-opacity="0"
       id="path4818" />
    <use
       xlink:href="#p"
       transform="matrix(1,0,0,1,412,1600) translate(24.416666666666664 44.888888888888886)"
       id="use4820" />
    <path
       d="M452 1600l-.17-8.16-.46-7.2-.7-6.53-.9-6-1.1-5.6-1.27-5.37-1.47-5.2-1.7-5.1-1.95-5.14-2.26-5.3-2.67-5.55-3.24-6.06-4.1-6.97-5.68-8.73-9.9-13.84-12.6-16.53"
       stroke="#000"
       stroke-width="2"
       fill="none"
       id="path4822" />
    <path
       d="M452 1600l-5.2-14.07 9.26-.37z"
       id="path4824" />
    <path
       d="M453.02 1600.06L452 1600l-1.05.04-5.57-15.05 12-.5zm-4.8-13.2l3.65 9.9 2.85-10.15zM414.16 1491.27l-7.37 5.62-4.97-14.17z"
       id="path4826" />
    <path
       d="M415.86 1491.23l-9.56 7.3-5.66-16.15 1.16-.9zm-8.6 4.03l5.2-3.95-8.67-6z"
       id="path4828" />
    <path
       d="M442 1269c0 22.1-17.9 40-40 40s-40-17.9-40-40 17.9-40 40-40 40 17.9 40 40z"
       stroke="#000"
       stroke-width="2"
       fill-opacity="0"
       id="path4830" />
    <use
       xlink:href="#l"
       transform="matrix(1,0,0,1,362,1229) translate(24.416666666666664 44.888888888888886)"
       id="use4832" />
    <path
       d="M402 1309l.1 4.8.33 5.14.6 5.64.95 6.44 1.52 7.96 3.2 13.48 6.03 24.1 1.18 6.15.7 4.64.4 3.83.22 3.33.06 2.97-.05 2.7-.16 2.52-.25 2.35-.33 2.23-.42 2.15-.48 2.07-.57 2.02-.64 1.97-.73 1.94-.82 1.93-.9 1.93-1 1.93-1.14 1.95-1.25 1.98-1.4 2.02-1.58 2.08-1.77 2.14-1.8 2"
       stroke="#000"
       stroke-width="2"
       fill="none"
       id="path4834" />
    <path
       d="M407.54 1322.94l-9.26.6L402 1309z"
       id="path4836" />
    <path
       d="M402 1309l1.06-.04 5.9 14.9-12 .76 4.02-15.68zm-2.4 13.45l6.5-.42-3.9-9.8zM414.2 1426.66l-12.2 8.75 4.72-14.23z"
       id="path4838" />
    <path
       d="M415.9 1426.67l-13.98 10.03-1.07-1 5.35-16.15zm-11.98 6.13l8.57-6.15-5.26-3.86z"
       id="path4840" />
    <path
       d="M1012 1169l23.06-.85L1072 1166"
       stroke="#000"
       stroke-width="2"
       fill="none"
       id="path4842" />
    <path
       d="M1026.43 1173.1L1012 1169l14.1-5.16z"
       id="path4844" />
    <path
       d="M1027.48 1174.45l-15.54-4.43.06-1.02-.04-1.05 15.08-5.52zm-12.25-5.57l10.15 2.9-.24-6.52zM1072 1166l-13.98 5.46-.54-9.26z"
       id="path4846" />
    <path
       d="M1072 1164.97v2.1l-14.9 5.82-.7-12zm-13.06 5.06l9.82-3.84-10.2-2.68z"
       id="path4848" />
    <path
       d="M752 214.33c0 22.1-17.9 40-40 40s-40-17.9-40-40 17.9-40 40-40 40 17.9 40 40zm-68.3-28.28l56.6 56.57m-56.6 0l56.6-56.57"
       stroke="#000"
       stroke-width="2"
       fill-opacity="0"
       id="path4850" />
    <path
       d="M752 180h120v68.67H752z"
       stroke="#000"
       stroke-opacity="0"
       stroke-width="2"
       fill-opacity="0"
       id="path4852" />
    <use
       xlink:href="#q"
       transform="matrix(1,0,0,1,757,184.99999999999991) translate(19.28395061728395 19.72222222222222)"
       id="use4854" />
    <use
       xlink:href="#r"
       transform="matrix(1,0,0,1,757,184.99999999999991) translate(19.080246913580247 49.05555555555556)"
       id="use4856" />
    <path
       d="M752 354.33c0 22.1-17.9 40-40 40s-40-17.9-40-40 17.9-40 40-40 40 17.9 40 40zm-80 0h80m-40-40v80"
       stroke="#000"
       stroke-width="2"
       fill-opacity="0"
       id="path4858" />
    <path
       d="M752 304.33h120v98H752z"
       stroke="#000"
       stroke-opacity="0"
       stroke-width="2"
       fill-opacity="0"
       id="path4860" />
    <use
       xlink:href="#s"
       transform="matrix(1,0,0,1,757,309.33333333333337) translate(12.969135802469133 19.555555555555557)"
       id="use4862" />
    <use
       xlink:href="#t"
       transform="matrix(1,0,0,1,757,309.33333333333337) translate(5.466049382716037 48.88888888888889)"
       id="use4864" />
    <use
       xlink:href="#r"
       transform="matrix(1,0,0,1,757,309.33333333333337) translate(19.080246913580247 78.22222222222223)"
       id="use4866" />
    <path
       d="M952 213.33c0 22.1-17.9 40-40 40s-40-17.9-40-40 17.9-40 40-40 40 17.9 40 40z"
       stroke="#000"
       stroke-width="2"
       fill-opacity="0"
       id="path4868" />
    <use
       xlink:href="#u"
       transform="matrix(1,0,0,1,872,173.33333333333337) translate(25.39506172839506 46.22222222222222)"
       id="use4870" />
    <path
       d="M952 180.33h120V249H952z"
       stroke="#000"
       stroke-opacity="0"
       stroke-width="2"
       fill-opacity="0"
       id="path4872" />
    <use
       xlink:href="#v"
       transform="matrix(1,0,0,1,957,185.3333333333334) translate(17.79012345679012 19.72222222222222)"
       id="use4874" />
    <use
       xlink:href="#w"
       transform="matrix(1,0,0,1,957,185.3333333333334) translate(42.132716049382715 49.05555555555556)"
       id="use4876" />
    <path
       d="M892 283.33h40v150h-40z"
       stroke="#000"
       stroke-width="2"
       fill-opacity="0"
       id="path4878" />
    <path
       d="M932 328.53h120v74.8H932z"
       stroke="#000"
       stroke-opacity="0"
       stroke-width="2"
       fill-opacity="0"
       id="path4880" />
    <use
       xlink:href="#x"
       transform="matrix(1,0,0,1,937,333.5333333333334) translate(6.1790123456789985 37.388888888888886)"
       id="use4882" />
    <path
       d="M712 32h240v84.67H712z"
       stroke="#000"
       stroke-opacity="0"
       stroke-width="2"
       fill-opacity="0"
       id="path4884" />
    <use
       xlink:href="#y"
       transform="matrix(1,0,0,1,717,37) translate(36.74691358024691 25.05555555555555)"
       id="use4886" />
    <use
       xlink:href="#z"
       transform="matrix(1,0,0,1,717,37) translate(50.31481481481481 62.38888888888889)"
       id="use4888" />
    <path
       d="M1416 1103c8.84 0 16 28.2 16 63s-7.16 63-16 63h-128c-8.84 0-16-28.2-16-63s7.16-63 16-63z"
       stroke="#000"
       stroke-width="2"
       fill-opacity="0"
       id="path4890" />
    <path
       d="M1416 1229c-8.84 0-16-28.2-16-63s7.16-63 16-63"
       stroke="#000"
       stroke-width="2"
       fill="none"
       id="path4892" />
    <use
       xlink:href="#A"
       transform="matrix(1,0,0,1,1272,1103) translate(20.35802469135802 50.55555555555555)"
       id="use4894" />
    <use
       xlink:href="#B"
       transform="matrix(1,0,0,1,1272,1103) translate(19.148148148148145 87.88888888888889)"
       id="use4896" />
    <path
       d="M1172 1166h99"
       stroke="#000"
       stroke-width="2"
       fill="none"
       id="path4898" />
    <path
       d="M1186.26 1170.64L1172 1166l14.26-4.64z"
       id="path4900" />
    <path
       d="M1187.26 1172l-15.26-4.95v-2.1l15.26-4.96zm-12.03-6l10.03 3.26v-6.52zM1271 1166l-14.27 4.64v-9.28z"
       id="path4902" />
    <path
       d="M1272.03 1165.28l-.03.72.02.72-16.3 5.3v-12.03zm-14.3 3.98l10.03-3.26-10.03-3.26z"
       id="path4904" />
    <path
       d="M1492 1137h160v58h-160z"
       stroke="#000"
       stroke-width="2"
       fill-opacity="0"
       id="path4906" />
    <use
       xlink:href="#C"
       transform="matrix(1,0,0,1,1492,1137) translate(48.0679012345679 35.22222222222222)"
       id="use4908" />
    <path
       d="M1432 1166h60"
       stroke="#000"
       stroke-width="2"
       fill="none"
       id="path4910" />
    <path
       d="M1446.27 1170.64L1432 1166l14.27-4.64z"
       id="path4912" />
    <path
       d="M1447.27 1172l-15.3-4.96.03-1.04-.03-1.04 15.3-4.97zm-12.03-6l10.03 3.26v-6.52zM1492 1166l-14.27 4.64v-9.28z"
       id="path4914" />
    <path
       d="M1492 1164.95v2.1l-15.27 4.96v-12zm-13.27 4.3l10.03-3.25-10.03-3.26z"
       id="path4916" />
    <path
       d="M1352 987.67h240v84.66h-240z"
       fill-opacity="0"
       id="path4918" />
    <path
       d="M1353 987.67c0 .55-.45 1-1 1s-1-.45-1-1c0-.56.45-1 1-1s1 .44 1 1zm8 0c0 .55-.45 1-1 1s-1-.45-1-1c0-.56.45-1 1-1s1 .44 1 1zm8 0c0 .55-.45 1-1 1s-1-.45-1-1c0-.56.45-1 1-1s1 .44 1 1zm8 0c0 .55-.45 1-1 1s-1-.45-1-1c0-.56.45-1 1-1s1 .44 1 1zm8 0c0 .55-.45 1-1 1s-1-.45-1-1c0-.56.45-1 1-1s1 .44 1 1zm8 0c0 .55-.45 1-1 1s-1-.45-1-1c0-.56.45-1 1-1s1 .44 1 1zm8 0c0 .55-.45 1-1 1s-1-.45-1-1c0-.56.45-1 1-1s1 .44 1 1zm8 0c0 .55-.45 1-1 1s-1-.45-1-1c0-.56.45-1 1-1s1 .44 1 1zm8 0c0 .55-.45 1-1 1s-1-.45-1-1c0-.56.45-1 1-1s1 .44 1 1zm8 0c0 .55-.45 1-1 1s-1-.45-1-1c0-.56.45-1 1-1s1 .44 1 1zm8 0c0 .55-.45 1-1 1s-1-.45-1-1c0-.56.45-1 1-1s1 .44 1 1zm8 0c0 .55-.45 1-1 1s-1-.45-1-1c0-.56.45-1 1-1s1 .44 1 1zm8 0c0 .55-.45 1-1 1s-1-.45-1-1c0-.56.45-1 1-1s1 .44 1 1zm8 0c0 .55-.45 1-1 1s-1-.45-1-1c0-.56.45-1 1-1s1 .44 1 1zm8 0c0 .55-.45 1-1 1s-1-.45-1-1c0-.56.45-1 1-1s1 .44 1 1zm8 0c0 .55-.45 1-1 1s-1-.45-1-1c0-.56.45-1 1-1s1 .44 1 1zm8 0c0 .55-.45 1-1 1s-1-.45-1-1c0-.56.45-1 1-1s1 .44 1 1zm8 0c0 .55-.45 1-1 1s-1-.45-1-1c0-.56.45-1 1-1s1 .44 1 1zm8 0c0 .55-.45 1-1 1s-1-.45-1-1c0-.56.45-1 1-1s1 .44 1 1zm8 0c0 .55-.45 1-1 1s-1-.45-1-1c0-.56.45-1 1-1s1 .44 1 1zm8 0c0 .55-.45 1-1 1s-1-.45-1-1c0-.56.45-1 1-1s1 .44 1 1zm8 0c0 .55-.45 1-1 1s-1-.45-1-1c0-.56.45-1 1-1s1 .44 1 1zm8 0c0 .55-.45 1-1 1s-1-.45-1-1c0-.56.45-1 1-1s1 .44 1 1zm8 0c0 .55-.45 1-1 1s-1-.45-1-1c0-.56.45-1 1-1s1 .44 1 1zm8 0c0 .55-.45 1-1 1s-1-.45-1-1c0-.56.45-1 1-1s1 .44 1 1zm8 0c0 .55-.45 1-1 1s-1-.45-1-1c0-.56.45-1 1-1s1 .44 1 1zm8 0c0 .55-.45 1-1 1s-1-.45-1-1c0-.56.45-1 1-1s1 .44 1 1zm8 0c0 .55-.45 1-1 1s-1-.45-1-1c0-.56.45-1 1-1s1 .44 1 1zm8 0c0 .55-.45 1-1 1s-1-.45-1-1c0-.56.45-1 1-1s1 .44 1 1zm8 0c0 .55-.45 1-1 1s-1-.45-1-1c0-.56.45-1 1-1s1 .44 1 1zm8 0c0 .55-.45 1-1 1s-1-.45-1-1c0-.56.45-1 1-1s1 .44 1 1zm0 7.7c0 .55-.45 1-1 1s-1-.45-1-1c0-.56.45-1 1-1s1 .44 1 1zm0 7.7c0 .54-.45 1-1 1s-1-.46-1-1c0-.56.45-1 1-1s1 .44 1 1zm0 7.7c0 .54-.45 1-1 1s-1-.46-1-1c0-.56.45-1 1-1s1 .44 1 1zm0 7.68c0 .56-.45 1-1 1s-1-.44-1-1c0-.55.45-1 1-1s1 .45 1 1zm0 7.7c0 .55-.45 1-1 1s-1-.45-1-1 .45-1 1-1 1 .45 1 1zm0 7.7c0 .55-.45 1-1 1s-1-.45-1-1 .45-1 1-1 1 .45 1 1zm0 7.7c0 .55-.45 1-1 1s-1-.45-1-1c0-.56.45-1 1-1s1 .44 1 1zm0 7.7c0 .54-.45 1-1 1s-1-.46-1-1c0-.56.45-1 1-1s1 .44 1 1zm0 7.7c0 .54-.45 1-1 1s-1-.46-1-1c0-.56.45-1 1-1s1 .44 1 1zm0 7.7c0 .54-.45 1-1 1s-1-.46-1-1c0-.57.45-1 1-1s1 .43 1 1zm0 7.68c0 .56-.45 1-1 1s-1-.44-1-1c0-.55.45-1 1-1s1 .45 1 1zm-8 0c0 .56-.45 1-1 1s-1-.44-1-1c0-.55.45-1 1-1s1 .45 1 1zm-8 0c0 .56-.45 1-1 1s-1-.44-1-1c0-.55.45-1 1-1s1 .45 1 1zm-8 0c0 .56-.45 1-1 1s-1-.44-1-1c0-.55.45-1 1-1s1 .45 1 1zm-8 0c0 .56-.45 1-1 1s-1-.44-1-1c0-.55.45-1 1-1s1 .45 1 1zm-8 0c0 .56-.45 1-1 1s-1-.44-1-1c0-.55.45-1 1-1s1 .45 1 1zm-8 0c0 .56-.45 1-1 1s-1-.44-1-1c0-.55.45-1 1-1s1 .45 1 1zm-8 0c0 .56-.45 1-1 1s-1-.44-1-1c0-.55.45-1 1-1s1 .45 1 1zm-8 0c0 .56-.45 1-1 1s-1-.44-1-1c0-.55.45-1 1-1s1 .45 1 1zm-8 0c0 .56-.45 1-1 1s-1-.44-1-1c0-.55.45-1 1-1s1 .45 1 1zm-8 0c0 .56-.45 1-1 1s-1-.44-1-1c0-.55.45-1 1-1s1 .45 1 1zm-8 0c0 .56-.45 1-1 1s-1-.44-1-1c0-.55.45-1 1-1s1 .45 1 1zm-8 0c0 .56-.45 1-1 1s-1-.44-1-1c0-.55.45-1 1-1s1 .45 1 1zm-8 0c0 .56-.45 1-1 1s-1-.44-1-1c0-.55.45-1 1-1s1 .45 1 1zm-8 0c0 .56-.45 1-1 1s-1-.44-1-1c0-.55.45-1 1-1s1 .45 1 1zm-8 0c0 .56-.45 1-1 1s-1-.44-1-1c0-.55.45-1 1-1s1 .45 1 1zm-8 0c0 .56-.45 1-1 1s-1-.44-1-1c0-.55.45-1 1-1s1 .45 1 1zm-8 0c0 .56-.45 1-1 1s-1-.44-1-1c0-.55.45-1 1-1s1 .45 1 1zm-8 0c0 .56-.45 1-1 1s-1-.44-1-1c0-.55.45-1 1-1s1 .45 1 1zm-8 0c0 .56-.45 1-1 1s-1-.44-1-1c0-.55.45-1 1-1s1 .45 1 1zm-8 0c0 .56-.45 1-1 1s-1-.44-1-1c0-.55.45-1 1-1s1 .45 1 1zm-8 0c0 .56-.45 1-1 1s-1-.44-1-1c0-.55.45-1 1-1s1 .45 1 1zm-8 0c0 .56-.45 1-1 1s-1-.44-1-1c0-.55.45-1 1-1s1 .45 1 1zm-8 0c0 .56-.45 1-1 1s-1-.44-1-1c0-.55.45-1 1-1s1 .45 1 1zm-8 0c0 .56-.45 1-1 1s-1-.44-1-1c0-.55.45-1 1-1s1 .45 1 1zm-8 0c0 .56-.45 1-1 1s-1-.44-1-1c0-.55.45-1 1-1s1 .45 1 1zm-8 0c0 .56-.45 1-1 1s-1-.44-1-1c0-.55.45-1 1-1s1 .45 1 1zm-8 0c0 .56-.45 1-1 1s-1-.44-1-1c0-.55.45-1 1-1s1 .45 1 1zm-8 0c0 .56-.45 1-1 1s-1-.44-1-1c0-.55.45-1 1-1s1 .45 1 1zm-8 0c0 .56-.45 1-1 1s-1-.44-1-1c0-.55.45-1 1-1s1 .45 1 1zm-8 0c0 .56-.45 1-1 1s-1-.44-1-1c0-.55.45-1 1-1s1 .45 1 1zm0-7.7c0 .56-.45 1-1 1s-1-.44-1-1c0-.55.45-1 1-1s1 .45 1 1zm0-7.7c0 .56-.45 1-1 1s-1-.44-1-1c0-.54.45-1 1-1s1 .46 1 1zm0-7.7c0 .56-.45 1-1 1s-1-.44-1-1c0-.54.45-1 1-1s1 .46 1 1zm0-7.68c0 .55-.45 1-1 1s-1-.45-1-1c0-.56.45-1 1-1s1 .44 1 1zm0-7.7c0 .55-.45 1-1 1s-1-.45-1-1 .45-1 1-1 1 .45 1 1zm0-7.7c0 .55-.45 1-1 1s-1-.45-1-1 .45-1 1-1 1 .45 1 1zm0-7.7c0 .56-.45 1-1 1s-1-.44-1-1c0-.55.45-1 1-1s1 .45 1 1zm0-7.7c0 .56-.45 1-1 1s-1-.44-1-1c0-.54.45-1 1-1s1 .46 1 1zm0-7.7c0 .56-.45 1-1 1s-1-.44-1-1c0-.54.45-1 1-1s1 .46 1 1zm0-7.7c0 .57-.45 1-1 1s-1-.43-1-1c0-.54.45-1 1-1s1 .46 1 1z"
       fill-opacity="0"
       id="path4920" />
    <g
       id="g4922">
      <use
         xlink:href="#D"
         transform="matrix(1,0,0,1,1357,992.6666666666666) translate(27.80246913580247 25.05555555555555)"
         id="use4924" />
      <use
         xlink:href="#E"
         transform="matrix(1,0,0,1,1357,992.6666666666666) translate(148.7037037037037 25.05555555555555)"
         id="use4926" />
      <use
         xlink:href="#F"
         transform="matrix(1,0,0,1,1357,992.6666666666666) translate(32.90123456790123 62.38888888888889)"
         id="use4928" />
    </g>
    <path
       d="M1472 1073.74V1166h20"
       stroke="#000"
       stroke-width="2"
       fill="none"
       id="path4930" />
    <path
       d="M1472 1073.33l.7-.3.3-.7v1.4h-2v-1.4l.3.7zM1492 1166l-14.27 4.64v-9.28z"
       id="path4932" />
    <path
       d="M1492 1164.95v2.1l-15.27 4.96v-12zm-13.27 4.3l10.03-3.25-10.03-3.26z"
       id="path4934" />
    <defs
       id="defs4936">
      <path
         d="M85-194c31 0 48 13 60 33l-1-100h32l1 261h-30c-2-10 0-23-3-31C134-8 116 4 85 4 32 4 16-35 15-94c0-66 23-100 70-100zm9 24c-40 0-46 34-46 75 0 40 6 74 45 74 42 0 51-32 51-76 0-42-9-74-50-73"
         id="G" />
      <path
         d="M100-194c62-1 85 37 85 99 1 63-27 99-86 99S16-35 15-95c0-66 28-99 85-99zM99-20c44 1 53-31 53-75 0-43-8-75-51-75s-53 32-53 75 10 74 51 75"
         id="H" />
      <path
         d="M96-169c-40 0-48 33-48 73s9 75 48 75c24 0 41-14 43-38l32 2c-6 37-31 61-74 61-59 0-76-41-82-99-10-93 101-131 147-64 4 7 5 14 7 22l-32 3c-4-21-16-35-41-35"
         id="I" />
      <path
         d="M143 0L79-87 56-68V0H24v-261h32v163l83-92h37l-77 82L181 0h-38"
         id="J" />
      <path
         d="M100-194c63 0 86 42 84 106H49c0 40 14 67 53 68 26 1 43-12 49-29l28 8c-11 28-37 45-77 45C44 4 14-33 15-96c1-61 26-98 85-98zm52 81c6-60-76-77-97-28-3 7-6 17-6 28h103"
         id="K" />
      <path
         d="M114-163C36-179 61-72 57 0H25l-1-190h30c1 12-1 29 2 39 6-27 23-49 58-41v29"
         id="L" />
      <g
         id="a">
        <use
           transform="matrix(0.08641975308641976,0,0,0.08641975308641976,0,0)"
           xlink:href="#G"
           id="use4945" />
        <use
           transform="matrix(0.08641975308641976,0,0,0.08641975308641976,17.283950617283953,0)"
           xlink:href="#H"
           id="use4947" />
        <use
           transform="matrix(0.08641975308641976,0,0,0.08641975308641976,34.567901234567906,0)"
           xlink:href="#I"
           id="use4949" />
        <use
           transform="matrix(0.08641975308641976,0,0,0.08641975308641976,50.12345679012346,0)"
           xlink:href="#J"
           id="use4951" />
        <use
           transform="matrix(0.08641975308641976,0,0,0.08641975308641976,65.67901234567901,0)"
           xlink:href="#K"
           id="use4953" />
        <use
           transform="matrix(0.08641975308641976,0,0,0.08641975308641976,82.96296296296296,0)"
           xlink:href="#L"
           id="use4955" />
      </g>
      <path
         d="M135-143c-3-34-86-38-87 0 15 53 115 12 119 90S17 21 10-45l28-5c4 36 97 45 98 0-10-56-113-15-118-90-4-57 82-63 122-42 12 7 21 19 24 35"
         id="M" />
      <path
         d="M206 0h-36l-40-164L89 0H53L-1-190h32L70-26l43-164h34l41 164 42-164h31"
         id="N" />
      <path
         d="M141-36C126-15 110 5 73 4 37 3 15-17 15-53c-1-64 63-63 125-63 3-35-9-54-41-54-24 1-41 7-42 31l-33-3c5-37 33-52 76-52 45 0 72 20 72 64v82c-1 20 7 32 28 27v20c-31 9-61-2-59-35zM48-53c0 20 12 33 32 33 41-3 63-29 60-74-43 2-92-5-92 41"
         id="O" />
      <path
         d="M210-169c-67 3-38 105-44 169h-31v-121c0-29-5-50-35-48C34-165 62-65 56 0H25l-1-190h30c1 10-1 24 2 32 10-44 99-50 107 0 11-21 27-35 58-36 85-2 47 119 55 194h-31v-121c0-29-5-49-35-48"
         id="P" />
      <g
         id="b">
        <use
           transform="matrix(0.08641975308641976,0,0,0.08641975308641976,0,0)"
           xlink:href="#M"
           id="use4962" />
        <use
           transform="matrix(0.08641975308641976,0,0,0.08641975308641976,15.555555555555557,0)"
           xlink:href="#N"
           id="use4964" />
        <use
           transform="matrix(0.08641975308641976,0,0,0.08641975308641976,37.93827160493828,0)"
           xlink:href="#O"
           id="use4966" />
        <use
           transform="matrix(0.08641975308641976,0,0,0.08641975308641976,55.22222222222223,0)"
           xlink:href="#L"
           id="use4968" />
        <use
           transform="matrix(0.08641975308641976,0,0,0.08641975308641976,65.50617283950618,0)"
           xlink:href="#P"
           id="use4970" />
      </g>
      <path
         d="M115-194c55 1 70 41 70 98S169 2 115 4C84 4 66-9 55-30l1 105H24l-1-265h31l2 30c10-21 28-34 59-34zm-8 174c40 0 45-34 45-75s-6-73-45-74c-42 0-51 32-51 76 0 43 10 73 51 73"
         id="Q" />
      <g
         id="c">
        <use
           transform="matrix(0.08641975308641976,0,0,0.08641975308641976,0,0)"
           xlink:href="#M"
           id="use4974" />
        <use
           transform="matrix(0.08641975308641976,0,0,0.08641975308641976,15.555555555555557,0)"
           xlink:href="#I"
           id="use4976" />
        <use
           transform="matrix(0.08641975308641976,0,0,0.08641975308641976,31.111111111111114,0)"
           xlink:href="#H"
           id="use4978" />
        <use
           transform="matrix(0.08641975308641976,0,0,0.08641975308641976,48.39506172839506,0)"
           xlink:href="#Q"
           id="use4980" />
        <use
           transform="matrix(0.08641975308641976,0,0,0.08641975308641976,65.67901234567901,0)"
           xlink:href="#K"
           id="use4982" />
      </g>
      <path
         d="M24 0v-261h32V0H24"
         id="R" />
      <g
         id="d">
        <use
           transform="matrix(0.08641975308641976,0,0,0.08641975308641976,0,0)"
           xlink:href="#R"
           id="use4986" />
        <use
           transform="matrix(0.08641975308641976,0,0,0.08641975308641976,6.8271604938271615,0)"
           xlink:href="#H"
           id="use4988" />
        <use
           transform="matrix(0.08641975308641976,0,0,0.08641975308641976,24.111111111111114,0)"
           xlink:href="#I"
           id="use4990" />
        <use
           transform="matrix(0.08641975308641976,0,0,0.08641975308641976,39.66666666666667,0)"
           xlink:href="#O"
           id="use4992" />
        <use
           transform="matrix(0.08641975308641976,0,0,0.08641975308641976,56.95061728395062,0)"
           xlink:href="#R"
           id="use4994" />
      </g>
      <g
         id="e">
        <use
           transform="matrix(0.08641975308641976,0,0,0.08641975308641976,0,0)"
           xlink:href="#M"
           id="use4997" />
        <use
           transform="matrix(0.08641975308641976,0,0,0.08641975308641976,15.555555555555557,0)"
           xlink:href="#I"
           id="use4999" />
        <use
           transform="matrix(0.08641975308641976,0,0,0.08641975308641976,31.111111111111114,0)"
           xlink:href="#H"
           id="use5001" />
        <use
           transform="matrix(0.08641975308641976,0,0,0.08641975308641976,48.39506172839506,0)"
           xlink:href="#Q"
           id="use5003" />
        <use
           transform="matrix(0.08641975308641976,0,0,0.08641975308641976,65.67901234567901,0)"
           xlink:href="#K"
           id="use5005" />
      </g>
      <path
         d="M87 75C49 33 22-17 22-94c0-76 28-126 65-167h31c-38 41-64 92-64 168S80 34 118 75H87"
         id="S" />
      <path
         d="M106-169C34-169 62-67 57 0H25v-261h32l-1 103c12-21 28-36 61-36 89 0 53 116 60 194h-32v-121c2-32-8-49-39-48"
         id="T" />
      <path
         d="M59-47c-2 24 18 29 38 22v24C64 9 27 4 27-40v-127H5v-23h24l9-43h21v43h35v23H59v120"
         id="U" />
      <path
         d="M33-261c38 41 65 92 65 168S71 34 33 75H2C39 34 66-17 66-93S39-220 2-261h31"
         id="V" />
      <g
         id="f">
        <use
           transform="matrix(0.08641975308641976,0,0,0.08641975308641976,0,0)"
           xlink:href="#S"
           id="use5012" />
        <use
           transform="matrix(0.08641975308641976,0,0,0.08641975308641976,10.283950617283951,0)"
           xlink:href="#T"
           id="use5014" />
        <use
           transform="matrix(0.08641975308641976,0,0,0.08641975308641976,27.567901234567906,0)"
           xlink:href="#H"
           id="use5016" />
        <use
           transform="matrix(0.08641975308641976,0,0,0.08641975308641976,44.85185185185187,0)"
           xlink:href="#M"
           id="use5018" />
        <use
           transform="matrix(0.08641975308641976,0,0,0.08641975308641976,60.407407407407426,0)"
           xlink:href="#U"
           id="use5020" />
        <use
           transform="matrix(0.08641975308641976,0,0,0.08641975308641976,69.0493827160494,0)"
           xlink:href="#V"
           id="use5022" />
      </g>
      <path
         d="M137 0h-34L2-248h35l83 218 83-218h36"
         id="W" />
      <path
         d="M24-231v-30h32v30H24zM24 0v-190h32V0H24"
         id="X" />
      <path
         d="M84 4C-5 8 30-112 23-190h32v120c0 31 7 50 39 49 72-2 45-101 50-169h31l1 190h-30c-1-10 1-25-2-33-11 22-28 36-60 37"
         id="Y" />
      <g
         id="g">
        <use
           transform="matrix(0.08641975308641976,0,0,0.08641975308641976,0,0)"
           xlink:href="#W"
           id="use5028" />
        <use
           transform="matrix(0.08641975308641976,0,0,0.08641975308641976,20.135802469135804,0)"
           xlink:href="#X"
           id="use5030" />
        <use
           transform="matrix(0.08641975308641976,0,0,0.08641975308641976,26.962962962962965,0)"
           xlink:href="#L"
           id="use5032" />
        <use
           transform="matrix(0.08641975308641976,0,0,0.08641975308641976,37.24691358024692,0)"
           xlink:href="#U"
           id="use5034" />
        <use
           transform="matrix(0.08641975308641976,0,0,0.08641975308641976,45.88888888888889,0)"
           xlink:href="#Y"
           id="use5036" />
        <use
           transform="matrix(0.08641975308641976,0,0,0.08641975308641976,63.17283950617285,0)"
           xlink:href="#O"
           id="use5038" />
        <use
           transform="matrix(0.08641975308641976,0,0,0.08641975308641976,80.4567901234568,0)"
           xlink:href="#R"
           id="use5040" />
      </g>
      <path
         d="M140-251c81 0 123 46 123 126C263-46 219 4 140 4 59 4 17-45 17-125s42-126 123-126zm0 227c63 0 89-41 89-101s-29-99-89-99c-61 0-89 39-89 99S79-25 140-24"
         id="Z" />
      <path
         d="M108 0H70L1-190h34L89-25l56-165h34"
         id="aa" />
      <path
         d="M179-190L93 31C79 59 56 82 12 73V49c39 6 53-20 64-50L1-190h34L92-34l54-156h33"
         id="ab" />
      <path
         d="M16-82v-28h88v28H16"
         id="ac" />
      <g
         id="h">
        <use
           transform="matrix(0.08641975308641976,0,0,0.08641975308641976,0,0)"
           xlink:href="#Z"
           id="use5047" />
        <use
           transform="matrix(0.08641975308641976,0,0,0.08641975308641976,24.19753086419753,0)"
           xlink:href="#aa"
           id="use5049" />
        <use
           transform="matrix(0.08641975308641976,0,0,0.08641975308641976,39.75308641975309,0)"
           xlink:href="#K"
           id="use5051" />
        <use
           transform="matrix(0.08641975308641976,0,0,0.08641975308641976,57.03703703703703,0)"
           xlink:href="#L"
           id="use5053" />
        <use
           transform="matrix(0.08641975308641976,0,0,0.08641975308641976,67.32098765432099,0)"
           xlink:href="#R"
           id="use5055" />
        <use
           transform="matrix(0.08641975308641976,0,0,0.08641975308641976,74.14814814814815,0)"
           xlink:href="#O"
           id="use5057" />
        <use
           transform="matrix(0.08641975308641976,0,0,0.08641975308641976,91.4320987654321,0)"
           xlink:href="#ab"
           id="use5059" />
        <use
           transform="matrix(0.08641975308641976,0,0,0.08641975308641976,106.98765432098766,0)"
           xlink:href="#ac"
           id="use5061" />
        <use
           transform="matrix(0.08641975308641976,0,0,0.08641975308641976,117.27160493827162,0)"
           xlink:href="#W"
           id="use5063" />
        <use
           transform="matrix(0.08641975308641976,0,0,0.08641975308641976,137.40740740740742,0)"
           xlink:href="#X"
           id="use5065" />
        <use
           transform="matrix(0.08641975308641976,0,0,0.08641975308641976,144.23456790123458,0)"
           xlink:href="#K"
           id="use5067" />
        <use
           transform="matrix(0.08641975308641976,0,0,0.08641975308641976,161.51851851851853,0)"
           xlink:href="#N"
           id="use5069" />
      </g>
      <path
         d="M27 0v-27h64v-190l-56 39v-29l58-41h29v221h61V0H27"
         id="ad" />
      <g
         id="i">
        <use
           transform="matrix(0.08641975308641976,0,0,0.08641975308641976,0,0)"
           xlink:href="#Z"
           id="use5073" />
        <use
           transform="matrix(0.08641975308641976,0,0,0.08641975308641976,24.19753086419753,0)"
           xlink:href="#aa"
           id="use5075" />
        <use
           transform="matrix(0.08641975308641976,0,0,0.08641975308641976,39.75308641975309,0)"
           xlink:href="#K"
           id="use5077" />
        <use
           transform="matrix(0.08641975308641976,0,0,0.08641975308641976,57.03703703703703,0)"
           xlink:href="#L"
           id="use5079" />
        <use
           transform="matrix(0.08641975308641976,0,0,0.08641975308641976,67.32098765432099,0)"
           xlink:href="#R"
           id="use5081" />
        <use
           transform="matrix(0.08641975308641976,0,0,0.08641975308641976,74.14814814814815,0)"
           xlink:href="#O"
           id="use5083" />
        <use
           transform="matrix(0.08641975308641976,0,0,0.08641975308641976,91.4320987654321,0)"
           xlink:href="#ab"
           id="use5085" />
        <use
           transform="matrix(0.08641975308641976,0,0,0.08641975308641976,106.98765432098766,0)"
           xlink:href="#ac"
           id="use5087" />
        <use
           transform="matrix(0.08641975308641976,0,0,0.08641975308641976,117.27160493827162,0)"
           xlink:href="#ad"
           id="use5089" />
      </g>
      <path
         d="M101-251c68 0 85 55 85 127S166 4 100 4C33 4 14-52 14-124c0-73 17-127 87-127zm-1 229c47 0 54-49 54-102s-4-102-53-102c-51 0-55 48-55 102 0 53 5 102 54 102"
         id="ae" />
      <g
         id="j">
        <use
           transform="matrix(0.08641975308641976,0,0,0.08641975308641976,0,0)"
           xlink:href="#Z"
           id="use5093" />
        <use
           transform="matrix(0.08641975308641976,0,0,0.08641975308641976,24.19753086419753,0)"
           xlink:href="#aa"
           id="use5095" />
        <use
           transform="matrix(0.08641975308641976,0,0,0.08641975308641976,39.75308641975309,0)"
           xlink:href="#K"
           id="use5097" />
        <use
           transform="matrix(0.08641975308641976,0,0,0.08641975308641976,57.03703703703703,0)"
           xlink:href="#L"
           id="use5099" />
        <use
           transform="matrix(0.08641975308641976,0,0,0.08641975308641976,67.32098765432099,0)"
           xlink:href="#R"
           id="use5101" />
        <use
           transform="matrix(0.08641975308641976,0,0,0.08641975308641976,74.14814814814815,0)"
           xlink:href="#O"
           id="use5103" />
        <use
           transform="matrix(0.08641975308641976,0,0,0.08641975308641976,91.4320987654321,0)"
           xlink:href="#ab"
           id="use5105" />
        <use
           transform="matrix(0.08641975308641976,0,0,0.08641975308641976,106.98765432098766,0)"
           xlink:href="#ac"
           id="use5107" />
        <use
           transform="matrix(0.08641975308641976,0,0,0.08641975308641976,117.27160493827162,0)"
           xlink:href="#ae"
           id="use5109" />
      </g>
      <path
         d="M30-248c118-7 216 8 213 122C240-48 200 0 122 0H30v-248zM63-27c89 8 146-16 146-99s-60-101-146-95v194"
         id="af" />
      <g
         id="k">
        <use
           transform="matrix(0.06790123456790124,0,0,0.06790123456790124,0,0)"
           xlink:href="#af"
           id="use5113" />
        <use
           transform="matrix(0.06790123456790124,0,0,0.06790123456790124,17.58641975308642,0)"
           xlink:href="#ad"
           id="use5115" />
      </g>
      <g
         id="l">
        <use
           transform="matrix(0.06790123456790124,0,0,0.06790123456790124,0,0)"
           xlink:href="#af"
           id="use5118" />
        <use
           transform="matrix(0.06790123456790124,0,0,0.06790123456790124,17.58641975308642,0)"
           xlink:href="#ae"
           id="use5120" />
      </g>
      <path
         d="M101-251c82-7 93 87 43 132L82-64C71-53 59-42 53-27h129V0H18c2-99 128-94 128-182 0-28-16-43-45-43s-46 15-49 41l-32-3c6-41 34-60 81-64"
         id="ag" />
      <g
         id="m">
        <use
           transform="matrix(0.06790123456790124,0,0,0.06790123456790124,0,0)"
           xlink:href="#af"
           id="use5124" />
        <use
           transform="matrix(0.06790123456790124,0,0,0.06790123456790124,17.58641975308642,0)"
           xlink:href="#ag"
           id="use5126" />
      </g>
      <path
         d="M126-127c33 6 58 20 58 59 0 88-139 92-164 29-3-8-5-16-6-25l32-3c6 27 21 44 54 44 32 0 52-15 52-46 0-38-36-46-79-43v-28c39 1 72-4 72-42 0-27-17-43-46-43-28 0-47 15-49 41l-32-3c6-42 35-63 81-64 48-1 79 21 79 65 0 36-21 52-52 59"
         id="ah" />
      <g
         id="n">
        <use
           transform="matrix(0.06790123456790124,0,0,0.06790123456790124,0,0)"
           xlink:href="#af"
           id="use5130" />
        <use
           transform="matrix(0.06790123456790124,0,0,0.06790123456790124,17.58641975308642,0)"
           xlink:href="#ah"
           id="use5132" />
      </g>
      <path
         d="M155-56V0h-30v-56H8v-25l114-167h33v167h35v25h-35zm-30-156c-27 46-58 90-88 131h88v-131"
         id="ai" />
      <g
         id="o">
        <use
           transform="matrix(0.06790123456790124,0,0,0.06790123456790124,0,0)"
           xlink:href="#af"
           id="use5136" />
        <use
           transform="matrix(0.06790123456790124,0,0,0.06790123456790124,17.58641975308642,0)"
           xlink:href="#ai"
           id="use5138" />
      </g>
      <path
         d="M54-142c48-35 137-8 131 61C196 18 31 33 14-55l32-4c7 23 22 37 52 37 35-1 51-22 54-58 4-55-73-65-99-34H22l8-134h141v27H59"
         id="aj" />
      <g
         id="p">
        <use
           transform="matrix(0.06790123456790124,0,0,0.06790123456790124,0,0)"
           xlink:href="#af"
           id="use5142" />
        <use
           transform="matrix(0.06790123456790124,0,0,0.06790123456790124,17.58641975308642,0)"
           xlink:href="#aj"
           id="use5144" />
      </g>
      <path
         d="M205 0l-28-72H64L36 0H1l101-248h38L239 0h-34zm-38-99l-47-123c-12 45-31 82-46 123h93"
         id="ak" />
      <path
         d="M240 0l2-218c-23 76-54 145-80 218h-23L58-218 59 0H30v-248h44l77 211c21-75 51-140 76-211h43V0h-30"
         id="al" />
      <path
         d="M140-251c81 0 123 46 123 126C263-53 228-8 163 1c7 30 30 48 69 40v23c-55 16-95-15-103-61C56-3 17-48 17-125c0-80 42-126 123-126zm0 227c63 0 89-41 89-101s-29-99-89-99c-61 0-89 39-89 99S79-25 140-24"
         id="am" />
      <path
         d="M30-248c87 1 191-15 191 75 0 78-77 80-158 76V0H30v-248zm33 125c57 0 124 11 124-50 0-59-68-47-124-48v98"
         id="an" />
      <g
         id="q">
        <use
           transform="matrix(0.06790123456790124,0,0,0.06790123456790124,0,0)"
           xlink:href="#ak"
           id="use5151" />
        <use
           transform="matrix(0.06790123456790124,0,0,0.06790123456790124,16.296296296296298,0)"
           xlink:href="#al"
           id="use5153" />
        <use
           transform="matrix(0.06790123456790124,0,0,0.06790123456790124,36.59876543209877,0)"
           xlink:href="#am"
           id="use5155" />
        <use
           transform="matrix(0.06790123456790124,0,0,0.06790123456790124,55.61111111111112,0)"
           xlink:href="#an"
           id="use5157" />
      </g>
      <path
         d="M160-131c35 5 61 23 61 61C221 17 115-2 30 0v-248c76 3 177-17 177 60 0 33-19 50-47 57zm-97-11c50-1 110 9 110-42 0-47-63-36-110-37v79zm0 115c55-2 124 14 124-45 0-56-70-42-124-44v89"
         id="ao" />
      <g
         id="r">
        <use
           transform="matrix(0.06790123456790124,0,0,0.06790123456790124,0,0)"
           xlink:href="#ao"
           id="use5161" />
        <use
           transform="matrix(0.06790123456790124,0,0,0.06790123456790124,16.296296296296298,0)"
           xlink:href="#L"
           id="use5163" />
        <use
           transform="matrix(0.06790123456790124,0,0,0.06790123456790124,24.376543209876544,0)"
           xlink:href="#H"
           id="use5165" />
        <use
           transform="matrix(0.06790123456790124,0,0,0.06790123456790124,37.95679012345679,0)"
           xlink:href="#J"
           id="use5167" />
        <use
           transform="matrix(0.06790123456790124,0,0,0.06790123456790124,50.17901234567901,0)"
           xlink:href="#K"
           id="use5169" />
        <use
           transform="matrix(0.06790123456790124,0,0,0.06790123456790124,63.75925925925926,0)"
           xlink:href="#L"
           id="use5171" />
      </g>
      <path
         d="M212-179c-10-28-35-45-73-45-59 0-87 40-87 99 0 60 29 101 89 101 43 0 62-24 78-52l27 14C228-24 195 4 139 4 59 4 22-46 18-125c-6-104 99-153 187-111 19 9 31 26 39 46"
         id="ap" />
      <g
         id="s">
        <use
           transform="matrix(0.06790123456790124,0,0,0.06790123456790124,0,0)"
           xlink:href="#ap"
           id="use5175" />
        <use
           transform="matrix(0.06790123456790124,0,0,0.06790123456790124,17.58641975308642,0)"
           xlink:href="#Y"
           id="use5177" />
        <use
           transform="matrix(0.06790123456790124,0,0,0.06790123456790124,31.16666666666667,0)"
           xlink:href="#M"
           id="use5179" />
        <use
           transform="matrix(0.06790123456790124,0,0,0.06790123456790124,43.38888888888889,0)"
           xlink:href="#U"
           id="use5181" />
        <use
           transform="matrix(0.06790123456790124,0,0,0.06790123456790124,50.17901234567902,0)"
           xlink:href="#H"
           id="use5183" />
        <use
           transform="matrix(0.06790123456790124,0,0,0.06790123456790124,63.75925925925927,0)"
           xlink:href="#P"
           id="use5185" />
      </g>
      <path
         d="M177-190C167-65 218 103 67 71c-23-6-38-20-44-43l32-5c15 47 100 32 89-28v-30C133-14 115 1 83 1 29 1 15-40 15-95c0-56 16-97 71-98 29-1 48 16 59 35 1-10 0-23 2-32h30zM94-22c36 0 50-32 50-73 0-42-14-75-50-75-39 0-46 34-46 75s6 73 46 73"
         id="aq" />
      <g
         id="t">
        <use
           transform="matrix(0.06790123456790124,0,0,0.06790123456790124,0,0)"
           xlink:href="#al"
           id="use5189" />
        <use
           transform="matrix(0.06790123456790124,0,0,0.06790123456790124,20.302469135802472,0)"
           xlink:href="#K"
           id="use5191" />
        <use
           transform="matrix(0.06790123456790124,0,0,0.06790123456790124,33.88271604938272,0)"
           xlink:href="#M"
           id="use5193" />
        <use
           transform="matrix(0.06790123456790124,0,0,0.06790123456790124,46.104938271604944,0)"
           xlink:href="#M"
           id="use5195" />
        <use
           transform="matrix(0.06790123456790124,0,0,0.06790123456790124,58.32716049382716,0)"
           xlink:href="#O"
           id="use5197" />
        <use
           transform="matrix(0.06790123456790124,0,0,0.06790123456790124,71.90740740740742,0)"
           xlink:href="#aq"
           id="use5199" />
        <use
           transform="matrix(0.06790123456790124,0,0,0.06790123456790124,85.48765432098767,0)"
           xlink:href="#K"
           id="use5201" />
      </g>
      <g
         id="u">
        <use
           transform="matrix(0.08641975308641976,0,0,0.08641975308641976,0,0)"
           xlink:href="#af"
           id="use5204" />
        <use
           transform="matrix(0.08641975308641976,0,0,0.08641975308641976,22.38271604938272,0)"
           xlink:href="#X"
           id="use5206" />
      </g>
      <g
         id="v">
        <use
           transform="matrix(0.06790123456790124,0,0,0.06790123456790124,0,0)"
           xlink:href="#af"
           id="use5209" />
        <use
           transform="matrix(0.06790123456790124,0,0,0.06790123456790124,17.58641975308642,0)"
           xlink:href="#X"
           id="use5211" />
        <use
           transform="matrix(0.06790123456790124,0,0,0.06790123456790124,22.95061728395062,0)"
           xlink:href="#M"
           id="use5213" />
        <use
           transform="matrix(0.06790123456790124,0,0,0.06790123456790124,35.17283950617284,0)"
           xlink:href="#U"
           id="use5215" />
        <use
           transform="matrix(0.06790123456790124,0,0,0.06790123456790124,41.96296296296297,0)"
           xlink:href="#L"
           id="use5217" />
        <use
           transform="matrix(0.06790123456790124,0,0,0.06790123456790124,50.043209876543216,0)"
           xlink:href="#X"
           id="use5219" />
        <use
           transform="matrix(0.06790123456790124,0,0,0.06790123456790124,55.40740740740742,0)"
           xlink:href="#I"
           id="use5221" />
        <use
           transform="matrix(0.06790123456790124,0,0,0.06790123456790124,67.62962962962963,0)"
           xlink:href="#U"
           id="use5223" />
      </g>
      <g
         id="w">
        <use
           transform="matrix(0.06790123456790124,0,0,0.06790123456790124,0,0)"
           xlink:href="#X"
           id="use5226" />
        <use
           transform="matrix(0.06790123456790124,0,0,0.06790123456790124,5.364197530864199,0)"
           xlink:href="#U"
           id="use5228" />
        <use
           transform="matrix(0.06790123456790124,0,0,0.06790123456790124,12.154320987654323,0)"
           xlink:href="#T"
           id="use5230" />
      </g>
      <path
         d="M63-220v92h138v28H63V0H30v-248h175v28H63"
         id="ar" />
      <path
         d="M117-194c89-4 53 116 60 194h-32v-121c0-31-8-49-39-48C34-167 62-67 57 0H25l-1-190h30c1 10-1 24 2 32 11-22 29-35 61-36"
         id="as" />
      <g
         id="x">
        <use
           transform="matrix(0.06790123456790124,0,0,0.06790123456790124,0,0)"
           xlink:href="#ar"
           id="use5235" />
        <use
           transform="matrix(0.06790123456790124,0,0,0.06790123456790124,14.870370370370372,0)"
           xlink:href="#L"
           id="use5237" />
        <use
           transform="matrix(0.06790123456790124,0,0,0.06790123456790124,22.95061728395062,0)"
           xlink:href="#H"
           id="use5239" />
        <use
           transform="matrix(0.06790123456790124,0,0,0.06790123456790124,36.53086419753087,0)"
           xlink:href="#as"
           id="use5241" />
        <use
           transform="matrix(0.06790123456790124,0,0,0.06790123456790124,50.111111111111114,0)"
           xlink:href="#U"
           id="use5243" />
        <use
           transform="matrix(0.06790123456790124,0,0,0.06790123456790124,56.90123456790124,0)"
           xlink:href="#K"
           id="use5245" />
        <use
           transform="matrix(0.06790123456790124,0,0,0.06790123456790124,70.4814814814815,0)"
           xlink:href="#as"
           id="use5247" />
        <use
           transform="matrix(0.06790123456790124,0,0,0.06790123456790124,84.06172839506176,0)"
           xlink:href="#G"
           id="use5249" />
      </g>
      <path
         d="M169-182c-1-43-94-46-97-3 18 66 151 10 154 114 3 95-165 93-204 36-6-8-10-19-12-30l50-8c3 46 112 56 116 5-17-69-150-10-154-114-4-87 153-88 188-35 5 8 8 18 10 28"
         id="at" />
      <path
         d="M24 0v-248h195v40H76v63h132v40H76v65h150V0H24"
         id="au" />
      <path
         d="M240-174c0 40-23 61-54 70L253 0h-59l-57-94H76V0H24v-248c93 4 217-23 216 74zM76-134c48-2 112 12 112-38 0-48-66-32-112-35v73"
         id="av" />
      <path
         d="M147 0H94L2-248h55l64 206c17-72 42-137 63-206h54"
         id="aw" />
      <path
         d="M24 0v-248h52V0H24"
         id="ax" />
      <path
         d="M67-125c0 53 21 87 73 88 37 1 54-22 65-47l45 17C233-25 199 4 140 4 58 4 20-42 15-125 8-235 124-281 211-232c18 10 29 29 36 50l-46 12c-8-25-30-41-62-41-52 0-71 34-72 86"
         id="ay" />
      <g
         id="y">
        <use
           transform="matrix(0.08641975308641976,0,0,0.08641975308641976,0,0)"
           xlink:href="#at"
           id="use5258" />
        <use
           transform="matrix(0.08641975308641976,0,0,0.08641975308641976,20.740740740740744,0)"
           xlink:href="#au"
           id="use5260" />
        <use
           transform="matrix(0.08641975308641976,0,0,0.08641975308641976,41.48148148148149,0)"
           xlink:href="#av"
           id="use5262" />
        <use
           transform="matrix(0.08641975308641976,0,0,0.08641975308641976,63.25925925925927,0)"
           xlink:href="#aw"
           id="use5264" />
        <use
           transform="matrix(0.08641975308641976,0,0,0.08641975308641976,84.00000000000001,0)"
           xlink:href="#ax"
           id="use5266" />
        <use
           transform="matrix(0.08641975308641976,0,0,0.08641975308641976,92.64197530864199,0)"
           xlink:href="#ay"
           id="use5268" />
        <use
           transform="matrix(0.08641975308641976,0,0,0.08641975308641976,115.0246913580247,0)"
           xlink:href="#au"
           id="use5270" />
        <use
           transform="matrix(0.08641975308641976,0,0,0.08641975308641976,135.76543209876544,0)"
           xlink:href="#at"
           id="use5272" />
      </g>
      <path
         d="M24 0v-248h52v208h133V0H24"
         id="az" />
      <path
         d="M67-125c0 54 23 88 75 88 28 0 53-7 68-21v-34h-60v-39h108v91C232-14 192 4 140 4 58 4 20-42 15-125 8-236 126-280 215-234c19 10 29 26 37 47l-47 15c-11-23-29-39-63-39-53 1-75 33-75 86"
         id="aA" />
      <path
         d="M175 0L67-191c6 58 2 128 3 191H24v-248h59L193-55c-6-58-2-129-3-193h46V0h-61"
         id="aB" />
      <path
         d="M24-248c120-7 223 5 221 122C244-46 201 0 124 0H24v-248zM76-40c74 7 117-18 117-86 0-67-45-88-117-82v168"
         id="aC" />
      <g
         id="z">
        <use
           transform="matrix(0.08641975308641976,0,0,0.08641975308641976,0,0)"
           xlink:href="#az"
           id="use5279" />
        <use
           transform="matrix(0.08641975308641976,0,0,0.08641975308641976,18.925925925925927,0)"
           xlink:href="#au"
           id="use5281" />
        <use
           transform="matrix(0.08641975308641976,0,0,0.08641975308641976,39.66666666666667,0)"
           xlink:href="#aA"
           id="use5283" />
        <use
           transform="matrix(0.08641975308641976,0,0,0.08641975308641976,63.8641975308642,0)"
           xlink:href="#au"
           id="use5285" />
        <use
           transform="matrix(0.08641975308641976,0,0,0.08641975308641976,84.60493827160495,0)"
           xlink:href="#aB"
           id="use5287" />
        <use
           transform="matrix(0.08641975308641976,0,0,0.08641975308641976,106.98765432098766,0)"
           xlink:href="#aC"
           id="use5289" />
      </g>
      <g
         id="A">
        <use
           transform="matrix(0.08641975308641976,0,0,0.08641975308641976,0,0)"
           xlink:href="#W"
           id="use5292" />
        <use
           transform="matrix(0.08641975308641976,0,0,0.08641975308641976,20.135802469135804,0)"
           xlink:href="#X"
           id="use5294" />
        <use
           transform="matrix(0.08641975308641976,0,0,0.08641975308641976,26.962962962962965,0)"
           xlink:href="#L"
           id="use5296" />
        <use
           transform="matrix(0.08641975308641976,0,0,0.08641975308641976,37.24691358024692,0)"
           xlink:href="#U"
           id="use5298" />
        <use
           transform="matrix(0.08641975308641976,0,0,0.08641975308641976,45.88888888888889,0)"
           xlink:href="#Y"
           id="use5300" />
        <use
           transform="matrix(0.08641975308641976,0,0,0.08641975308641976,63.17283950617285,0)"
           xlink:href="#O"
           id="use5302" />
        <use
           transform="matrix(0.08641975308641976,0,0,0.08641975308641976,80.4567901234568,0)"
           xlink:href="#R"
           id="use5304" />
      </g>
      <g
         id="B">
        <use
           transform="matrix(0.08641975308641976,0,0,0.08641975308641976,0,0)"
           xlink:href="#ao"
           id="use5307" />
        <use
           transform="matrix(0.08641975308641976,0,0,0.08641975308641976,20.740740740740744,0)"
           xlink:href="#L"
           id="use5309" />
        <use
           transform="matrix(0.08641975308641976,0,0,0.08641975308641976,31.024691358024693,0)"
           xlink:href="#X"
           id="use5311" />
        <use
           transform="matrix(0.08641975308641976,0,0,0.08641975308641976,37.85185185185186,0)"
           xlink:href="#G"
           id="use5313" />
        <use
           transform="matrix(0.08641975308641976,0,0,0.08641975308641976,55.13580246913581,0)"
           xlink:href="#aq"
           id="use5315" />
        <use
           transform="matrix(0.08641975308641976,0,0,0.08641975308641976,72.41975308641976,0)"
           xlink:href="#K"
           id="use5317" />
      </g>
      <path
         d="M197 0v-115H63V0H30v-248h33v105h134v-105h34V0h-34"
         id="aD" />
      <g
         id="C">
        <use
           transform="matrix(0.08641975308641976,0,0,0.08641975308641976,0,0)"
           xlink:href="#aD"
           id="use5321" />
        <use
           transform="matrix(0.08641975308641976,0,0,0.08641975308641976,22.38271604938272,0)"
           xlink:href="#H"
           id="use5323" />
        <use
           transform="matrix(0.08641975308641976,0,0,0.08641975308641976,39.66666666666667,0)"
           xlink:href="#M"
           id="use5325" />
        <use
           transform="matrix(0.08641975308641976,0,0,0.08641975308641976,55.22222222222223,0)"
           xlink:href="#U"
           id="use5327" />
      </g>
      <g
         id="D">
        <use
           transform="matrix(0.08641975308641976,0,0,0.08641975308641976,0,0)"
           xlink:href="#P"
           id="use5330" />
        <use
           transform="matrix(0.08641975308641976,0,0,0.08641975308641976,25.83950617283951,0)"
           xlink:href="#O"
           id="use5332" />
        <use
           transform="matrix(0.08641975308641976,0,0,0.08641975308641976,43.12345679012346,0)"
           xlink:href="#Q"
           id="use5334" />
        <use
           transform="matrix(0.08641975308641976,0,0,0.08641975308641976,60.407407407407426,0)"
           xlink:href="#Q"
           id="use5336" />
        <use
           transform="matrix(0.08641975308641976,0,0,0.08641975308641976,77.69135802469137,0)"
           xlink:href="#K"
           id="use5338" />
        <use
           transform="matrix(0.08641975308641976,0,0,0.08641975308641976,94.97530864197532,0)"
           xlink:href="#G"
           id="use5340" />
      </g>
      <g
         id="E">
        <use
           transform="matrix(0.08641975308641976,0,0,0.08641975308641976,0,0)"
           xlink:href="#Q"
           id="use5343" />
        <use
           transform="matrix(0.08641975308641976,0,0,0.08641975308641976,17.283950617283953,0)"
           xlink:href="#H"
           id="use5345" />
        <use
           transform="matrix(0.08641975308641976,0,0,0.08641975308641976,34.567901234567906,0)"
           xlink:href="#L"
           id="use5347" />
        <use
           transform="matrix(0.08641975308641976,0,0,0.08641975308641976,44.851851851851855,0)"
           xlink:href="#U"
           id="use5349" />
      </g>
      <path
         d="M26 75v-336h71v23H56V52h41v23H26"
         id="aE" />
      <path
         d="M33-154v-36h34v36H33zM33 0v-36h34V0H33"
         id="aF" />
      <path
         d="M3 75V52h41v-290H3v-23h71V75H3"
         id="aG" />
      <g
         id="F">
        <use
           transform="matrix(0.08641975308641976,0,0,0.08641975308641976,0,0)"
           xlink:href="#aE"
           id="use5355" />
        <use
           transform="matrix(0.08641975308641976,0,0,0.08641975308641976,8.641975308641976,0)"
           xlink:href="#ai"
           id="use5357" />
        <use
           transform="matrix(0.08641975308641976,0,0,0.08641975308641976,25.925925925925927,0)"
           xlink:href="#ae"
           id="use5359" />
        <use
           transform="matrix(0.08641975308641976,0,0,0.08641975308641976,43.20987654320989,0)"
           xlink:href="#ae"
           id="use5361" />
        <use
           transform="matrix(0.08641975308641976,0,0,0.08641975308641976,60.49382716049384,0)"
           xlink:href="#ae"
           id="use5363" />
        <use
           transform="matrix(0.08641975308641976,0,0,0.08641975308641976,77.77777777777779,0)"
           xlink:href="#aF"
           id="use5365" />
        <use
           transform="matrix(0.08641975308641976,0,0,0.08641975308641976,86.41975308641976,0)"
           xlink:href="#ai"
           id="use5367" />
        <use
           transform="matrix(0.08641975308641976,0,0,0.08641975308641976,103.70370370370371,0)"
           xlink:href="#ae"
           id="use5369" />
        <use
           transform="matrix(0.08641975308641976,0,0,0.08641975308641976,120.98765432098767,0)"
           xlink:href="#ae"
           id="use5371" />
        <use
           transform="matrix(0.08641975308641976,0,0,0.08641975308641976,138.27160493827162,0)"
           xlink:href="#aj"
           id="use5373" />
        <use
           transform="matrix(0.08641975308641976,0,0,0.08641975308641976,155.55555555555557,0)"
           xlink:href="#aG"
           id="use5375" />
      </g>
    </defs>
  </g>
</svg>
