<svg xmlns="http://www.w3.org/2000/svg" xmlns:xlink="http://www.w3.org/1999/xlink" xmlns:lucid="lucid" width="1760" height="1360"><g transform="translate(0 0)" lucid:page-tab-id="0_0"><path d="M320 80h160v160H320z" stroke="#000" stroke-width="2" fill="#fff"/><use xlink:href="#a" transform="matrix(1,0,0,1,325,85) translate(34.55 78.60000000000001)"/><path d="M640 80h160v160H640z" stroke="#000" stroke-width="2" fill="#fff"/><use xlink:href="#b" transform="matrix(1,0,0,1,645,85) translate(39.525 78.60000000000001)"/><path d="M481 160h158" fill="none"/><path d="M481 160h3.95m7.9 0h7.9m7.9 0h7.9m7.9 0h7.9m7.9 0h7.9m7.9 0h7.9m7.9 0h7.9m7.9 0h7.9m7.9 0h7.9m7.9 0h7.9m7.9 0H639" stroke="#000" stroke-width="2" fill="none"/><path d="M481 161h-1v-2h1zM639 160l-14.27 4.64v-9.28z"/><path d="M640 159.27v1.46L623.73 166v-12zm-14.27 4l10.03-3.27-10.03-3.26z"/><path d="M640 320h160v160H640z" stroke="#000" stroke-width="2" fill="#fff"/><use xlink:href="#c" transform="matrix(1,0,0,1,645,325) translate(12.100000000000001 78.60000000000001)"/><path d="M720 320v-80" stroke="#000" stroke-width="2" fill="none"/><path/><path d="M724.64 254.27h-9.28L720 240z" fill="#fff"/><path d="M726 255.27h-12l4.95-15.27h2.1zm-9.26-2h6.52L720 243.24z"/><path d="M960 320h160v160H960z" stroke="#000" stroke-width="2" fill="#fff"/><use xlink:href="#d" transform="matrix(1,0,0,1,965,325) translate(20.924999999999997 78.60000000000001)"/><path d="M801 400h158" stroke="#000" stroke-width="2" fill="none"/><path d="M801 401h-1v-2h1zM959 400l-14.27 4.64v-9.28z"/><path d="M960 399.27v1.46L943.73 406v-12zm-14.27 4l10.03-3.27-10.03-3.26z"/><path d="M1120 400h40V160H800" fill="none"/><path d="M1120 400h4m8 0h8m8 0h8m4-4v-8m0-8v-8m0-8v-8m0-8v-8m0-8v-8m0-8v-8m0-8v-8m0-8v-8m0-8v-8m0-8v-8m0-8v-8m0-8v-8m0-8v-8m0-8v-8m0-8v-8m-4-4h-8m-8 0h-8m-8 0h-8m-8 0h-8m-8 0h-8m-8 0h-8m-8 0h-8m-8 0h-8m-8 0h-8m-8 0h-8m-8 0h-8m-8 0h-8m-8 0h-8m-8 0h-8m-8 0h-8m-8 0h-8m-8 0h-8m-8 0h-8m-8 0h-8m-8 0h-8m-8 0h-8m-8 0h-8m-8 0h-4" stroke="#000" stroke-width="2" fill="none"/><path/><path d="M814.27 164.64L800 160l14.27-4.64z"/><path d="M815.27 166L800 161.06v-2.1l15.27-4.96zm-12.03-6l10.03 3.26v-6.52z"/><path d="M500 100h120v60H500z" fill="none"/><use xlink:href="#e" transform="matrix(1,0,0,1,505,105) translate(7.524999999999999 28.6)"/><use xlink:href="#f" transform="matrix(1,0,0,1,505,105) translate(27.525 28.6)"/><path d="M820 340h120v60H820z" fill="none"/><use xlink:href="#g" transform="matrix(1,0,0,1,825,345) translate(4.074999999999996 28.6)"/><use xlink:href="#h" transform="matrix(1,0,0,1,825,345) translate(24.074999999999996 28.6)"/><path d="M1000 100h120v60h-120z" fill="none"/><use xlink:href="#i" transform="matrix(1,0,0,1,1005,105) translate(12.5 28.6)"/><use xlink:href="#j" transform="matrix(1,0,0,1,1005,105) translate(32.5 28.6)"/><path d="M640 640h160v160H640z" stroke="#000" stroke-width="2" fill="#fff"/><use xlink:href="#k" transform="matrix(1,0,0,1,645,645) translate(27.225 78.60000000000001)"/><path d="M720 480v159" stroke="#000" stroke-width="2" fill="none"/><path/><path d="M720 639l-4.64-14.27h9.28z"/><path d="M720.73 640h-1.46L714 623.73h12zm-4-14.27l3.27 10.03 3.26-10.03z"/><path d="M600 520h120v60H600z" fill="none"/><use xlink:href="#l" transform="matrix(1,0,0,1,605,525) translate(11.524999999999999 28.6)"/><use xlink:href="#m" transform="matrix(1,0,0,1,605,525) translate(31.525 28.6)"/><path d="M880 640h160v160H880z" stroke="#000" stroke-width="2" fill="#fff"/><use xlink:href="#n" transform="matrix(1,0,0,1,885,645) translate(7.125 78.60000000000001)"/><path d="M720 480l.03 1.66.1 1.6.17 1.6.23 1.55.3 1.55.35 1.52.43 1.52.5 1.5.57 1.53.64 1.53.74 1.55.82 1.58.93 1.6 1.03 1.64 1.17 1.7 1.32 1.73 1.5 1.8 1.7 1.88 1.93 1.98 2.22 2.1 2.57 2.2 3 2.38 3.53 2.57 4.23 2.8 5.16 3.12 6.42 3.53 8.3 4.1 11.33 5.04 17.5 6.9 100.1 35.42 11.32 5.03 8.3 4.1 6.42 3.53 5.16 3.1 4.23 2.82 3.54 2.57 3 2.37 2.56 2.2 2.22 2.1 1.94 1.97 1.7 1.88 1.48 1.8 1.32 1.74 1.17 1.68 1.04 1.63.94 1.62.82 1.57.73 1.54.63 1.53.57 1.52.5 1.5.42 1.53.35 1.52.3 1.54.23 1.55.16 1.58.1 1.6.04 1.67" stroke="#000" stroke-width="2" fill="none"/><path d="M719.02 480.2l-.04-.2H720zM960 640l-7.33-13.08 9.1-1.82z"/><path d="M961 640h-2.15l-7.73-13.8 11.8-2.35zm-6.8-12.37l5.17 9.2 1.23-10.48z"/><path d="M840 520h120v60H840z" fill="none"/><use xlink:href="#o" transform="matrix(1,0,0,1,845,525) translate(24.225 28.6)"/><use xlink:href="#p" transform="matrix(1,0,0,1,845,525) translate(44.225 28.6)"/><path d="M760 880h160v160H760z" stroke="#000" stroke-width="2" fill="#fff"/><use xlink:href="#q" transform="matrix(1,0,0,1,765,885) translate(17.799999999999997 78.60000000000001)"/><path d="M960 800v160h-40" stroke="#000" stroke-width="2" fill="none"/><path/><path d="M934.27 964.64L920 960l14.27-4.64z"/><path d="M935.27 966L920 961.06v-2.1l15.27-4.96zm-12.03-6l10.03 3.26v-6.52z"/><path d="M960 832.6h180v74.8H960z" fill="none"/><use xlink:href="#r" transform="matrix(1,0,0,1,965,837.6) translate(3.625 36.1)"/><use xlink:href="#s" transform="matrix(1,0,0,1,965,837.6) translate(23.625 36.1)"/><use xlink:href="#t" transform="matrix(1,0,0,1,965,837.6) translate(84.525 36.1)"/><path d="M760 960h-40V800" stroke="#000" stroke-width="2" fill="none"/><path/><path d="M724.64 814.27h-9.28L720 800z"/><path d="M726 815.27h-12l4.95-15.27h2.1zm-9.26-2h6.52L720 803.24z"/><path d="M600 833h120v74.8H600z" fill="none"/><g><use xlink:href="#u" transform="matrix(1,0,0,1,605,838) translate(8.549999999999997 36.1)"/><use xlink:href="#v" transform="matrix(1,0,0,1,605,838) translate(28.549999999999997 36.1)"/></g><defs><path d="M185-189c-5-48-123-54-124 2 14 75 158 14 163 119 3 78-121 87-175 55-17-10-28-26-33-46l33-7c5 56 141 63 141-1 0-78-155-14-162-118-5-82 145-84 179-34 5 7 8 16 11 25" id="w"/><path d="M96-169c-40 0-48 33-48 73s9 75 48 75c24 0 41-14 43-38l32 2c-6 37-31 61-74 61-59 0-76-41-82-99-10-93 101-131 147-64 4 7 5 14 7 22l-32 3c-4-21-16-35-41-35" id="x"/><path d="M106-169C34-169 62-67 57 0H25v-261h32l-1 103c12-21 28-36 61-36 89 0 53 116 60 194h-32v-121c2-32-8-49-39-48" id="y"/><path d="M100-194c63 0 86 42 84 106H49c0 40 14 67 53 68 26 1 43-12 49-29l28 8c-11 28-37 45-77 45C44 4 14-33 15-96c1-61 26-98 85-98zm52 81c6-60-76-77-97-28-3 7-6 17-6 28h103" id="z"/><path d="M85-194c31 0 48 13 60 33l-1-100h32l1 261h-30c-2-10 0-23-3-31C134-8 116 4 85 4 32 4 16-35 15-94c0-66 23-100 70-100zm9 24c-40 0-46 34-46 75 0 40 6 74 45 74 42 0 51-32 51-76 0-42-9-74-50-73" id="A"/><path d="M84 4C-5 8 30-112 23-190h32v120c0 31 7 50 39 49 72-2 45-101 50-169h31l1 190h-30c-1-10 1-25-2-33-11 22-28 36-60 37" id="B"/><path d="M24 0v-261h32V0H24" id="C"/><path d="M114-163C36-179 61-72 57 0H25l-1-190h30c1 12-1 29 2 39 6-27 23-49 58-41v29" id="D"/><g id="a"><use transform="matrix(0.05,0,0,0.05,0,0)" xlink:href="#w"/><use transform="matrix(0.05,0,0,0.05,12,0)" xlink:href="#x"/><use transform="matrix(0.05,0,0,0.05,21,0)" xlink:href="#y"/><use transform="matrix(0.05,0,0,0.05,31,0)" xlink:href="#z"/><use transform="matrix(0.05,0,0,0.05,41,0)" xlink:href="#A"/><use transform="matrix(0.05,0,0,0.05,51,0)" xlink:href="#B"/><use transform="matrix(0.05,0,0,0.05,61,0)" xlink:href="#C"/><use transform="matrix(0.05,0,0,0.05,64.95,0)" xlink:href="#z"/><use transform="matrix(0.05,0,0,0.05,74.95,0)" xlink:href="#D"/></g><path d="M30 0v-248h187v28H63v79h144v27H63v87h162V0H30" id="E"/><path d="M141 0L90-78 38 0H4l68-98-65-92h35l48 74 47-74h35l-64 92 68 98h-35" id="F"/><path d="M59-47c-2 24 18 29 38 22v24C64 9 27 4 27-40v-127H5v-23h24l9-43h21v43h35v23H59v120" id="G"/><path d="M100-194c62-1 85 37 85 99 1 63-27 99-86 99S16-35 15-95c0-66 28-99 85-99zM99-20c44 1 53-31 53-75 0-43-8-75-51-75s-53 32-53 75 10 74 51 75" id="H"/><g id="b"><use transform="matrix(0.05,0,0,0.05,0,0)" xlink:href="#E"/><use transform="matrix(0.05,0,0,0.05,12,0)" xlink:href="#F"/><use transform="matrix(0.05,0,0,0.05,21,0)" xlink:href="#z"/><use transform="matrix(0.05,0,0,0.05,31,0)" xlink:href="#x"/><use transform="matrix(0.05,0,0,0.05,40,0)" xlink:href="#B"/><use transform="matrix(0.05,0,0,0.05,50,0)" xlink:href="#G"/><use transform="matrix(0.05,0,0,0.05,55,0)" xlink:href="#H"/><use transform="matrix(0.05,0,0,0.05,65,0)" xlink:href="#D"/></g><path d="M24-231v-30h32v30H24zM24 0v-190h32V0H24" id="I"/><path d="M210-169c-67 3-38 105-44 169h-31v-121c0-29-5-50-35-48C34-165 62-65 56 0H25l-1-190h30c1 10-1 24 2 32 10-44 99-50 107 0 11-21 27-35 58-36 85-2 47 119 55 194h-31v-121c0-29-5-49-35-48" id="J"/><path d="M115-194c55 1 70 41 70 98S169 2 115 4C84 4 66-9 55-30l1 105H24l-1-265h31l2 30c10-21 28-34 59-34zm-8 174c40 0 45-34 45-75s-6-73-45-74c-42 0-51 32-51 76 0 43 10 73 51 73" id="K"/><g id="c"><use transform="matrix(0.05,0,0,0.05,0,0)" xlink:href="#w"/><use transform="matrix(0.05,0,0,0.05,12,0)" xlink:href="#I"/><use transform="matrix(0.05,0,0,0.05,15.949999999999998,0)" xlink:href="#J"/><use transform="matrix(0.05,0,0,0.05,30.899999999999995,0)" xlink:href="#K"/><use transform="matrix(0.05,0,0,0.05,40.9,0)" xlink:href="#C"/><use transform="matrix(0.05,0,0,0.05,44.85,0)" xlink:href="#z"/><use transform="matrix(0.05,0,0,0.05,54.85,0)" xlink:href="#E"/><use transform="matrix(0.05,0,0,0.05,66.85,0)" xlink:href="#F"/><use transform="matrix(0.05,0,0,0.05,75.85,0)" xlink:href="#z"/><use transform="matrix(0.05,0,0,0.05,85.85,0)" xlink:href="#x"/><use transform="matrix(0.05,0,0,0.05,94.85,0)" xlink:href="#B"/><use transform="matrix(0.05,0,0,0.05,104.84999999999998,0)" xlink:href="#G"/><use transform="matrix(0.05,0,0,0.05,109.84999999999998,0)" xlink:href="#H"/><use transform="matrix(0.05,0,0,0.05,119.84999999999998,0)" xlink:href="#D"/></g><path d="M127-220V0H93v-220H8v-28h204v28h-85" id="L"/><path d="M117-194c89-4 53 116 60 194h-32v-121c0-31-8-49-39-48C34-167 62-67 57 0H25l-1-190h30c1 10-1 24 2 32 11-22 29-35 61-36" id="M"/><path d="M177-190C167-65 218 103 67 71c-23-6-38-20-44-43l32-5c15 47 100 32 89-28v-30C133-14 115 1 83 1 29 1 15-40 15-95c0-56 16-97 71-98 29-1 48 16 59 35 1-10 0-23 2-32h30zM94-22c36 0 50-32 50-73 0-42-14-75-50-75-39 0-46 34-46 75s6 73 46 73" id="N"/><path d="M108 0H70L1-190h34L89-25l56-165h34" id="O"/><path d="M135-143c-3-34-86-38-87 0 15 53 115 12 119 90S17 21 10-45l28-5c4 36 97 45 98 0-10-56-113-15-118-90-4-57 82-63 122-42 12 7 21 19 24 35" id="P"/><g id="d"><use transform="matrix(0.05,0,0,0.05,0,0)" xlink:href="#L"/><use transform="matrix(0.05,0,0,0.05,10.3,0)" xlink:href="#I"/><use transform="matrix(0.05,0,0,0.05,14.25,0)" xlink:href="#J"/><use transform="matrix(0.05,0,0,0.05,29.200000000000003,0)" xlink:href="#I"/><use transform="matrix(0.05,0,0,0.05,33.150000000000006,0)" xlink:href="#M"/><use transform="matrix(0.05,0,0,0.05,43.150000000000006,0)" xlink:href="#N"/><use transform="matrix(0.05,0,0,0.05,53.150000000000006,0)" xlink:href="#E"/><use transform="matrix(0.05,0,0,0.05,65.15,0)" xlink:href="#O"/><use transform="matrix(0.05,0,0,0.05,74.15,0)" xlink:href="#z"/><use transform="matrix(0.05,0,0,0.05,84.15,0)" xlink:href="#M"/><use transform="matrix(0.05,0,0,0.05,94.15,0)" xlink:href="#G"/><use transform="matrix(0.05,0,0,0.05,99.15,0)" xlink:href="#P"/></g><path d="M27 0v-27h64v-190l-56 39v-29l58-41h29v221h61V0H27" id="Q"/><path d="M33 0v-38h34V0H33" id="R"/><g id="e"><use transform="matrix(0.05,0,0,0.05,0,0)" xlink:href="#Q"/><use transform="matrix(0.05,0,0,0.05,10,0)" xlink:href="#R"/></g><g id="f"><use transform="matrix(0.05,0,0,0.05,0,0)" xlink:href="#w"/><use transform="matrix(0.05,0,0,0.05,12,0)" xlink:href="#x"/><use transform="matrix(0.05,0,0,0.05,21,0)" xlink:href="#y"/><use transform="matrix(0.05,0,0,0.05,31,0)" xlink:href="#z"/><use transform="matrix(0.05,0,0,0.05,41,0)" xlink:href="#A"/><use transform="matrix(0.05,0,0,0.05,51,0)" xlink:href="#B"/><use transform="matrix(0.05,0,0,0.05,61,0)" xlink:href="#C"/><use transform="matrix(0.05,0,0,0.05,64.95,0)" xlink:href="#z"/></g><path d="M101-251c82-7 93 87 43 132L82-64C71-53 59-42 53-27h129V0H18c2-99 128-94 128-182 0-28-16-43-45-43s-46 15-49 41l-32-3c6-41 34-60 81-64" id="S"/><g id="g"><use transform="matrix(0.05,0,0,0.05,0,0)" xlink:href="#S"/><use transform="matrix(0.05,0,0,0.05,10,0)" xlink:href="#R"/></g><path d="M233-177c-1 41-23 64-60 70L243 0h-38l-65-103H63V0H30v-248c88 3 205-21 203 71zM63-129c60-2 137 13 137-47 0-61-80-42-137-45v92" id="T"/><path d="M141-36C126-15 110 5 73 4 37 3 15-17 15-53c-1-64 63-63 125-63 3-35-9-54-41-54-24 1-41 7-42 31l-33-3c5-37 33-52 76-52 45 0 72 20 72 64v82c-1 20 7 32 28 27v20c-31 9-61-2-59-35zM48-53c0 20 12 33 32 33 41-3 63-29 60-74-43 2-92-5-92 41" id="U"/><g id="h"><use transform="matrix(0.05,0,0,0.05,0,0)" xlink:href="#T"/><use transform="matrix(0.05,0,0,0.05,12.950000000000001,0)" xlink:href="#z"/><use transform="matrix(0.05,0,0,0.05,22.950000000000003,0)" xlink:href="#N"/><use transform="matrix(0.05,0,0,0.05,32.95,0)" xlink:href="#I"/><use transform="matrix(0.05,0,0,0.05,36.900000000000006,0)" xlink:href="#P"/><use transform="matrix(0.05,0,0,0.05,45.900000000000006,0)" xlink:href="#G"/><use transform="matrix(0.05,0,0,0.05,50.900000000000006,0)" xlink:href="#D"/><use transform="matrix(0.05,0,0,0.05,56.85,0)" xlink:href="#U"/><use transform="matrix(0.05,0,0,0.05,66.85000000000001,0)" xlink:href="#G"/><use transform="matrix(0.05,0,0,0.05,71.85000000000001,0)" xlink:href="#z"/></g><path d="M126-127c33 6 58 20 58 59 0 88-139 92-164 29-3-8-5-16-6-25l32-3c6 27 21 44 54 44 32 0 52-15 52-46 0-38-36-46-79-43v-28c39 1 72-4 72-42 0-27-17-43-46-43-28 0-47 15-49 41l-32-3c6-42 35-63 81-64 48-1 79 21 79 65 0 36-21 52-52 59" id="V"/><g id="i"><use transform="matrix(0.05,0,0,0.05,0,0)" xlink:href="#V"/><use transform="matrix(0.05,0,0,0.05,10,0)" xlink:href="#R"/></g><g id="j"><use transform="matrix(0.05,0,0,0.05,0,0)" xlink:href="#E"/><use transform="matrix(0.05,0,0,0.05,12,0)" xlink:href="#F"/><use transform="matrix(0.05,0,0,0.05,21,0)" xlink:href="#z"/><use transform="matrix(0.05,0,0,0.05,31,0)" xlink:href="#x"/><use transform="matrix(0.05,0,0,0.05,40,0)" xlink:href="#B"/><use transform="matrix(0.05,0,0,0.05,50,0)" xlink:href="#G"/><use transform="matrix(0.05,0,0,0.05,55,0)" xlink:href="#z"/></g><path d="M266 0h-40l-56-210L115 0H75L2-248h35L96-30l15-64 43-154h32l59 218 59-218h35" id="W"/><path d="M143 0L79-87 56-68V0H24v-261h32v163l83-92h37l-77 82L181 0h-38" id="X"/><path d="M140-251c81 0 123 46 123 126C263-53 228-8 163 1c7 30 30 48 69 40v23c-55 16-95-15-103-61C56-3 17-48 17-125c0-80 42-126 123-126zm0 227c63 0 89-41 89-101s-29-99-89-99c-61 0-89 39-89 99S79-25 140-24" id="Y"/><g id="k"><use transform="matrix(0.05,0,0,0.05,0,0)" xlink:href="#W"/><use transform="matrix(0.05,0,0,0.05,16.599999999999998,0)" xlink:href="#H"/><use transform="matrix(0.05,0,0,0.05,26.599999999999994,0)" xlink:href="#D"/><use transform="matrix(0.05,0,0,0.05,32.55,0)" xlink:href="#X"/><use transform="matrix(0.05,0,0,0.05,41.55,0)" xlink:href="#Y"/><use transform="matrix(0.05,0,0,0.05,55.54999999999999,0)" xlink:href="#B"/><use transform="matrix(0.05,0,0,0.05,65.55,0)" xlink:href="#z"/><use transform="matrix(0.05,0,0,0.05,75.55,0)" xlink:href="#B"/><use transform="matrix(0.05,0,0,0.05,85.55,0)" xlink:href="#z"/></g><path d="M155-56V0h-30v-56H8v-25l114-167h33v167h35v25h-35zm-30-156c-27 46-58 90-88 131h88v-131" id="Z"/><g id="l"><use transform="matrix(0.05,0,0,0.05,0,0)" xlink:href="#Z"/><use transform="matrix(0.05,0,0,0.05,10,0)" xlink:href="#R"/></g><path d="M205 0l-28-72H64L36 0H1l101-248h38L239 0h-34zm-38-99l-47-123c-12 45-31 82-46 123h93" id="aa"/><path d="M33 0v-248h34V0H33" id="ab"/><g id="m"><use transform="matrix(0.05,0,0,0.05,0,0)" xlink:href="#aa"/><use transform="matrix(0.05,0,0,0.05,12,0)" xlink:href="#A"/><use transform="matrix(0.05,0,0,0.05,22,0)" xlink:href="#A"/><use transform="matrix(0.05,0,0,0.05,32,0)" xlink:href="#ab"/><use transform="matrix(0.05,0,0,0.05,37,0)" xlink:href="#G"/><use transform="matrix(0.05,0,0,0.05,42,0)" xlink:href="#z"/><use transform="matrix(0.05,0,0,0.05,52,0)" xlink:href="#J"/></g><path d="M212-179c-10-28-35-45-73-45-59 0-87 40-87 99 0 60 29 101 89 101 43 0 62-24 78-52l27 14C228-24 195 4 139 4 59 4 22-46 18-125c-6-104 99-153 187-111 19 9 31 26 39 46" id="ac"/><path d="M160-131c35 5 61 23 61 61C221 17 115-2 30 0v-248c76 3 177-17 177 60 0 33-19 50-47 57zm-97-11c50-1 110 9 110-42 0-47-63-36-110-37v79zm0 115c55-2 124 14 124-45 0-56-70-42-124-44v89" id="ad"/><g id="n"><use transform="matrix(0.05,0,0,0.05,0,0)" xlink:href="#ac"/><use transform="matrix(0.05,0,0,0.05,12.950000000000001,0)" xlink:href="#H"/><use transform="matrix(0.05,0,0,0.05,22.950000000000003,0)" xlink:href="#J"/><use transform="matrix(0.05,0,0,0.05,37.900000000000006,0)" xlink:href="#J"/><use transform="matrix(0.05,0,0,0.05,52.85,0)" xlink:href="#U"/><use transform="matrix(0.05,0,0,0.05,62.85,0)" xlink:href="#M"/><use transform="matrix(0.05,0,0,0.05,72.85000000000001,0)" xlink:href="#A"/><use transform="matrix(0.05,0,0,0.05,82.85000000000001,0)" xlink:href="#ad"/><use transform="matrix(0.05,0,0,0.05,94.85000000000001,0)" xlink:href="#D"/><use transform="matrix(0.05,0,0,0.05,100.80000000000001,0)" xlink:href="#H"/><use transform="matrix(0.05,0,0,0.05,110.80000000000001,0)" xlink:href="#X"/><use transform="matrix(0.05,0,0,0.05,119.80000000000001,0)" xlink:href="#z"/><use transform="matrix(0.05,0,0,0.05,129.8,0)" xlink:href="#D"/></g><path d="M54-142c48-35 137-8 131 61C196 18 31 33 14-55l32-4c7 23 22 37 52 37 35-1 51-22 54-58 4-55-73-65-99-34H22l8-134h141v27H59" id="ae"/><g id="o"><use transform="matrix(0.05,0,0,0.05,0,0)" xlink:href="#ae"/><use transform="matrix(0.05,0,0,0.05,10,0)" xlink:href="#R"/></g><g id="p"><use transform="matrix(0.05,0,0,0.05,0,0)" xlink:href="#W"/><use transform="matrix(0.05,0,0,0.05,16.599999999999998,0)" xlink:href="#H"/><use transform="matrix(0.05,0,0,0.05,26.599999999999994,0)" xlink:href="#D"/><use transform="matrix(0.05,0,0,0.05,32.55,0)" xlink:href="#X"/></g><g id="q"><use transform="matrix(0.05,0,0,0.05,0,0)" xlink:href="#W"/><use transform="matrix(0.05,0,0,0.05,16.599999999999998,0)" xlink:href="#H"/><use transform="matrix(0.05,0,0,0.05,26.599999999999994,0)" xlink:href="#D"/><use transform="matrix(0.05,0,0,0.05,32.55,0)" xlink:href="#X"/><use transform="matrix(0.05,0,0,0.05,41.55,0)" xlink:href="#z"/><use transform="matrix(0.05,0,0,0.05,51.54999999999999,0)" xlink:href="#D"/><use transform="matrix(0.05,0,0,0.05,57.5,0)" xlink:href="#L"/><use transform="matrix(0.05,0,0,0.05,68.45,0)" xlink:href="#y"/><use transform="matrix(0.05,0,0,0.05,78.45,0)" xlink:href="#D"/><use transform="matrix(0.05,0,0,0.05,84.4,0)" xlink:href="#z"/><use transform="matrix(0.05,0,0,0.05,94.4,0)" xlink:href="#U"/><use transform="matrix(0.05,0,0,0.05,104.4,0)" xlink:href="#A"/></g><path d="M110-160c48 1 74 30 74 79 0 53-28 85-80 85-65 0-83-55-86-122-5-90 50-162 133-122 14 7 22 21 27 39l-31 6c-5-40-67-38-82-6-9 19-15 44-15 74 11-20 30-34 60-33zm-7 138c34 0 49-23 49-58s-16-56-50-56c-29 0-50 16-49 49 1 36 15 65 50 65" id="af"/><g id="r"><use transform="matrix(0.05,0,0,0.05,0,0)" xlink:href="#af"/><use transform="matrix(0.05,0,0,0.05,10,0)" xlink:href="#R"/></g><path d="M87 75C49 33 22-17 22-94c0-76 28-126 65-167h31c-38 41-64 92-64 168S80 34 118 75H87" id="ag"/><path d="M143 4C61 4 22-44 18-125c-5-107 100-154 193-111 17 8 29 25 37 43l-32 9c-13-25-37-40-76-40-61 0-88 39-88 99 0 61 29 100 91 101 35 0 62-11 79-27v-45h-74v-28h105v86C228-13 192 4 143 4" id="ah"/><g id="s"><use transform="matrix(0.05,0,0,0.05,0,0)" xlink:href="#ag"/><use transform="matrix(0.05,0,0,0.05,5.95,0)" xlink:href="#ah"/><use transform="matrix(0.05,0,0,0.05,19.95,0)" xlink:href="#B"/><use transform="matrix(0.05,0,0,0.05,29.950000000000003,0)" xlink:href="#U"/><use transform="matrix(0.05,0,0,0.05,39.95,0)" xlink:href="#D"/><use transform="matrix(0.05,0,0,0.05,45.900000000000006,0)" xlink:href="#A"/></g><path d="M33-261c38 41 65 92 65 168S71 34 33 75H2C39 34 66-17 66-93S39-220 2-261h31" id="ai"/><g id="t"><use transform="matrix(0.05,0,0,0.05,0,0)" xlink:href="#U"/><use transform="matrix(0.05,0,0,0.05,10,0)" xlink:href="#x"/><use transform="matrix(0.05,0,0,0.05,19,0)" xlink:href="#G"/><use transform="matrix(0.05,0,0,0.05,24,0)" xlink:href="#I"/><use transform="matrix(0.05,0,0,0.05,27.950000000000003,0)" xlink:href="#O"/><use transform="matrix(0.05,0,0,0.05,36.95,0)" xlink:href="#U"/><use transform="matrix(0.05,0,0,0.05,46.95,0)" xlink:href="#G"/><use transform="matrix(0.05,0,0,0.05,51.95,0)" xlink:href="#I"/><use transform="matrix(0.05,0,0,0.05,55.900000000000006,0)" xlink:href="#H"/><use transform="matrix(0.05,0,0,0.05,65.9,0)" xlink:href="#M"/><use transform="matrix(0.05,0,0,0.05,75.9,0)" xlink:href="#ai"/></g><path d="M64 0c3-98 48-159 88-221H18v-27h164v26C143-157 98-101 97 0H64" id="aj"/><g id="u"><use transform="matrix(0.05,0,0,0.05,0,0)" xlink:href="#aj"/><use transform="matrix(0.05,0,0,0.05,10,0)" xlink:href="#R"/></g><g id="v"><use transform="matrix(0.05,0,0,0.05,0,0)" xlink:href="#L"/><use transform="matrix(0.05,0,0,0.05,8.950000000000001,0)" xlink:href="#U"/><use transform="matrix(0.05,0,0,0.05,18.950000000000003,0)" xlink:href="#X"/><use transform="matrix(0.05,0,0,0.05,27.950000000000003,0)" xlink:href="#z"/><use transform="matrix(0.05,0,0,0.05,37.95,0)" xlink:href="#ab"/><use transform="matrix(0.05,0,0,0.05,42.95,0)" xlink:href="#G"/><use transform="matrix(0.05,0,0,0.05,47.95,0)" xlink:href="#z"/><use transform="matrix(0.05,0,0,0.05,57.95,0)" xlink:href="#J"/></g></defs></g></svg>