<?xml version="1.0" encoding="UTF-8" standalone="no"?>
<svg
   xmlns:dc="http://purl.org/dc/elements/1.1/"
   xmlns:cc="http://creativecommons.org/ns#"
   xmlns:rdf="http://www.w3.org/1999/02/22-rdf-syntax-ns#"
   xmlns:svg="http://www.w3.org/2000/svg"
   xmlns="http://www.w3.org/2000/svg"
   xmlns:xlink="http://www.w3.org/1999/xlink"
   version="1.1"
   id="svg2"
   height="1260"
   width="1348">
  <metadata
     id="metadata634">
    <rdf:RDF>
      <cc:Work
         rdf:about="">
        <dc:format>image/svg+xml</dc:format>
        <dc:type
           rdf:resource="http://purl.org/dc/dcmitype/StillImage" />
        <dc:title></dc:title>
      </cc:Work>
    </rdf:RDF>
  </metadata>
  <defs
     id="defs632" />
  <g
     id="g4"
     transform="translate(-12 -40)">
    <path
       id="path6"
       fill="#fff"
       stroke-width="2"
       stroke="#000"
       d="M112 360c0 22.1-17.9 40-40 40s-40-17.9-40-40 17.9-40 40-40 40 17.9 40 40z" />
    <use
       id="use8"
       transform="matrix(1,0,0,1,37,325) translate(29 38.6)"
       xlink:href="#a" />
    <path
       id="path10"
       fill="#fff"
       stroke-width="2"
       stroke="#000"
       d="M152 540c0 22.1-17.9 40-40 40s-40-17.9-40-40 17.9-40 40-40 40 17.9 40 40z" />
    <use
       id="use12"
       transform="matrix(1,0,0,1,77,505) translate(29 38.6)"
       xlink:href="#b" />
    <path
       id="path14"
       fill="#fff"
       stroke-width="2"
       stroke="#000"
       d="M360 540c0 22.1-17.9 40-40 40s-40-17.9-40-40 17.9-40 40-40 40 17.9 40 40z" />
    <use
       id="use16"
       transform="matrix(1,0,0,1,285,505) translate(28.525 38.6)"
       xlink:href="#c" />
    <path
       id="path18"
       fill="#fff"
       stroke-width="2"
       stroke="#000"
       d="M412 360c0 22.1-17.9 40-40 40s-40-17.9-40-40 17.9-40 40-40 40 17.9 40 40z" />
    <use
       id="use20"
       transform="matrix(1,0,0,1,337,325) translate(28.525 38.6)"
       xlink:href="#d" />
    <path
       id="path22"
       fill="#fff"
       stroke-width="2"
       stroke="#000"
       d="M260 200c0 22.1-17.9 40-40 40s-40-17.9-40-40 17.9-40 40-40 40 17.9 40 40z" />
    <use
       id="use24"
       transform="matrix(1,0,0,1,185,165) translate(29 38.6)"
       xlink:href="#e" />
    <path
       id="path26"
       fill="none"
       stroke-width="2"
       stroke="#000"
       d="M203.67 237.55L112 500" />
    <path
       id="path28"
       d="M204.9 237.03l-.28.85-1.9-.66.37-1.04zM121.08 488.06L112 500l.33-15z" />
    <path
       id="path30"
       d="M122.7 487.57l-9.5 12.5-1.2-.07-1 .04.36-16.43zm-9.63 9.37l6.38-8.4-6.15-2.14z" />
    <path
       id="path32"
       d="M121.45 373.54h61.9v21.6h-61.9z"
       fill="#fff" />
    <use
       id="use34"
       transform="matrix(1,0,0,1,121.44932166730466,373.5404209889669) translate(0 14.4)"
       xlink:href="#f" />
    <path
       id="path36"
       fill="none"
       stroke-width="2"
       stroke="#000"
       d="M231.37 239.33l65.73 266.72" />
    <path
       id="path38"
       d="M232.34 239.1l-1.94.47-.24-.95 1.94-.5zM297.1 506.05l-7.92-12.75 9-2.2z" />
    <path
       id="path40"
       d="M298.06 506.58l-1.24.9-9.2-14.82 11.66-2.88zm-7.3-12.64l5.56 8.96.77-10.5z" />
    <path
       id="path42"
       d="M238.53 383.16h61.9v21.6h-61.9z"
       fill="#fff" />
    <use
       id="use44"
       transform="matrix(1,0,0,1,238.52664804685958,383.16468315085325) translate(0 14.4)"
       xlink:href="#f" />
    <path
       id="path46"
       fill="none"
       stroke-width="2"
       stroke="#000"
       d="M249.96 228l93.6 102.57" />
    <path
       id="path48"
       d="M250.7 227.32l-1.48 1.34-.66-.72.7-.68.66-.8zM343.56 330.57l-13.04-7.4 6.85-6.26z" />
    <path
       id="path50"
       d="M344.77 330.8l-1.06 1-14.87-8.45 8.88-8.1zm-12.56-7.83l9.18 5.2-4.35-9.6z" />
    <path
       id="path52"
       d="M265.8 268.48h61.92v21.6h-61.9z"
       fill="#fff" />
    <use
       id="use54"
       transform="matrix(1,0,0,1,265.8084557164108,268.4815909412476) translate(0 14.4)"
       xlink:href="#f" />
    <path
       id="path56"
       fill="#fff"
       stroke-width="2"
       stroke="#000"
       d="M530 360c0 22.1-17.9 40-40 40s-40-17.9-40-40 17.9-40 40-40 40 17.9 40 40z" />
    <use
       id="use58"
       transform="matrix(1,0,0,1,455,325) translate(29 38.6)"
       xlink:href="#a" />
    <path
       id="path60"
       fill="#c92d39"
       stroke-width="2"
       stroke="#000"
       d="M570 540c0 22.1-17.9 40-40 40s-40-17.9-40-40 17.9-40 40-40 40 17.9 40 40z" />
    <use
       id="use62"
       transform="matrix(1,0,0,1,495,505) translate(29 38.6)"
       xlink:href="#b" />
    <path
       id="path64"
       fill="#fff"
       stroke-width="2"
       stroke="#000"
       d="M778 540c0 22.1-17.9 40-40 40s-40-17.9-40-40 17.9-40 40-40 40 17.9 40 40z" />
    <use
       id="use66"
       transform="matrix(1,0,0,1,703,505) translate(28.525 38.6)"
       xlink:href="#c" />
    <path
       id="path68"
       fill="#fff"
       stroke-width="2"
       stroke="#000"
       d="M830 360c0 22.1-17.9 40-40 40s-40-17.9-40-40 17.9-40 40-40 40 17.9 40 40z" />
    <use
       id="use70"
       transform="matrix(1,0,0,1,755,325) translate(28.525 38.6)"
       xlink:href="#d" />
    <path
       id="path72"
       fill="#fff"
       stroke-width="2"
       stroke="#000"
       d="M678 200c0 22.1-17.9 40-40 40s-40-17.9-40-40 17.9-40 40-40 40 17.9 40 40z" />
    <use
       id="use74"
       transform="matrix(1,0,0,1,603,165) translate(29 38.6)"
       xlink:href="#e" />
    <path
       id="path76"
       fill="none"
       d="M649.37 239.33L724.5 501.3" />
    <path
       id="path78"
       fill="none"
       stroke-width="2"
       stroke="#000"
       d="M649.37 239.33l2.78 9.7m2.8 9.7l5.55 19.4m2.8 9.72l5.55 19.4m2.8 9.7l5.55 19.4m2.78 9.7l5.57 19.42m2.78 9.7l5.57 19.4m2.78 9.7l5.57 19.4m2.78 9.7l5.57 19.42m2.78 9.7l5.57 19.4m2.78 9.7l2.78 9.7" />
    <path
       id="path80"
       d="M657.76 251.77l-8.9 2.55.5-15z" />
    <path
       id="path82"
       d="M659.36 252.35l-11.56 3.3.6-17.1 1.4-.37zm-9.46.63l6.26-1.8-5.9-8.74zM725.74 501.94l-.36.1-1.52.6-.3-1.06 1.92-.55z" />
    <path
       id="path84"
       d="M683.44 380.4h19V402h-19z"
       fill="#fff" />
    <use
       id="use86"
       transform="matrix(1,0,0,1,683.4367463038641,380.4146746868841) translate(0 14.4)"
       xlink:href="#g" />
    <path
       id="path88"
       fill="none"
       d="M667.96 228l93.6 102.57" />
    <path
       id="path90"
       fill="none"
       stroke-width="2"
       stroke="#000"
       d="M667.96 228l6.24 6.83m6.24 6.84l12.48 13.68m6.24 6.83l12.48 13.68m6.24 6.84l12.48 13.68m6.24 6.84l12.48 13.68m6.24 6.83l6.24 6.84" />
    <path
       id="path92"
       d="M681 235.4l-6.85 6.25-6.2-13.66z" />
    <path
       id="path94"
       d="M682.7 235.22l-8.9 8.1-7.05-15.57.52-.5.46-.54zm-8.2 4.77l4.8-4.4-9.16-5.22zM762.96 330.62L761.5 332l-.68-.75 1.48-1.35z" />
    <path
       id="path96"
       d="M705.26 268.48h19v21.6h-19z"
       fill="#fff" />
    <use
       id="use98"
       transform="matrix(1,0,0,1,705.2584557164108,268.4815909412476) translate(0 14.4)"
       xlink:href="#g" />
    <path
       id="path100"
       fill="none"
       d="M100 640h240v60H100z" />
    <use
       id="use102"
       transform="matrix(1,0,0,1,105,645) translate(101.48148148148148 29.444444444444443)"
       xlink:href="#h" />
    <path
       id="path104"
       fill="none"
       d="M518 640h240v60H518z" />
    <use
       id="use106"
       transform="matrix(1,0,0,1,523,645) translate(101.48148148148148 29.444444444444443)"
       xlink:href="#i" />
    <path
       id="path108"
       fill="#fff"
       stroke-width="2"
       stroke="#000"
       d="M428.8 144c-15.9 0-28.8-10.75-28.8-24 0-10.6 7.8-19.55 19.9-22.83C419.2 66 467.2 60 486.4 72 496 54 544 60 544 78c28.8-6 57.6 18 38.4 48 19.2 24 0 54-38.4 42-9.6 15.6-48 15.6-57.6 0-19.2 12-57.6 6-57.6-24z" />
    <use
       id="use110"
       transform="matrix(1,0,0,1,405,65) translate(16.57499999999999 47.8)"
       xlink:href="#j" />
    <use
       id="use112"
       transform="matrix(1,0,0,1,405,65) translate(21.57499999999999 47.8)"
       xlink:href="#k" />
    <use
       id="use114"
       transform="matrix(1,0,0,1,405,65) translate(102.475 47.8)"
       xlink:href="#l" />
    <use
       id="use116"
       transform="matrix(1,0,0,1,405,65) translate(34.05 69.4)"
       xlink:href="#m" />
    <use
       id="use118"
       transform="matrix(1,0,0,1,405,65) translate(51.05 69.4)"
       xlink:href="#n" />
    <use
       id="use120"
       transform="matrix(1,0,0,1,405,65) translate(84 69.4)"
       xlink:href="#o" />
    <path
       id="path122"
       fill="none"
       d="M578.1 166.25l25.07 14.13" />
    <path
       id="path124"
       d="M579.1 166.25c0 .56-.45 1-1 1s-1-.44-1-1c0-.55.45-1 1-1s1 .45 1 1zm6.27 3.54c0 .54-.45 1-1 1s-1-.46-1-1c0-.57.45-1 1-1s1 .43 1 1zm6.27 3.52c0 .55-.45 1-1 1-.56 0-1-.45-1-1 0-.56.44-1 1-1 .55 0 1 .44 1 1zm6.26 3.53c0 .55-.44 1-1 1-.55 0-1-.45-1-1 0-.56.45-1 1-1 .56 0 1 .44 1 1z" />
    <path
       id="path126"
       d="M577.6 167.13l-.5-.3 1-.58zM602.7 181.25h-.02l.04-.07zm1-1.72l-.53.85.5-.87z" />
    <path
       id="path128"
       fill="#fff"
       stroke-width="2"
       stroke="#000"
       d="M970 360c0 22.1-17.9 40-40 40s-40-17.9-40-40 17.9-40 40-40 40 17.9 40 40z" />
    <use
       id="use130"
       transform="matrix(1,0,0,1,895,325) translate(29 38.6)"
       xlink:href="#a" />
    <path
       id="path132"
       fill="#c92d39"
       stroke-width="2"
       stroke="#000"
       d="M1010 540c0 22.1-17.9 40-40 40s-40-17.9-40-40 17.9-40 40-40 40 17.9 40 40z" />
    <use
       id="use134"
       transform="matrix(1,0,0,1,935,505) translate(29 38.6)"
       xlink:href="#b" />
    <path
       id="path136"
       fill="#fff"
       stroke-width="2"
       stroke="#000"
       d="M1242 540c0 22.1-17.9 40-40 40s-40-17.9-40-40 17.9-40 40-40 40 17.9 40 40z" />
    <use
       id="use138"
       transform="matrix(1,0,0,1,1167,505) translate(28.525 38.6)"
       xlink:href="#c" />
    <path
       id="path140"
       fill="#fff"
       stroke-width="2"
       stroke="#000"
       d="M1270 360c0 22.1-17.9 40-40 40s-40-17.9-40-40 17.9-40 40-40 40 17.9 40 40z" />
    <use
       id="use142"
       transform="matrix(1,0,0,1,1195,325) translate(28.525 38.6)"
       xlink:href="#d" />
    <path
       id="path144"
       fill="#fff"
       stroke-width="2"
       stroke="#000"
       d="M1118 200c0 22.1-17.9 40-40 40s-40-17.9-40-40 17.9-40 40-40 40 17.9 40 40z" />
    <use
       id="use146"
       transform="matrix(1,0,0,1,1043,165) translate(29 38.6)"
       xlink:href="#e" />
    <path
       id="path148"
       fill="none"
       d="M958 640h240v60H958z" />
    <use
       id="use150"
       transform="matrix(1,0,0,1,963,645) translate(102.09876543209876 29.444444444444443)"
       xlink:href="#p" />
    <path
       id="path152"
       fill="none"
       stroke-width="2"
       stroke="#000"
       d="M1192.5 376.46L995.76 508.2" />
    <path
       id="path154"
       d="M1193.73 376.84l-.67.45-1.1-1.67 1-.68zM1010.2 504.12l-14.44 4.08 9.28-11.8z" />
    <path
       id="path156"
       d="M1011.8 504.7l-16.27 4.6-1.16-.95 10.73-13.64zm-13.35 1.7l10.15-2.87-3.63-5.42z" />
    <path
       id="path158"
       d="M1063.18 431.53h61.9v21.6h-61.9z"
       fill="#fff" />
    <use
       id="use160"
       transform="matrix(1,0,0,1,1063.1828213501492,431.53345665230336) translate(0 14.4)"
       xlink:href="#f" />
    <path
       id="path162"
       fill="none"
       stroke-width="2"
       stroke="#000"
       d="M1230 400l-28 100" />
    <path
       id="path164"
       d="M1230.96 400.27l-.96-.27 1.05-.04zM1210.3 487.5L1202 500l-.62-15z" />
    <path
       id="path166"
       d="M1211.9 486.92l-8.75 13.15-1.15-.07-1 .04-.67-16.36zm-9.03 9.96l5.85-8.78-6.28-1.75z" />
    <path
       id="path168"
       d="M1186.67 433.4h61.9V455h-61.9z"
       fill="#fff" />
    <use
       id="use170"
       transform="matrix(1,0,0,1,1186.670178041543,433.4136498516317) translate(0 14.4)"
       xlink:href="#f" />
    <path
       id="path172"
       fill="none"
       stroke-width="2"
       stroke="#000"
       d="M1162 540h-152" />
    <path
       id="path174"
       d="M1162 540l.04 1h-.04v-2h.06zM1024.27 544.64L1010 540l14.27-4.64z" />
    <path
       id="path176"
       d="M1025.27 546l-15.33-4.97.06-1.03-.04-1.04 15.3-4.97zm-12.03-6l10.03 3.26v-6.52z" />
    <path
       id="path178"
       d="M1066.38 529.2h61.9v21.6h-61.9z"
       fill="#fff" />
    <use
       id="use180"
       transform="matrix(1,0,0,1,1066.3833333333332,529.2) translate(0 14.4)"
       xlink:href="#f" />
    <path
       id="path182"
       fill="none"
       stroke-width="2"
       stroke="#000"
       d="M1089.92 239.2l85.73 269.4" />
    <path
       id="path184"
       d="M1090.88 238.88l-1.9.6-.33-1 1.94-.5zM1175.65 508.6l-8.74-12.2 8.84-2.8z" />
    <path
       id="path186"
       d="M1176.65 509.08l-.27.2-.87.83-10.2-14.23 11.45-3.65zm-8.13-12.14l6.15 8.57.06-10.54z" />
    <path
       id="path188"
       d="M1092.08 338.8h65.96v21.6h-65.96z"
       fill="#fff" />
    <use
       id="use190"
       transform="matrix(1,0,0,1,1092.0832406512222,338.8027430216764) translate(0 14.4)"
       xlink:href="#q" />
    <path
       id="path192"
       fill="none"
       stroke-width="2"
       stroke="#000"
       d="M1111 224.3l85.46 112.16" />
    <path
       id="path194"
       d="M1111.78 223.7l-1.6 1.22-.47-.63.76-.92.5-.77zM1196.46 336.46l-12.34-8.53 7.38-5.62z" />
    <path
       id="path196"
       d="M1197.56 336.6l-.02.02-.8 1.26-14.32-9.92 9.57-7.28zm-11.74-8.7l8.68 6-3.5-9.96z" />
    <path
       id="path198"
       d="M1120.75 269.6h65.96v21.6h-65.95z"
       fill="#fff" />
    <use
       id="use200"
       transform="matrix(1,0,0,1,1120.747689790331,269.58737142283246) translate(0 14.4)"
       xlink:href="#q" />
    <path
       id="path202"
       fill="#fff"
       stroke-width="2"
       stroke="#000"
       d="M112 940c0 22.1-17.9 40-40 40s-40-17.9-40-40 17.9-40 40-40 40 17.9 40 40z" />
    <use
       id="use204"
       transform="matrix(1,0,0,1,37,905) translate(29 38.6)"
       xlink:href="#a" />
    <path
       id="path206"
       fill="#c92d39"
       stroke-width="2"
       stroke="#000"
       d="M152 1120c0 22.1-17.9 40-40 40s-40-17.9-40-40 17.9-40 40-40 40 17.9 40 40z" />
    <use
       id="use208"
       transform="matrix(1,0,0,1,77,1085) translate(29 38.6)"
       xlink:href="#b" />
    <path
       id="path210"
       fill="#fff"
       stroke-width="2"
       stroke="#000"
       d="M384 1120c0 22.1-17.9 40-40 40s-40-17.9-40-40 17.9-40 40-40 40 17.9 40 40z" />
    <use
       id="use212"
       transform="matrix(1,0,0,1,309,1085) translate(28.525 38.6)"
       xlink:href="#c" />
    <path
       id="path214"
       fill="#fff"
       stroke-width="2"
       stroke="#000"
       d="M412 940c0 22.1-17.9 40-40 40s-40-17.9-40-40 17.9-40 40-40 40 17.9 40 40z" />
    <use
       id="use216"
       transform="matrix(1,0,0,1,337,905) translate(28.525 38.6)"
       xlink:href="#d" />
    <path
       id="path218"
       fill="#fff"
       stroke-width="2"
       stroke="#000"
       d="M260 780c0 22.1-17.9 40-40 40s-40-17.9-40-40 17.9-40 40-40 40 17.9 40 40z" />
    <use
       id="use220"
       transform="matrix(1,0,0,1,185.00000000000003,745) translate(29 38.6)"
       xlink:href="#e" />
    <path
       id="path222"
       fill="none"
       d="M100 1220h240v60H100z" />
    <use
       id="use224"
       transform="matrix(1,0,0,1,105.00000000000003,1225) translate(101.48148148148148 29.444444444444443)"
       xlink:href="#r" />
    <path
       id="path226"
       fill="none"
       d="M344 1080l16.52-100.7" />
    <path
       id="path228"
       fill="none"
       stroke-width="2"
       stroke="#000"
       d="M344 1080l1.84-11.2m1.83-11.18l3.67-22.37m1.84-11.2l3.67-22.37m1.84-11.18l1.82-11.2" />
    <path
       id="path230"
       d="M344 1080l-1.02.04.03-.2zM362.8 994.14l-9.16-1.5 6.88-13.33z" />
    <path
       id="path232"
       d="M361.42 978.55l2.56 16.8-11.86-1.95 7.9-15.3zm-6.26 13.32l6.43 1.06-1.6-10.43z" />
    <path
       id="path234"
       d="M341.5 1026.58h19v21.6h-19z"
       fill="#fff" />
    <use
       id="use236"
       transform="matrix(1,0,0,1,341.49334080306625,1026.5765554878535) translate(0 14.4)"
       xlink:href="#g" />
    <path
       id="path238"
       fill="#fff"
       stroke-width="2"
       stroke="#000"
       d="M1204 164c-13.25 0-24-10.75-24-24 0-10.6 6.5-19.55 16.58-22.83C1196 86 1236 80 1252 92c8-18 48-12 48 6 24-6 48 18 32 48 16 24 0 54-32 42-8 15.6-40 15.6-48 0-16 12-48 6-48-24z" />
    <use
       id="use240"
       transform="matrix(1,0,0,1,1185,85) translate(13.100000000000001 47.8)"
       xlink:href="#s" />
    <use
       id="use242"
       transform="matrix(1,0,0,1,1185,85) translate(55.1 47.8)"
       xlink:href="#t" />
    <use
       id="use244"
       transform="matrix(1,0,0,1,1185,85) translate(115.94999999999999 47.8)"
       xlink:href="#u" />
    <use
       id="use246"
       transform="matrix(1,0,0,1,1185,85) translate(50.8 69.4)"
       xlink:href="#v" />
    <use
       id="use248"
       transform="matrix(1,0,0,1,1185,85) translate(80.19999999999999 69.4)"
       xlink:href="#w" />
    <path
       id="path250"
       fill="none"
       d="M1276 200l-46 120" />
    <path
       id="path252"
       d="M1277 200c0 .55-.45 1-1 1s-1-.45-1-1 .45-1 1-1 1 .45 1 1zm-2.88 7.5c0 .55-.44 1-1 1-.55 0-1-.45-1-1s.45-1 1-1c.56 0 1 .45 1 1zm-2.87 7.5c0 .55-.45 1-1 1s-1-.45-1-1 .45-1 1-1 1 .45 1 1zm-2.88 7.5c0 .55-.44 1-1 1-.55 0-1-.45-1-1s.45-1 1-1c.56 0 1 .45 1 1zm-2.87 7.5c0 .55-.45 1-1 1s-1-.45-1-1 .45-1 1-1 1 .45 1 1zm-2.88 7.5c0 .55-.44 1-1 1-.55 0-1-.45-1-1s.45-1 1-1c.56 0 1 .45 1 1zm-2.87 7.5c0 .55-.45 1-1 1s-1-.45-1-1 .45-1 1-1 1 .45 1 1zm-2.88 7.5c0 .55-.44 1-1 1-.55 0-1-.45-1-1s.45-1 1-1c.56 0 1 .45 1 1zM1254 260c0 .55-.45 1-1 1s-1-.45-1-1 .45-1 1-1 1 .45 1 1zm-2.88 7.5c0 .55-.44 1-1 1-.55 0-1-.45-1-1s.45-1 1-1c.56 0 1 .45 1 1zm-2.87 7.5c0 .55-.45 1-1 1s-1-.45-1-1 .45-1 1-1 1 .45 1 1zm-2.88 7.5c0 .55-.44 1-1 1-.55 0-1-.45-1-1s.45-1 1-1c.56 0 1 .45 1 1zm-2.87 7.5c0 .55-.45 1-1 1s-1-.45-1-1 .45-1 1-1 1 .45 1 1zm-2.88 7.5c0 .55-.44 1-1 1-.55 0-1-.45-1-1s.45-1 1-1c.56 0 1 .45 1 1zm-2.87 7.5c0 .55-.45 1-1 1s-1-.45-1-1 .45-1 1-1 1 .45 1 1zm-2.88 7.5c0 .55-.44 1-1 1-.55 0-1-.45-1-1s.45-1 1-1c.56 0 1 .45 1 1zM1231 320c0 .55-.45 1-1 1s-1-.45-1-1 .45-1 1-1 1 .45 1 1z" />
    <path
       id="path254"
       d="M1276.93 200.36l-1.84-.7 2.1-.02zM1230 320l-1.1.04.17-.4z" />
    <path
       id="path256"
       fill="none"
       d="M1301.27 189.47L1300 540h-58" />
    <path
       id="path258"
       d="M1302.27 189.47c0 .55-.45 1-1 1-.56 0-1-.45-1-1s.44-1 1-1c.55 0 1 .45 1 1zm-.03 8c0 .57-.45 1-1 1-.56 0-1-.43-1-1 0-.54.44-1 1-1 .55 0 1 .46 1 1zm-.03 8.02c0 .55-.44 1-1 1-.54 0-1-.45-1-1 0-.56.46-1 1-1 .56 0 1 .44 1 1zm-.02 8c0 .56-.45 1-1 1s-1-.44-1-1c0-.55.45-1 1-1s1 .45 1 1zm-.03 8c0 .57-.45 1-1 1s-1-.43-1-1c0-.54.45-1 1-1s1 .46 1 1zm-.03 8.02c0 .56-.45 1-1 1s-1-.44-1-1c0-.55.45-1 1-1s1 .45 1 1zm-.03 8c0 .57-.46 1-1 1-.56 0-1-.43-1-1 0-.54.44-1 1-1 .54 0 1 .46 1 1zm-.04 8.02c0 .56-.44 1-1 1-.55 0-1-.44-1-1 0-.55.45-1 1-1 .56 0 1 .45 1 1zm-.03 8.02c0 .55-.44 1-1 1-.55 0-1-.45-1-1 0-.56.45-1 1-1 .56 0 1 .44 1 1zm-.02 8c0 .56-.44 1-1 1-.55 0-1-.44-1-1 0-.55.45-1 1-1 .56 0 1 .45 1 1zm-.02 8.02c0 .55-.45 1-1 1-.56 0-1-.45-1-1 0-.56.44-1 1-1 .55 0 1 .44 1 1zm-.03 8c0 .56-.45 1-1 1s-1-.44-1-1c0-.55.45-1 1-1s1 .45 1 1zm-.03 8.02c0 .55-.45 1-1 1s-1-.45-1-1c0-.56.45-1 1-1s1 .44 1 1zm-.03 8c0 .56-.46 1-1 1-.56 0-1-.44-1-1 0-.55.44-1 1-1 .54 0 1 .45 1 1zm-.04 8.02c0 .55-.45 1-1 1s-1-.45-1-1c0-.56.45-1 1-1s1 .44 1 1zm-.03 8c0 .56-.45 1-1 1s-1-.44-1-1c0-.54.45-1 1-1s1 .46 1 1zm-.03 8.02c0 .55-.44 1-1 1-.55 0-1-.45-1-1s.45-1 1-1c.56 0 1 .45 1 1zm-.03 8c0 .56-.44 1-1 1-.55 0-1-.44-1-1 0-.54.45-1 1-1 .56 0 1 .46 1 1zm-.03 8.02c0 .55-.44 1-1 1-.55 0-1-.45-1-1s.45-1 1-1c.56 0 1 .45 1 1zm-.02 8c0 .56-.45 1-1 1-.56 0-1-.44-1-1 0-.54.44-1 1-1 .55 0 1 .46 1 1zm-.03 8.02c0 .55-.46 1-1 1-.57 0-1-.45-1-1s.43-1 1-1c.54 0 1 .45 1 1zm-.04 8c0 .56-.45 1-1 1s-1-.44-1-1c0-.54.45-1 1-1s1 .46 1 1zm-.03 8.02c0 .55-.45 1-1 1s-1-.45-1-1 .45-1 1-1 1 .45 1 1zm-.03 8c0 .56-.45 1-1 1s-1-.44-1-1c0-.54.45-1 1-1s1 .46 1 1zm-.03 8.02c0 .55-.45 1-1 1s-1-.45-1-1 .45-1 1-1 1 .45 1 1zm-.03 8c0 .56-.45 1-1 1s-1-.44-1-1c0-.54.45-1 1-1s1 .46 1 1zm-.03 8.02c0 .55-.43 1-1 1-.54 0-1-.45-1-1s.46-1 1-1c.57 0 1 .45 1 1zm-.02 8c0 .56-.44 1-1 1-.55 0-1-.44-1-1 0-.54.45-1 1-1 .56 0 1 .46 1 1zm-.02 8.02c0 .55-.45 1-1 1-.56 0-1-.45-1-1s.44-1 1-1c.55 0 1 .45 1 1zm-.03 8c0 .56-.45 1-1 1-.56 0-1-.44-1-1 0-.54.44-1 1-1 .55 0 1 .46 1 1zm-.03 8.02c0 .55-.45 1-1 1s-1-.45-1-1 .45-1 1-1 1 .45 1 1zm-.03 8c0 .57-.45 1-1 1s-1-.43-1-1c0-.54.45-1 1-1s1 .46 1 1zm-.03 8.02c0 .56-.45 1-1 1s-1-.44-1-1c0-.55.45-1 1-1s1 .45 1 1zm-.03 8c0 .57-.44 1-1 1-.54 0-1-.43-1-1 0-.54.46-1 1-1 .56 0 1 .46 1 1zm-.02 8.02c0 .56-.45 1-1 1s-1-.44-1-1c0-.55.45-1 1-1s1 .45 1 1zm-.03 8c0 .57-.44 1-1 1-.55 0-1-.43-1-1 0-.54.45-1 1-1 .56 0 1 .46 1 1zm-.03 8.02c0 .56-.44 1-1 1-.55 0-1-.44-1-1 0-.55.45-1 1-1 .56 0 1 .45 1 1zm-.02 8c0 .57-.45 1-1 1-.56 0-1-.43-1-1 0-.54.44-1 1-1 .55 0 1 .46 1 1zm-.03 8.03c0 .55-.45 1-1 1-.56 0-1-.45-1-1 0-.56.44-1 1-1 .55 0 1 .44 1 1zm-.03 8c0 .56-.45 1-1 1s-1-.44-1-1c0-.55.45-1 1-1s1 .45 1 1zm-.03 8.02c0 .54-.44 1-1 1-.54 0-1-.46-1-1 0-.57.46-1 1-1 .56 0 1 .43 1 1zm-.02 8c0 .55-.45 1-1 1s-1-.45-1-1c0-.56.45-1 1-1s1 .44 1 1zm-.03 8c0 .56-.45 1-1 1s-1-.44-1-1c0-.55.45-1 1-1s1 .45 1 1zm-.03 8.02c0 .55-.45 1-1 1s-1-.45-1-1c0-.56.45-1 1-1s1 .44 1 1zm-1.95 6.08c0 .55-.45 1-1 1s-1-.45-1-1 .45-1 1-1 1 .45 1 1zm-8 0c0 .55-.46 1-1 1-.56 0-1-.45-1-1s.44-1 1-1c.54 0 1 .45 1 1zm-8.02 0c0 .55-.45 1-1 1s-1-.45-1-1 .45-1 1-1 1 .45 1 1zm-8 0c0 .55-.46 1-1 1-.56 0-1-.45-1-1s.44-1 1-1c.54 0 1 .45 1 1zm-8.02 0c0 .55-.45 1-1 1s-1-.45-1-1 .45-1 1-1 1 .45 1 1zm-8 0c0 .55-.46 1-1 1-.56 0-1-.45-1-1s.44-1 1-1c.54 0 1 .45 1 1zm-8.02 0c0 .55-.44 1-1 1-.54 0-1-.45-1-1s.46-1 1-1c.56 0 1 .45 1 1zm-8 0c0 .55-.45 1-1 1s-1-.45-1-1 .45-1 1-1 1 .45 1 1z" />
    <path
       id="path260"
       d="M1300.84 188.3l1.43.42v.76h-2v-1.38zM1242 541h-.06l.06-1-.04-1h.04z" />
    <path
       id="path262"
       fill="#fff"
       stroke-width="2"
       stroke="#000"
       d="M530 940c0 22.1-17.9 40-40 40s-40-17.9-40-40 17.9-40 40-40 40 17.9 40 40z" />
    <use
       id="use264"
       transform="matrix(1,0,0,1,455,905) translate(29 38.6)"
       xlink:href="#a" />
    <path
       id="path266"
       fill="#498a44"
       stroke-width="2"
       stroke="#000"
       d="M570 1120c0 22.1-17.9 40-40 40s-40-17.9-40-40 17.9-40 40-40 40 17.9 40 40z" />
    <use
       id="use268"
       transform="matrix(1,0,0,1,495,1085) translate(29 38.6)"
       xlink:href="#b" />
    <path
       id="path270"
       fill="#fff"
       stroke-width="2"
       stroke="#000"
       d="M802 1120c0 22.1-17.9 40-40 40s-40-17.9-40-40 17.9-40 40-40 40 17.9 40 40z" />
    <use
       id="use272"
       transform="matrix(1,0,0,1,727,1085) translate(28.525 38.6)"
       xlink:href="#c" />
    <path
       id="path274"
       fill="#fff"
       stroke-width="2"
       stroke="#000"
       d="M830 940c0 22.1-17.9 40-40 40s-40-17.9-40-40 17.9-40 40-40 40 17.9 40 40z" />
    <use
       id="use276"
       transform="matrix(1,0,0,1,755.0000000000001,905) translate(28.525 38.6)"
       xlink:href="#d" />
    <path
       id="path278"
       fill="#fff"
       stroke-width="2"
       stroke="#000"
       d="M678 780c0 22.1-17.9 40-40 40s-40-17.9-40-40 17.9-40 40-40 40 17.9 40 40z" />
    <use
       id="use280"
       transform="matrix(1,0,0,1,603,745) translate(29 38.6)"
       xlink:href="#e" />
    <path
       id="path282"
       fill="none"
       d="M518 1220h240v60H518z" />
    <use
       id="use284"
       transform="matrix(1,0,0,1,523,1225) translate(101.48148148148148 29.444444444444443)"
       xlink:href="#x" />
    <path
       id="path286"
       fill="none"
       stroke-width="2"
       stroke="#000"
       d="M778.8 1082.67L790 980" />
    <path
       id="path288"
       d="M779.8 1082.78l-.15 1.4-1.92-.9.08-.72zM793.06 994.68l-9.2-1L790 980z" />
    <path
       id="path290"
       d="M790 980l1-.04 3.32 15.87-11.95-1.3 6.56-14.6zm-4.68 12.83l6.48.7-2.15-10.3z" />
    <path
       id="path292"
       d="M738.62 1028.4h89.86v21.6h-89.86z"
       fill="#fff" />
    <use
       id="use294"
       transform="matrix(1,0,0,1,738.6185336974789,1028.4104510266764) translate(0 14.4)"
       xlink:href="#y" />
    <path
       id="path296"
       fill="none"
       stroke-width="2"
       stroke="#000"
       d="M742.12 1084.23L638 820" />
    <path
       id="path298"
       d="M743.37 1084.67l-1.77 1-.4-1.08 1.85-.74zM647.54 831.57l-8.62 3.4L638 820z" />
    <path
       id="path300"
       d="M638 820l1.26-.04L649.2 832l-11.2 4.4-1-16.46zm1.83 13.54l6.07-2.4-6.7-8.13z" />
    <path
       id="path302"
       d="M645.13 941.3H735v21.6h-89.87z"
       fill="#fff" />
    <use
       id="use304"
       transform="matrix(1,0,0,1,645.1329055805124,941.3126662579878) translate(0 14.4)"
       xlink:href="#y" />
    <path
       id="path306"
       fill="none"
       stroke-width="2"
       stroke="#000"
       d="M722 1120L530 940" />
    <path
       id="path308"
       d="M722.05 1121.42l-.73-.7.68-.72zM543.58 946.38l-6.34 6.76L530 940z" />
    <path
       id="path310"
       d="M545.25 946.06l-8.22 8.77-7.15-12.97.12-1.86-.04-1.12zm-7.8 5.4l4.46-4.76-9.54-4.5z" />
    <path
       id="path312"
       d="M581.08 1019.2h89.86v21.6h-89.86z"
       fill="#fff" />
    <use
       id="use314"
       transform="matrix(1,0,0,1,581.075,1019.2) translate(0 14.4)"
       xlink:href="#y" />
    <path
       id="path316"
       fill="#fff"
       stroke-width="2"
       stroke="#000"
       d="M960 940c0 22.1-17.9 40-40 40s-40-17.9-40-40 17.9-40 40-40 40 17.9 40 40z" />
    <use
       id="use318"
       transform="matrix(1,0,0,1,885,905) translate(29 38.6)"
       xlink:href="#a" />
    <path
       id="path320"
       fill="#fff"
       stroke-width="2"
       stroke="#000"
       d="M1000 1120c0 22.1-17.9 40-40 40s-40-17.9-40-40 17.9-40 40-40 40 17.9 40 40z" />
    <use
       id="use322"
       transform="matrix(1,0,0,1,925,1085) translate(29 38.6)"
       xlink:href="#b" />
    <path
       id="path324"
       fill="#fff"
       stroke-width="2"
       stroke="#000"
       d="M1232 1120c0 22.1-17.9 40-40 40s-40-17.9-40-40 17.9-40 40-40 40 17.9 40 40z" />
    <use
       id="use326"
       transform="matrix(1,0,0,1,1157,1085) translate(28.525 38.6)"
       xlink:href="#c" />
    <path
       id="path328"
       fill="#fff"
       stroke-width="2"
       stroke="#000"
       d="M1260 940c0 22.1-17.9 40-40 40s-40-17.9-40-40 17.9-40 40-40 40 17.9 40 40z" />
    <use
       id="use330"
       transform="matrix(1,0,0,1,1185,905) translate(28.525 38.6)"
       xlink:href="#d" />
    <path
       id="path332"
       fill="#fff"
       stroke-width="2"
       stroke="#000"
       d="M1118 780c0 22.1-17.9 40-40 40s-40-17.9-40-40 17.9-40 40-40 40 17.9 40 40z" />
    <use
       id="use334"
       transform="matrix(1,0,0,1,1043,745) translate(29 38.6)"
       xlink:href="#e" />
    <path
       id="path336"
       fill="none"
       d="M948 1220h240v60H948z" />
    <use
       id="use338"
       transform="matrix(1,0,0,1,953,1225) translate(104.5679012345679 29.444444444444443)"
       xlink:href="#z" />
    <path
       id="path340"
       fill="none"
       stroke-width="2"
       stroke="#000"
       d="M995 1098.7l189.9-137.63" />
    <path
       id="path342"
       d="M995.58 1099.52l-.9.66-1-1.76.73-.52zM1176.06 973.2l-5.45-7.5 14.3-4.63z" />
    <path
       id="path344"
       d="M1186.07 961.14l-10.02 13.76-7.05-9.74 16.36-5.3zm-13.84 5.08l3.83 5.27 6.2-8.53z" />
    <path
       id="path346"
       d="M1030.45 1029.65h89.86v21.6h-89.85z"
       fill="#fff" />
    <use
       id="use348"
       transform="matrix(1,0,0,1,1030.450505132219,1029.6477578661877) translate(0 14.4)"
       xlink:href="#y" />
    <path
       id="path350"
       fill="none"
       stroke-width="2"
       stroke="#000"
       d="M984.94 1087.53L1078 820" />
    <path
       id="path352"
       d="M985.88 1087.85l-.47 1.36-1.64-1.34.23-.66zM1077.7 835l-8.77-3.05L1078 820z" />
    <path
       id="path354"
       d="M1078 820l1-.04-.34 16.43-11.35-3.96 9.5-12.5zm-7.44 11.46l6.16 2.14.22-10.54z" />
    <path
       id="path356"
       d="M986.54 942.96h89.86v21.6h-89.86z"
       fill="#fff" />
    <use
       id="use358"
       transform="matrix(1,0,0,1,986.5435832532496,942.9627397115507) translate(0 14.4)"
       xlink:href="#y" />
    <path
       id="path360"
       fill="none"
       stroke-width="2"
       stroke="#000"
       d="M951.33 1081l-22.66-102" />
    <path
       id="path362"
       d="M950.36 1081.24v-.04l.97-.2zM936.3 991.93l-9.06 2 1.43-14.92z" />
    <path
       id="path364"
       d="M937.85 992.6l-11.74 2.62 1.54-15.96.18-.03 1.85-.48zm-9.48.07l6.36-1.42-5.36-9.08z" />
    <path
       id="path366"
       d="M895.08 1019.2h89.86v21.6h-89.86z"
       fill="#fff" />
    <g
       id="g368">
      <use
         id="use370"
         transform="matrix(1,0,0,1,895.075,1019.2) translate(0 14.4)"
         xlink:href="#y" />
    </g>
    <path
       id="path372"
       fill="none"
       stroke-width="2"
       stroke="#000"
       d="M1000 1120h151" />
    <path
       id="path374"
       d="M1000 1121h-.06l.06-1-.04-1h.04zM1151 1120l-14.27 4.64v-9.28z" />
    <path
       id="path376"
       d="M1152.04 1119.3l-.04.7.03.72-16.3 5.3v-12.03zm-14.3 3.96l10.02-3.26-10.03-3.26z" />
    <path
       id="path378"
       d="M1030.57 1109.2h89.86v21.6h-89.86z"
       fill="#fff" />
    <g
       id="g380">
      <use
         id="use382"
         transform="matrix(1,0,0,1,1030.5746880484523,1109.2) translate(0 14.4)"
         xlink:href="#y" />
    </g>
    <defs
       id="defs384">
      <path
         id="A"
         d="M205 0l-28-72H64L36 0H1l101-248h38L239 0h-34zm-38-99l-47-123c-12 45-31 82-46 123h93" />
      <use
         id="a"
         xlink:href="#A"
         transform="matrix(0.05,0,0,0.05,0,0)" />
      <path
         id="B"
         d="M30 0v-248h187v28H63v79h144v27H63v87h162V0H30" />
      <use
         id="b"
         xlink:href="#B"
         transform="matrix(0.05,0,0,0.05,0,0)" />
      <path
         id="C"
         d="M30-248c118-7 216 8 213 122C240-48 200 0 122 0H30v-248zM63-27c89 8 146-16 146-99s-60-101-146-95v194" />
      <use
         id="c"
         xlink:href="#C"
         transform="matrix(0.05,0,0,0.05,0,0)" />
      <path
         id="D"
         d="M212-179c-10-28-35-45-73-45-59 0-87 40-87 99 0 60 29 101 89 101 43 0 62-24 78-52l27 14C228-24 195 4 139 4 59 4 22-46 18-125c-6-104 99-153 187-111 19 9 31 26 39 46" />
      <use
         id="d"
         xlink:href="#D"
         transform="matrix(0.05,0,0,0.05,0,0)" />
      <path
         id="E"
         d="M160-131c35 5 61 23 61 61C221 17 115-2 30 0v-248c76 3 177-17 177 60 0 33-19 50-47 57zm-97-11c50-1 110 9 110-42 0-47-63-36-110-37v79zm0 115c55-2 124 14 124-45 0-56-70-42-124-44v89" />
      <use
         id="e"
         xlink:href="#E"
         transform="matrix(0.05,0,0,0.05,0,0)" />
      <path
         id="F"
         d="M100-194c63 0 86 42 84 106H49c0 40 14 67 53 68 26 1 43-12 49-29l28 8c-11 28-37 45-77 45C44 4 14-33 15-96c1-61 26-98 85-98zm52 81c6-60-76-77-97-28-3 7-6 17-6 28h103" />
      <path
         id="G"
         d="M24 0v-261h32V0H24" />
      <path
         id="H"
         d="M96-169c-40 0-48 33-48 73s9 75 48 75c24 0 41-14 43-38l32 2c-6 37-31 61-74 61-59 0-76-41-82-99-10-93 101-131 147-64 4 7 5 14 7 22l-32 3c-4-21-16-35-41-35" />
      <path
         id="I"
         d="M59-47c-2 24 18 29 38 22v24C64 9 27 4 27-40v-127H5v-23h24l9-43h21v43h35v23H59v120" />
      <path
         id="J"
         d="M24-231v-30h32v30H24zM24 0v-190h32V0H24" />
      <path
         id="K"
         d="M100-194c62-1 85 37 85 99 1 63-27 99-86 99S16-35 15-95c0-66 28-99 85-99zM99-20c44 1 53-31 53-75 0-43-8-75-51-75s-53 32-53 75 10 74 51 75" />
      <path
         id="L"
         d="M117-194c89-4 53 116 60 194h-32v-121c0-31-8-49-39-48C34-167 62-67 57 0H25l-1-190h30c1 10-1 24 2 32 11-22 29-35 61-36" />
      <g
         id="f">
        <use
           id="use404"
           xlink:href="#F"
           transform="matrix(0.05,0,0,0.05,0,0)" />
        <use
           id="use406"
           xlink:href="#G"
           transform="matrix(0.05,0,0,0.05,10,0)" />
        <use
           id="use408"
           xlink:href="#F"
           transform="matrix(0.05,0,0,0.05,13.949999999999998,0)" />
        <use
           id="use410"
           xlink:href="#H"
           transform="matrix(0.05,0,0,0.05,23.95,0)" />
        <use
           id="use412"
           xlink:href="#I"
           transform="matrix(0.05,0,0,0.05,32.95,0)" />
        <use
           id="use414"
           xlink:href="#J"
           transform="matrix(0.05,0,0,0.05,37.95,0)" />
        <use
           id="use416"
           xlink:href="#K"
           transform="matrix(0.05,0,0,0.05,41.900000000000006,0)" />
        <use
           id="use418"
           xlink:href="#L"
           transform="matrix(0.05,0,0,0.05,51.900000000000006,0)" />
      </g>
      <path
         id="M"
         d="M143 0L79-87 56-68V0H24v-261h32v163l83-92h37l-77 82L181 0h-38" />
      <g
         id="g">
        <use
           id="use422"
           xlink:href="#K"
           transform="matrix(0.05,0,0,0.05,0,0)" />
        <use
           id="use424"
           xlink:href="#M"
           transform="matrix(0.05,0,0,0.05,10,0)" />
      </g>
      <path
         id="N"
         d="M87 75C49 33 22-17 22-94c0-76 28-126 65-167h31c-38 41-64 92-64 168S80 34 118 75H87" />
      <path
         id="O"
         d="M141-36C126-15 110 5 73 4 37 3 15-17 15-53c-1-64 63-63 125-63 3-35-9-54-41-54-24 1-41 7-42 31l-33-3c5-37 33-52 76-52 45 0 72 20 72 64v82c-1 20 7 32 28 27v20c-31 9-61-2-59-35zM48-53c0 20 12 33 32 33 41-3 63-29 60-74-43 2-92-5-92 41" />
      <path
         id="P"
         d="M33-261c38 41 65 92 65 168S71 34 33 75H2C39 34 66-17 66-93S39-220 2-261h31" />
      <g
         id="h">
        <use
           id="use430"
           xlink:href="#N"
           transform="matrix(0.06172839506172839,0,0,0.06172839506172839,0,0)" />
        <use
           id="use432"
           xlink:href="#O"
           transform="matrix(0.06172839506172839,0,0,0.06172839506172839,7.345679012345679,0)" />
        <use
           id="use434"
           xlink:href="#P"
           transform="matrix(0.06172839506172839,0,0,0.06172839506172839,19.691358024691358,0)" />
      </g>
      <path
         id="Q"
         d="M115-194c53 0 69 39 70 98 0 66-23 100-70 100C84 3 66-7 56-30L54 0H23l1-261h32v101c10-23 28-34 59-34zm-8 174c40 0 45-34 45-75 0-40-5-75-45-74-42 0-51 32-51 76 0 43 10 73 51 73" />
      <g
         id="i">
        <use
           id="use438"
           xlink:href="#N"
           transform="matrix(0.06172839506172839,0,0,0.06172839506172839,0,0)" />
        <use
           id="use440"
           xlink:href="#Q"
           transform="matrix(0.06172839506172839,0,0,0.06172839506172839,7.345679012345679,0)" />
        <use
           id="use442"
           xlink:href="#P"
           transform="matrix(0.06172839506172839,0,0,0.06172839506172839,19.691358024691358,0)" />
      </g>
      <path
         id="R"
         d="M33 0v-38h34V0H33" />
      <path
         id="S"
         d="M210-169c-67 3-38 105-44 169h-31v-121c0-29-5-50-35-48C34-165 62-65 56 0H25l-1-190h30c1 10-1 24 2 32 10-44 99-50 107 0 11-21 27-35 58-36 85-2 47 119 55 194h-31v-121c0-29-5-49-35-48" />
      <path
         id="T"
         d="M84 4C-5 8 30-112 23-190h32v120c0 31 7 50 39 49 72-2 45-101 50-169h31l1 190h-30c-1-10 1-25-2-33-11 22-28 36-60 37" />
      <g
         id="k">
        <use
           id="use448"
           xlink:href="#B"
           transform="matrix(0.05,0,0,0.05,0,0)" />
        <use
           id="use450"
           xlink:href="#R"
           transform="matrix(0.05,0,0,0.05,12,0)" />
        <use
           id="use452"
           xlink:href="#I"
           transform="matrix(0.05,0,0,0.05,17,0)" />
        <use
           id="use454"
           xlink:href="#J"
           transform="matrix(0.05,0,0,0.05,22,0)" />
        <use
           id="use456"
           xlink:href="#S"
           transform="matrix(0.05,0,0,0.05,25.950000000000003,0)" />
        <use
           id="use458"
           xlink:href="#F"
           transform="matrix(0.05,0,0,0.05,40.9,0)" />
        <use
           id="use460"
           xlink:href="#K"
           transform="matrix(0.05,0,0,0.05,50.9,0)" />
        <use
           id="use462"
           xlink:href="#T"
           transform="matrix(0.05,0,0,0.05,60.900000000000006,0)" />
        <use
           id="use464"
           xlink:href="#I"
           transform="matrix(0.05,0,0,0.05,70.9,0)" />
      </g>
      <path
         id="U"
         d="M115-194c55 1 70 41 70 98S169 2 115 4C84 4 66-9 55-30l1 105H24l-1-265h31l2 30c10-21 28-34 59-34zm-8 174c40 0 45-34 45-75s-6-73-45-74c-42 0-51 32-51 76 0 43 10 73 51 73" />
      <path
         id="V"
         d="M135-143c-3-34-86-38-87 0 15 53 115 12 119 90S17 21 10-45l28-5c4 36 97 45 98 0-10-56-113-15-118-90-4-57 82-63 122-42 12 7 21 19 24 35" />
      <path
         id="W"
         d="M85-194c31 0 48 13 60 33l-1-100h32l1 261h-30c-2-10 0-23-3-31C134-8 116 4 85 4 32 4 16-35 15-94c0-66 23-100 70-100zm9 24c-40 0-46 34-46 75 0 40 6 74 45 74 42 0 51-32 51-76 0-42-9-74-50-73" />
      <g
         id="l">
        <use
           id="use470"
           xlink:href="#F"
           transform="matrix(0.05,0,0,0.05,0,0)" />
        <use
           id="use472"
           xlink:href="#G"
           transform="matrix(0.05,0,0,0.05,10,0)" />
        <use
           id="use474"
           xlink:href="#O"
           transform="matrix(0.05,0,0,0.05,13.949999999999998,0)" />
        <use
           id="use476"
           xlink:href="#U"
           transform="matrix(0.05,0,0,0.05,23.95,0)" />
        <use
           id="use478"
           xlink:href="#V"
           transform="matrix(0.05,0,0,0.05,33.95,0)" />
        <use
           id="use480"
           xlink:href="#F"
           transform="matrix(0.05,0,0,0.05,42.95,0)" />
        <use
           id="use482"
           xlink:href="#W"
           transform="matrix(0.05,0,0,0.05,52.95,0)" />
      </g>
      <use
         id="m"
         xlink:href="#B"
         transform="matrix(0.05,0,0,0.05,0,0)" />
      <path
         id="X"
         d="M24-231v-30h32v30H24zM-9 49c24 4 33-6 33-30v-209h32V24c2 40-23 58-65 49V49" />
      <g
         id="n">
        <use
           id="use487"
           xlink:href="#X"
           transform="matrix(0.05,0,0,0.05,0,0)" />
        <use
           id="use489"
           xlink:href="#T"
           transform="matrix(0.05,0,0,0.05,3.95,0)" />
        <use
           id="use491"
           xlink:href="#V"
           transform="matrix(0.05,0,0,0.05,13.949999999999998,0)" />
        <use
           id="use493"
           xlink:href="#I"
           transform="matrix(0.05,0,0,0.05,22.95,0)" />
      </g>
      <path
         id="Y"
         d="M114-163C36-179 61-72 57 0H25l-1-190h30c1 12-1 29 2 39 6-27 23-49 58-41v29" />
      <path
         id="Z"
         d="M106-169C34-169 62-67 57 0H25v-261h32l-1 103c12-21 28-36 61-36 89 0 53 116 60 194h-32v-121c2-32-8-49-39-48" />
      <g
         id="o">
        <use
           id="use498"
           xlink:href="#H"
           transform="matrix(0.05,0,0,0.05,0,0)" />
        <use
           id="use500"
           xlink:href="#Y"
           transform="matrix(0.05,0,0,0.05,9,0)" />
        <use
           id="use502"
           xlink:href="#O"
           transform="matrix(0.05,0,0,0.05,14.949999999999998,0)" />
        <use
           id="use504"
           xlink:href="#V"
           transform="matrix(0.05,0,0,0.05,24.95,0)" />
        <use
           id="use506"
           xlink:href="#Z"
           transform="matrix(0.05,0,0,0.05,33.95,0)" />
        <use
           id="use508"
           xlink:href="#F"
           transform="matrix(0.05,0,0,0.05,43.95,0)" />
        <use
           id="use510"
           xlink:href="#W"
           transform="matrix(0.05,0,0,0.05,53.95,0)" />
      </g>
      <g
         id="p">
        <use
           id="use513"
           xlink:href="#N"
           transform="matrix(0.06172839506172839,0,0,0.06172839506172839,0,0)" />
        <use
           id="use515"
           xlink:href="#H"
           transform="matrix(0.06172839506172839,0,0,0.06172839506172839,7.345679012345679,0)" />
        <use
           id="use517"
           xlink:href="#P"
           transform="matrix(0.06172839506172839,0,0,0.06172839506172839,18.45679012345679,0)" />
      </g>
      <path
         id="aa"
         d="M26 75v-336h71v23H56V52h41v23H26" />
      <path
         id="ab"
         d="M3 75V52h41v-290H3v-23h71V75H3" />
      <g
         id="q">
        <use
           id="use522"
           xlink:href="#H"
           transform="matrix(0.05,0,0,0.05,0,0)" />
        <use
           id="use524"
           xlink:href="#Y"
           transform="matrix(0.05,0,0,0.05,9,0)" />
        <use
           id="use526"
           xlink:href="#O"
           transform="matrix(0.05,0,0,0.05,14.949999999999998,0)" />
        <use
           id="use528"
           xlink:href="#V"
           transform="matrix(0.05,0,0,0.05,24.95,0)" />
        <use
           id="use530"
           xlink:href="#Z"
           transform="matrix(0.05,0,0,0.05,33.95,0)" />
        <use
           id="use532"
           xlink:href="#aa"
           transform="matrix(0.05,0,0,0.05,43.95,0)" />
        <use
           id="use534"
           xlink:href="#B"
           transform="matrix(0.05,0,0,0.05,48.95,0)" />
        <use
           id="use536"
           xlink:href="#ab"
           transform="matrix(0.05,0,0,0.05,60.95,0)" />
      </g>
      <g
         id="r">
        <use
           id="use539"
           xlink:href="#N"
           transform="matrix(0.06172839506172839,0,0,0.06172839506172839,0,0)" />
        <use
           id="use541"
           xlink:href="#W"
           transform="matrix(0.06172839506172839,0,0,0.06172839506172839,7.345679012345679,0)" />
        <use
           id="use543"
           xlink:href="#P"
           transform="matrix(0.06172839506172839,0,0,0.06172839506172839,19.691358024691358,0)" />
      </g>
      <path
         id="ac"
         d="M185-189c-5-48-123-54-124 2 14 75 158 14 163 119 3 78-121 87-175 55-17-10-28-26-33-46l33-7c5 56 141 63 141-1 0-78-155-14-162-118-5-82 145-84 179-34 5 7 8 16 11 25" />
      <g
         id="s">
        <use
           id="use547"
           xlink:href="#ac"
           transform="matrix(0.05,0,0,0.05,0,0)" />
        <use
           id="use549"
           xlink:href="#I"
           transform="matrix(0.05,0,0,0.05,12,0)" />
        <use
           id="use551"
           xlink:href="#K"
           transform="matrix(0.05,0,0,0.05,17,0)" />
        <use
           id="use553"
           xlink:href="#U"
           transform="matrix(0.05,0,0,0.05,27,0)" />
      </g>
      <path
         id="ad"
         d="M206 0h-36l-40-164L89 0H53L-1-190h32L70-26l43-164h34l41 164 42-164h31" />
      <path
         id="ae"
         d="M177-190C167-65 218 103 67 71c-23-6-38-20-44-43l32-5c15 47 100 32 89-28v-30C133-14 115 1 83 1 29 1 15-40 15-95c0-56 16-97 71-98 29-1 48 16 59 35 1-10 0-23 2-32h30zM94-22c36 0 50-32 50-73 0-42-14-75-50-75-39 0-46 34-46 75s6 73 46 73" />
      <g
         id="t">
        <use
           id="use558"
           xlink:href="#ad"
           transform="matrix(0.05,0,0,0.05,0,0)" />
        <use
           id="use560"
           xlink:href="#O"
           transform="matrix(0.05,0,0,0.05,12.950000000000001,0)" />
        <use
           id="use562"
           xlink:href="#J"
           transform="matrix(0.05,0,0,0.05,22.950000000000003,0)" />
        <use
           id="use564"
           xlink:href="#I"
           transform="matrix(0.05,0,0,0.05,26.900000000000002,0)" />
        <use
           id="use566"
           xlink:href="#J"
           transform="matrix(0.05,0,0,0.05,31.900000000000002,0)" />
        <use
           id="use568"
           xlink:href="#L"
           transform="matrix(0.05,0,0,0.05,35.85,0)" />
        <use
           id="use570"
           xlink:href="#ae"
           transform="matrix(0.05,0,0,0.05,45.85,0)" />
      </g>
      <path
         id="af"
         d="M101-234c-31-9-42 10-38 44h38v23H63V0H32v-167H5v-23h27c-7-52 17-82 69-68v24" />
      <g
         id="u">
        <use
           id="use574"
           xlink:href="#af"
           transform="matrix(0.05,0,0,0.05,0,0)" />
        <use
           id="use576"
           xlink:href="#K"
           transform="matrix(0.05,0,0,0.05,5,0)" />
        <use
           id="use578"
           xlink:href="#Y"
           transform="matrix(0.05,0,0,0.05,15,0)" />
      </g>
      <path
         id="ag"
         d="M47-170H22l-4-78h33" />
      <g
         id="v">
        <use
           id="use582"
           xlink:href="#B"
           transform="matrix(0.05,0,0,0.05,0,0)" />
        <use
           id="use584"
           xlink:href="#ag"
           transform="matrix(0.05,0,0,0.05,12,0)" />
        <use
           id="use586"
           xlink:href="#V"
           transform="matrix(0.05,0,0,0.05,15.4,0)" />
      </g>
      <g
         id="w">
        <use
           id="use589"
           xlink:href="#K"
           transform="matrix(0.05,0,0,0.05,0,0)" />
        <use
           id="use591"
           xlink:href="#M"
           transform="matrix(0.05,0,0,0.05,10,0)" />
      </g>
      <g
         id="x">
        <use
           id="use594"
           xlink:href="#N"
           transform="matrix(0.06172839506172839,0,0,0.06172839506172839,0,0)" />
        <use
           id="use596"
           xlink:href="#F"
           transform="matrix(0.06172839506172839,0,0,0.06172839506172839,7.345679012345679,0)" />
        <use
           id="use598"
           xlink:href="#P"
           transform="matrix(0.06172839506172839,0,0,0.06172839506172839,19.691358024691358,0)" />
      </g>
      <g
         id="y">
        <use
           id="use601"
           xlink:href="#H"
           transform="matrix(0.05,0,0,0.05,0,0)" />
        <use
           id="use603"
           xlink:href="#K"
           transform="matrix(0.05,0,0,0.05,9,0)" />
        <use
           id="use605"
           xlink:href="#K"
           transform="matrix(0.05,0,0,0.05,19,0)" />
        <use
           id="use607"
           xlink:href="#Y"
           transform="matrix(0.05,0,0,0.05,29,0)" />
        <use
           id="use609"
           xlink:href="#W"
           transform="matrix(0.05,0,0,0.05,34.95,0)" />
        <use
           id="use611"
           xlink:href="#J"
           transform="matrix(0.05,0,0,0.05,44.95,0)" />
        <use
           id="use613"
           xlink:href="#L"
           transform="matrix(0.05,0,0,0.05,48.900000000000006,0)" />
        <use
           id="use615"
           xlink:href="#O"
           transform="matrix(0.05,0,0,0.05,58.900000000000006,0)" />
        <use
           id="use617"
           xlink:href="#I"
           transform="matrix(0.05,0,0,0.05,68.9,0)" />
        <use
           id="use619"
           xlink:href="#K"
           transform="matrix(0.05,0,0,0.05,73.9,0)" />
        <use
           id="use621"
           xlink:href="#Y"
           transform="matrix(0.05,0,0,0.05,83.9,0)" />
      </g>
      <g
         id="z">
        <use
           id="use624"
           xlink:href="#N"
           transform="matrix(0.06172839506172839,0,0,0.06172839506172839,0,0)" />
        <use
           id="use626"
           xlink:href="#af"
           transform="matrix(0.06172839506172839,0,0,0.06172839506172839,7.345679012345679,0)" />
        <use
           id="use628"
           xlink:href="#P"
           transform="matrix(0.06172839506172839,0,0,0.06172839506172839,13.518518518518519,0)" />
      </g>
    </defs>
  </g>
</svg>
