<?xml version="1.0" encoding="UTF-8" standalone="no"?>
<svg
   xmlns:lucid="lucid"
   xmlns:dc="http://purl.org/dc/elements/1.1/"
   xmlns:cc="http://creativecommons.org/ns#"
   xmlns:rdf="http://www.w3.org/1999/02/22-rdf-syntax-ns#"
   xmlns:svg="http://www.w3.org/2000/svg"
   xmlns="http://www.w3.org/2000/svg"
   xmlns:xlink="http://www.w3.org/1999/xlink"
   xmlns:sodipodi="http://sodipodi.sourceforge.net/DTD/sodipodi-0.dtd"
   xmlns:inkscape="http://www.inkscape.org/namespaces/inkscape"
   width="771"
   height="858"
   id="svg3755"
   version="1.1"
   inkscape:version="0.91 r13725"
   sodipodi:docname="init_activate.svg">
  <metadata
     id="metadata4134">
    <rdf:RDF>
      <cc:Work
         rdf:about="">
        <dc:format>image/svg+xml</dc:format>
        <dc:type
           rdf:resource="http://purl.org/dc/dcmitype/StillImage" />
        <dc:title></dc:title>
      </cc:Work>
    </rdf:RDF>
  </metadata>
  <defs
     id="defs4132" />
  <sodipodi:namedview
     pagecolor="#ffffff"
     bordercolor="#666666"
     borderopacity="1"
     objecttolerance="10"
     gridtolerance="10"
     guidetolerance="10"
     inkscape:pageopacity="0"
     inkscape:pageshadow="2"
     inkscape:window-width="1281"
     inkscape:window-height="763"
     id="namedview4130"
     showgrid="false"
     inkscape:zoom="0.68181818"
     inkscape:cx="385.5"
     inkscape:cy="429"
     inkscape:window-x="0"
     inkscape:window-y="0"
     inkscape:window-maximized="0"
     inkscape:current-layer="svg3755" />
  <g
     transform="translate(-329.83333333333337 -1137.6666666666667)"
     lucid:page-tab-id="0_0"
     id="g3757">
    <path
       d="M460 1835.67h320v140H460z"
       fill-opacity="0"
       id="path3759" />
    <path
       d="M472 1835.67h8m8 0h8m8 0h8m8 0h8m8 0h8m8 0h8m8 0h8m8 0h8m8 0h8m8 0h8m8 0h8m8 0h8m8 0h8m8 0h8m8 0h8m8 0h8m8 0h8m8 0h8m8 0h8m8 0h4v3.9m0 7.76v7.78m0 7.8v7.77m0 7.77v7.78m0 7.78v7.78m0 7.78v7.77m0 7.78v7.8m0 7.77v7.77m0 7.78v7.78m0 7.78v3.9h-4m-8 0h-8m-8 0h-8m-8 0h-8m-8 0h-8m-8 0h-8m-8 0h-8m-8 0h-8m-8 0h-8m-8 0h-8m-8 0h-8m-8 0h-8m-8 0h-8m-8 0h-8m-8 0h-8m-8 0h-8m-8 0h-8m-8 0h-8m-8 0h-8m-8 0h-8m-8 0h-4v-3.9m0-7.78v-7.78m0-7.78v-7.77m0-7.78v-7.8m0-7.77v-7.77m0-7.78V1894m0-7.78v-7.78m0-7.77v-7.78m0-7.8v-7.77m0-7.77v-3.9h4"
       stroke="#000"
       stroke-width="2"
       fill="none"
       id="path3761" />
    <path
       d="M560.83 1395.67h120v80h-120z"
       stroke="#000"
       stroke-width="2"
       fill="#c1e4f7"
       id="path3763" />
    <use
       xlink:href="#a"
       transform="matrix(1,0,0,1,565.8333333333334,1400.6666666666667) translate(20.049999999999997 38.6)"
       id="use3765" />
    <path
       d="M440.83 1395.67h120v80h-120z"
       stroke="#000"
       stroke-width="2"
       fill="#c1e4f7"
       id="path3767" />
    <use
       xlink:href="#b"
       transform="matrix(1,0,0,1,445.83333333333337,1400.6666666666667) translate(30.525 38.6)"
       id="use3769" />
    <path
       d="M440.83 1515.67h360v80h-360z"
       stroke="#000"
       stroke-width="2"
       fill="#c7e8ac"
       id="path3771" />
    <use
       xlink:href="#c"
       transform="matrix(1,0,0,1,445.83333333333337,1520.6666666666667) translate(145.05 38.6)"
       id="use3773" />
    <path
       d="M440.83 1595.67h360v80h-360z"
       stroke="#000"
       stroke-width="2"
       fill="#c7e8ac"
       id="path3775" />
    <use
       xlink:href="#d"
       transform="matrix(1,0,0,1,445.83333333333337,1600.6666666666667) translate(124.55 38.6)"
       id="use3777" />
    <path
       d="M440.83 1675.67h360v80h-360z"
       stroke="#000"
       stroke-width="2"
       fill="#c7e8ac"
       id="path3779" />
    <use
       xlink:href="#e"
       transform="matrix(1,0,0,1,445.83333333333337,1680.6666666666667) translate(143.025 38.6)"
       id="use3781" />
    <path
       d="M340.83 1755.67v-490h500v200"
       stroke="#000"
       stroke-width="2"
       fill="none"
       id="path3783" />
    <path
       d="M840.83 1465.67l-4.63-14.27h9.27z"
       stroke="#000"
       stroke-width="2"
       id="path3785" />
    <path
       d="M900.83 1515.67v230"
       stroke="#000"
       stroke-width="2"
       fill="none"
       id="path3787" />
    <path
       d="M900.83 1745.67l-4.63-14.27h9.27z"
       stroke="#000"
       stroke-width="2"
       id="path3789" />
    <path
       d="M380.83 1692h40v47.33h-40z"
       stroke="#000"
       stroke-opacity="0"
       stroke-width="2"
       fill="#fff"
       fill-opacity="0"
       id="path3791" />
    <use
       xlink:href="#f"
       transform="matrix(1,0,0,1,385.83333333333337,1697) translate(6.358024691358024 25.22222222222222)"
       id="use3793" />
    <path
       d="M380.83 1612h40v47.33h-40z"
       stroke="#000"
       stroke-opacity="0"
       stroke-width="2"
       fill="#fff"
       fill-opacity="0"
       id="path3795" />
    <use
       xlink:href="#g"
       transform="matrix(1,0,0,1,385.83333333333337,1617) translate(6.358024691358024 25.22222222222222)"
       id="use3797" />
    <path
       d="M380.83 1532h40v47.33h-40z"
       stroke="#000"
       stroke-opacity="0"
       stroke-width="2"
       fill="#fff"
       fill-opacity="0"
       id="path3799" />
    <use
       xlink:href="#h"
       transform="matrix(1,0,0,1,385.83333333333337,1537) translate(6.358024691358024 25.22222222222222)"
       id="use3801" />
    <path
       d="M480.83 1286.33h40v47.34h-40z"
       stroke="#000"
       stroke-opacity="0"
       stroke-width="2"
       fill="#fff"
       fill-opacity="0"
       id="path3803" />
    <use
       xlink:href="#i"
       transform="matrix(1,0,0,1,485.83333333333337,1291.3333333333335) translate(6.358024691358024 25.22222222222222)"
       id="use3805" />
    <path
       d="M600.83 1286h40v47.33h-40z"
       stroke="#000"
       stroke-opacity="0"
       stroke-width="2"
       fill="#fff"
       fill-opacity="0"
       id="path3807" />
    <use
       xlink:href="#j"
       transform="matrix(1,0,0,1,605.8333333333334,1291) translate(6.358024691358024 25.22222222222222)"
       id="use3809" />
    <path
       d="M820.83 1531.67h40V1579h-40z"
       stroke="#000"
       stroke-opacity="0"
       stroke-width="2"
       fill="#fff"
       fill-opacity="0"
       id="path3811" />
    <use
       xlink:href="#f"
       transform="matrix(1,0,0,1,825.8333333333334,1536.6666666666667) translate(6.358024691358024 25.22222222222222)"
       id="use3813" />
    <path
       d="M820.83 1691.67h40V1739h-40z"
       stroke="#000"
       stroke-opacity="0"
       stroke-width="2"
       fill="#fff"
       fill-opacity="0"
       id="path3815" />
    <use
       xlink:href="#h"
       transform="matrix(1,0,0,1,825.8333333333334,1696.6666666666667) translate(6.358024691358024 25.22222222222222)"
       id="use3817" />
    <path
       d="M820.83 1612.33h40v47.34h-40z"
       stroke="#000"
       stroke-opacity="0"
       stroke-width="2"
       fill="#fff"
       fill-opacity="0"
       id="path3819" />
    <use
       xlink:href="#g"
       transform="matrix(1,0,0,1,825.8333333333334,1617.3333333333335) translate(6.358024691358024 25.22222222222222)"
       id="use3821" />
    <path
       d="M920.83 1585.67h160v74h-160z"
       stroke="#000"
       stroke-opacity="0"
       stroke-width="2"
       fill="#fff"
       fill-opacity="0"
       id="path3823" />
    <use
       xlink:href="#k"
       transform="matrix(1,0,0,1,925.8333333333334,1590.6666666666667) translate(17.29629629629629 21.333333333333336)"
       id="use3825" />
    <use
       xlink:href="#l"
       transform="matrix(1,0,0,1,925.8333333333334,1590.6666666666667) translate(40.99999999999999 53.333333333333336)"
       id="use3827" />
    <path
       d="M540.83 1157.67h160v74h-160z"
       stroke="#000"
       stroke-opacity="0"
       stroke-width="2"
       fill="#fff"
       fill-opacity="0"
       id="path3829" />
    <use
       xlink:href="#m"
       transform="matrix(1,0,0,1,545.8333333333334,1162.6666666666667) translate(5.555555555555557 21.333333333333336)"
       id="use3831" />
    <use
       xlink:href="#l"
       transform="matrix(1,0,0,1,545.8333333333334,1162.6666666666667) translate(40.99999999999999 53.333333333333336)"
       id="use3833" />
    <path
       d="M560.83 1435.67h120"
       stroke="#000"
       stroke-opacity="0"
       stroke-width="2"
       fill="none"
       id="path3835" />
    <path
       d="M680.83 1435.67l-14.26 4.63v-9.27z"
       stroke="#000"
       stroke-opacity="0"
       stroke-width="2"
       fill-opacity="0"
       id="path3837" />
    <path
       d="M480 1875.67h120v80H480z"
       stroke="#000"
       stroke-width="2"
       fill="#c1e4f7"
       id="path3839" />
    <use
       xlink:href="#n"
       transform="matrix(1,0,0,1,485,1880.6666666666667) translate(11.074999999999996 27.799999999999997)"
       id="use3841" />
    <use
       xlink:href="#o"
       transform="matrix(1,0,0,1,485,1880.6666666666667) translate(32.525 49.4)"
       id="use3843" />
    <path
       d="M640 1875.67h120v80H640z"
       stroke="#000"
       stroke-width="2"
       fill="#c7e8ac"
       id="path3845" />
    <use
       xlink:href="#p"
       transform="matrix(1,0,0,1,645,1880.6666666666667) translate(20.025 27.799999999999997)"
       id="use3847" />
    <use
       xlink:href="#o"
       transform="matrix(1,0,0,1,645,1880.6666666666667) translate(32.525 49.4)"
       id="use3849" />
    <path
       d="M540 1778.67h160v74H540z"
       stroke="#000"
       stroke-opacity="0"
       stroke-width="2"
       fill="#fff"
       fill-opacity="0"
       id="path3851" />
    <g
       id="g3853">
      <use
         xlink:href="#q"
         transform="matrix(1,0,0,1,545,1783.6666666666667) translate(24.175925925925924 36.888888888888886)"
         id="use3855" />
    </g>
    <path
       d="M560.83 1325.67h120v70h-120z"
       stroke="#000"
       stroke-width="2"
       fill="#c1e4f7"
       id="path3857" />
    <g
       id="g3859">
      <use
         xlink:href="#r"
         transform="matrix(1,0,0,1,565.8333333333334,1330.6666666666667) translate(23.525 33.6)"
         id="use3861" />
    </g>
    <defs
       id="defs3863">
      <path
         d="M233-177c-1 41-23 64-60 70L243 0h-38l-65-103H63V0H30v-248c88 3 205-21 203 71zM63-129c60-2 137 13 137-47 0-61-80-42-137-45v92"
         id="s" />
      <path
         d="M100-194c63 0 86 42 84 106H49c0 40 14 67 53 68 26 1 43-12 49-29l28 8c-11 28-37 45-77 45C44 4 14-33 15-96c1-61 26-98 85-98zm52 81c6-60-76-77-97-28-3 7-6 17-6 28h103"
         id="t" />
      <path
         d="M141-36C126-15 110 5 73 4 37 3 15-17 15-53c-1-64 63-63 125-63 3-35-9-54-41-54-24 1-41 7-42 31l-33-3c5-37 33-52 76-52 45 0 72 20 72 64v82c-1 20 7 32 28 27v20c-31 9-61-2-59-35zM48-53c0 20 12 33 32 33 41-3 63-29 60-74-43 2-92-5-92 41"
         id="u" />
      <path
         d="M96-169c-40 0-48 33-48 73s9 75 48 75c24 0 41-14 43-38l32 2c-6 37-31 61-74 61-59 0-76-41-82-99-10-93 101-131 147-64 4 7 5 14 7 22l-32 3c-4-21-16-35-41-35"
         id="v" />
      <path
         d="M59-47c-2 24 18 29 38 22v24C64 9 27 4 27-40v-127H5v-23h24l9-43h21v43h35v23H59v120"
         id="w" />
      <path
         d="M24-231v-30h32v30H24zM24 0v-190h32V0H24"
         id="x" />
      <path
         d="M108 0H70L1-190h34L89-25l56-165h34"
         id="y" />
      <g
         id="a">
        <use
           transform="matrix(0.05,0,0,0.05,0,0)"
           xlink:href="#s"
           id="use3873" />
        <use
           transform="matrix(0.05,0,0,0.05,12.950000000000001,0)"
           xlink:href="#t"
           id="use3875" />
        <use
           transform="matrix(0.05,0,0,0.05,22.950000000000003,0)"
           xlink:href="#u"
           id="use3877" />
        <use
           transform="matrix(0.05,0,0,0.05,32.95,0)"
           xlink:href="#v"
           id="use3879" />
        <use
           transform="matrix(0.05,0,0,0.05,41.95,0)"
           xlink:href="#w"
           id="use3881" />
        <use
           transform="matrix(0.05,0,0,0.05,46.95,0)"
           xlink:href="#x"
           id="use3883" />
        <use
           transform="matrix(0.05,0,0,0.05,50.900000000000006,0)"
           xlink:href="#y"
           id="use3885" />
        <use
           transform="matrix(0.05,0,0,0.05,59.900000000000006,0)"
           xlink:href="#t"
           id="use3887" />
      </g>
      <path
         d="M205 0l-28-72H64L36 0H1l101-248h38L239 0h-34zm-38-99l-47-123c-12 45-31 82-46 123h93"
         id="z" />
      <g
         id="b">
        <use
           transform="matrix(0.05,0,0,0.05,0,0)"
           xlink:href="#z"
           id="use3891" />
        <use
           transform="matrix(0.05,0,0,0.05,12,0)"
           xlink:href="#v"
           id="use3893" />
        <use
           transform="matrix(0.05,0,0,0.05,21,0)"
           xlink:href="#w"
           id="use3895" />
        <use
           transform="matrix(0.05,0,0,0.05,26,0)"
           xlink:href="#x"
           id="use3897" />
        <use
           transform="matrix(0.05,0,0,0.05,29.950000000000003,0)"
           xlink:href="#y"
           id="use3899" />
        <use
           transform="matrix(0.05,0,0,0.05,38.95,0)"
           xlink:href="#t"
           id="use3901" />
      </g>
      <path
         d="M185-189c-5-48-123-54-124 2 14 75 158 14 163 119 3 78-121 87-175 55-17-10-28-26-33-46l33-7c5 56 141 63 141-1 0-78-155-14-162-118-5-82 145-84 179-34 5 7 8 16 11 25"
         id="A" />
      <path
         d="M114-163C36-179 61-72 57 0H25l-1-190h30c1 12-1 29 2 39 6-27 23-49 58-41v29"
         id="B" />
      <g
         id="c">
        <use
           transform="matrix(0.05,0,0,0.05,0,0)"
           xlink:href="#A"
           id="use3906" />
        <use
           transform="matrix(0.05,0,0,0.05,12,0)"
           xlink:href="#t"
           id="use3908" />
        <use
           transform="matrix(0.05,0,0,0.05,22,0)"
           xlink:href="#B"
           id="use3910" />
        <use
           transform="matrix(0.05,0,0,0.05,27.950000000000003,0)"
           xlink:href="#y"
           id="use3912" />
        <use
           transform="matrix(0.05,0,0,0.05,36.95,0)"
           xlink:href="#x"
           id="use3914" />
        <use
           transform="matrix(0.05,0,0,0.05,40.900000000000006,0)"
           xlink:href="#v"
           id="use3916" />
        <use
           transform="matrix(0.05,0,0,0.05,49.900000000000006,0)"
           xlink:href="#t"
           id="use3918" />
      </g>
      <path
         d="M30-248c87 1 191-15 191 75 0 78-77 80-158 76V0H30v-248zm33 125c57 0 124 11 124-50 0-59-68-47-124-48v98"
         id="C" />
      <path
         d="M135-143c-3-34-86-38-87 0 15 53 115 12 119 90S17 21 10-45l28-5c4 36 97 45 98 0-10-56-113-15-118-90-4-57 82-63 122-42 12 7 21 19 24 35"
         id="D" />
      <path
         d="M117-194c89-4 53 116 60 194h-32v-121c0-31-8-49-39-48C34-167 62-67 57 0H25l-1-190h30c1 10-1 24 2 32 11-22 29-35 61-36"
         id="E" />
      <path
         d="M100-194c62-1 85 37 85 99 1 63-27 99-86 99S16-35 15-95c0-66 28-99 85-99zM99-20c44 1 53-31 53-75 0-43-8-75-51-75s-53 32-53 75 10 74 51 75"
         id="F" />
      <g
         id="d">
        <use
           transform="matrix(0.05,0,0,0.05,0,0)"
           xlink:href="#C"
           id="use3925" />
        <use
           transform="matrix(0.05,0,0,0.05,12,0)"
           xlink:href="#B"
           id="use3927" />
        <use
           transform="matrix(0.05,0,0,0.05,17.95,0)"
           xlink:href="#t"
           id="use3929" />
        <use
           transform="matrix(0.05,0,0,0.05,27.950000000000003,0)"
           xlink:href="#D"
           id="use3931" />
        <use
           transform="matrix(0.05,0,0,0.05,36.95,0)"
           xlink:href="#t"
           id="use3933" />
        <use
           transform="matrix(0.05,0,0,0.05,46.95,0)"
           xlink:href="#E"
           id="use3935" />
        <use
           transform="matrix(0.05,0,0,0.05,56.95,0)"
           xlink:href="#w"
           id="use3937" />
        <use
           transform="matrix(0.05,0,0,0.05,61.95,0)"
           xlink:href="#u"
           id="use3939" />
        <use
           transform="matrix(0.05,0,0,0.05,71.95,0)"
           xlink:href="#w"
           id="use3941" />
        <use
           transform="matrix(0.05,0,0,0.05,76.95,0)"
           xlink:href="#x"
           id="use3943" />
        <use
           transform="matrix(0.05,0,0,0.05,80.9,0)"
           xlink:href="#F"
           id="use3945" />
        <use
           transform="matrix(0.05,0,0,0.05,90.9,0)"
           xlink:href="#E"
           id="use3947" />
      </g>
      <g
         id="e">
        <use
           transform="matrix(0.05,0,0,0.05,0,0)"
           xlink:href="#A"
           id="use3950" />
        <use
           transform="matrix(0.05,0,0,0.05,12,0)"
           xlink:href="#t"
           id="use3952" />
        <use
           transform="matrix(0.05,0,0,0.05,22,0)"
           xlink:href="#D"
           id="use3954" />
        <use
           transform="matrix(0.05,0,0,0.05,31,0)"
           xlink:href="#D"
           id="use3956" />
        <use
           transform="matrix(0.05,0,0,0.05,40,0)"
           xlink:href="#x"
           id="use3958" />
        <use
           transform="matrix(0.05,0,0,0.05,43.95,0)"
           xlink:href="#F"
           id="use3960" />
        <use
           transform="matrix(0.05,0,0,0.05,53.95,0)"
           xlink:href="#E"
           id="use3962" />
      </g>
      <path
         d="M101-251c68 0 85 55 85 127S166 4 100 4C33 4 14-52 14-124c0-73 17-127 87-127zm-1 229c47 0 54-49 54-102s-4-102-53-102c-51 0-55 48-55 102 0 53 5 102 54 102"
         id="G" />
      <use
         transform="matrix(0.08641975308641976,0,0,0.08641975308641976,0,0)"
         xlink:href="#G"
         id="f" />
      <path
         d="M27 0v-27h64v-190l-56 39v-29l58-41h29v221h61V0H27"
         id="H" />
      <use
         transform="matrix(0.08641975308641976,0,0,0.08641975308641976,0,0)"
         xlink:href="#H"
         id="g" />
      <path
         d="M101-251c82-7 93 87 43 132L82-64C71-53 59-42 53-27h129V0H18c2-99 128-94 128-182 0-28-16-43-45-43s-46 15-49 41l-32-3c6-41 34-60 81-64"
         id="I" />
      <use
         transform="matrix(0.08641975308641976,0,0,0.08641975308641976,0,0)"
         xlink:href="#I"
         id="h" />
      <path
         d="M126-127c33 6 58 20 58 59 0 88-139 92-164 29-3-8-5-16-6-25l32-3c6 27 21 44 54 44 32 0 52-15 52-46 0-38-36-46-79-43v-28c39 1 72-4 72-42 0-27-17-43-46-43-28 0-47 15-49 41l-32-3c6-42 35-63 81-64 48-1 79 21 79 65 0 36-21 52-52 59"
         id="J" />
      <use
         transform="matrix(0.08641975308641976,0,0,0.08641975308641976,0,0)"
         xlink:href="#J"
         id="i" />
      <path
         d="M155-56V0h-30v-56H8v-25l114-167h33v167h35v25h-35zm-30-156c-27 46-58 90-88 131h88v-131"
         id="K" />
      <use
         transform="matrix(0.08641975308641976,0,0,0.08641975308641976,0,0)"
         xlink:href="#K"
         id="j" />
      <g
         id="k">
        <use
           transform="matrix(0.07407407407407408,0,0,0.07407407407407408,0,0)"
           xlink:href="#z"
           id="use3975" />
        <use
           transform="matrix(0.07407407407407408,0,0,0.07407407407407408,17.77777777777778,0)"
           xlink:href="#v"
           id="use3977" />
        <use
           transform="matrix(0.07407407407407408,0,0,0.07407407407407408,31.111111111111114,0)"
           xlink:href="#w"
           id="use3979" />
        <use
           transform="matrix(0.07407407407407408,0,0,0.07407407407407408,38.51851851851851,0)"
           xlink:href="#x"
           id="use3981" />
        <use
           transform="matrix(0.07407407407407408,0,0,0.07407407407407408,44.370370370370374,0)"
           xlink:href="#y"
           id="use3983" />
        <use
           transform="matrix(0.07407407407407408,0,0,0.07407407407407408,57.70370370370371,0)"
           xlink:href="#u"
           id="use3985" />
        <use
           transform="matrix(0.07407407407407408,0,0,0.07407407407407408,72.51851851851853,0)"
           xlink:href="#w"
           id="use3987" />
        <use
           transform="matrix(0.07407407407407408,0,0,0.07407407407407408,79.92592592592594,0)"
           xlink:href="#x"
           id="use3989" />
        <use
           transform="matrix(0.07407407407407408,0,0,0.07407407407407408,85.77777777777779,0)"
           xlink:href="#F"
           id="use3991" />
        <use
           transform="matrix(0.07407407407407408,0,0,0.07407407407407408,100.59259259259261,0)"
           xlink:href="#E"
           id="use3993" />
      </g>
      <path
         d="M140-251c81 0 123 46 123 126C263-46 219 4 140 4 59 4 17-45 17-125s42-126 123-126zm0 227c63 0 89-41 89-101s-29-99-89-99c-61 0-89 39-89 99S79-25 140-24"
         id="L" />
      <path
         d="M85-194c31 0 48 13 60 33l-1-100h32l1 261h-30c-2-10 0-23-3-31C134-8 116 4 85 4 32 4 16-35 15-94c0-66 23-100 70-100zm9 24c-40 0-46 34-46 75 0 40 6 74 45 74 42 0 51-32 51-76 0-42-9-74-50-73"
         id="M" />
      <g
         id="l">
        <use
           transform="matrix(0.07407407407407408,0,0,0.07407407407407408,0,0)"
           xlink:href="#L"
           id="use3998" />
        <use
           transform="matrix(0.07407407407407408,0,0,0.07407407407407408,20.740740740740744,0)"
           xlink:href="#B"
           id="use4000" />
        <use
           transform="matrix(0.07407407407407408,0,0,0.07407407407407408,29.55555555555556,0)"
           xlink:href="#M"
           id="use4002" />
        <use
           transform="matrix(0.07407407407407408,0,0,0.07407407407407408,44.37037037037039,0)"
           xlink:href="#t"
           id="use4004" />
        <use
           transform="matrix(0.07407407407407408,0,0,0.07407407407407408,59.185185185185205,0)"
           xlink:href="#B"
           id="use4006" />
      </g>
      <path
         d="M33 0v-248h34V0H33"
         id="N" />
      <path
         d="M24 0v-261h32V0H24"
         id="O" />
      <path
         d="M9 0v-24l116-142H16v-24h144v24L44-24h123V0H9"
         id="P" />
      <g
         id="m">
        <use
           transform="matrix(0.07407407407407408,0,0,0.07407407407407408,0,0)"
           xlink:href="#N"
           id="use4012" />
        <use
           transform="matrix(0.07407407407407408,0,0,0.07407407407407408,7.407407407407408,0)"
           xlink:href="#E"
           id="use4014" />
        <use
           transform="matrix(0.07407407407407408,0,0,0.07407407407407408,22.222222222222225,0)"
           xlink:href="#x"
           id="use4016" />
        <use
           transform="matrix(0.07407407407407408,0,0,0.07407407407407408,28.074074074074076,0)"
           xlink:href="#w"
           id="use4018" />
        <use
           transform="matrix(0.07407407407407408,0,0,0.07407407407407408,35.48148148148148,0)"
           xlink:href="#x"
           id="use4020" />
        <use
           transform="matrix(0.07407407407407408,0,0,0.07407407407407408,41.333333333333336,0)"
           xlink:href="#u"
           id="use4022" />
        <use
           transform="matrix(0.07407407407407408,0,0,0.07407407407407408,56.14814814814815,0)"
           xlink:href="#O"
           id="use4024" />
        <use
           transform="matrix(0.07407407407407408,0,0,0.07407407407407408,62.00000000000001,0)"
           xlink:href="#x"
           id="use4026" />
        <use
           transform="matrix(0.07407407407407408,0,0,0.07407407407407408,67.85185185185186,0)"
           xlink:href="#P"
           id="use4028" />
        <use
           transform="matrix(0.07407407407407408,0,0,0.07407407407407408,81.18518518518519,0)"
           xlink:href="#u"
           id="use4030" />
        <use
           transform="matrix(0.07407407407407408,0,0,0.07407407407407408,96,0)"
           xlink:href="#w"
           id="use4032" />
        <use
           transform="matrix(0.07407407407407408,0,0,0.07407407407407408,103.4074074074074,0)"
           xlink:href="#x"
           id="use4034" />
        <use
           transform="matrix(0.07407407407407408,0,0,0.07407407407407408,109.25925925925925,0)"
           xlink:href="#F"
           id="use4036" />
        <use
           transform="matrix(0.07407407407407408,0,0,0.07407407407407408,124.07407407407408,0)"
           xlink:href="#E"
           id="use4038" />
      </g>
      <path
         d="M115-194c55 1 70 41 70 98S169 2 115 4C84 4 66-9 55-30l1 105H24l-1-265h31l2 30c10-21 28-34 59-34zm-8 174c40 0 45-34 45-75s-6-73-45-74c-42 0-51 32-51 76 0 43 10 73 51 73"
         id="Q" />
      <g
         id="n">
        <use
           transform="matrix(0.05,0,0,0.05,0,0)"
           xlink:href="#z"
           id="use4042" />
        <use
           transform="matrix(0.05,0,0,0.05,12,0)"
           xlink:href="#Q"
           id="use4044" />
        <use
           transform="matrix(0.05,0,0,0.05,22,0)"
           xlink:href="#Q"
           id="use4046" />
        <use
           transform="matrix(0.05,0,0,0.05,32,0)"
           xlink:href="#O"
           id="use4048" />
        <use
           transform="matrix(0.05,0,0,0.05,35.95,0)"
           xlink:href="#x"
           id="use4050" />
        <use
           transform="matrix(0.05,0,0,0.05,39.900000000000006,0)"
           xlink:href="#v"
           id="use4052" />
        <use
           transform="matrix(0.05,0,0,0.05,48.900000000000006,0)"
           xlink:href="#u"
           id="use4054" />
        <use
           transform="matrix(0.05,0,0,0.05,58.900000000000006,0)"
           xlink:href="#w"
           id="use4056" />
        <use
           transform="matrix(0.05,0,0,0.05,63.900000000000006,0)"
           xlink:href="#x"
           id="use4058" />
        <use
           transform="matrix(0.05,0,0,0.05,67.85000000000001,0)"
           xlink:href="#F"
           id="use4060" />
        <use
           transform="matrix(0.05,0,0,0.05,77.85000000000001,0)"
           xlink:href="#E"
           id="use4062" />
      </g>
      <path
         d="M30 0v-248h33v221h125V0H30"
         id="R" />
      <path
         d="M179-190L93 31C79 59 56 82 12 73V49c39 6 53-20 64-50L1-190h34L92-34l54-156h33"
         id="S" />
      <g
         id="o">
        <use
           transform="matrix(0.05,0,0,0.05,0,0)"
           xlink:href="#R"
           id="use4067" />
        <use
           transform="matrix(0.05,0,0,0.05,10,0)"
           xlink:href="#u"
           id="use4069" />
        <use
           transform="matrix(0.05,0,0,0.05,20,0)"
           xlink:href="#S"
           id="use4071" />
        <use
           transform="matrix(0.05,0,0,0.05,29,0)"
           xlink:href="#t"
           id="use4073" />
        <use
           transform="matrix(0.05,0,0,0.05,39,0)"
           xlink:href="#B"
           id="use4075" />
      </g>
      <path
         d="M101-234c-31-9-42 10-38 44h38v23H63V0H32v-167H5v-23h27c-7-52 17-82 69-68v24"
         id="T" />
      <g
         id="p">
        <use
           transform="matrix(0.05,0,0,0.05,0,0)"
           xlink:href="#N"
           id="use4079" />
        <use
           transform="matrix(0.05,0,0,0.05,5,0)"
           xlink:href="#E"
           id="use4081" />
        <use
           transform="matrix(0.05,0,0,0.05,15,0)"
           xlink:href="#w"
           id="use4083" />
        <use
           transform="matrix(0.05,0,0,0.05,20,0)"
           xlink:href="#t"
           id="use4085" />
        <use
           transform="matrix(0.05,0,0,0.05,30,0)"
           xlink:href="#B"
           id="use4087" />
        <use
           transform="matrix(0.05,0,0,0.05,35.95,0)"
           xlink:href="#T"
           id="use4089" />
        <use
           transform="matrix(0.05,0,0,0.05,40.95,0)"
           xlink:href="#u"
           id="use4091" />
        <use
           transform="matrix(0.05,0,0,0.05,50.95,0)"
           xlink:href="#v"
           id="use4093" />
        <use
           transform="matrix(0.05,0,0,0.05,59.95,0)"
           xlink:href="#t"
           id="use4095" />
      </g>
      <path
         d="M24 0v-248h52v208h133V0H24"
         id="U" />
      <path
         d="M24 0v-248h195v40H76v63h132v40H76v65h150V0H24"
         id="V" />
      <path
         d="M67-125c0 54 23 88 75 88 28 0 53-7 68-21v-34h-60v-39h108v91C232-14 192 4 140 4 58 4 20-42 15-125 8-236 126-280 215-234c19 10 29 26 37 47l-47 15c-11-23-29-39-63-39-53 1-75 33-75 86"
         id="W" />
      <path
         d="M175 0L67-191c6 58 2 128 3 191H24v-248h59L193-55c-6-58-2-129-3-193h46V0h-61"
         id="X" />
      <path
         d="M24-248c120-7 223 5 221 122C244-46 201 0 124 0H24v-248zM76-40c74 7 117-18 117-86 0-67-45-88-117-82v168"
         id="Y" />
      <g
         id="q">
        <use
           transform="matrix(0.06790123456790124,0,0,0.06790123456790124,0,0)"
           xlink:href="#U"
           id="use4103" />
        <use
           transform="matrix(0.06790123456790124,0,0,0.06790123456790124,14.870370370370372,0)"
           xlink:href="#V"
           id="use4105" />
        <use
           transform="matrix(0.06790123456790124,0,0,0.06790123456790124,31.16666666666667,0)"
           xlink:href="#W"
           id="use4107" />
        <use
           transform="matrix(0.06790123456790124,0,0,0.06790123456790124,50.17901234567902,0)"
           xlink:href="#V"
           id="use4109" />
        <use
           transform="matrix(0.06790123456790124,0,0,0.06790123456790124,66.47530864197532,0)"
           xlink:href="#X"
           id="use4111" />
        <use
           transform="matrix(0.06790123456790124,0,0,0.06790123456790124,84.06172839506173,0)"
           xlink:href="#Y"
           id="use4113" />
      </g>
      <g
         id="r">
        <use
           transform="matrix(0.05,0,0,0.05,0,0)"
           xlink:href="#C"
           id="use4116" />
        <use
           transform="matrix(0.05,0,0,0.05,12,0)"
           xlink:href="#u"
           id="use4118" />
        <use
           transform="matrix(0.05,0,0,0.05,22,0)"
           xlink:href="#D"
           id="use4120" />
        <use
           transform="matrix(0.05,0,0,0.05,31,0)"
           xlink:href="#D"
           id="use4122" />
        <use
           transform="matrix(0.05,0,0,0.05,40,0)"
           xlink:href="#x"
           id="use4124" />
        <use
           transform="matrix(0.05,0,0,0.05,43.95,0)"
           xlink:href="#y"
           id="use4126" />
        <use
           transform="matrix(0.05,0,0,0.05,52.95,0)"
           xlink:href="#t"
           id="use4128" />
      </g>
    </defs>
  </g>
</svg>
