<?xml version="1.0" encoding="UTF-8" standalone="no"?>
<svg
   xmlns:lucid="lucid"
   xmlns:dc="http://purl.org/dc/elements/1.1/"
   xmlns:cc="http://creativecommons.org/ns#"
   xmlns:rdf="http://www.w3.org/1999/02/22-rdf-syntax-ns#"
   xmlns:svg="http://www.w3.org/2000/svg"
   xmlns="http://www.w3.org/2000/svg"
   xmlns:xlink="http://www.w3.org/1999/xlink"
   xmlns:sodipodi="http://sodipodi.sourceforge.net/DTD/sodipodi-0.dtd"
   xmlns:inkscape="http://www.inkscape.org/namespaces/inkscape"
   width="771"
   height="858"
   id="svg5018"
   version="1.1"
   inkscape:version="0.91 r13725"
   sodipodi:docname="init_activate.svg">
  <metadata
     id="metadata5429">
    <rdf:RDF>
      <cc:Work
         rdf:about="">
        <dc:format>image/svg+xml</dc:format>
        <dc:type
           rdf:resource="http://purl.org/dc/dcmitype/StillImage" />
        <dc:title></dc:title>
      </cc:Work>
    </rdf:RDF>
  </metadata>
  <defs
     id="defs5427" />
  <sodipodi:namedview
     pagecolor="#ffffff"
     bordercolor="#666666"
     borderopacity="1"
     objecttolerance="10"
     gridtolerance="10"
     guidetolerance="10"
     inkscape:pageopacity="0"
     inkscape:pageshadow="2"
     inkscape:window-width="1922"
     inkscape:window-height="1044"
     id="namedview5425"
     showgrid="false"
     inkscape:zoom="1.0720129"
     inkscape:cx="380.5"
     inkscape:cy="428.49"
     inkscape:window-x="0"
     inkscape:window-y="0"
     inkscape:window-maximized="0"
     inkscape:current-layer="svg5018" />
  <g
     transform="translate(-229 -12)"
     lucid:page-tab-id="0_0"
     id="g5020">
    <path
       d="M360 710h320v140H360z"
       fill="none"
       id="path5022" />
    <path
       d="M372 710h8m8 0h8m8 0h8m8 0h8m8 0h8m8 0h8m8 0h8m8 0h8m8 0h8m8 0h8m8 0h8m8 0h8m8 0h8m8 0h8m8 0h8m8 0h8m8 0h8m8 0h8m8 0h8m8 0h4v3.9m0 7.77v7.77m0 7.78V745m0 7.78v7.78m0 7.77v7.78m0 7.8v7.77m0 7.77v7.78m0 7.78v7.78m0 7.78v7.77m0 7.78v3.9h-4m-8 0h-8m-8 0h-8m-8 0h-8m-8 0h-8m-8 0h-8m-8 0h-8m-8 0h-8m-8 0h-8m-8 0h-8m-8 0h-8m-8 0h-8m-8 0h-8m-8 0h-8m-8 0h-8m-8 0h-8m-8 0h-8m-8 0h-8m-8 0h-8m-8 0h-8m-8 0h-4v-3.9m0-7.77v-7.77m0-7.78V815m0-7.78v-7.78m0-7.77v-7.78m0-7.8v-7.77m0-7.77v-7.78m0-7.78v-7.78m0-7.78v-7.77m0-7.78V710h4"
       stroke="#000"
       stroke-width="2"
       fill="none"
       id="path5024" />
    <path
       d="M460 270h120v80H460z"
       stroke="#000"
       stroke-width="2"
       fill="#c1e4f7"
       id="path5026" />
    <use
       xlink:href="#a"
       transform="matrix(1,0,0,1,465,275) translate(20.049999999999997 38.6)"
       id="use5028" />
    <path
       d="M340 270h120v80H340z"
       stroke="#000"
       stroke-width="2"
       fill="#c1e4f7"
       id="path5030" />
    <use
       xlink:href="#b"
       transform="matrix(1,0,0,1,345,275) translate(30.525 38.6)"
       id="use5032" />
    <path
       d="M580 270h120v80H580z"
       stroke="#000"
       stroke-width="2"
       fill="#c1e4f7"
       id="path5034" />
    <use
       xlink:href="#c"
       transform="matrix(1,0,0,1,585,275) translate(10.549999999999997 38.6)"
       id="use5036" />
    <path
       d="M340 390h360v80H340z"
       stroke="#000"
       stroke-width="2"
       fill="#c7e8ac"
       id="path5038" />
    <use
       xlink:href="#d"
       transform="matrix(1,0,0,1,345,395) translate(145.05 38.6)"
       id="use5040" />
    <path
       d="M340 470h360v80H340z"
       stroke="#000"
       stroke-width="2"
       fill="#c7e8ac"
       id="path5042" />
    <use
       xlink:href="#e"
       transform="matrix(1,0,0,1,345,475) translate(124.55 38.6)"
       id="use5044" />
    <path
       d="M340 550h360v80H340z"
       stroke="#000"
       stroke-width="2"
       fill="#c7e8ac"
       id="path5046" />
    <use
       xlink:href="#f"
       transform="matrix(1,0,0,1,345,555) translate(143.025 38.6)"
       id="use5048" />
    <path
       d="M240 630V140h500v200"
       stroke="#000"
       stroke-width="2"
       fill="none"
       id="path5050" />
    <path
       d="M740 340l-4.64-14.27h9.28z"
       stroke="#000"
       stroke-width="2"
       id="path5052" />
    <path
       d="M800 390v230"
       stroke="#000"
       stroke-width="2"
       fill="none"
       id="path5054" />
    <path
       d="M800 620l-4.64-14.27h9.28z"
       stroke="#000"
       stroke-width="2"
       id="path5056" />
    <path
       d="M280 566.33h40v47.34h-40z"
       fill="none"
       id="path5058" />
    <use
       xlink:href="#g"
       transform="matrix(1,0,0,1,285,571.3333333333334) translate(6.358024691358024 25.22222222222222)"
       id="use5060" />
    <path
       d="M280 486.33h40v47.34h-40z"
       fill="none"
       id="path5062" />
    <use
       xlink:href="#h"
       transform="matrix(1,0,0,1,285,491.3333333333333) translate(6.358024691358024 25.22222222222222)"
       id="use5064" />
    <path
       d="M280 406.33h40v47.34h-40z"
       fill="none"
       id="path5066" />
    <use
       xlink:href="#i"
       transform="matrix(1,0,0,1,285,411.33333333333326) translate(6.358024691358024 25.22222222222222)"
       id="use5068" />
    <path
       d="M380 160.67h40V208h-40z"
       fill="none"
       id="path5070" />
    <use
       xlink:href="#j"
       transform="matrix(1,0,0,1,385,165.66666666666669) translate(6.358024691358024 25.22222222222222)"
       id="use5072" />
    <path
       d="M500 160.33h40v47.34h-40z"
       fill="none"
       id="path5074" />
    <use
       xlink:href="#k"
       transform="matrix(1,0,0,1,505,165.33333333333331) translate(6.358024691358024 25.22222222222222)"
       id="use5076" />
    <path
       d="M620 160h40v47.33h-40z"
       fill="none"
       id="path5078" />
    <use
       xlink:href="#l"
       transform="matrix(1,0,0,1,625,165) translate(6.358024691358024 25.22222222222222)"
       id="use5080" />
    <path
       d="M720 406h40v47.33h-40z"
       fill="none"
       id="path5082" />
    <use
       xlink:href="#g"
       transform="matrix(1,0,0,1,725,411.00000000000006) translate(6.358024691358024 25.22222222222222)"
       id="use5084" />
    <path
       d="M720 566h40v47.33h-40z"
       fill="none"
       id="path5086" />
    <use
       xlink:href="#i"
       transform="matrix(1,0,0,1,725,571) translate(6.358024691358024 25.22222222222222)"
       id="use5088" />
    <path
       d="M720 486.67h40V534h-40z"
       fill="none"
       id="path5090" />
    <use
       xlink:href="#h"
       transform="matrix(1,0,0,1,725,491.66666666666663) translate(6.358024691358024 25.22222222222222)"
       id="use5092" />
    <path
       d="M820 460h160v74H820z"
       fill="none"
       id="path5094" />
    <use
       xlink:href="#m"
       transform="matrix(1,0,0,1,825,465) translate(17.29629629629629 21.333333333333336)"
       id="use5096" />
    <use
       xlink:href="#n"
       transform="matrix(1,0,0,1,825,465) translate(40.99999999999999 53.333333333333336)"
       id="use5098" />
    <path
       d="M440 32h160v74H440z"
       fill="none"
       id="path5100" />
    <use
       xlink:href="#o"
       transform="matrix(1,0,0,1,445,37) translate(5.555555555555557 21.333333333333336)"
       id="use5102" />
    <use
       xlink:href="#n"
       transform="matrix(1,0,0,1,445,37) translate(40.99999999999999 53.333333333333336)"
       id="use5104" />
    <path
       d="M460 310h120M580 310l-14.27 4.64v-9.28z"
       fill="none"
       id="path5106" />
    <path
       d="M380 750h120v80H380z"
       stroke="#000"
       stroke-width="2"
       fill="#c1e4f7"
       id="path5108" />
    <use
       xlink:href="#p"
       transform="matrix(1,0,0,1,385,755) translate(11.074999999999996 27.799999999999997)"
       id="use5110" />
    <use
       xlink:href="#q"
       transform="matrix(1,0,0,1,385,755) translate(32.525 49.4)"
       id="use5112" />
    <path
       d="M540 750h120v80H540z"
       stroke="#000"
       stroke-width="2"
       fill="#c7e8ac"
       id="path5114" />
    <use
       xlink:href="#r"
       transform="matrix(1,0,0,1,545,755) translate(20.025 27.799999999999997)"
       id="use5116" />
    <use
       xlink:href="#q"
       transform="matrix(1,0,0,1,545,755) translate(32.525 49.4)"
       id="use5118" />
    <path
       d="M440 653h160v74H440z"
       fill="none"
       id="path5120" />
    <g
       id="g5122">
      <use
         xlink:href="#s"
         transform="matrix(1,0,0,1,445,658) translate(24.175925925925924 36.888888888888886)"
         id="use5124" />
    </g>
    <path
       d="M460 200h120v70H460z"
       stroke="#000"
       stroke-width="2"
       fill="#c1e4f7"
       id="path5126" />
    <g
       id="g5128">
      <use
         xlink:href="#t"
         transform="matrix(1,0,0,1,465,205) translate(23.525 33.6)"
         id="use5130" />
    </g>
    <defs
       id="defs5132">
      <path
         d="M233-177c-1 41-23 64-60 70L243 0h-38l-65-103H63V0H30v-248c88 3 205-21 203 71zM63-129c60-2 137 13 137-47 0-61-80-42-137-45v92"
         id="u" />
      <path
         d="M100-194c63 0 86 42 84 106H49c0 40 14 67 53 68 26 1 43-12 49-29l28 8c-11 28-37 45-77 45C44 4 14-33 15-96c1-61 26-98 85-98zm52 81c6-60-76-77-97-28-3 7-6 17-6 28h103"
         id="v" />
      <path
         d="M141-36C126-15 110 5 73 4 37 3 15-17 15-53c-1-64 63-63 125-63 3-35-9-54-41-54-24 1-41 7-42 31l-33-3c5-37 33-52 76-52 45 0 72 20 72 64v82c-1 20 7 32 28 27v20c-31 9-61-2-59-35zM48-53c0 20 12 33 32 33 41-3 63-29 60-74-43 2-92-5-92 41"
         id="w" />
      <path
         d="M96-169c-40 0-48 33-48 73s9 75 48 75c24 0 41-14 43-38l32 2c-6 37-31 61-74 61-59 0-76-41-82-99-10-93 101-131 147-64 4 7 5 14 7 22l-32 3c-4-21-16-35-41-35"
         id="x" />
      <path
         d="M59-47c-2 24 18 29 38 22v24C64 9 27 4 27-40v-127H5v-23h24l9-43h21v43h35v23H59v120"
         id="y" />
      <path
         d="M24-231v-30h32v30H24zM24 0v-190h32V0H24"
         id="z" />
      <path
         d="M108 0H70L1-190h34L89-25l56-165h34"
         id="A" />
      <g
         id="a">
        <use
           transform="matrix(0.05,0,0,0.05,0,0)"
           xlink:href="#u"
           id="use5142" />
        <use
           transform="matrix(0.05,0,0,0.05,12.950000000000001,0)"
           xlink:href="#v"
           id="use5144" />
        <use
           transform="matrix(0.05,0,0,0.05,22.950000000000003,0)"
           xlink:href="#w"
           id="use5146" />
        <use
           transform="matrix(0.05,0,0,0.05,32.95,0)"
           xlink:href="#x"
           id="use5148" />
        <use
           transform="matrix(0.05,0,0,0.05,41.95,0)"
           xlink:href="#y"
           id="use5150" />
        <use
           transform="matrix(0.05,0,0,0.05,46.95,0)"
           xlink:href="#z"
           id="use5152" />
        <use
           transform="matrix(0.05,0,0,0.05,50.900000000000006,0)"
           xlink:href="#A"
           id="use5154" />
        <use
           transform="matrix(0.05,0,0,0.05,59.900000000000006,0)"
           xlink:href="#v"
           id="use5156" />
      </g>
      <path
         d="M205 0l-28-72H64L36 0H1l101-248h38L239 0h-34zm-38-99l-47-123c-12 45-31 82-46 123h93"
         id="B" />
      <g
         id="b">
        <use
           transform="matrix(0.05,0,0,0.05,0,0)"
           xlink:href="#B"
           id="use5160" />
        <use
           transform="matrix(0.05,0,0,0.05,12,0)"
           xlink:href="#x"
           id="use5162" />
        <use
           transform="matrix(0.05,0,0,0.05,21,0)"
           xlink:href="#y"
           id="use5164" />
        <use
           transform="matrix(0.05,0,0,0.05,26,0)"
           xlink:href="#z"
           id="use5166" />
        <use
           transform="matrix(0.05,0,0,0.05,29.950000000000003,0)"
           xlink:href="#A"
           id="use5168" />
        <use
           transform="matrix(0.05,0,0,0.05,38.95,0)"
           xlink:href="#v"
           id="use5170" />
      </g>
      <path
         d="M185-189c-5-48-123-54-124 2 14 75 158 14 163 119 3 78-121 87-175 55-17-10-28-26-33-46l33-7c5 56 141 63 141-1 0-78-155-14-162-118-5-82 145-84 179-34 5 7 8 16 11 25"
         id="C" />
      <path
         d="M106-169C34-169 62-67 57 0H25v-261h32l-1 103c12-21 28-36 61-36 89 0 53 116 60 194h-32v-121c2-32-8-49-39-48"
         id="D" />
      <path
         d="M85-194c31 0 48 13 60 33l-1-100h32l1 261h-30c-2-10 0-23-3-31C134-8 116 4 85 4 32 4 16-35 15-94c0-66 23-100 70-100zm9 24c-40 0-46 34-46 75 0 40 6 74 45 74 42 0 51-32 51-76 0-42-9-74-50-73"
         id="E" />
      <path
         d="M84 4C-5 8 30-112 23-190h32v120c0 31 7 50 39 49 72-2 45-101 50-169h31l1 190h-30c-1-10 1-25-2-33-11 22-28 36-60 37"
         id="F" />
      <path
         d="M24 0v-261h32V0H24"
         id="G" />
      <path
         d="M117-194c89-4 53 116 60 194h-32v-121c0-31-8-49-39-48C34-167 62-67 57 0H25l-1-190h30c1 10-1 24 2 32 11-22 29-35 61-36"
         id="H" />
      <path
         d="M177-190C167-65 218 103 67 71c-23-6-38-20-44-43l32-5c15 47 100 32 89-28v-30C133-14 115 1 83 1 29 1 15-40 15-95c0-56 16-97 71-98 29-1 48 16 59 35 1-10 0-23 2-32h30zM94-22c36 0 50-32 50-73 0-42-14-75-50-75-39 0-46 34-46 75s6 73 46 73"
         id="I" />
      <g
         id="c">
        <use
           transform="matrix(0.05,0,0,0.05,0,0)"
           xlink:href="#C"
           id="use5180" />
        <use
           transform="matrix(0.05,0,0,0.05,12,0)"
           xlink:href="#x"
           id="use5182" />
        <use
           transform="matrix(0.05,0,0,0.05,21,0)"
           xlink:href="#D"
           id="use5184" />
        <use
           transform="matrix(0.05,0,0,0.05,31,0)"
           xlink:href="#v"
           id="use5186" />
        <use
           transform="matrix(0.05,0,0,0.05,41,0)"
           xlink:href="#E"
           id="use5188" />
        <use
           transform="matrix(0.05,0,0,0.05,51,0)"
           xlink:href="#F"
           id="use5190" />
        <use
           transform="matrix(0.05,0,0,0.05,61,0)"
           xlink:href="#G"
           id="use5192" />
        <use
           transform="matrix(0.05,0,0,0.05,64.95,0)"
           xlink:href="#z"
           id="use5194" />
        <use
           transform="matrix(0.05,0,0,0.05,68.9,0)"
           xlink:href="#H"
           id="use5196" />
        <use
           transform="matrix(0.05,0,0,0.05,78.9,0)"
           xlink:href="#I"
           id="use5198" />
      </g>
      <path
         d="M114-163C36-179 61-72 57 0H25l-1-190h30c1 12-1 29 2 39 6-27 23-49 58-41v29"
         id="J" />
      <g
         id="d">
        <use
           transform="matrix(0.05,0,0,0.05,0,0)"
           xlink:href="#C"
           id="use5202" />
        <use
           transform="matrix(0.05,0,0,0.05,12,0)"
           xlink:href="#v"
           id="use5204" />
        <use
           transform="matrix(0.05,0,0,0.05,22,0)"
           xlink:href="#J"
           id="use5206" />
        <use
           transform="matrix(0.05,0,0,0.05,27.950000000000003,0)"
           xlink:href="#A"
           id="use5208" />
        <use
           transform="matrix(0.05,0,0,0.05,36.95,0)"
           xlink:href="#z"
           id="use5210" />
        <use
           transform="matrix(0.05,0,0,0.05,40.900000000000006,0)"
           xlink:href="#x"
           id="use5212" />
        <use
           transform="matrix(0.05,0,0,0.05,49.900000000000006,0)"
           xlink:href="#v"
           id="use5214" />
      </g>
      <path
         d="M30-248c87 1 191-15 191 75 0 78-77 80-158 76V0H30v-248zm33 125c57 0 124 11 124-50 0-59-68-47-124-48v98"
         id="K" />
      <path
         d="M135-143c-3-34-86-38-87 0 15 53 115 12 119 90S17 21 10-45l28-5c4 36 97 45 98 0-10-56-113-15-118-90-4-57 82-63 122-42 12 7 21 19 24 35"
         id="L" />
      <path
         d="M100-194c62-1 85 37 85 99 1 63-27 99-86 99S16-35 15-95c0-66 28-99 85-99zM99-20c44 1 53-31 53-75 0-43-8-75-51-75s-53 32-53 75 10 74 51 75"
         id="M" />
      <g
         id="e">
        <use
           transform="matrix(0.05,0,0,0.05,0,0)"
           xlink:href="#K"
           id="use5220" />
        <use
           transform="matrix(0.05,0,0,0.05,12,0)"
           xlink:href="#J"
           id="use5222" />
        <use
           transform="matrix(0.05,0,0,0.05,17.95,0)"
           xlink:href="#v"
           id="use5224" />
        <use
           transform="matrix(0.05,0,0,0.05,27.950000000000003,0)"
           xlink:href="#L"
           id="use5226" />
        <use
           transform="matrix(0.05,0,0,0.05,36.95,0)"
           xlink:href="#v"
           id="use5228" />
        <use
           transform="matrix(0.05,0,0,0.05,46.95,0)"
           xlink:href="#H"
           id="use5230" />
        <use
           transform="matrix(0.05,0,0,0.05,56.95,0)"
           xlink:href="#y"
           id="use5232" />
        <use
           transform="matrix(0.05,0,0,0.05,61.95,0)"
           xlink:href="#w"
           id="use5234" />
        <use
           transform="matrix(0.05,0,0,0.05,71.95,0)"
           xlink:href="#y"
           id="use5236" />
        <use
           transform="matrix(0.05,0,0,0.05,76.95,0)"
           xlink:href="#z"
           id="use5238" />
        <use
           transform="matrix(0.05,0,0,0.05,80.9,0)"
           xlink:href="#M"
           id="use5240" />
        <use
           transform="matrix(0.05,0,0,0.05,90.9,0)"
           xlink:href="#H"
           id="use5242" />
      </g>
      <g
         id="f">
        <use
           transform="matrix(0.05,0,0,0.05,0,0)"
           xlink:href="#C"
           id="use5245" />
        <use
           transform="matrix(0.05,0,0,0.05,12,0)"
           xlink:href="#v"
           id="use5247" />
        <use
           transform="matrix(0.05,0,0,0.05,22,0)"
           xlink:href="#L"
           id="use5249" />
        <use
           transform="matrix(0.05,0,0,0.05,31,0)"
           xlink:href="#L"
           id="use5251" />
        <use
           transform="matrix(0.05,0,0,0.05,40,0)"
           xlink:href="#z"
           id="use5253" />
        <use
           transform="matrix(0.05,0,0,0.05,43.95,0)"
           xlink:href="#M"
           id="use5255" />
        <use
           transform="matrix(0.05,0,0,0.05,53.95,0)"
           xlink:href="#H"
           id="use5257" />
      </g>
      <path
         d="M101-251c68 0 85 55 85 127S166 4 100 4C33 4 14-52 14-124c0-73 17-127 87-127zm-1 229c47 0 54-49 54-102s-4-102-53-102c-51 0-55 48-55 102 0 53 5 102 54 102"
         id="N" />
      <use
         transform="matrix(0.08641975308641976,0,0,0.08641975308641976,0,0)"
         xlink:href="#N"
         id="g" />
      <path
         d="M27 0v-27h64v-190l-56 39v-29l58-41h29v221h61V0H27"
         id="O" />
      <use
         transform="matrix(0.08641975308641976,0,0,0.08641975308641976,0,0)"
         xlink:href="#O"
         id="h" />
      <path
         d="M101-251c82-7 93 87 43 132L82-64C71-53 59-42 53-27h129V0H18c2-99 128-94 128-182 0-28-16-43-45-43s-46 15-49 41l-32-3c6-41 34-60 81-64"
         id="P" />
      <use
         transform="matrix(0.08641975308641976,0,0,0.08641975308641976,0,0)"
         xlink:href="#P"
         id="i" />
      <path
         d="M126-127c33 6 58 20 58 59 0 88-139 92-164 29-3-8-5-16-6-25l32-3c6 27 21 44 54 44 32 0 52-15 52-46 0-38-36-46-79-43v-28c39 1 72-4 72-42 0-27-17-43-46-43-28 0-47 15-49 41l-32-3c6-42 35-63 81-64 48-1 79 21 79 65 0 36-21 52-52 59"
         id="Q" />
      <use
         transform="matrix(0.08641975308641976,0,0,0.08641975308641976,0,0)"
         xlink:href="#Q"
         id="j" />
      <path
         d="M155-56V0h-30v-56H8v-25l114-167h33v167h35v25h-35zm-30-156c-27 46-58 90-88 131h88v-131"
         id="R" />
      <use
         transform="matrix(0.08641975308641976,0,0,0.08641975308641976,0,0)"
         xlink:href="#R"
         id="k" />
      <path
         d="M54-142c48-35 137-8 131 61C196 18 31 33 14-55l32-4c7 23 22 37 52 37 35-1 51-22 54-58 4-55-73-65-99-34H22l8-134h141v27H59"
         id="S" />
      <use
         transform="matrix(0.08641975308641976,0,0,0.08641975308641976,0,0)"
         xlink:href="#S"
         id="l" />
      <g
         id="m">
        <use
           transform="matrix(0.07407407407407408,0,0,0.07407407407407408,0,0)"
           xlink:href="#B"
           id="use5272" />
        <use
           transform="matrix(0.07407407407407408,0,0,0.07407407407407408,17.77777777777778,0)"
           xlink:href="#x"
           id="use5274" />
        <use
           transform="matrix(0.07407407407407408,0,0,0.07407407407407408,31.111111111111114,0)"
           xlink:href="#y"
           id="use5276" />
        <use
           transform="matrix(0.07407407407407408,0,0,0.07407407407407408,38.51851851851851,0)"
           xlink:href="#z"
           id="use5278" />
        <use
           transform="matrix(0.07407407407407408,0,0,0.07407407407407408,44.370370370370374,0)"
           xlink:href="#A"
           id="use5280" />
        <use
           transform="matrix(0.07407407407407408,0,0,0.07407407407407408,57.70370370370371,0)"
           xlink:href="#w"
           id="use5282" />
        <use
           transform="matrix(0.07407407407407408,0,0,0.07407407407407408,72.51851851851853,0)"
           xlink:href="#y"
           id="use5284" />
        <use
           transform="matrix(0.07407407407407408,0,0,0.07407407407407408,79.92592592592594,0)"
           xlink:href="#z"
           id="use5286" />
        <use
           transform="matrix(0.07407407407407408,0,0,0.07407407407407408,85.77777777777779,0)"
           xlink:href="#M"
           id="use5288" />
        <use
           transform="matrix(0.07407407407407408,0,0,0.07407407407407408,100.59259259259261,0)"
           xlink:href="#H"
           id="use5290" />
      </g>
      <path
         d="M140-251c81 0 123 46 123 126C263-46 219 4 140 4 59 4 17-45 17-125s42-126 123-126zm0 227c63 0 89-41 89-101s-29-99-89-99c-61 0-89 39-89 99S79-25 140-24"
         id="T" />
      <g
         id="n">
        <use
           transform="matrix(0.07407407407407408,0,0,0.07407407407407408,0,0)"
           xlink:href="#T"
           id="use5294" />
        <use
           transform="matrix(0.07407407407407408,0,0,0.07407407407407408,20.740740740740744,0)"
           xlink:href="#J"
           id="use5296" />
        <use
           transform="matrix(0.07407407407407408,0,0,0.07407407407407408,29.55555555555556,0)"
           xlink:href="#E"
           id="use5298" />
        <use
           transform="matrix(0.07407407407407408,0,0,0.07407407407407408,44.37037037037039,0)"
           xlink:href="#v"
           id="use5300" />
        <use
           transform="matrix(0.07407407407407408,0,0,0.07407407407407408,59.185185185185205,0)"
           xlink:href="#J"
           id="use5302" />
      </g>
      <path
         d="M33 0v-248h34V0H33"
         id="U" />
      <path
         d="M9 0v-24l116-142H16v-24h144v24L44-24h123V0H9"
         id="V" />
      <g
         id="o">
        <use
           transform="matrix(0.07407407407407408,0,0,0.07407407407407408,0,0)"
           xlink:href="#U"
           id="use5307" />
        <use
           transform="matrix(0.07407407407407408,0,0,0.07407407407407408,7.407407407407408,0)"
           xlink:href="#H"
           id="use5309" />
        <use
           transform="matrix(0.07407407407407408,0,0,0.07407407407407408,22.222222222222225,0)"
           xlink:href="#z"
           id="use5311" />
        <use
           transform="matrix(0.07407407407407408,0,0,0.07407407407407408,28.074074074074076,0)"
           xlink:href="#y"
           id="use5313" />
        <use
           transform="matrix(0.07407407407407408,0,0,0.07407407407407408,35.48148148148148,0)"
           xlink:href="#z"
           id="use5315" />
        <use
           transform="matrix(0.07407407407407408,0,0,0.07407407407407408,41.333333333333336,0)"
           xlink:href="#w"
           id="use5317" />
        <use
           transform="matrix(0.07407407407407408,0,0,0.07407407407407408,56.14814814814815,0)"
           xlink:href="#G"
           id="use5319" />
        <use
           transform="matrix(0.07407407407407408,0,0,0.07407407407407408,62.00000000000001,0)"
           xlink:href="#z"
           id="use5321" />
        <use
           transform="matrix(0.07407407407407408,0,0,0.07407407407407408,67.85185185185186,0)"
           xlink:href="#V"
           id="use5323" />
        <use
           transform="matrix(0.07407407407407408,0,0,0.07407407407407408,81.18518518518519,0)"
           xlink:href="#w"
           id="use5325" />
        <use
           transform="matrix(0.07407407407407408,0,0,0.07407407407407408,96,0)"
           xlink:href="#y"
           id="use5327" />
        <use
           transform="matrix(0.07407407407407408,0,0,0.07407407407407408,103.4074074074074,0)"
           xlink:href="#z"
           id="use5329" />
        <use
           transform="matrix(0.07407407407407408,0,0,0.07407407407407408,109.25925925925925,0)"
           xlink:href="#M"
           id="use5331" />
        <use
           transform="matrix(0.07407407407407408,0,0,0.07407407407407408,124.07407407407408,0)"
           xlink:href="#H"
           id="use5333" />
      </g>
      <path
         d="M115-194c55 1 70 41 70 98S169 2 115 4C84 4 66-9 55-30l1 105H24l-1-265h31l2 30c10-21 28-34 59-34zm-8 174c40 0 45-34 45-75s-6-73-45-74c-42 0-51 32-51 76 0 43 10 73 51 73"
         id="W" />
      <g
         id="p">
        <use
           transform="matrix(0.05,0,0,0.05,0,0)"
           xlink:href="#B"
           id="use5337" />
        <use
           transform="matrix(0.05,0,0,0.05,12,0)"
           xlink:href="#W"
           id="use5339" />
        <use
           transform="matrix(0.05,0,0,0.05,22,0)"
           xlink:href="#W"
           id="use5341" />
        <use
           transform="matrix(0.05,0,0,0.05,32,0)"
           xlink:href="#G"
           id="use5343" />
        <use
           transform="matrix(0.05,0,0,0.05,35.95,0)"
           xlink:href="#z"
           id="use5345" />
        <use
           transform="matrix(0.05,0,0,0.05,39.900000000000006,0)"
           xlink:href="#x"
           id="use5347" />
        <use
           transform="matrix(0.05,0,0,0.05,48.900000000000006,0)"
           xlink:href="#w"
           id="use5349" />
        <use
           transform="matrix(0.05,0,0,0.05,58.900000000000006,0)"
           xlink:href="#y"
           id="use5351" />
        <use
           transform="matrix(0.05,0,0,0.05,63.900000000000006,0)"
           xlink:href="#z"
           id="use5353" />
        <use
           transform="matrix(0.05,0,0,0.05,67.85000000000001,0)"
           xlink:href="#M"
           id="use5355" />
        <use
           transform="matrix(0.05,0,0,0.05,77.85000000000001,0)"
           xlink:href="#H"
           id="use5357" />
      </g>
      <path
         d="M30 0v-248h33v221h125V0H30"
         id="X" />
      <path
         d="M179-190L93 31C79 59 56 82 12 73V49c39 6 53-20 64-50L1-190h34L92-34l54-156h33"
         id="Y" />
      <g
         id="q">
        <use
           transform="matrix(0.05,0,0,0.05,0,0)"
           xlink:href="#X"
           id="use5362" />
        <use
           transform="matrix(0.05,0,0,0.05,10,0)"
           xlink:href="#w"
           id="use5364" />
        <use
           transform="matrix(0.05,0,0,0.05,20,0)"
           xlink:href="#Y"
           id="use5366" />
        <use
           transform="matrix(0.05,0,0,0.05,29,0)"
           xlink:href="#v"
           id="use5368" />
        <use
           transform="matrix(0.05,0,0,0.05,39,0)"
           xlink:href="#J"
           id="use5370" />
      </g>
      <path
         d="M101-234c-31-9-42 10-38 44h38v23H63V0H32v-167H5v-23h27c-7-52 17-82 69-68v24"
         id="Z" />
      <g
         id="r">
        <use
           transform="matrix(0.05,0,0,0.05,0,0)"
           xlink:href="#U"
           id="use5374" />
        <use
           transform="matrix(0.05,0,0,0.05,5,0)"
           xlink:href="#H"
           id="use5376" />
        <use
           transform="matrix(0.05,0,0,0.05,15,0)"
           xlink:href="#y"
           id="use5378" />
        <use
           transform="matrix(0.05,0,0,0.05,20,0)"
           xlink:href="#v"
           id="use5380" />
        <use
           transform="matrix(0.05,0,0,0.05,30,0)"
           xlink:href="#J"
           id="use5382" />
        <use
           transform="matrix(0.05,0,0,0.05,35.95,0)"
           xlink:href="#Z"
           id="use5384" />
        <use
           transform="matrix(0.05,0,0,0.05,40.95,0)"
           xlink:href="#w"
           id="use5386" />
        <use
           transform="matrix(0.05,0,0,0.05,50.95,0)"
           xlink:href="#x"
           id="use5388" />
        <use
           transform="matrix(0.05,0,0,0.05,59.95,0)"
           xlink:href="#v"
           id="use5390" />
      </g>
      <path
         d="M24 0v-248h52v208h133V0H24"
         id="aa" />
      <path
         d="M24 0v-248h195v40H76v63h132v40H76v65h150V0H24"
         id="ab" />
      <path
         d="M67-125c0 54 23 88 75 88 28 0 53-7 68-21v-34h-60v-39h108v91C232-14 192 4 140 4 58 4 20-42 15-125 8-236 126-280 215-234c19 10 29 26 37 47l-47 15c-11-23-29-39-63-39-53 1-75 33-75 86"
         id="ac" />
      <path
         d="M175 0L67-191c6 58 2 128 3 191H24v-248h59L193-55c-6-58-2-129-3-193h46V0h-61"
         id="ad" />
      <path
         d="M24-248c120-7 223 5 221 122C244-46 201 0 124 0H24v-248zM76-40c74 7 117-18 117-86 0-67-45-88-117-82v168"
         id="ae" />
      <g
         id="s">
        <use
           transform="matrix(0.06790123456790124,0,0,0.06790123456790124,0,0)"
           xlink:href="#aa"
           id="use5398" />
        <use
           transform="matrix(0.06790123456790124,0,0,0.06790123456790124,14.870370370370372,0)"
           xlink:href="#ab"
           id="use5400" />
        <use
           transform="matrix(0.06790123456790124,0,0,0.06790123456790124,31.16666666666667,0)"
           xlink:href="#ac"
           id="use5402" />
        <use
           transform="matrix(0.06790123456790124,0,0,0.06790123456790124,50.17901234567902,0)"
           xlink:href="#ab"
           id="use5404" />
        <use
           transform="matrix(0.06790123456790124,0,0,0.06790123456790124,66.47530864197532,0)"
           xlink:href="#ad"
           id="use5406" />
        <use
           transform="matrix(0.06790123456790124,0,0,0.06790123456790124,84.06172839506173,0)"
           xlink:href="#ae"
           id="use5408" />
      </g>
      <g
         id="t">
        <use
           transform="matrix(0.05,0,0,0.05,0,0)"
           xlink:href="#K"
           id="use5411" />
        <use
           transform="matrix(0.05,0,0,0.05,12,0)"
           xlink:href="#w"
           id="use5413" />
        <use
           transform="matrix(0.05,0,0,0.05,22,0)"
           xlink:href="#L"
           id="use5415" />
        <use
           transform="matrix(0.05,0,0,0.05,31,0)"
           xlink:href="#L"
           id="use5417" />
        <use
           transform="matrix(0.05,0,0,0.05,40,0)"
           xlink:href="#z"
           id="use5419" />
        <use
           transform="matrix(0.05,0,0,0.05,43.95,0)"
           xlink:href="#A"
           id="use5421" />
        <use
           transform="matrix(0.05,0,0,0.05,52.95,0)"
           xlink:href="#v"
           id="use5423" />
      </g>
    </defs>
  </g>
</svg>
