<?xml version="1.0" encoding="UTF-8" standalone="no"?>
<svg
   xmlns:lucid="lucid"
   xmlns:dc="http://purl.org/dc/elements/1.1/"
   xmlns:cc="http://creativecommons.org/ns#"
   xmlns:rdf="http://www.w3.org/1999/02/22-rdf-syntax-ns#"
   xmlns:svg="http://www.w3.org/2000/svg"
   xmlns="http://www.w3.org/2000/svg"
   xmlns:xlink="http://www.w3.org/1999/xlink"
   xmlns:sodipodi="http://sodipodi.sourceforge.net/DTD/sodipodi-0.dtd"
   xmlns:inkscape="http://www.inkscape.org/namespaces/inkscape"
   width="640"
   height="1160"
   id="svg6193"
   version="1.1"
   inkscape:version="0.91 r13725"
   sodipodi:docname="interlayer-architecture.svg">
  <metadata
     id="metadata6748">
    <rdf:RDF>
      <cc:Work
         rdf:about="">
        <dc:format>image/svg+xml</dc:format>
        <dc:type
           rdf:resource="http://purl.org/dc/dcmitype/StillImage" />
        <dc:title></dc:title>
      </cc:Work>
    </rdf:RDF>
  </metadata>
  <defs
     id="defs6746" />
  <sodipodi:namedview
     pagecolor="#ffffff"
     bordercolor="#666666"
     borderopacity="1"
     objecttolerance="10"
     gridtolerance="10"
     guidetolerance="10"
     inkscape:pageopacity="0"
     inkscape:pageshadow="2"
     inkscape:window-width="640"
     inkscape:window-height="480"
     id="namedview6744"
     showgrid="false"
     inkscape:zoom="0.20344828"
     inkscape:cx="320"
     inkscape:cy="580"
     inkscape:window-x="0"
     inkscape:window-y="0"
     inkscape:window-maximized="0"
     inkscape:current-layer="svg6193" />
  <g
     transform="translate(-160 -20)"
     lucid:page-tab-id="0_0"
     id="g6195">
    <path
       d="M180 460h600v700H180z"
       fill-opacity="0"
       id="path6197" />
    <path
       d="M181 460c0 .55-.45 1-1 1s-1-.45-1-1 .45-1 1-1 1 .45 1 1zm8 0c0 .55-.45 1-1 1s-1-.45-1-1 .45-1 1-1 1 .45 1 1zm8 0c0 .55-.45 1-1 1s-1-.45-1-1 .45-1 1-1 1 .45 1 1zm8 0c0 .55-.45 1-1 1s-1-.45-1-1 .45-1 1-1 1 .45 1 1zm8 0c0 .55-.45 1-1 1s-1-.45-1-1 .45-1 1-1 1 .45 1 1zm8 0c0 .55-.45 1-1 1s-1-.45-1-1 .45-1 1-1 1 .45 1 1zm8 0c0 .55-.45 1-1 1s-1-.45-1-1 .45-1 1-1 1 .45 1 1zm8 0c0 .55-.45 1-1 1s-1-.45-1-1 .45-1 1-1 1 .45 1 1zm8 0c0 .55-.45 1-1 1s-1-.45-1-1 .45-1 1-1 1 .45 1 1zm8 0c0 .55-.45 1-1 1s-1-.45-1-1 .45-1 1-1 1 .45 1 1zm8 0c0 .55-.45 1-1 1s-1-.45-1-1 .45-1 1-1 1 .45 1 1zm8 0c0 .55-.45 1-1 1s-1-.45-1-1 .45-1 1-1 1 .45 1 1zm8 0c0 .55-.45 1-1 1s-1-.45-1-1 .45-1 1-1 1 .45 1 1zm8 0c0 .55-.45 1-1 1s-1-.45-1-1 .45-1 1-1 1 .45 1 1zm8 0c0 .55-.45 1-1 1s-1-.45-1-1 .45-1 1-1 1 .45 1 1zm8 0c0 .55-.45 1-1 1s-1-.45-1-1 .45-1 1-1 1 .45 1 1zm8 0c0 .55-.45 1-1 1s-1-.45-1-1 .45-1 1-1 1 .45 1 1zm8 0c0 .55-.45 1-1 1s-1-.45-1-1 .45-1 1-1 1 .45 1 1zm8 0c0 .55-.45 1-1 1s-1-.45-1-1 .45-1 1-1 1 .45 1 1zm8 0c0 .55-.45 1-1 1s-1-.45-1-1 .45-1 1-1 1 .45 1 1zm8 0c0 .55-.45 1-1 1s-1-.45-1-1 .45-1 1-1 1 .45 1 1zm8 0c0 .55-.45 1-1 1s-1-.45-1-1 .45-1 1-1 1 .45 1 1zm8 0c0 .55-.45 1-1 1s-1-.45-1-1 .45-1 1-1 1 .45 1 1zm8 0c0 .55-.45 1-1 1s-1-.45-1-1 .45-1 1-1 1 .45 1 1zm8 0c0 .55-.45 1-1 1s-1-.45-1-1 .45-1 1-1 1 .45 1 1zm8 0c0 .55-.45 1-1 1s-1-.45-1-1 .45-1 1-1 1 .45 1 1zm8 0c0 .55-.45 1-1 1s-1-.45-1-1 .45-1 1-1 1 .45 1 1zm8 0c0 .55-.45 1-1 1s-1-.45-1-1 .45-1 1-1 1 .45 1 1zm8 0c0 .55-.45 1-1 1s-1-.45-1-1 .45-1 1-1 1 .45 1 1zm8 0c0 .55-.45 1-1 1s-1-.45-1-1 .45-1 1-1 1 .45 1 1zm8 0c0 .55-.45 1-1 1s-1-.45-1-1 .45-1 1-1 1 .45 1 1zm8 0c0 .55-.45 1-1 1s-1-.45-1-1 .45-1 1-1 1 .45 1 1zm8 0c0 .55-.45 1-1 1s-1-.45-1-1 .45-1 1-1 1 .45 1 1zm8 0c0 .55-.45 1-1 1s-1-.45-1-1 .45-1 1-1 1 .45 1 1zm8 0c0 .55-.45 1-1 1s-1-.45-1-1 .45-1 1-1 1 .45 1 1zm8 0c0 .55-.45 1-1 1s-1-.45-1-1 .45-1 1-1 1 .45 1 1zm8 0c0 .55-.45 1-1 1s-1-.45-1-1 .45-1 1-1 1 .45 1 1zm8 0c0 .55-.45 1-1 1s-1-.45-1-1 .45-1 1-1 1 .45 1 1zm8 0c0 .55-.45 1-1 1s-1-.45-1-1 .45-1 1-1 1 .45 1 1zm8 0c0 .55-.45 1-1 1s-1-.45-1-1 .45-1 1-1 1 .45 1 1zm8 0c0 .55-.45 1-1 1s-1-.45-1-1 .45-1 1-1 1 .45 1 1zm8 0c0 .55-.45 1-1 1s-1-.45-1-1 .45-1 1-1 1 .45 1 1zm8 0c0 .55-.45 1-1 1s-1-.45-1-1 .45-1 1-1 1 .45 1 1zm8 0c0 .55-.45 1-1 1s-1-.45-1-1 .45-1 1-1 1 .45 1 1zm8 0c0 .55-.45 1-1 1s-1-.45-1-1 .45-1 1-1 1 .45 1 1zm8 0c0 .55-.45 1-1 1s-1-.45-1-1 .45-1 1-1 1 .45 1 1zm8 0c0 .55-.45 1-1 1s-1-.45-1-1 .45-1 1-1 1 .45 1 1zm8 0c0 .55-.45 1-1 1s-1-.45-1-1 .45-1 1-1 1 .45 1 1zm8 0c0 .55-.45 1-1 1s-1-.45-1-1 .45-1 1-1 1 .45 1 1zm8 0c0 .55-.45 1-1 1s-1-.45-1-1 .45-1 1-1 1 .45 1 1zm8 0c0 .55-.45 1-1 1s-1-.45-1-1 .45-1 1-1 1 .45 1 1zm8 0c0 .55-.45 1-1 1s-1-.45-1-1 .45-1 1-1 1 .45 1 1zm8 0c0 .55-.45 1-1 1s-1-.45-1-1 .45-1 1-1 1 .45 1 1zm8 0c0 .55-.45 1-1 1s-1-.45-1-1 .45-1 1-1 1 .45 1 1zm8 0c0 .55-.45 1-1 1s-1-.45-1-1 .45-1 1-1 1 .45 1 1zm8 0c0 .55-.45 1-1 1s-1-.45-1-1 .45-1 1-1 1 .45 1 1zm8 0c0 .55-.45 1-1 1s-1-.45-1-1 .45-1 1-1 1 .45 1 1zm8 0c0 .55-.45 1-1 1s-1-.45-1-1 .45-1 1-1 1 .45 1 1zm8 0c0 .55-.45 1-1 1s-1-.45-1-1 .45-1 1-1 1 .45 1 1zm8 0c0 .55-.45 1-1 1s-1-.45-1-1 .45-1 1-1 1 .45 1 1zm8 0c0 .55-.45 1-1 1s-1-.45-1-1 .45-1 1-1 1 .45 1 1zm8 0c0 .55-.45 1-1 1s-1-.45-1-1 .45-1 1-1 1 .45 1 1zm8 0c0 .55-.45 1-1 1s-1-.45-1-1 .45-1 1-1 1 .45 1 1zm8 0c0 .55-.45 1-1 1s-1-.45-1-1 .45-1 1-1 1 .45 1 1zm8 0c0 .55-.45 1-1 1s-1-.45-1-1 .45-1 1-1 1 .45 1 1zm8 0c0 .55-.45 1-1 1s-1-.45-1-1 .45-1 1-1 1 .45 1 1zm8 0c0 .55-.45 1-1 1s-1-.45-1-1 .45-1 1-1 1 .45 1 1zm8 0c0 .55-.45 1-1 1s-1-.45-1-1 .45-1 1-1 1 .45 1 1zm8 0c0 .55-.45 1-1 1s-1-.45-1-1 .45-1 1-1 1 .45 1 1zm8 0c0 .55-.45 1-1 1s-1-.45-1-1 .45-1 1-1 1 .45 1 1zm8 0c0 .55-.45 1-1 1s-1-.45-1-1 .45-1 1-1 1 .45 1 1zm8 0c0 .55-.45 1-1 1s-1-.45-1-1 .45-1 1-1 1 .45 1 1zm8 0c0 .55-.45 1-1 1s-1-.45-1-1 .45-1 1-1 1 .45 1 1zm8 0c0 .55-.45 1-1 1s-1-.45-1-1 .45-1 1-1 1 .45 1 1zm8 0c0 .55-.45 1-1 1s-1-.45-1-1 .45-1 1-1 1 .45 1 1zm8 0c0 .55-.45 1-1 1s-1-.45-1-1 .45-1 1-1 1 .45 1 1zm0 7.95c0 .56-.45 1-1 1s-1-.44-1-1c0-.55.45-1 1-1s1 .45 1 1zm0 7.96c0 .56-.45 1-1 1s-1-.44-1-1c0-.54.45-1 1-1s1 .46 1 1zm0 7.96c0 .56-.45 1-1 1s-1-.44-1-1c0-.55.45-1 1-1s1 .45 1 1zm0 7.96c0 .55-.45 1-1 1s-1-.45-1-1 .45-1 1-1 1 .45 1 1zm0 7.95c0 .56-.45 1-1 1s-1-.44-1-1c0-.55.45-1 1-1s1 .45 1 1zm0 7.96c0 .55-.45 1-1 1s-1-.45-1-1c0-.56.45-1 1-1s1 .44 1 1zm0 7.95c0 .55-.45 1-1 1s-1-.45-1-1 .45-1 1-1 1 .45 1 1zm0 7.96c0 .55-.45 1-1 1s-1-.45-1-1c0-.56.45-1 1-1s1 .44 1 1zm0 7.95c0 .54-.45 1-1 1s-1-.46-1-1c0-.56.45-1 1-1s1 .44 1 1zm0 7.95c0 .55-.45 1-1 1s-1-.45-1-1c0-.56.45-1 1-1s1 .44 1 1zm0 7.95c0 .55-.45 1-1 1s-1-.45-1-1 .45-1 1-1 1 .45 1 1zm0 7.95c0 .56-.45 1-1 1s-1-.44-1-1c0-.55.45-1 1-1s1 .45 1 1zm0 7.96c0 .56-.45 1-1 1s-1-.44-1-1c0-.54.45-1 1-1s1 .46 1 1zm0 7.96c0 .56-.45 1-1 1s-1-.44-1-1c0-.55.45-1 1-1s1 .45 1 1zm0 7.96c0 .55-.45 1-1 1s-1-.45-1-1 .45-1 1-1 1 .45 1 1zm0 7.95c0 .56-.45 1-1 1s-1-.44-1-1c0-.55.45-1 1-1s1 .45 1 1zm0 7.96c0 .55-.45 1-1 1s-1-.45-1-1c0-.56.45-1 1-1s1 .44 1 1zm0 7.95c0 .55-.45 1-1 1s-1-.45-1-1 .45-1 1-1 1 .45 1 1zm0 7.96c0 .55-.45 1-1 1s-1-.45-1-1c0-.56.45-1 1-1s1 .44 1 1zm0 7.95c0 .54-.45 1-1 1s-1-.46-1-1c0-.56.45-1 1-1s1 .44 1 1zm0 7.95c0 .55-.45 1-1 1s-1-.45-1-1c0-.56.45-1 1-1s1 .44 1 1zm0 7.95c0 .55-.45 1-1 1s-1-.45-1-1 .45-1 1-1 1 .45 1 1zm0 7.95c0 .56-.45 1-1 1s-1-.44-1-1c0-.55.45-1 1-1s1 .45 1 1zm0 7.96c0 .56-.45 1-1 1s-1-.44-1-1c0-.54.45-1 1-1s1 .46 1 1zm0 7.96c0 .56-.45 1-1 1s-1-.44-1-1c0-.55.45-1 1-1s1 .45 1 1zm0 7.96c0 .55-.45 1-1 1s-1-.45-1-1 .45-1 1-1 1 .45 1 1zm0 7.95c0 .56-.45 1-1 1s-1-.44-1-1c0-.55.45-1 1-1s1 .45 1 1zm0 7.96c0 .55-.45 1-1 1s-1-.45-1-1c0-.56.45-1 1-1s1 .44 1 1zm0 7.95c0 .55-.45 1-1 1s-1-.45-1-1 .45-1 1-1 1 .45 1 1zm0 7.96c0 .55-.45 1-1 1s-1-.45-1-1c0-.56.45-1 1-1s1 .44 1 1zm0 7.95c0 .54-.45 1-1 1s-1-.46-1-1c0-.56.45-1 1-1s1 .44 1 1zm0 7.95c0 .55-.45 1-1 1s-1-.45-1-1c0-.56.45-1 1-1s1 .44 1 1zm0 7.95c0 .55-.45 1-1 1s-1-.45-1-1 .45-1 1-1 1 .45 1 1zm0 7.95c0 .56-.45 1-1 1s-1-.44-1-1c0-.55.45-1 1-1s1 .45 1 1zm0 7.96c0 .56-.45 1-1 1s-1-.44-1-1c0-.54.45-1 1-1s1 .46 1 1zm0 7.96c0 .56-.45 1-1 1s-1-.44-1-1c0-.55.45-1 1-1s1 .45 1 1zm0 7.96c0 .55-.45 1-1 1s-1-.45-1-1 .45-1 1-1 1 .45 1 1zm0 7.95c0 .56-.45 1-1 1s-1-.44-1-1c0-.55.45-1 1-1s1 .45 1 1zm0 7.96c0 .55-.45 1-1 1s-1-.45-1-1c0-.56.45-1 1-1s1 .44 1 1zm0 7.95c0 .55-.45 1-1 1s-1-.45-1-1 .45-1 1-1 1 .45 1 1zm0 7.96c0 .55-.45 1-1 1s-1-.45-1-1c0-.56.45-1 1-1s1 .44 1 1zm0 7.95c0 .54-.45 1-1 1s-1-.46-1-1c0-.56.45-1 1-1s1 .44 1 1zm0 7.95c0 .55-.45 1-1 1s-1-.45-1-1c0-.56.45-1 1-1s1 .44 1 1zm0 7.95c0 .55-.45 1-1 1s-1-.45-1-1 .45-1 1-1 1 .45 1 1zm0 7.95c0 .56-.45 1-1 1s-1-.44-1-1c0-.55.45-1 1-1s1 .45 1 1zm0 7.96c0 .56-.45 1-1 1s-1-.44-1-1c0-.54.45-1 1-1s1 .46 1 1zm0 7.96c0 .56-.45 1-1 1s-1-.44-1-1c0-.55.45-1 1-1s1 .45 1 1zm0 7.96c0 .55-.45 1-1 1s-1-.45-1-1 .45-1 1-1 1 .45 1 1zm0 7.95c0 .56-.45 1-1 1s-1-.44-1-1c0-.55.45-1 1-1s1 .45 1 1zm0 7.96c0 .55-.45 1-1 1s-1-.45-1-1c0-.56.45-1 1-1s1 .44 1 1zm0 7.95c0 .55-.45 1-1 1s-1-.45-1-1 .45-1 1-1 1 .45 1 1zm0 7.96c0 .55-.45 1-1 1s-1-.45-1-1c0-.56.45-1 1-1s1 .44 1 1zm0 7.95c0 .54-.45 1-1 1s-1-.46-1-1c0-.56.45-1 1-1s1 .44 1 1zm0 7.95c0 .55-.45 1-1 1s-1-.45-1-1c0-.56.45-1 1-1s1 .44 1 1zm0 7.95c0 .55-.45 1-1 1s-1-.45-1-1 .45-1 1-1 1 .45 1 1zm0 7.95c0 .56-.45 1-1 1s-1-.44-1-1c0-.55.45-1 1-1s1 .45 1 1zm0 7.96c0 .56-.45 1-1 1s-1-.44-1-1c0-.54.45-1 1-1s1 .46 1 1zm0 7.96c0 .56-.45 1-1 1s-1-.44-1-1c0-.55.45-1 1-1s1 .45 1 1zm0 7.96c0 .55-.45 1-1 1s-1-.45-1-1 .45-1 1-1 1 .45 1 1zm0 7.95c0 .56-.45 1-1 1s-1-.44-1-1c0-.55.45-1 1-1s1 .45 1 1zm0 7.96c0 .55-.45 1-1 1s-1-.45-1-1c0-.56.45-1 1-1s1 .44 1 1zm0 7.95c0 .55-.45 1-1 1s-1-.45-1-1 .45-1 1-1 1 .45 1 1zm0 7.96c0 .55-.45 1-1 1s-1-.45-1-1c0-.56.45-1 1-1s1 .44 1 1zm0 7.95c0 .54-.45 1-1 1s-1-.46-1-1c0-.56.45-1 1-1s1 .44 1 1zm0 7.95c0 .55-.45 1-1 1s-1-.45-1-1c0-.56.45-1 1-1s1 .44 1 1zm0 7.95c0 .55-.45 1-1 1s-1-.45-1-1 .45-1 1-1 1 .45 1 1zm0 7.95c0 .56-.45 1-1 1s-1-.44-1-1c0-.55.45-1 1-1s1 .45 1 1zm0 7.96c0 .56-.45 1-1 1s-1-.44-1-1c0-.54.45-1 1-1s1 .46 1 1zm0 7.96c0 .56-.45 1-1 1s-1-.44-1-1c0-.55.45-1 1-1s1 .45 1 1zm0 7.96c0 .55-.45 1-1 1s-1-.45-1-1 .45-1 1-1 1 .45 1 1zm0 7.95c0 .56-.45 1-1 1s-1-.44-1-1c0-.55.45-1 1-1s1 .45 1 1zm0 7.96c0 .55-.45 1-1 1s-1-.45-1-1c0-.56.45-1 1-1s1 .44 1 1zm0 7.95c0 .55-.45 1-1 1s-1-.45-1-1 .45-1 1-1 1 .45 1 1zm0 7.96c0 .55-.45 1-1 1s-1-.45-1-1c0-.56.45-1 1-1s1 .44 1 1zm0 7.95c0 .54-.45 1-1 1s-1-.46-1-1c0-.56.45-1 1-1s1 .44 1 1zm0 7.95c0 .55-.45 1-1 1s-1-.45-1-1c0-.56.45-1 1-1s1 .44 1 1zm0 7.95c0 .55-.45 1-1 1s-1-.45-1-1 .45-1 1-1 1 .45 1 1zm0 7.95c0 .56-.45 1-1 1s-1-.44-1-1c0-.55.45-1 1-1s1 .45 1 1zm0 7.96c0 .56-.45 1-1 1s-1-.44-1-1c0-.54.45-1 1-1s1 .46 1 1zm0 7.96c0 .56-.45 1-1 1s-1-.44-1-1c0-.55.45-1 1-1s1 .45 1 1zm0 7.96c0 .55-.45 1-1 1s-1-.45-1-1 .45-1 1-1 1 .45 1 1zm0 7.95c0 .56-.45 1-1 1s-1-.44-1-1c0-.55.45-1 1-1s1 .45 1 1zm0 7.96c0 .55-.45 1-1 1s-1-.45-1-1c0-.56.45-1 1-1s1 .44 1 1zm0 7.95c0 .55-.45 1-1 1s-1-.45-1-1 .45-1 1-1 1 .45 1 1zm0 7.96c0 .55-.45 1-1 1s-1-.45-1-1c0-.56.45-1 1-1s1 .44 1 1zm0 7.95c0 .54-.45 1-1 1s-1-.46-1-1c0-.56.45-1 1-1s1 .44 1 1zm0 7.95c0 .55-.45 1-1 1s-1-.45-1-1c0-.56.45-1 1-1s1 .44 1 1zm0 7.95c0 .55-.45 1-1 1s-1-.45-1-1 .45-1 1-1 1 .45 1 1zm-8 0c0 .55-.45 1-1 1s-1-.45-1-1 .45-1 1-1 1 .45 1 1zm-8 0c0 .55-.45 1-1 1s-1-.45-1-1 .45-1 1-1 1 .45 1 1zm-8 0c0 .55-.45 1-1 1s-1-.45-1-1 .45-1 1-1 1 .45 1 1zm-8 0c0 .55-.45 1-1 1s-1-.45-1-1 .45-1 1-1 1 .45 1 1zm-8 0c0 .55-.45 1-1 1s-1-.45-1-1 .45-1 1-1 1 .45 1 1zm-8 0c0 .55-.45 1-1 1s-1-.45-1-1 .45-1 1-1 1 .45 1 1zm-8 0c0 .55-.45 1-1 1s-1-.45-1-1 .45-1 1-1 1 .45 1 1zm-8 0c0 .55-.45 1-1 1s-1-.45-1-1 .45-1 1-1 1 .45 1 1zm-8 0c0 .55-.45 1-1 1s-1-.45-1-1 .45-1 1-1 1 .45 1 1zm-8 0c0 .55-.45 1-1 1s-1-.45-1-1 .45-1 1-1 1 .45 1 1zm-8 0c0 .55-.45 1-1 1s-1-.45-1-1 .45-1 1-1 1 .45 1 1zm-8 0c0 .55-.45 1-1 1s-1-.45-1-1 .45-1 1-1 1 .45 1 1zm-8 0c0 .55-.45 1-1 1s-1-.45-1-1 .45-1 1-1 1 .45 1 1zm-8 0c0 .55-.45 1-1 1s-1-.45-1-1 .45-1 1-1 1 .45 1 1zm-8 0c0 .55-.45 1-1 1s-1-.45-1-1 .45-1 1-1 1 .45 1 1zm-8 0c0 .55-.45 1-1 1s-1-.45-1-1 .45-1 1-1 1 .45 1 1zm-8 0c0 .55-.45 1-1 1s-1-.45-1-1 .45-1 1-1 1 .45 1 1zm-8 0c0 .55-.45 1-1 1s-1-.45-1-1 .45-1 1-1 1 .45 1 1zm-8 0c0 .55-.45 1-1 1s-1-.45-1-1 .45-1 1-1 1 .45 1 1zm-8 0c0 .55-.45 1-1 1s-1-.45-1-1 .45-1 1-1 1 .45 1 1zm-8 0c0 .55-.45 1-1 1s-1-.45-1-1 .45-1 1-1 1 .45 1 1zm-8 0c0 .55-.45 1-1 1s-1-.45-1-1 .45-1 1-1 1 .45 1 1zm-8 0c0 .55-.45 1-1 1s-1-.45-1-1 .45-1 1-1 1 .45 1 1zm-8 0c0 .55-.45 1-1 1s-1-.45-1-1 .45-1 1-1 1 .45 1 1zm-8 0c0 .55-.45 1-1 1s-1-.45-1-1 .45-1 1-1 1 .45 1 1zm-8 0c0 .55-.45 1-1 1s-1-.45-1-1 .45-1 1-1 1 .45 1 1zm-8 0c0 .55-.45 1-1 1s-1-.45-1-1 .45-1 1-1 1 .45 1 1zm-8 0c0 .55-.45 1-1 1s-1-.45-1-1 .45-1 1-1 1 .45 1 1zm-8 0c0 .55-.45 1-1 1s-1-.45-1-1 .45-1 1-1 1 .45 1 1zm-8 0c0 .55-.45 1-1 1s-1-.45-1-1 .45-1 1-1 1 .45 1 1zm-8 0c0 .55-.45 1-1 1s-1-.45-1-1 .45-1 1-1 1 .45 1 1zm-8 0c0 .55-.45 1-1 1s-1-.45-1-1 .45-1 1-1 1 .45 1 1zm-8 0c0 .55-.45 1-1 1s-1-.45-1-1 .45-1 1-1 1 .45 1 1zm-8 0c0 .55-.45 1-1 1s-1-.45-1-1 .45-1 1-1 1 .45 1 1zm-8 0c0 .55-.45 1-1 1s-1-.45-1-1 .45-1 1-1 1 .45 1 1zm-8 0c0 .55-.45 1-1 1s-1-.45-1-1 .45-1 1-1 1 .45 1 1zm-8 0c0 .55-.45 1-1 1s-1-.45-1-1 .45-1 1-1 1 .45 1 1zm-8 0c0 .55-.45 1-1 1s-1-.45-1-1 .45-1 1-1 1 .45 1 1zm-8 0c0 .55-.45 1-1 1s-1-.45-1-1 .45-1 1-1 1 .45 1 1zm-8 0c0 .55-.45 1-1 1s-1-.45-1-1 .45-1 1-1 1 .45 1 1zm-8 0c0 .55-.45 1-1 1s-1-.45-1-1 .45-1 1-1 1 .45 1 1zm-8 0c0 .55-.45 1-1 1s-1-.45-1-1 .45-1 1-1 1 .45 1 1zm-8 0c0 .55-.45 1-1 1s-1-.45-1-1 .45-1 1-1 1 .45 1 1zm-8 0c0 .55-.45 1-1 1s-1-.45-1-1 .45-1 1-1 1 .45 1 1zm-8 0c0 .55-.45 1-1 1s-1-.45-1-1 .45-1 1-1 1 .45 1 1zm-8 0c0 .55-.45 1-1 1s-1-.45-1-1 .45-1 1-1 1 .45 1 1zm-8 0c0 .55-.45 1-1 1s-1-.45-1-1 .45-1 1-1 1 .45 1 1zm-8 0c0 .55-.45 1-1 1s-1-.45-1-1 .45-1 1-1 1 .45 1 1zm-8 0c0 .55-.45 1-1 1s-1-.45-1-1 .45-1 1-1 1 .45 1 1zm-8 0c0 .55-.45 1-1 1s-1-.45-1-1 .45-1 1-1 1 .45 1 1zm-8 0c0 .55-.45 1-1 1s-1-.45-1-1 .45-1 1-1 1 .45 1 1zm-8 0c0 .55-.45 1-1 1s-1-.45-1-1 .45-1 1-1 1 .45 1 1zm-8 0c0 .55-.45 1-1 1s-1-.45-1-1 .45-1 1-1 1 .45 1 1zm-8 0c0 .55-.45 1-1 1s-1-.45-1-1 .45-1 1-1 1 .45 1 1zm-8 0c0 .55-.45 1-1 1s-1-.45-1-1 .45-1 1-1 1 .45 1 1zm-8 0c0 .55-.45 1-1 1s-1-.45-1-1 .45-1 1-1 1 .45 1 1zm-8 0c0 .55-.45 1-1 1s-1-.45-1-1 .45-1 1-1 1 .45 1 1zm-8 0c0 .55-.45 1-1 1s-1-.45-1-1 .45-1 1-1 1 .45 1 1zm-8 0c0 .55-.45 1-1 1s-1-.45-1-1 .45-1 1-1 1 .45 1 1zm-8 0c0 .55-.45 1-1 1s-1-.45-1-1 .45-1 1-1 1 .45 1 1zm-8 0c0 .55-.45 1-1 1s-1-.45-1-1 .45-1 1-1 1 .45 1 1zm-8 0c0 .55-.45 1-1 1s-1-.45-1-1 .45-1 1-1 1 .45 1 1zm-8 0c0 .55-.45 1-1 1s-1-.45-1-1 .45-1 1-1 1 .45 1 1zm-8 0c0 .55-.45 1-1 1s-1-.45-1-1 .45-1 1-1 1 .45 1 1zm-8 0c0 .55-.45 1-1 1s-1-.45-1-1 .45-1 1-1 1 .45 1 1zm-8 0c0 .55-.45 1-1 1s-1-.45-1-1 .45-1 1-1 1 .45 1 1zm-8 0c0 .55-.45 1-1 1s-1-.45-1-1 .45-1 1-1 1 .45 1 1zm-8 0c0 .55-.45 1-1 1s-1-.45-1-1 .45-1 1-1 1 .45 1 1zm-8 0c0 .55-.45 1-1 1s-1-.45-1-1 .45-1 1-1 1 .45 1 1zm-8 0c0 .55-.45 1-1 1s-1-.45-1-1 .45-1 1-1 1 .45 1 1zm-8 0c0 .55-.45 1-1 1s-1-.45-1-1 .45-1 1-1 1 .45 1 1zm-8 0c0 .55-.45 1-1 1s-1-.45-1-1 .45-1 1-1 1 .45 1 1zm-8 0c0 .55-.45 1-1 1s-1-.45-1-1 .45-1 1-1 1 .45 1 1zm-8 0c0 .55-.45 1-1 1s-1-.45-1-1 .45-1 1-1 1 .45 1 1zm-8 0c0 .55-.45 1-1 1s-1-.45-1-1 .45-1 1-1 1 .45 1 1zm0-7.95c0 .55-.45 1-1 1s-1-.45-1-1c0-.56.45-1 1-1s1 .44 1 1zm0-7.96c0 .54-.45 1-1 1s-1-.46-1-1c0-.56.45-1 1-1s1 .44 1 1zm0-7.96c0 .55-.45 1-1 1s-1-.45-1-1c0-.56.45-1 1-1s1 .44 1 1zm0-7.96c0 .55-.45 1-1 1s-1-.45-1-1 .45-1 1-1 1 .45 1 1zm0-7.95c0 .55-.45 1-1 1s-1-.45-1-1c0-.56.45-1 1-1s1 .44 1 1zm0-7.96c0 .56-.45 1-1 1s-1-.44-1-1c0-.55.45-1 1-1s1 .45 1 1zm0-7.95c0 .55-.45 1-1 1s-1-.45-1-1 .45-1 1-1 1 .45 1 1zm0-7.96c0 .56-.45 1-1 1s-1-.44-1-1c0-.55.45-1 1-1s1 .45 1 1zm0-7.95c0 .56-.45 1-1 1s-1-.44-1-1c0-.54.45-1 1-1s1 .46 1 1zm0-7.95c0 .56-.45 1-1 1s-1-.44-1-1c0-.55.45-1 1-1s1 .45 1 1zm0-7.95c0 .55-.45 1-1 1s-1-.45-1-1 .45-1 1-1 1 .45 1 1zm0-7.95c0 .55-.45 1-1 1s-1-.45-1-1c0-.56.45-1 1-1s1 .44 1 1zm0-7.96c0 .54-.45 1-1 1s-1-.46-1-1c0-.56.45-1 1-1s1 .44 1 1zm0-7.96c0 .55-.45 1-1 1s-1-.45-1-1c0-.56.45-1 1-1s1 .44 1 1zm0-7.96c0 .55-.45 1-1 1s-1-.45-1-1 .45-1 1-1 1 .45 1 1zm0-7.95c0 .55-.45 1-1 1s-1-.45-1-1c0-.56.45-1 1-1s1 .44 1 1zm0-7.96c0 .56-.45 1-1 1s-1-.44-1-1c0-.55.45-1 1-1s1 .45 1 1zm0-7.95c0 .55-.45 1-1 1s-1-.45-1-1 .45-1 1-1 1 .45 1 1zm0-7.96c0 .56-.45 1-1 1s-1-.44-1-1c0-.55.45-1 1-1s1 .45 1 1zm0-7.95c0 .56-.45 1-1 1s-1-.44-1-1c0-.54.45-1 1-1s1 .46 1 1zm0-7.95c0 .56-.45 1-1 1s-1-.44-1-1c0-.55.45-1 1-1s1 .45 1 1zm0-7.95c0 .55-.45 1-1 1s-1-.45-1-1 .45-1 1-1 1 .45 1 1zm0-7.95c0 .55-.45 1-1 1s-1-.45-1-1c0-.56.45-1 1-1s1 .44 1 1zm0-7.96c0 .54-.45 1-1 1s-1-.46-1-1c0-.56.45-1 1-1s1 .44 1 1zm0-7.96c0 .55-.45 1-1 1s-1-.45-1-1c0-.56.45-1 1-1s1 .44 1 1zm0-7.96c0 .55-.45 1-1 1s-1-.45-1-1 .45-1 1-1 1 .45 1 1zm0-7.95c0 .55-.45 1-1 1s-1-.45-1-1c0-.56.45-1 1-1s1 .44 1 1zm0-7.96c0 .56-.45 1-1 1s-1-.44-1-1c0-.55.45-1 1-1s1 .45 1 1zm0-7.95c0 .55-.45 1-1 1s-1-.45-1-1 .45-1 1-1 1 .45 1 1zm0-7.96c0 .56-.45 1-1 1s-1-.44-1-1c0-.55.45-1 1-1s1 .45 1 1zm0-7.95c0 .56-.45 1-1 1s-1-.44-1-1c0-.54.45-1 1-1s1 .46 1 1zm0-7.95c0 .56-.45 1-1 1s-1-.44-1-1c0-.55.45-1 1-1s1 .45 1 1zm0-7.95c0 .55-.45 1-1 1s-1-.45-1-1 .45-1 1-1 1 .45 1 1zm0-7.95c0 .55-.45 1-1 1s-1-.45-1-1c0-.56.45-1 1-1s1 .44 1 1zm0-7.96c0 .54-.45 1-1 1s-1-.46-1-1c0-.56.45-1 1-1s1 .44 1 1zm0-7.96c0 .55-.45 1-1 1s-1-.45-1-1c0-.56.45-1 1-1s1 .44 1 1zm0-7.96c0 .55-.45 1-1 1s-1-.45-1-1 .45-1 1-1 1 .45 1 1zm0-7.95c0 .55-.45 1-1 1s-1-.45-1-1c0-.56.45-1 1-1s1 .44 1 1zm0-7.96c0 .56-.45 1-1 1s-1-.44-1-1c0-.55.45-1 1-1s1 .45 1 1zm0-7.95c0 .55-.45 1-1 1s-1-.45-1-1 .45-1 1-1 1 .45 1 1zm0-7.96c0 .56-.45 1-1 1s-1-.44-1-1c0-.55.45-1 1-1s1 .45 1 1zm0-7.95c0 .56-.45 1-1 1s-1-.44-1-1c0-.54.45-1 1-1s1 .46 1 1zm0-7.95c0 .56-.45 1-1 1s-1-.44-1-1c0-.55.45-1 1-1s1 .45 1 1zm0-7.95c0 .55-.45 1-1 1s-1-.45-1-1 .45-1 1-1 1 .45 1 1zm0-7.95c0 .55-.45 1-1 1s-1-.45-1-1c0-.56.45-1 1-1s1 .44 1 1zm0-7.96c0 .54-.45 1-1 1s-1-.46-1-1c0-.56.45-1 1-1s1 .44 1 1zm0-7.96c0 .55-.45 1-1 1s-1-.45-1-1c0-.56.45-1 1-1s1 .44 1 1zm0-7.96c0 .55-.45 1-1 1s-1-.45-1-1 .45-1 1-1 1 .45 1 1zm0-7.95c0 .55-.45 1-1 1s-1-.45-1-1c0-.56.45-1 1-1s1 .44 1 1zm0-7.96c0 .56-.45 1-1 1s-1-.44-1-1c0-.55.45-1 1-1s1 .45 1 1zm0-7.95c0 .55-.45 1-1 1s-1-.45-1-1 .45-1 1-1 1 .45 1 1zm0-7.96c0 .56-.45 1-1 1s-1-.44-1-1c0-.55.45-1 1-1s1 .45 1 1zm0-7.95c0 .56-.45 1-1 1s-1-.44-1-1c0-.54.45-1 1-1s1 .46 1 1zm0-7.95c0 .56-.45 1-1 1s-1-.44-1-1c0-.55.45-1 1-1s1 .45 1 1zm0-7.95c0 .55-.45 1-1 1s-1-.45-1-1 .45-1 1-1 1 .45 1 1zm0-7.95c0 .55-.45 1-1 1s-1-.45-1-1c0-.56.45-1 1-1s1 .44 1 1zm0-7.96c0 .54-.45 1-1 1s-1-.46-1-1c0-.56.45-1 1-1s1 .44 1 1zm0-7.96c0 .55-.45 1-1 1s-1-.45-1-1c0-.56.45-1 1-1s1 .44 1 1zm0-7.96c0 .55-.45 1-1 1s-1-.45-1-1 .45-1 1-1 1 .45 1 1zm0-7.95c0 .55-.45 1-1 1s-1-.45-1-1c0-.56.45-1 1-1s1 .44 1 1zm0-7.96c0 .56-.45 1-1 1s-1-.44-1-1c0-.55.45-1 1-1s1 .45 1 1zm0-7.95c0 .55-.45 1-1 1s-1-.45-1-1 .45-1 1-1 1 .45 1 1zm0-7.96c0 .56-.45 1-1 1s-1-.44-1-1c0-.55.45-1 1-1s1 .45 1 1zm0-7.95c0 .56-.45 1-1 1s-1-.44-1-1c0-.54.45-1 1-1s1 .46 1 1zm0-7.95c0 .56-.45 1-1 1s-1-.44-1-1c0-.55.45-1 1-1s1 .45 1 1zm0-7.95c0 .55-.45 1-1 1s-1-.45-1-1 .45-1 1-1 1 .45 1 1zm0-7.95c0 .55-.45 1-1 1s-1-.45-1-1c0-.56.45-1 1-1s1 .44 1 1zm0-7.96c0 .54-.45 1-1 1s-1-.46-1-1c0-.56.45-1 1-1s1 .44 1 1zm0-7.96c0 .55-.45 1-1 1s-1-.45-1-1c0-.56.45-1 1-1s1 .44 1 1zm0-7.96c0 .55-.45 1-1 1s-1-.45-1-1 .45-1 1-1 1 .45 1 1zm0-7.95c0 .55-.45 1-1 1s-1-.45-1-1c0-.56.45-1 1-1s1 .44 1 1zm0-7.96c0 .56-.45 1-1 1s-1-.44-1-1c0-.55.45-1 1-1s1 .45 1 1zm0-7.95c0 .55-.45 1-1 1s-1-.45-1-1 .45-1 1-1 1 .45 1 1zm0-7.96c0 .56-.45 1-1 1s-1-.44-1-1c0-.55.45-1 1-1s1 .45 1 1zm0-7.95c0 .56-.45 1-1 1s-1-.44-1-1c0-.54.45-1 1-1s1 .46 1 1zm0-7.95c0 .56-.45 1-1 1s-1-.44-1-1c0-.55.45-1 1-1s1 .45 1 1zm0-7.95c0 .55-.45 1-1 1s-1-.45-1-1 .45-1 1-1 1 .45 1 1zm0-7.95c0 .55-.45 1-1 1s-1-.45-1-1c0-.56.45-1 1-1s1 .44 1 1zm0-7.96c0 .54-.45 1-1 1s-1-.46-1-1c0-.56.45-1 1-1s1 .44 1 1zm0-7.96c0 .55-.45 1-1 1s-1-.45-1-1c0-.56.45-1 1-1s1 .44 1 1zm0-7.96c0 .55-.45 1-1 1s-1-.45-1-1 .45-1 1-1 1 .45 1 1zm0-7.95c0 .55-.45 1-1 1s-1-.45-1-1c0-.56.45-1 1-1s1 .44 1 1zm0-7.96c0 .56-.45 1-1 1s-1-.44-1-1c0-.55.45-1 1-1s1 .45 1 1zm0-7.95c0 .55-.45 1-1 1s-1-.45-1-1 .45-1 1-1 1 .45 1 1zm0-7.96c0 .56-.45 1-1 1s-1-.44-1-1c0-.55.45-1 1-1s1 .45 1 1zm0-7.95c0 .56-.45 1-1 1s-1-.44-1-1c0-.54.45-1 1-1s1 .46 1 1zm0-7.95c0 .56-.45 1-1 1s-1-.44-1-1c0-.55.45-1 1-1s1 .45 1 1z"
       id="path6199" />
    <use
       xlink:href="#a"
       transform="matrix(1,0,0,1,180,460) translate(232.03703703703704 689.3333333333334)"
       id="use6201" />
    <path
       d="M215 360h520v74H215z"
       stroke="#000"
       stroke-width="2"
       fill-opacity="0"
       id="path6203" />
    <use
       xlink:href="#b"
       transform="matrix(1,0,0,1,220,365) translate(169.93827160493828 36.44444444444444)"
       id="use6205" />
    <use
       xlink:href="#c"
       transform="matrix(1,0,0,1,220,365) translate(284.5679012345679 36.44444444444444)"
       id="use6207" />
    <path
       d="M255 94h440v240H255z"
       fill-opacity="0"
       id="path6209" />
    <path
       d="M266.8 94h7.84m7.86 0h7.86m7.85 0h7.87m7.86 0h7.86m7.84 0h7.86m7.86 0h7.85m7.87 0h7.86m7.86 0h7.84m7.86 0h7.86m7.85 0h7.87m7.86 0h7.86m7.84 0h7.86m7.86 0h7.85m7.87 0h7.86m7.86 0h7.84m7.86 0h7.86m7.85 0h7.87m7.86 0h7.86m7.84 0h7.86m7.86 0h7.85m7.87 0h7.86m7.86 0h7.84m7.86 0h7.86m7.85 0h7.87m7.86 0h7.86m7.84 0h7.86m7.86 0h7.85m7.87 0H695v4m0 8v8m0 8v8m0 8v8m0 8v8m0 8v8m0 8v8m0 8v8m0 8v8m0 8v8m0 8v8m0 8v8m0 8v8m0 8v8m0 8v8m0 8v4h-3.93m-7.86 0h-7.84m-7.86 0h-7.86m-7.85 0h-7.87m-7.86 0h-7.86m-7.84 0h-7.86m-7.86 0h-7.85m-7.87 0h-7.86m-7.86 0h-7.84m-7.86 0h-7.86m-7.85 0h-7.87m-7.86 0h-7.86m-7.84 0h-7.86m-7.86 0h-7.85m-7.87 0h-7.86m-7.86 0h-7.84m-7.86 0h-7.86m-7.85 0h-7.87m-7.86 0h-7.86m-7.84 0h-7.86m-7.86 0h-7.85m-7.87 0h-7.86m-7.86 0h-7.84m-7.86 0h-7.86m-7.85 0h-7.87m-7.86 0h-7.86m-7.84 0h-7.86m-7.86 0h-7.85m-7.87 0H255v-4m0-8v-8m0-8v-8m0-8v-8m0-8v-8m0-8v-8m0-8v-8m0-8v-8m0-8v-8m0-8v-8m0-8v-8m0-8v-8m0-8v-8m0-8v-8m0-8v-8m0-8v-4h3.93"
       stroke="#000"
       stroke-width="2"
       fill="none"
       id="path6211" />
    <path
       d="M390 40h160v74H390z"
       stroke="#000"
       stroke-opacity="0"
       stroke-width="2"
       fill-opacity="0"
       id="path6213" />
    <use
       xlink:href="#d"
       transform="matrix(1,0,0,1,395,45) translate(24.175925925925924 36.888888888888886)"
       id="use6215" />
    <path
       d="M215 520h120v100H215z"
       stroke="#000"
       stroke-width="2"
       fill-opacity="0"
       id="path6217" />
    <use
       xlink:href="#e"
       transform="matrix(1,0,0,1,215,520) translate(20.555555555555557 41.111111111111114)"
       id="use6219" />
    <use
       xlink:href="#f"
       transform="matrix(1,0,0,1,215,520) translate(16.820987654320987 67.77777777777777)"
       id="use6221" />
    <path
       d="M615 520h120v100H615z"
       stroke="#000"
       stroke-width="2"
       fill-opacity="0"
       id="path6223" />
    <use
       xlink:href="#g"
       transform="matrix(1,0,0,1,615,520) translate(8.858024691358018 54.44444444444444)"
       id="use6225" />
    <path
       d="M415 520h120v100H415z"
       fill-opacity="0"
       id="path6227" />
    <path
       d="M435 520h20m10 0h20m10 0h20m10 0h10v11.1m0 11.12v22.22m0 11.12v22.22m0 11.1V620h-10m-10 0h-20m-10 0h-20m-10 0h-20m-10 0h-10v-11.1m0-11.12v-22.22m0-11.12v-22.22m0-11.1V520h10"
       stroke="#000"
       stroke-width="2"
       fill="none"
       id="path6229" />
    <use
       xlink:href="#h"
       transform="matrix(1,0,0,1,415,520) translate(11.97530864197531 54.44444444444444)"
       id="use6231" />
    <path
       d="M415 680h120v100H415z"
       stroke="#000"
       stroke-width="2"
       fill-opacity="0"
       id="path6233" />
    <use
       xlink:href="#i"
       transform="matrix(1,0,0,1,415,680) translate(40.24691358024691 41.111111111111114)"
       id="use6235" />
    <use
       xlink:href="#j"
       transform="matrix(1,0,0,1,415,680) translate(11.97530864197531 67.77777777777777)"
       id="use6237" />
    <path
       d="M475 680v-60"
       stroke="#000"
       stroke-width="2"
       fill="none"
       id="path6239" />
    <path
       d="M476 680h-2 2z"
       id="path6241" />
    <path
       d="M479.64 634.27h-9.28L475 620z"
       fill="#fff"
       id="path6243" />
    <path
       d="M481 635.27h-12l4.95-15.27h2.1zm-9.26-2h6.52L475 623.24z"
       id="path6245" />
    <path
       d="M615 570h-80"
       stroke="#000"
       stroke-width="2"
       fill="none"
       id="path6247" />
    <path
       d="M615 571v-2zM549.27 574.64L535 570l14.27-4.64z"
       id="path6249" />
    <path
       d="M550.27 576L535 571.06v-2.1l15.27-4.96zm-12.03-6l10.03 3.26v-6.52z"
       id="path6251" />
    <path
       d="M335 570h80"
       stroke="#000"
       stroke-width="2"
       fill="none"
       id="path6253" />
    <path
       d="M335 571v-2zM415 570l-14.27 4.64v-9.28z"
       id="path6255" />
    <path
       d="M415 568.95v2.1L399.73 576v-12zm-13.27 4.3l10.03-3.25-10.03-3.26z"
       id="path6257" />
    <path
       d="M280 435v84"
       stroke="#000"
       stroke-width="2"
       fill="none"
       id="path6259" />
    <path
       d="M281 435h-2v-1h2zM280 519l-4.64-14.27h9.28z"
       id="path6261" />
    <path
       d="M280.73 520h-1.46L274 503.73h12zm-4-14.27l3.27 10.03 3.26-10.03z"
       id="path6263" />
    <path
       d="M521.5 800c7.46 0 13.5 17.9 13.5 40s-6.04 40-13.5 40h-108c-7.46 0-13.5-17.9-13.5-40s6.04-40 13.5-40z"
       stroke="#000"
       stroke-width="2"
       fill-opacity="0"
       id="path6265" />
    <path
       d="M521.5 880c-7.46 0-13.5-17.9-13.5-40s6.04-40 13.5-40"
       stroke="#000"
       stroke-width="2"
       fill="none"
       id="path6267" />
    <use
       xlink:href="#k"
       transform="matrix(1,0,0,1,400,800) translate(25.666666666666664 31.111111111111114)"
       id="use6269" />
    <use
       xlink:href="#l"
       transform="matrix(1,0,0,1,400,800) translate(32.425925925925924 57.77777777777778)"
       id="use6271" />
    <path
       d="M615 840h120v100H615z"
       stroke="#000"
       stroke-width="2"
       fill-opacity="0"
       id="path6273" />
    <use
       xlink:href="#m"
       transform="matrix(1,0,0,1,615,840) translate(20.95679012345679 41.111111111111114)"
       id="use6275" />
    <use
       xlink:href="#f"
       transform="matrix(1,0,0,1,615,840) translate(16.820987654320987 67.77777777777777)"
       id="use6277" />
    <path
       d="M675 520v-85"
       stroke="#000"
       stroke-width="2"
       fill="none"
       id="path6279" />
    <path
       d="M676 520h-2 2zM679.64 449.27h-9.28L675 435z"
       id="path6281" />
    <path
       d="M681 450.27h-12l5.27-16.27h1.46zm-9.26-2h6.52L675 438.24z"
       id="path6283" />
    <path
       d="M627 1000h96l32 60-32 60h-96l-32-60z"
       stroke="#000"
       stroke-width="2"
       fill-opacity="0"
       id="path6285" />
    <use
       xlink:href="#n"
       transform="matrix(1,0,0,1,595,1000) translate(34.99999999999999 64.44444444444444)"
       id="use6287" />
    <path
       d="M227 1000h96l32 60-32 60h-96l-32-60z"
       stroke="#000"
       stroke-width="2"
       fill-opacity="0"
       id="path6289" />
    <use
       xlink:href="#o"
       transform="matrix(1,0,0,1,195,1000) translate(24.59876543209876 64.44444444444444)"
       id="use6291" />
    <path
       d="M614 927.67l-35.22.05v-2l35.22-.05zM489 882.2l.1 2.25.18 2.08.24 1.93.3 1.8.37 1.7.4 1.6.45 1.5.5 1.43.54 1.36.58 1.3.62 1.27.67 1.22.72 1.18.75 1.15.8 1.12.88 1.1.92 1.06 1 1.06 1.06 1.04 1.16 1.03 1.23 1 1.33 1.03 1.46 1 1.58 1.02 1.74 1 1.93 1 2.15 1.02 2.4 1 2.7 1.02 3.1 1 3.57 1h.1v2.07l-.6-.15-3.65-1-3.17-1.04-2.8-1.04-2.47-1.04-2.22-1.04-2-1.05-1.82-1.04-1.66-1.05-1.53-1.05-1.4-1.07-1.3-1.07-1.2-1.08-1.13-1.1-1.05-1.12-.98-1.13-.93-1.16-.86-1.18-.8-1.22-.76-1.25-.7-1.3-.67-1.33-.62-1.4-.57-1.43-.53-1.53-.48-1.58-.43-1.7-.38-1.76-.3-1.9-.27-2-.2-2.16-.1-2.33V881h2zM615 927.67h-1v-2h1z"
       id="path6293" />
    <path
       d="M494.72 894.4l-9.16 1.4L488 881z"
       id="path6295" />
    <path
       d="M496.23 895.2l-11.88 1.8 2.8-17h1.47zm-9.46-.6l6.44-.97-4.7-9.43z"
       id="path6297" />
    <use
       xlink:href="#p"
       transform="matrix(1,0,0,1,524.5842624574943,913.0393732048461) translate(0 17.77777777777778)"
       id="use6299" />
    <path
       d="M675 1000v-60"
       stroke="#000"
       stroke-width="2"
       fill="none"
       id="path6301" />
    <path
       d="M676 1000h-2 2zM679.64 954.27h-9.28L675 940z"
       id="path6303" />
    <path
       d="M681 955.27h-12l4.95-15.27h2.1zm-9.26-2h6.52L675 943.24zM276 1000h-2V620h2zM276 620h-2 2z"
       id="path6305" />
    <path
       d="M275 1000l-4.64-14.27h9.28z"
       id="path6307" />
    <path
       d="M276.05 1000h-2.1L269 984.73h12zm-4.3-13.27l3.25 10.03 3.26-10.03zM634.3 705.6l-2.54 9.13-2.7 8.3-2.8 7.56-2.92 6.93-3 6.38-3.1 5.92-3.16 5.5-3.24 5.1-3.33 4.8-3.4 4.48-3.5 4.22-3.57 3.98-3.7 3.77-3.78 3.56-3.92 3.38-4.04 3.22-4.2 3.04-4.36 2.9-4.54 2.75-4.74 2.6-4.97 2.48-5.24 2.32-5.5 2.2-5.85 2.02-6.18 1.87-3.1.82-.53-1.93 3.07-.84 6.13-1.85 5.75-2 5.44-2.14 5.13-2.3 4.9-2.42 4.67-2.57 4.46-2.7 4.3-2.85 4.12-3 3.98-3.15 3.85-3.33 3.74-3.5 3.63-3.7 3.53-3.93 3.44-4.14 3.35-4.43 3.27-4.7 3.2-5.05 3.13-5.42 3.04-5.83 2.97-6.32 2.9-6.84 2.78-7.5 2.66-8.2 2.53-9.07.45-1.92h2.05zm9.37-84.58l-.4 19.24-1.03 16.6-1.52 14.48-.76 5.18h-2.02l.8-5.43 1.5-14.4 1.04-16.53.4-19.2z"
       id="path6309" />
    <path
       d="M643.67 621.02l-2-.04.02-.98h2zM547.65 814.05l-15-.2 12.25-8.66z"
       id="path6311" />
    <path
       d="M549 815.06l-17.13-.2-.36-1.42 13.94-9.86zm-13.26-2.17l10.55.13-1.95-6.22z"
       id="path6313" />
    <use
       xlink:href="#q"
       transform="matrix(1,0,0,1,606.5146096226658,676.5154032591422) translate(0 17.77777777777778)"
       id="use6315" />
    <path
       d="M300 114h75l25 50-25 50h-75l-25-50z"
       stroke="#000"
       stroke-width="2"
       fill-opacity="0"
       id="path6317" />
    <use
       xlink:href="#r"
       transform="matrix(1,0,0,1,275,114) translate(8.2716049382716 54.44444444444444)"
       id="use6319" />
    <path
       d="M413 134h80v80h-80z"
       stroke="#000"
       stroke-width="2"
       fill-opacity="0"
       id="path6321" />
    <use
       xlink:href="#s"
       transform="matrix(1,0,0,1,413,134) translate(3.6419753086419746 44.44444444444444)"
       id="use6323" />
    <path
       d="M617.5 134c5.8 0 10.5 17.9 10.5 40s-4.7 40-10.5 40h-84c-5.8 0-10.5-17.9-10.5-40s4.7-40 10.5-40z"
       stroke="#000"
       stroke-width="2"
       fill-opacity="0"
       id="path6325" />
    <path
       d="M617.5 214c-5.8 0-10.5-17.9-10.5-40s4.7-40 10.5-40"
       stroke="#000"
       stroke-width="2"
       fill="none"
       id="path6327" />
    <use
       xlink:href="#t"
       transform="matrix(1,0,0,1,523,134) translate(20.425925925925927 44.44444444444444)"
       id="use6329" />
    <path
       d="M293 234h107v74H293z"
       fill-opacity="0"
       id="path6331" />
    <path
       d="M310.83 234h17.84m8.9 0h17.85m8.9 0h17.85m8.9 0H400v12.33m0 12.34v24.66m0 12.34V308h-8.92m-8.9 0h-17.85m-8.9 0h-17.85m-8.9 0h-17.85m-8.9 0H293v-12.33m0-12.34v-24.66m0-12.34V234h8.92"
       stroke="#000"
       stroke-width="2"
       fill="none"
       id="path6333" />
    <use
       xlink:href="#u"
       transform="matrix(1,0,0,1,293,234) translate(9.734567901234563 41.44444444444444)"
       id="use6335" />
    <path
       d="M428 244h200v60H428z"
       stroke="#000"
       stroke-width="2"
       fill-opacity="0"
       id="path6337" />
    <use
       xlink:href="#v"
       transform="matrix(1,0,0,1,433,249) translate(67.25308641975309 29.444444444444443)"
       id="use6339" />
    <path
       d="M725 839h-2v-10.38h2zm0-20.76h-2v-20.77h2zm0-31.15h-2v-20.77h2zm0-62.3h-2v-20.75h2zm0-31.13h-2V672.9h2zm0-31.15h-2v-20.76h2zm0-31.14h-2V621h2zM725 840h-2v-1h2z"
       id="path6341" />
    <path
       d="M728.64 635.27h-9.28L724 621z"
       id="path6343" />
    <path
       d="M730 636.27h-12l5.27-16.27h1.46zm-9.26-2h6.52L724 624.24z"
       id="path6345" />
    <use
       xlink:href="#w"
       transform="matrix(1,0,0,1,694.9876543209878,733.3333333333333) translate(0 17.77777777777778)"
       id="use6347" />
    <path
       d="M318.12 769.6l2.28 7.03 2.27 6.12 2.27 5.4 2.26 4.8 2.24 4.3 2.24 3.87 2.22 3.52 2.22 3.2 2.23 2.92 2.22 2.7 2.23 2.47 2.25 2.3 2.26 2.12 2.3 1.98 2.32 1.84 2.36 1.7 2.4 1.6 2.47 1.5 2.53 1.4 2.6 1.28 2.7 1.2 2.77 1.1 2.9 1 3.02.92 3.17.82 3.34.7 3.53.6 3.75.46 4 .34 4.3.18 2.26.02v2l-2.3-.02-4.38-.2-4.08-.33-3.83-.48-3.6-.6-3.4-.74-3.27-.83-3.1-.94-2.98-1.03-2.86-1.14-2.77-1.24-2.68-1.32-2.6-1.43-2.53-1.53-2.48-1.64-2.43-1.77-2.37-1.9-2.36-2.02-2.32-2.2-2.3-2.34-2.3-2.54-2.27-2.76-2.27-3-2.26-3.26-2.28-3.58-2.27-3.95-2.3-4.36-2.3-4.87-2.3-5.48-2.3-6.2-2.3-7.1-.7-2.56h2.07zm-12.23-87l1.55 25.47 1.9 18.18 2.08 14.15.1.57h-2.03l-.05-.23-2.1-14.24-1.9-18.27-1.56-25.54L303 621l2-.03z"
       id="path6349" />
    <path
       d="M305 621l-2 .02V620h2zM400 840l-14.57 3.57.68-9.24z"
       id="path6351" />
    <path
       d="M400.06 838.95L400 840l.04 1.02-15.7 3.85.88-12zm-13.53 3.32l10.24-2.5-9.76-4z"
       id="path6353" />
    <g
       id="g6355">
      <use
         xlink:href="#x"
         transform="matrix(1,0,0,1,280.4623582547176,740.9704882558852) translate(0 17.77777777777778)"
         id="use6357" />
    </g>
    <defs
       id="defs6359">
      <path
         d="M240 0l2-218c-23 76-54 145-80 218h-23L58-218 59 0H30v-248h44l77 211c21-75 51-140 76-211h43V0h-30"
         id="y" />
      <path
         d="M24-231v-30h32v30H24zM24 0v-190h32V0H24"
         id="z" />
      <path
         d="M85-194c31 0 48 13 60 33l-1-100h32l1 261h-30c-2-10 0-23-3-31C134-8 116 4 85 4 32 4 16-35 15-94c0-66 23-100 70-100zm9 24c-40 0-46 34-46 75 0 40 6 74 45 74 42 0 51-32 51-76 0-42-9-74-50-73"
         id="A" />
      <path
         d="M24 0v-261h32V0H24"
         id="B" />
      <path
         d="M100-194c63 0 86 42 84 106H49c0 40 14 67 53 68 26 1 43-12 49-29l28 8c-11 28-37 45-77 45C44 4 14-33 15-96c1-61 26-98 85-98zm52 81c6-60-76-77-97-28-3 7-6 17-6 28h103"
         id="C" />
      <path
         d="M206 0h-36l-40-164L89 0H53L-1-190h32L70-26l43-164h34l41 164 42-164h31"
         id="D" />
      <path
         d="M141-36C126-15 110 5 73 4 37 3 15-17 15-53c-1-64 63-63 125-63 3-35-9-54-41-54-24 1-41 7-42 31l-33-3c5-37 33-52 76-52 45 0 72 20 72 64v82c-1 20 7 32 28 27v20c-31 9-61-2-59-35zM48-53c0 20 12 33 32 33 41-3 63-29 60-74-43 2-92-5-92 41"
         id="E" />
      <path
         d="M114-163C36-179 61-72 57 0H25l-1-190h30c1 12-1 29 2 39 6-27 23-49 58-41v29"
         id="F" />
      <g
         id="a">
        <use
           transform="matrix(0.07407407407407408,0,0,0.07407407407407408,0,0)"
           xlink:href="#y"
           id="use6370" />
        <use
           transform="matrix(0.07407407407407408,0,0,0.07407407407407408,22.148148148148152,0)"
           xlink:href="#z"
           id="use6372" />
        <use
           transform="matrix(0.07407407407407408,0,0,0.07407407407407408,28.000000000000007,0)"
           xlink:href="#A"
           id="use6374" />
        <use
           transform="matrix(0.07407407407407408,0,0,0.07407407407407408,42.814814814814824,0)"
           xlink:href="#A"
           id="use6376" />
        <use
           transform="matrix(0.07407407407407408,0,0,0.07407407407407408,57.62962962962964,0)"
           xlink:href="#B"
           id="use6378" />
        <use
           transform="matrix(0.07407407407407408,0,0,0.07407407407407408,63.481481481481495,0)"
           xlink:href="#C"
           id="use6380" />
        <use
           transform="matrix(0.07407407407407408,0,0,0.07407407407407408,78.2962962962963,0)"
           xlink:href="#D"
           id="use6382" />
        <use
           transform="matrix(0.07407407407407408,0,0,0.07407407407407408,97.4814814814815,0)"
           xlink:href="#E"
           id="use6384" />
        <use
           transform="matrix(0.07407407407407408,0,0,0.07407407407407408,112.2962962962963,0)"
           xlink:href="#F"
           id="use6386" />
        <use
           transform="matrix(0.07407407407407408,0,0,0.07407407407407408,121.11111111111111,0)"
           xlink:href="#C"
           id="use6388" />
      </g>
      <path
         d="M205 0l-28-72H64L36 0H1l101-248h38L239 0h-34zm-38-99l-47-123c-12 45-31 82-46 123h93"
         id="G" />
      <path
         d="M115-194c55 1 70 41 70 98S169 2 115 4C84 4 66-9 55-30l1 105H24l-1-265h31l2 30c10-21 28-34 59-34zm-8 174c40 0 45-34 45-75s-6-73-45-74c-42 0-51 32-51 76 0 43 10 73 51 73"
         id="H" />
      <path
         d="M96-169c-40 0-48 33-48 73s9 75 48 75c24 0 41-14 43-38l32 2c-6 37-31 61-74 61-59 0-76-41-82-99-10-93 101-131 147-64 4 7 5 14 7 22l-32 3c-4-21-16-35-41-35"
         id="I" />
      <path
         d="M59-47c-2 24 18 29 38 22v24C64 9 27 4 27-40v-127H5v-23h24l9-43h21v43h35v23H59v120"
         id="J" />
      <path
         d="M100-194c62-1 85 37 85 99 1 63-27 99-86 99S16-35 15-95c0-66 28-99 85-99zM99-20c44 1 53-31 53-75 0-43-8-75-51-75s-53 32-53 75 10 74 51 75"
         id="K" />
      <path
         d="M117-194c89-4 53 116 60 194h-32v-121c0-31-8-49-39-48C34-167 62-67 57 0H25l-1-190h30c1 10-1 24 2 32 11-22 29-35 61-36"
         id="L" />
      <g
         id="b">
        <use
           transform="matrix(0.06172839506172839,0,0,0.06172839506172839,0,0)"
           xlink:href="#G"
           id="use6397" />
        <use
           transform="matrix(0.06172839506172839,0,0,0.06172839506172839,14.814814814814813,0)"
           xlink:href="#H"
           id="use6399" />
        <use
           transform="matrix(0.06172839506172839,0,0,0.06172839506172839,27.160493827160494,0)"
           xlink:href="#H"
           id="use6401" />
        <use
           transform="matrix(0.06172839506172839,0,0,0.06172839506172839,39.50617283950617,0)"
           xlink:href="#B"
           id="use6403" />
        <use
           transform="matrix(0.06172839506172839,0,0,0.06172839506172839,44.382716049382715,0)"
           xlink:href="#z"
           id="use6405" />
        <use
           transform="matrix(0.06172839506172839,0,0,0.06172839506172839,49.25925925925926,0)"
           xlink:href="#I"
           id="use6407" />
        <use
           transform="matrix(0.06172839506172839,0,0,0.06172839506172839,60.37037037037037,0)"
           xlink:href="#E"
           id="use6409" />
        <use
           transform="matrix(0.06172839506172839,0,0,0.06172839506172839,72.71604938271605,0)"
           xlink:href="#J"
           id="use6411" />
        <use
           transform="matrix(0.06172839506172839,0,0,0.06172839506172839,78.88888888888889,0)"
           xlink:href="#z"
           id="use6413" />
        <use
           transform="matrix(0.06172839506172839,0,0,0.06172839506172839,83.76543209876543,0)"
           xlink:href="#K"
           id="use6415" />
        <use
           transform="matrix(0.06172839506172839,0,0,0.06172839506172839,96.11111111111111,0)"
           xlink:href="#L"
           id="use6417" />
      </g>
      <path
         d="M30 0v-248h33v221h125V0H30"
         id="M" />
      <path
         d="M179-190L93 31C79 59 56 82 12 73V49c39 6 53-20 64-50L1-190h34L92-34l54-156h33"
         id="N" />
      <g
         id="c">
        <use
           transform="matrix(0.06172839506172839,0,0,0.06172839506172839,0,0)"
           xlink:href="#M"
           id="use6422" />
        <use
           transform="matrix(0.06172839506172839,0,0,0.06172839506172839,12.345679012345679,0)"
           xlink:href="#E"
           id="use6424" />
        <use
           transform="matrix(0.06172839506172839,0,0,0.06172839506172839,24.691358024691358,0)"
           xlink:href="#N"
           id="use6426" />
        <use
           transform="matrix(0.06172839506172839,0,0,0.06172839506172839,35.80246913580247,0)"
           xlink:href="#C"
           id="use6428" />
        <use
           transform="matrix(0.06172839506172839,0,0,0.06172839506172839,48.148148148148145,0)"
           xlink:href="#F"
           id="use6430" />
      </g>
      <path
         d="M24 0v-248h52v208h133V0H24"
         id="O" />
      <path
         d="M24 0v-248h195v40H76v63h132v40H76v65h150V0H24"
         id="P" />
      <path
         d="M67-125c0 54 23 88 75 88 28 0 53-7 68-21v-34h-60v-39h108v91C232-14 192 4 140 4 58 4 20-42 15-125 8-236 126-280 215-234c19 10 29 26 37 47l-47 15c-11-23-29-39-63-39-53 1-75 33-75 86"
         id="Q" />
      <path
         d="M175 0L67-191c6 58 2 128 3 191H24v-248h59L193-55c-6-58-2-129-3-193h46V0h-61"
         id="R" />
      <path
         d="M24-248c120-7 223 5 221 122C244-46 201 0 124 0H24v-248zM76-40c74 7 117-18 117-86 0-67-45-88-117-82v168"
         id="S" />
      <g
         id="d">
        <use
           transform="matrix(0.06790123456790124,0,0,0.06790123456790124,0,0)"
           xlink:href="#O"
           id="use6438" />
        <use
           transform="matrix(0.06790123456790124,0,0,0.06790123456790124,14.870370370370372,0)"
           xlink:href="#P"
           id="use6440" />
        <use
           transform="matrix(0.06790123456790124,0,0,0.06790123456790124,31.16666666666667,0)"
           xlink:href="#Q"
           id="use6442" />
        <use
           transform="matrix(0.06790123456790124,0,0,0.06790123456790124,50.17901234567902,0)"
           xlink:href="#P"
           id="use6444" />
        <use
           transform="matrix(0.06790123456790124,0,0,0.06790123456790124,66.47530864197532,0)"
           xlink:href="#R"
           id="use6446" />
        <use
           transform="matrix(0.06790123456790124,0,0,0.06790123456790124,84.06172839506173,0)"
           xlink:href="#S"
           id="use6448" />
      </g>
      <path
         d="M266 0h-40l-56-210L115 0H75L2-248h35L96-30l15-64 43-154h32l59 218 59-218h35"
         id="T" />
      <g
         id="e">
        <use
           transform="matrix(0.06172839506172839,0,0,0.06172839506172839,0,0)"
           xlink:href="#G"
           id="use6452" />
        <use
           transform="matrix(0.06172839506172839,0,0,0.06172839506172839,14.814814814814813,0)"
           xlink:href="#H"
           id="use6454" />
        <use
           transform="matrix(0.06172839506172839,0,0,0.06172839506172839,27.160493827160494,0)"
           xlink:href="#H"
           id="use6456" />
        <use
           transform="matrix(0.06172839506172839,0,0,0.06172839506172839,39.50617283950617,0)"
           xlink:href="#y"
           id="use6458" />
        <use
           transform="matrix(0.06172839506172839,0,0,0.06172839506172839,57.96296296296296,0)"
           xlink:href="#T"
           id="use6460" />
      </g>
      <path
         d="M33 0v-248h34V0H33"
         id="U" />
      <path
         d="M101-234c-31-9-42 10-38 44h38v23H63V0H32v-167H5v-23h27c-7-52 17-82 69-68v24"
         id="V" />
      <g
         id="f">
        <use
           transform="matrix(0.06172839506172839,0,0,0.06172839506172839,0,0)"
           xlink:href="#U"
           id="use6465" />
        <use
           transform="matrix(0.06172839506172839,0,0,0.06172839506172839,6.172839506172839,0)"
           xlink:href="#L"
           id="use6467" />
        <use
           transform="matrix(0.06172839506172839,0,0,0.06172839506172839,18.51851851851852,0)"
           xlink:href="#J"
           id="use6469" />
        <use
           transform="matrix(0.06172839506172839,0,0,0.06172839506172839,24.691358024691358,0)"
           xlink:href="#C"
           id="use6471" />
        <use
           transform="matrix(0.06172839506172839,0,0,0.06172839506172839,37.03703703703704,0)"
           xlink:href="#F"
           id="use6473" />
        <use
           transform="matrix(0.06172839506172839,0,0,0.06172839506172839,44.382716049382715,0)"
           xlink:href="#V"
           id="use6475" />
        <use
           transform="matrix(0.06172839506172839,0,0,0.06172839506172839,50.55555555555556,0)"
           xlink:href="#E"
           id="use6477" />
        <use
           transform="matrix(0.06172839506172839,0,0,0.06172839506172839,62.901234567901234,0)"
           xlink:href="#I"
           id="use6479" />
        <use
           transform="matrix(0.06172839506172839,0,0,0.06172839506172839,74.01234567901234,0)"
           xlink:href="#C"
           id="use6481" />
      </g>
      <path
         d="M212-179c-10-28-35-45-73-45-59 0-87 40-87 99 0 60 29 101 89 101 43 0 62-24 78-52l27 14C228-24 195 4 139 4 59 4 22-46 18-125c-6-104 99-153 187-111 19 9 31 26 39 46"
         id="W" />
      <path
         d="M135-143c-3-34-86-38-87 0 15 53 115 12 119 90S17 21 10-45l28-5c4 36 97 45 98 0-10-56-113-15-118-90-4-57 82-63 122-42 12 7 21 19 24 35"
         id="X" />
      <path
         d="M84 4C-5 8 30-112 23-190h32v120c0 31 7 50 39 49 72-2 45-101 50-169h31l1 190h-30c-1-10 1-25-2-33-11 22-28 36-60 37"
         id="Y" />
      <path
         d="M210-169c-67 3-38 105-44 169h-31v-121c0-29-5-50-35-48C34-165 62-65 56 0H25l-1-190h30c1 10-1 24 2 32 10-44 99-50 107 0 11-21 27-35 58-36 85-2 47 119 55 194h-31v-121c0-29-5-49-35-48"
         id="Z" />
      <g
         id="g">
        <use
           transform="matrix(0.06172839506172839,0,0,0.06172839506172839,0,0)"
           xlink:href="#W"
           id="use6488" />
        <use
           transform="matrix(0.06172839506172839,0,0,0.06172839506172839,15.987654320987653,0)"
           xlink:href="#K"
           id="use6490" />
        <use
           transform="matrix(0.06172839506172839,0,0,0.06172839506172839,28.333333333333332,0)"
           xlink:href="#L"
           id="use6492" />
        <use
           transform="matrix(0.06172839506172839,0,0,0.06172839506172839,40.67901234567901,0)"
           xlink:href="#X"
           id="use6494" />
        <use
           transform="matrix(0.06172839506172839,0,0,0.06172839506172839,51.79012345679013,0)"
           xlink:href="#Y"
           id="use6496" />
        <use
           transform="matrix(0.06172839506172839,0,0,0.06172839506172839,64.13580246913581,0)"
           xlink:href="#Z"
           id="use6498" />
        <use
           transform="matrix(0.06172839506172839,0,0,0.06172839506172839,82.5925925925926,0)"
           xlink:href="#C"
           id="use6500" />
        <use
           transform="matrix(0.06172839506172839,0,0,0.06172839506172839,94.93827160493828,0)"
           xlink:href="#F"
           id="use6502" />
      </g>
      <path
         d="M63-220v92h138v28H63V0H30v-248h175v28H63"
         id="aa" />
      <g
         id="h">
        <use
           transform="matrix(0.06172839506172839,0,0,0.06172839506172839,0,0)"
           xlink:href="#aa"
           id="use6506" />
        <use
           transform="matrix(0.06172839506172839,0,0,0.06172839506172839,13.518518518518517,0)"
           xlink:href="#K"
           id="use6508" />
        <use
           transform="matrix(0.06172839506172839,0,0,0.06172839506172839,25.864197530864196,0)"
           xlink:href="#F"
           id="use6510" />
        <use
           transform="matrix(0.06172839506172839,0,0,0.06172839506172839,33.20987654320987,0)"
           xlink:href="#Z"
           id="use6512" />
        <use
           transform="matrix(0.06172839506172839,0,0,0.06172839506172839,51.66666666666666,0)"
           xlink:href="#E"
           id="use6514" />
        <use
           transform="matrix(0.06172839506172839,0,0,0.06172839506172839,64.01234567901234,0)"
           xlink:href="#J"
           id="use6516" />
        <use
           transform="matrix(0.06172839506172839,0,0,0.06172839506172839,70.18518518518518,0)"
           xlink:href="#J"
           id="use6518" />
        <use
           transform="matrix(0.06172839506172839,0,0,0.06172839506172839,76.35802469135801,0)"
           xlink:href="#C"
           id="use6520" />
        <use
           transform="matrix(0.06172839506172839,0,0,0.06172839506172839,88.7037037037037,0)"
           xlink:href="#F"
           id="use6522" />
      </g>
      <g
         id="i">
        <use
           transform="matrix(0.06172839506172839,0,0,0.06172839506172839,0,0)"
           xlink:href="#G"
           id="use6525" />
        <use
           transform="matrix(0.06172839506172839,0,0,0.06172839506172839,14.814814814814813,0)"
           xlink:href="#A"
           id="use6527" />
        <use
           transform="matrix(0.06172839506172839,0,0,0.06172839506172839,27.160493827160494,0)"
           xlink:href="#E"
           id="use6529" />
      </g>
      <g
         id="j">
        <use
           transform="matrix(0.06172839506172839,0,0,0.06172839506172839,0,0)"
           xlink:href="#aa"
           id="use6532" />
        <use
           transform="matrix(0.06172839506172839,0,0,0.06172839506172839,13.518518518518517,0)"
           xlink:href="#K"
           id="use6534" />
        <use
           transform="matrix(0.06172839506172839,0,0,0.06172839506172839,25.864197530864196,0)"
           xlink:href="#F"
           id="use6536" />
        <use
           transform="matrix(0.06172839506172839,0,0,0.06172839506172839,33.20987654320987,0)"
           xlink:href="#Z"
           id="use6538" />
        <use
           transform="matrix(0.06172839506172839,0,0,0.06172839506172839,51.66666666666666,0)"
           xlink:href="#E"
           id="use6540" />
        <use
           transform="matrix(0.06172839506172839,0,0,0.06172839506172839,64.01234567901234,0)"
           xlink:href="#J"
           id="use6542" />
        <use
           transform="matrix(0.06172839506172839,0,0,0.06172839506172839,70.18518518518518,0)"
           xlink:href="#J"
           id="use6544" />
        <use
           transform="matrix(0.06172839506172839,0,0,0.06172839506172839,76.35802469135801,0)"
           xlink:href="#C"
           id="use6546" />
        <use
           transform="matrix(0.06172839506172839,0,0,0.06172839506172839,88.7037037037037,0)"
           xlink:href="#F"
           id="use6548" />
      </g>
      <path
         d="M233-177c-1 41-23 64-60 70L243 0h-38l-65-103H63V0H30v-248c88 3 205-21 203 71zM63-129c60-2 137 13 137-47 0-61-80-42-137-45v92"
         id="ab" />
      <g
         id="k">
        <use
           transform="matrix(0.06172839506172839,0,0,0.06172839506172839,0,0)"
           xlink:href="#ab"
           id="use6552" />
        <use
           transform="matrix(0.06172839506172839,0,0,0.06172839506172839,15.987654320987653,0)"
           xlink:href="#C"
           id="use6554" />
        <use
           transform="matrix(0.06172839506172839,0,0,0.06172839506172839,28.333333333333332,0)"
           xlink:href="#A"
           id="use6556" />
        <use
           transform="matrix(0.06172839506172839,0,0,0.06172839506172839,40.67901234567901,0)"
           xlink:href="#z"
           id="use6558" />
        <use
           transform="matrix(0.06172839506172839,0,0,0.06172839506172839,45.55555555555556,0)"
           xlink:href="#X"
           id="use6560" />
      </g>
      <g
         id="l">
        <use
           transform="matrix(0.06172839506172839,0,0,0.06172839506172839,0,0)"
           xlink:href="#y"
           id="use6563" />
        <use
           transform="matrix(0.06172839506172839,0,0,0.06172839506172839,18.456790123456788,0)"
           xlink:href="#E"
           id="use6565" />
        <use
           transform="matrix(0.06172839506172839,0,0,0.06172839506172839,30.80246913580247,0)"
           xlink:href="#H"
           id="use6567" />
      </g>
      <g
         id="m">
        <use
           transform="matrix(0.06172839506172839,0,0,0.06172839506172839,0,0)"
           xlink:href="#y"
           id="use6570" />
        <use
           transform="matrix(0.06172839506172839,0,0,0.06172839506172839,18.456790123456788,0)"
           xlink:href="#T"
           id="use6572" />
        <use
           transform="matrix(0.06172839506172839,0,0,0.06172839506172839,38.58024691358024,0)"
           xlink:href="#G"
           id="use6574" />
        <use
           transform="matrix(0.06172839506172839,0,0,0.06172839506172839,53.39506172839505,0)"
           xlink:href="#H"
           id="use6576" />
        <use
           transform="matrix(0.06172839506172839,0,0,0.06172839506172839,65.74074074074073,0)"
           xlink:href="#H"
           id="use6578" />
      </g>
      <path
         d="M177-190C167-65 218 103 67 71c-23-6-38-20-44-43l32-5c15 47 100 32 89-28v-30C133-14 115 1 83 1 29 1 15-40 15-95c0-56 16-97 71-98 29-1 48 16 59 35 1-10 0-23 2-32h30zM94-22c36 0 50-32 50-73 0-42-14-75-50-75-39 0-46 34-46 75s6 73 46 73"
         id="ac" />
      <g
         id="n">
        <use
           transform="matrix(0.06172839506172839,0,0,0.06172839506172839,0,0)"
           xlink:href="#U"
           id="use6582" />
        <use
           transform="matrix(0.06172839506172839,0,0,0.06172839506172839,6.172839506172839,0)"
           xlink:href="#L"
           id="use6584" />
        <use
           transform="matrix(0.06172839506172839,0,0,0.06172839506172839,18.51851851851852,0)"
           xlink:href="#I"
           id="use6586" />
        <use
           transform="matrix(0.06172839506172839,0,0,0.06172839506172839,29.62962962962963,0)"
           xlink:href="#K"
           id="use6588" />
        <use
           transform="matrix(0.06172839506172839,0,0,0.06172839506172839,41.97530864197531,0)"
           xlink:href="#Z"
           id="use6590" />
        <use
           transform="matrix(0.06172839506172839,0,0,0.06172839506172839,60.4320987654321,0)"
           xlink:href="#z"
           id="use6592" />
        <use
           transform="matrix(0.06172839506172839,0,0,0.06172839506172839,65.30864197530865,0)"
           xlink:href="#L"
           id="use6594" />
        <use
           transform="matrix(0.06172839506172839,0,0,0.06172839506172839,77.65432098765433,0)"
           xlink:href="#ac"
           id="use6596" />
      </g>
      <g
         id="o">
        <use
           transform="matrix(0.06172839506172839,0,0,0.06172839506172839,0,0)"
           xlink:href="#aa"
           id="use6599" />
        <use
           transform="matrix(0.06172839506172839,0,0,0.06172839506172839,13.518518518518517,0)"
           xlink:href="#K"
           id="use6601" />
        <use
           transform="matrix(0.06172839506172839,0,0,0.06172839506172839,25.864197530864196,0)"
           xlink:href="#F"
           id="use6603" />
        <use
           transform="matrix(0.06172839506172839,0,0,0.06172839506172839,33.20987654320987,0)"
           xlink:href="#D"
           id="use6605" />
        <use
           transform="matrix(0.06172839506172839,0,0,0.06172839506172839,49.197530864197525,0)"
           xlink:href="#E"
           id="use6607" />
        <use
           transform="matrix(0.06172839506172839,0,0,0.06172839506172839,61.5432098765432,0)"
           xlink:href="#F"
           id="use6609" />
        <use
           transform="matrix(0.06172839506172839,0,0,0.06172839506172839,68.88888888888889,0)"
           xlink:href="#A"
           id="use6611" />
        <use
           transform="matrix(0.06172839506172839,0,0,0.06172839506172839,81.23456790123457,0)"
           xlink:href="#z"
           id="use6613" />
        <use
           transform="matrix(0.06172839506172839,0,0,0.06172839506172839,86.11111111111111,0)"
           xlink:href="#L"
           id="use6615" />
        <use
           transform="matrix(0.06172839506172839,0,0,0.06172839506172839,98.4567901234568,0)"
           xlink:href="#ac"
           id="use6617" />
      </g>
      <g
         id="p">
        <use
           transform="matrix(0.06172839506172839,0,0,0.06172839506172839,0,0)"
           xlink:href="#z"
           id="use6620" />
        <use
           transform="matrix(0.06172839506172839,0,0,0.06172839506172839,4.876543209876543,0)"
           xlink:href="#L"
           id="use6622" />
        <use
           transform="matrix(0.06172839506172839,0,0,0.06172839506172839,17.22222222222222,0)"
           xlink:href="#X"
           id="use6624" />
        <use
           transform="matrix(0.06172839506172839,0,0,0.06172839506172839,28.333333333333332,0)"
           xlink:href="#C"
           id="use6626" />
        <use
           transform="matrix(0.06172839506172839,0,0,0.06172839506172839,40.67901234567901,0)"
           xlink:href="#F"
           id="use6628" />
        <use
           transform="matrix(0.06172839506172839,0,0,0.06172839506172839,48.02469135802469,0)"
           xlink:href="#J"
           id="use6630" />
      </g>
      <g
         id="q">
        <use
           transform="matrix(0.06172839506172839,0,0,0.06172839506172839,0,0)"
           xlink:href="#A"
           id="use6633" />
        <use
           transform="matrix(0.06172839506172839,0,0,0.06172839506172839,12.345679012345679,0)"
           xlink:href="#C"
           id="use6635" />
        <use
           transform="matrix(0.06172839506172839,0,0,0.06172839506172839,24.691358024691358,0)"
           xlink:href="#B"
           id="use6637" />
        <use
           transform="matrix(0.06172839506172839,0,0,0.06172839506172839,29.5679012345679,0)"
           xlink:href="#C"
           id="use6639" />
        <use
           transform="matrix(0.06172839506172839,0,0,0.06172839506172839,41.913580246913575,0)"
           xlink:href="#J"
           id="use6641" />
        <use
           transform="matrix(0.06172839506172839,0,0,0.06172839506172839,48.08641975308642,0)"
           xlink:href="#C"
           id="use6643" />
      </g>
      <g
         id="r">
        <use
           transform="matrix(0.06172839506172839,0,0,0.06172839506172839,0,0)"
           xlink:href="#G"
           id="use6646" />
        <use
           transform="matrix(0.06172839506172839,0,0,0.06172839506172839,14.814814814814813,0)"
           xlink:href="#H"
           id="use6648" />
        <use
           transform="matrix(0.06172839506172839,0,0,0.06172839506172839,27.160493827160494,0)"
           xlink:href="#H"
           id="use6650" />
        <use
           transform="matrix(0.06172839506172839,0,0,0.06172839506172839,39.50617283950617,0)"
           xlink:href="#B"
           id="use6652" />
        <use
           transform="matrix(0.06172839506172839,0,0,0.06172839506172839,44.382716049382715,0)"
           xlink:href="#z"
           id="use6654" />
        <use
           transform="matrix(0.06172839506172839,0,0,0.06172839506172839,49.25925925925926,0)"
           xlink:href="#I"
           id="use6656" />
        <use
           transform="matrix(0.06172839506172839,0,0,0.06172839506172839,60.37037037037037,0)"
           xlink:href="#E"
           id="use6658" />
        <use
           transform="matrix(0.06172839506172839,0,0,0.06172839506172839,72.71604938271605,0)"
           xlink:href="#J"
           id="use6660" />
        <use
           transform="matrix(0.06172839506172839,0,0,0.06172839506172839,78.88888888888889,0)"
           xlink:href="#z"
           id="use6662" />
        <use
           transform="matrix(0.06172839506172839,0,0,0.06172839506172839,83.76543209876543,0)"
           xlink:href="#K"
           id="use6664" />
        <use
           transform="matrix(0.06172839506172839,0,0,0.06172839506172839,96.11111111111111,0)"
           xlink:href="#L"
           id="use6666" />
      </g>
      <g
         id="s">
        <use
           transform="matrix(0.06172839506172839,0,0,0.06172839506172839,0,0)"
           xlink:href="#y"
           id="use6669" />
        <use
           transform="matrix(0.06172839506172839,0,0,0.06172839506172839,18.456790123456788,0)"
           xlink:href="#K"
           id="use6671" />
        <use
           transform="matrix(0.06172839506172839,0,0,0.06172839506172839,30.80246913580247,0)"
           xlink:href="#A"
           id="use6673" />
        <use
           transform="matrix(0.06172839506172839,0,0,0.06172839506172839,43.148148148148145,0)"
           xlink:href="#Y"
           id="use6675" />
        <use
           transform="matrix(0.06172839506172839,0,0,0.06172839506172839,55.49382716049382,0)"
           xlink:href="#B"
           id="use6677" />
        <use
           transform="matrix(0.06172839506172839,0,0,0.06172839506172839,60.37037037037037,0)"
           xlink:href="#C"
           id="use6679" />
      </g>
      <g
         id="t">
        <use
           transform="matrix(0.06172839506172839,0,0,0.06172839506172839,0,0)"
           xlink:href="#y"
           id="use6682" />
        <use
           transform="matrix(0.06172839506172839,0,0,0.06172839506172839,18.456790123456788,0)"
           xlink:href="#E"
           id="use6684" />
        <use
           transform="matrix(0.06172839506172839,0,0,0.06172839506172839,30.80246913580247,0)"
           xlink:href="#H"
           id="use6686" />
      </g>
      <path
         d="M160-131c35 5 61 23 61 61C221 17 115-2 30 0v-248c76 3 177-17 177 60 0 33-19 50-47 57zm-97-11c50-1 110 9 110-42 0-47-63-36-110-37v79zm0 115c55-2 124 14 124-45 0-56-70-42-124-44v89"
         id="ad" />
      <path
         d="M106-169C34-169 62-67 57 0H25v-261h32l-1 103c12-21 28-36 61-36 89 0 53 116 60 194h-32v-121c2-32-8-49-39-48"
         id="ae" />
      <path
         d="M108 0H70L1-190h34L89-25l56-165h34"
         id="af" />
      <g
         id="u">
        <use
           transform="matrix(0.06172839506172839,0,0,0.06172839506172839,0,0)"
           xlink:href="#ad"
           id="use6692" />
        <use
           transform="matrix(0.06172839506172839,0,0,0.06172839506172839,14.814814814814813,0)"
           xlink:href="#C"
           id="use6694" />
        <use
           transform="matrix(0.06172839506172839,0,0,0.06172839506172839,27.160493827160494,0)"
           xlink:href="#ae"
           id="use6696" />
        <use
           transform="matrix(0.06172839506172839,0,0,0.06172839506172839,39.50617283950617,0)"
           xlink:href="#E"
           id="use6698" />
        <use
           transform="matrix(0.06172839506172839,0,0,0.06172839506172839,51.85185185185185,0)"
           xlink:href="#af"
           id="use6700" />
        <use
           transform="matrix(0.06172839506172839,0,0,0.06172839506172839,62.96296296296296,0)"
           xlink:href="#z"
           id="use6702" />
        <use
           transform="matrix(0.06172839506172839,0,0,0.06172839506172839,67.8395061728395,0)"
           xlink:href="#K"
           id="use6704" />
        <use
           transform="matrix(0.06172839506172839,0,0,0.06172839506172839,80.18518518518519,0)"
           xlink:href="#F"
           id="use6706" />
      </g>
      <g
         id="v">
        <use
           transform="matrix(0.06172839506172839,0,0,0.06172839506172839,0,0)"
           xlink:href="#M"
           id="use6709" />
        <use
           transform="matrix(0.06172839506172839,0,0,0.06172839506172839,12.345679012345679,0)"
           xlink:href="#E"
           id="use6711" />
        <use
           transform="matrix(0.06172839506172839,0,0,0.06172839506172839,24.691358024691358,0)"
           xlink:href="#N"
           id="use6713" />
        <use
           transform="matrix(0.06172839506172839,0,0,0.06172839506172839,35.80246913580247,0)"
           xlink:href="#C"
           id="use6715" />
        <use
           transform="matrix(0.06172839506172839,0,0,0.06172839506172839,48.148148148148145,0)"
           xlink:href="#F"
           id="use6717" />
      </g>
      <g
         id="w">
        <use
           transform="matrix(0.06172839506172839,0,0,0.06172839506172839,0,0)"
           xlink:href="#E"
           id="use6720" />
        <use
           transform="matrix(0.06172839506172839,0,0,0.06172839506172839,12.345679012345679,0)"
           xlink:href="#X"
           id="use6722" />
        <use
           transform="matrix(0.06172839506172839,0,0,0.06172839506172839,23.45679012345679,0)"
           xlink:href="#N"
           id="use6724" />
        <use
           transform="matrix(0.06172839506172839,0,0,0.06172839506172839,34.5679012345679,0)"
           xlink:href="#L"
           id="use6726" />
        <use
           transform="matrix(0.06172839506172839,0,0,0.06172839506172839,46.913580246913575,0)"
           xlink:href="#I"
           id="use6728" />
      </g>
      <path
         d="M143 0L79-87 56-68V0H24v-261h32v163l83-92h37l-77 82L181 0h-38"
         id="ag" />
      <g
         id="x">
        <use
           transform="matrix(0.06172839506172839,0,0,0.06172839506172839,0,0)"
           xlink:href="#B"
           id="use6732" />
        <use
           transform="matrix(0.06172839506172839,0,0,0.06172839506172839,4.876543209876543,0)"
           xlink:href="#K"
           id="use6734" />
        <use
           transform="matrix(0.06172839506172839,0,0,0.06172839506172839,17.22222222222222,0)"
           xlink:href="#K"
           id="use6736" />
        <use
           transform="matrix(0.06172839506172839,0,0,0.06172839506172839,29.5679012345679,0)"
           xlink:href="#ag"
           id="use6738" />
        <use
           transform="matrix(0.06172839506172839,0,0,0.06172839506172839,40.67901234567901,0)"
           xlink:href="#Y"
           id="use6740" />
        <use
           transform="matrix(0.06172839506172839,0,0,0.06172839506172839,53.02469135802469,0)"
           xlink:href="#H"
           id="use6742" />
      </g>
    </defs>
  </g>
</svg>
