<?xml version="1.0" encoding="UTF-8" standalone="no"?>
<svg
   xmlns:lucid="lucid"
   xmlns:dc="http://purl.org/dc/elements/1.1/"
   xmlns:cc="http://creativecommons.org/ns#"
   xmlns:rdf="http://www.w3.org/1999/02/22-rdf-syntax-ns#"
   xmlns:svg="http://www.w3.org/2000/svg"
   xmlns="http://www.w3.org/2000/svg"
   xmlns:xlink="http://www.w3.org/1999/xlink"
   xmlns:sodipodi="http://sodipodi.sourceforge.net/DTD/sodipodi-0.dtd"
   xmlns:inkscape="http://www.inkscape.org/namespaces/inkscape"
   width="640"
   height="958"
   id="svg4921"
   version="1.1"
   inkscape:version="0.91 r13725"
   sodipodi:docname="termination-app.svg">
  <metadata
     id="metadata5374">
    <rdf:RDF>
      <cc:Work
         rdf:about="">
        <dc:format>image/svg+xml</dc:format>
        <dc:type
           rdf:resource="http://purl.org/dc/dcmitype/StillImage" />
        <dc:title></dc:title>
      </cc:Work>
    </rdf:RDF>
  </metadata>
  <defs
     id="defs5372" />
  <sodipodi:namedview
     pagecolor="#ffffff"
     bordercolor="#666666"
     borderopacity="1"
     objecttolerance="10"
     gridtolerance="10"
     guidetolerance="10"
     inkscape:pageopacity="0"
     inkscape:pageshadow="2"
     inkscape:window-width="1170"
     inkscape:window-height="764"
     id="namedview5370"
     showgrid="false"
     inkscape:zoom="0.69677328"
     inkscape:cx="252.24399"
     inkscape:cy="440.3507"
     inkscape:window-x="0"
     inkscape:window-y="0"
     inkscape:window-maximized="0"
     inkscape:current-layer="svg4921" />
  <g
     transform="translate(-409.33333333333337 -861)"
     lucid:page-tab-id="0_0"
     id="g4923">
    <path
       d="M569.33 951h120v70h-120z"
       stroke="#000"
       stroke-width="2"
       fill="#c1e4f7"
       id="path4925" />
    <use
       xlink:href="#a"
       transform="matrix(1,0,0,1,574.3333333333334,956) translate(20.049999999999997 33.6)"
       id="use4927" />
    <path
       d="M509.33 881h120v70h-120z"
       stroke="#000"
       stroke-width="2"
       fill="#c1e4f7"
       id="path4929" />
    <use
       xlink:href="#b"
       transform="matrix(1,0,0,1,514.3333333333334,886) translate(30.525 33.6)"
       id="use4931" />
    <path
       d="M569.33 1017.5h120v80h-120z"
       stroke="#000"
       stroke-width="2"
       fill="#c1e4f7"
       id="path4933" />
    <use
       xlink:href="#c"
       transform="matrix(1,0,0,1,574.3333333333334,1022.5) translate(10.549999999999997 38.6)"
       id="use4935" />
    <path
       d="M449.33 1164h360v80h-360z"
       stroke="#000"
       stroke-width="2"
       fill="#c7e8ac"
       id="path4937" />
    <use
       xlink:href="#d"
       transform="matrix(1,0,0,1,454.33333333333337,1169) translate(145.05 38.6)"
       id="use4939" />
    <path
       d="M449.33 1244h360v80h-360z"
       stroke="#000"
       stroke-width="2"
       fill="#c7e8ac"
       id="path4941" />
    <use
       xlink:href="#e"
       transform="matrix(1,0,0,1,454.33333333333337,1249) translate(124.55 38.6)"
       id="use4943" />
    <path
       d="M449.33 1324h360v80h-360z"
       stroke="#000"
       stroke-width="2"
       fill="#c7e8ac"
       id="path4945" />
    <use
       xlink:href="#f"
       transform="matrix(1,0,0,1,454.33333333333337,1329) translate(143.025 38.6)"
       id="use4947" />
    <path
       d="M629.33 881h120v70h-120z"
       stroke="#000"
       stroke-width="2"
       fill="#c1e4f7"
       id="path4949" />
    <use
       xlink:href="#g"
       transform="matrix(1,0,0,1,634.3333333333334,886) translate(23.525 33.6)"
       id="use4951" />
    <path
       d="M449.33 1509h360v80h-360z"
       stroke="#000"
       stroke-width="2"
       fill="#ffdf71"
       id="path4953" />
    <use
       xlink:href="#h"
       transform="matrix(1,0,0,1,454.33333333333337,1514) translate(127.15 38.6)"
       id="use4955" />
    <path
       d="M515.67 1508h-2v-27.67h2zm0-54.33h-2V1405h2zM515.67 1509h-2v-1h2z"
       id="path4957" />
    <path
       d="M525.7 1421.7l-1.7 1.02-9.33-15.76-9.32 15.76-1.72-1L514.1 1404h1.14z"
       id="path4959" />
    <use
       xlink:href="#i"
       transform="matrix(1,0,0,1,465.3148148148148,1453.6666666666667) translate(0 17.77777777777778)"
       id="use4961" />
    <path
       d="M512.64 1085.27h-9.28L508 1071z"
       fill-opacity="0"
       id="path4963" />
    <path
       d="M509 1163h-2v-41.33h2zm60.33-104.5H509v36.5h-2v-38.5h62.33zM509 1164h-2v-1h2z"
       id="path4965" />
    <path
       d="M569.33 1056.34v2.32l-16.7 9.88-1.02-1.72 15.77-9.32-15.76-9.32 1.03-1.72z"
       id="path4967" />
    <use
       xlink:href="#i"
       transform="matrix(1,0,0,1,458.64814814814827,1095) translate(0 17.77777777777778)"
       id="use4969" />
    <path
       d="M689.33 1057.5H744V1163"
       fill="none"
       id="path4971" />
    <path
       d="M689.33 1057.5h3m4 0h6.02m4 0h6m4 0h6.02m4 0h6m4 0h6.02m1.6 2.4v6m0 4v6m0 4v6.02m0 4v6m0 4v6.02m0 4v6m0 4.02v6m0 4v6m0 4.02v6m0 4v6m0 4.02v3"
       stroke="#000"
       stroke-width="2"
       fill="none"
       id="path4973" />
    <path
       id="path4975" />
    <path
       d="M755.04 1146.3l-10.47 17.7h-1.14l-10.47-17.7 1.72-1.02 9.32 15.76 9.32-15.76zM738.33 1508h-2v-3.1h2zm0-7.2h-2v-6.2h2zm0-10.3h-2v-6.2h2zm0-10.3h-2v-5.2h2zm0-31.87h-2v-5.22h2zm0-9.34h-2v-6.2h2zm0-10.3h-2v-6.2h2zm0-10.3h-2v-6.2h2zm0-10.3h-2v-3.1h2z"
       id="path4977" />
    <path
       d="M738.33 1405h-2v-1h2zM748.37 1491.3L737.9 1509h-1.14l-10.47-17.7 1.7-1.02 9.33 15.76 9.32-15.76z"
       id="path4979" />
    <use
       xlink:href="#j"
       transform="matrix(1,0,0,1,714.5246913580247,1448.3333333333335) translate(0 17.77777777777778)"
       id="use4981" />
    <path
       d="M859.33 1051v360"
       stroke="#000"
       stroke-width="2"
       fill="none"
       id="path4983" />
    <path
       d="M859.33 1411l-4.63-14.27h9.27z"
       stroke="#000"
       stroke-width="2"
       id="path4985" />
    <path
       d="M869.33 1213h160v74h-160z"
       stroke="#000"
       stroke-opacity="0"
       stroke-width="2"
       fill="#fff"
       fill-opacity="0"
       id="path4987" />
    <use
       xlink:href="#k"
       transform="matrix(1,0,0,1,874.3333333333334,1218) translate(6.2962962962962905 21.333333333333336)"
       id="use4989" />
    <use
       xlink:href="#l"
       transform="matrix(1,0,0,1,874.3333333333334,1218) translate(40.99999999999999 53.333333333333336)"
       id="use4991" />
    <path
       d="M429.33 1659h440v140h-440z"
       fill-opacity="0"
       id="path4993" />
    <path
       d="M441.12 1659h7.86m7.85 0h7.86m7.85 0h7.85m7.86 0h7.86m7.86 0h7.85m7.86 0h7.85m7.85 0h7.86m7.86 0h7.86m7.85 0h7.86m7.85 0h7.85m7.86 0h7.86m7.86 0h7.85m7.86 0h7.85m7.85 0h7.86m7.86 0h7.86m7.85 0h7.86m7.85 0h7.85m7.86 0h7.86m7.86 0h7.85m7.86 0h7.85m7.85 0h7.86m7.86 0h7.86m7.85 0h7.86m7.85 0h7.85m7.86 0h7.86m7.86 0h7.85m7.86 0h7.85m7.85 0h3.93v3.9m0 7.77v7.77m0 7.78v7.78m0 7.78v7.78m0 7.77v7.78m0 7.8v7.77m0 7.77v7.78m0 7.78v7.78m0 7.78v7.77m0 7.78v3.9h-3.93m-7.85 0h-7.86m-7.87 0h-7.85m-7.86 0h-7.86m-7.86 0h-7.85m-7.86 0h-7.87m-7.85 0h-7.86m-7.86 0h-7.86m-7.85 0h-7.86m-7.87 0h-7.85m-7.86 0h-7.86m-7.86 0h-7.85m-7.86 0h-7.87m-7.85 0h-7.86m-7.86 0h-7.86m-7.85 0h-7.86m-7.87 0h-7.85m-7.86 0h-7.86m-7.86 0h-7.85m-7.86 0h-7.87m-7.85 0h-7.86m-7.86 0h-7.86m-7.85 0h-7.86m-7.87 0h-7.85m-7.86 0h-7.86m-7.86 0h-7.85m-7.86 0h-7.87m-7.85 0h-7.86m-7.86 0h-3.93v-3.9m0-7.77v-7.77m0-7.78V1764m0-7.78v-7.78m0-7.77v-7.78m0-7.8v-7.77m0-7.77v-7.78m0-7.78v-7.78m0-7.78v-7.77m0-7.78v-3.9h3.93"
       stroke="#000"
       stroke-width="2"
       fill="none"
       id="path4995" />
    <path
       d="M549.33 1601h160v74h-160z"
       stroke="#000"
       stroke-opacity="0"
       stroke-width="2"
       fill="#fff"
       fill-opacity="0"
       id="path4997" />
    <use
       xlink:href="#m"
       transform="matrix(1,0,0,1,554.3333333333334,1606) translate(24.175925925925924 36.888888888888886)"
       id="use4999" />
    <path
       d="M469.33 1699h100M552.12 1709.18l17.2-10.18-17.2-10.18"
       stroke="#000"
       stroke-width="2"
       fill="none"
       id="path5001" />
    <path
       d="M449.33 1739.5h180v47h-180z"
       stroke="#000"
       stroke-opacity="0"
       stroke-width="2"
       fill="#fff"
       fill-opacity="0"
       id="path5003" />
    <use
       xlink:href="#n"
       transform="matrix(1,0,0,1,454.33333333333337,1744.5) translate(51.05 14.4)"
       id="use5005" />
    <use
       xlink:href="#o"
       transform="matrix(1,0,0,1,454.33333333333337,1744.5) translate(5.050000000000011 36)"
       id="use5007" />
    <path
       d="M649.33 1735.9h220v53.2h-220z"
       stroke="#000"
       stroke-opacity="0"
       stroke-width="2"
       fill="#fff"
       fill-opacity="0"
       id="path5009" />
    <use
       xlink:href="#p"
       transform="matrix(1,0,0,1,654.3333333333334,1740.9) translate(75.55 14.799999999999999)"
       id="use5011" />
    <use
       xlink:href="#q"
       transform="matrix(1,0,0,1,654.3333333333334,1740.9) translate(43.074999999999996 36.4)"
       id="use5013" />
    <use
       xlink:href="#r"
       transform="matrix(1,0,0,1,654.3333333333334,1740.9) translate(121.025 36.4)"
       id="use5015" />
    <path
       d="M699.33 1699h100"
       fill="none"
       id="path5017" />
    <path
       d="M699.33 1699h3m4 0h6m4 0h6m4 0h6m4 0h6m4 0h6m4 0h6m4 0h6m4 0h6m4 0h6m4 0h3M782.12 1709.18l17.2-10.18-17.2-10.18"
       stroke="#000"
       stroke-width="2"
       fill="none"
       id="path5019" />
    <defs
       id="defs5021">
      <path
         d="M233-177c-1 41-23 64-60 70L243 0h-38l-65-103H63V0H30v-248c88 3 205-21 203 71zM63-129c60-2 137 13 137-47 0-61-80-42-137-45v92"
         id="s" />
      <path
         d="M100-194c63 0 86 42 84 106H49c0 40 14 67 53 68 26 1 43-12 49-29l28 8c-11 28-37 45-77 45C44 4 14-33 15-96c1-61 26-98 85-98zm52 81c6-60-76-77-97-28-3 7-6 17-6 28h103"
         id="t" />
      <path
         d="M141-36C126-15 110 5 73 4 37 3 15-17 15-53c-1-64 63-63 125-63 3-35-9-54-41-54-24 1-41 7-42 31l-33-3c5-37 33-52 76-52 45 0 72 20 72 64v82c-1 20 7 32 28 27v20c-31 9-61-2-59-35zM48-53c0 20 12 33 32 33 41-3 63-29 60-74-43 2-92-5-92 41"
         id="u" />
      <path
         d="M96-169c-40 0-48 33-48 73s9 75 48 75c24 0 41-14 43-38l32 2c-6 37-31 61-74 61-59 0-76-41-82-99-10-93 101-131 147-64 4 7 5 14 7 22l-32 3c-4-21-16-35-41-35"
         id="v" />
      <path
         d="M59-47c-2 24 18 29 38 22v24C64 9 27 4 27-40v-127H5v-23h24l9-43h21v43h35v23H59v120"
         id="w" />
      <path
         d="M24-231v-30h32v30H24zM24 0v-190h32V0H24"
         id="x" />
      <path
         d="M108 0H70L1-190h34L89-25l56-165h34"
         id="y" />
      <g
         id="a">
        <use
           transform="matrix(0.05,0,0,0.05,0,0)"
           xlink:href="#s"
           id="use5031" />
        <use
           transform="matrix(0.05,0,0,0.05,12.950000000000001,0)"
           xlink:href="#t"
           id="use5033" />
        <use
           transform="matrix(0.05,0,0,0.05,22.950000000000003,0)"
           xlink:href="#u"
           id="use5035" />
        <use
           transform="matrix(0.05,0,0,0.05,32.95,0)"
           xlink:href="#v"
           id="use5037" />
        <use
           transform="matrix(0.05,0,0,0.05,41.95,0)"
           xlink:href="#w"
           id="use5039" />
        <use
           transform="matrix(0.05,0,0,0.05,46.95,0)"
           xlink:href="#x"
           id="use5041" />
        <use
           transform="matrix(0.05,0,0,0.05,50.900000000000006,0)"
           xlink:href="#y"
           id="use5043" />
        <use
           transform="matrix(0.05,0,0,0.05,59.900000000000006,0)"
           xlink:href="#t"
           id="use5045" />
      </g>
      <path
         d="M205 0l-28-72H64L36 0H1l101-248h38L239 0h-34zm-38-99l-47-123c-12 45-31 82-46 123h93"
         id="z" />
      <g
         id="b">
        <use
           transform="matrix(0.05,0,0,0.05,0,0)"
           xlink:href="#z"
           id="use5049" />
        <use
           transform="matrix(0.05,0,0,0.05,12,0)"
           xlink:href="#v"
           id="use5051" />
        <use
           transform="matrix(0.05,0,0,0.05,21,0)"
           xlink:href="#w"
           id="use5053" />
        <use
           transform="matrix(0.05,0,0,0.05,26,0)"
           xlink:href="#x"
           id="use5055" />
        <use
           transform="matrix(0.05,0,0,0.05,29.950000000000003,0)"
           xlink:href="#y"
           id="use5057" />
        <use
           transform="matrix(0.05,0,0,0.05,38.95,0)"
           xlink:href="#t"
           id="use5059" />
      </g>
      <path
         d="M185-189c-5-48-123-54-124 2 14 75 158 14 163 119 3 78-121 87-175 55-17-10-28-26-33-46l33-7c5 56 141 63 141-1 0-78-155-14-162-118-5-82 145-84 179-34 5 7 8 16 11 25"
         id="A" />
      <path
         d="M106-169C34-169 62-67 57 0H25v-261h32l-1 103c12-21 28-36 61-36 89 0 53 116 60 194h-32v-121c2-32-8-49-39-48"
         id="B" />
      <path
         d="M85-194c31 0 48 13 60 33l-1-100h32l1 261h-30c-2-10 0-23-3-31C134-8 116 4 85 4 32 4 16-35 15-94c0-66 23-100 70-100zm9 24c-40 0-46 34-46 75 0 40 6 74 45 74 42 0 51-32 51-76 0-42-9-74-50-73"
         id="C" />
      <path
         d="M84 4C-5 8 30-112 23-190h32v120c0 31 7 50 39 49 72-2 45-101 50-169h31l1 190h-30c-1-10 1-25-2-33-11 22-28 36-60 37"
         id="D" />
      <path
         d="M24 0v-261h32V0H24"
         id="E" />
      <path
         d="M117-194c89-4 53 116 60 194h-32v-121c0-31-8-49-39-48C34-167 62-67 57 0H25l-1-190h30c1 10-1 24 2 32 11-22 29-35 61-36"
         id="F" />
      <path
         d="M177-190C167-65 218 103 67 71c-23-6-38-20-44-43l32-5c15 47 100 32 89-28v-30C133-14 115 1 83 1 29 1 15-40 15-95c0-56 16-97 71-98 29-1 48 16 59 35 1-10 0-23 2-32h30zM94-22c36 0 50-32 50-73 0-42-14-75-50-75-39 0-46 34-46 75s6 73 46 73"
         id="G" />
      <g
         id="c">
        <use
           transform="matrix(0.05,0,0,0.05,0,0)"
           xlink:href="#A"
           id="use5069" />
        <use
           transform="matrix(0.05,0,0,0.05,12,0)"
           xlink:href="#v"
           id="use5071" />
        <use
           transform="matrix(0.05,0,0,0.05,21,0)"
           xlink:href="#B"
           id="use5073" />
        <use
           transform="matrix(0.05,0,0,0.05,31,0)"
           xlink:href="#t"
           id="use5075" />
        <use
           transform="matrix(0.05,0,0,0.05,41,0)"
           xlink:href="#C"
           id="use5077" />
        <use
           transform="matrix(0.05,0,0,0.05,51,0)"
           xlink:href="#D"
           id="use5079" />
        <use
           transform="matrix(0.05,0,0,0.05,61,0)"
           xlink:href="#E"
           id="use5081" />
        <use
           transform="matrix(0.05,0,0,0.05,64.95,0)"
           xlink:href="#x"
           id="use5083" />
        <use
           transform="matrix(0.05,0,0,0.05,68.9,0)"
           xlink:href="#F"
           id="use5085" />
        <use
           transform="matrix(0.05,0,0,0.05,78.9,0)"
           xlink:href="#G"
           id="use5087" />
      </g>
      <path
         d="M114-163C36-179 61-72 57 0H25l-1-190h30c1 12-1 29 2 39 6-27 23-49 58-41v29"
         id="H" />
      <g
         id="d">
        <use
           transform="matrix(0.05,0,0,0.05,0,0)"
           xlink:href="#A"
           id="use5091" />
        <use
           transform="matrix(0.05,0,0,0.05,12,0)"
           xlink:href="#t"
           id="use5093" />
        <use
           transform="matrix(0.05,0,0,0.05,22,0)"
           xlink:href="#H"
           id="use5095" />
        <use
           transform="matrix(0.05,0,0,0.05,27.950000000000003,0)"
           xlink:href="#y"
           id="use5097" />
        <use
           transform="matrix(0.05,0,0,0.05,36.95,0)"
           xlink:href="#x"
           id="use5099" />
        <use
           transform="matrix(0.05,0,0,0.05,40.900000000000006,0)"
           xlink:href="#v"
           id="use5101" />
        <use
           transform="matrix(0.05,0,0,0.05,49.900000000000006,0)"
           xlink:href="#t"
           id="use5103" />
      </g>
      <path
         d="M30-248c87 1 191-15 191 75 0 78-77 80-158 76V0H30v-248zm33 125c57 0 124 11 124-50 0-59-68-47-124-48v98"
         id="I" />
      <path
         d="M135-143c-3-34-86-38-87 0 15 53 115 12 119 90S17 21 10-45l28-5c4 36 97 45 98 0-10-56-113-15-118-90-4-57 82-63 122-42 12 7 21 19 24 35"
         id="J" />
      <path
         d="M100-194c62-1 85 37 85 99 1 63-27 99-86 99S16-35 15-95c0-66 28-99 85-99zM99-20c44 1 53-31 53-75 0-43-8-75-51-75s-53 32-53 75 10 74 51 75"
         id="K" />
      <g
         id="e">
        <use
           transform="matrix(0.05,0,0,0.05,0,0)"
           xlink:href="#I"
           id="use5109" />
        <use
           transform="matrix(0.05,0,0,0.05,12,0)"
           xlink:href="#H"
           id="use5111" />
        <use
           transform="matrix(0.05,0,0,0.05,17.95,0)"
           xlink:href="#t"
           id="use5113" />
        <use
           transform="matrix(0.05,0,0,0.05,27.950000000000003,0)"
           xlink:href="#J"
           id="use5115" />
        <use
           transform="matrix(0.05,0,0,0.05,36.95,0)"
           xlink:href="#t"
           id="use5117" />
        <use
           transform="matrix(0.05,0,0,0.05,46.95,0)"
           xlink:href="#F"
           id="use5119" />
        <use
           transform="matrix(0.05,0,0,0.05,56.95,0)"
           xlink:href="#w"
           id="use5121" />
        <use
           transform="matrix(0.05,0,0,0.05,61.95,0)"
           xlink:href="#u"
           id="use5123" />
        <use
           transform="matrix(0.05,0,0,0.05,71.95,0)"
           xlink:href="#w"
           id="use5125" />
        <use
           transform="matrix(0.05,0,0,0.05,76.95,0)"
           xlink:href="#x"
           id="use5127" />
        <use
           transform="matrix(0.05,0,0,0.05,80.9,0)"
           xlink:href="#K"
           id="use5129" />
        <use
           transform="matrix(0.05,0,0,0.05,90.9,0)"
           xlink:href="#F"
           id="use5131" />
      </g>
      <g
         id="f">
        <use
           transform="matrix(0.05,0,0,0.05,0,0)"
           xlink:href="#A"
           id="use5134" />
        <use
           transform="matrix(0.05,0,0,0.05,12,0)"
           xlink:href="#t"
           id="use5136" />
        <use
           transform="matrix(0.05,0,0,0.05,22,0)"
           xlink:href="#J"
           id="use5138" />
        <use
           transform="matrix(0.05,0,0,0.05,31,0)"
           xlink:href="#J"
           id="use5140" />
        <use
           transform="matrix(0.05,0,0,0.05,40,0)"
           xlink:href="#x"
           id="use5142" />
        <use
           transform="matrix(0.05,0,0,0.05,43.95,0)"
           xlink:href="#K"
           id="use5144" />
        <use
           transform="matrix(0.05,0,0,0.05,53.95,0)"
           xlink:href="#F"
           id="use5146" />
      </g>
      <g
         id="g">
        <use
           transform="matrix(0.05,0,0,0.05,0,0)"
           xlink:href="#I"
           id="use5149" />
        <use
           transform="matrix(0.05,0,0,0.05,12,0)"
           xlink:href="#u"
           id="use5151" />
        <use
           transform="matrix(0.05,0,0,0.05,22,0)"
           xlink:href="#J"
           id="use5153" />
        <use
           transform="matrix(0.05,0,0,0.05,31,0)"
           xlink:href="#J"
           id="use5155" />
        <use
           transform="matrix(0.05,0,0,0.05,40,0)"
           xlink:href="#x"
           id="use5157" />
        <use
           transform="matrix(0.05,0,0,0.05,43.95,0)"
           xlink:href="#y"
           id="use5159" />
        <use
           transform="matrix(0.05,0,0,0.05,52.95,0)"
           xlink:href="#t"
           id="use5161" />
      </g>
      <path
         d="M240 0l2-218c-23 76-54 145-80 218h-23L58-218 59 0H30v-248h44l77 211c21-75 51-140 76-211h43V0h-30"
         id="L" />
      <path
         d="M206 0h-36l-40-164L89 0H53L-1-190h32L70-26l43-164h34l41 164 42-164h31"
         id="M" />
      <g
         id="h">
        <use
           transform="matrix(0.05,0,0,0.05,0,0)"
           xlink:href="#L"
           id="use5166" />
        <use
           transform="matrix(0.05,0,0,0.05,14.950000000000001,0)"
           xlink:href="#x"
           id="use5168" />
        <use
           transform="matrix(0.05,0,0,0.05,18.900000000000002,0)"
           xlink:href="#x"
           id="use5170" />
        <use
           transform="matrix(0.05,0,0,0.05,22.85,0)"
           xlink:href="#C"
           id="use5172" />
        <use
           transform="matrix(0.05,0,0,0.05,32.85,0)"
           xlink:href="#C"
           id="use5174" />
        <use
           transform="matrix(0.05,0,0,0.05,42.85,0)"
           xlink:href="#E"
           id="use5176" />
        <use
           transform="matrix(0.05,0,0,0.05,46.800000000000004,0)"
           xlink:href="#t"
           id="use5178" />
        <use
           transform="matrix(0.05,0,0,0.05,56.800000000000004,0)"
           xlink:href="#M"
           id="use5180" />
        <use
           transform="matrix(0.05,0,0,0.05,69.75,0)"
           xlink:href="#u"
           id="use5182" />
        <use
           transform="matrix(0.05,0,0,0.05,79.75,0)"
           xlink:href="#H"
           id="use5184" />
        <use
           transform="matrix(0.05,0,0,0.05,85.7,0)"
           xlink:href="#t"
           id="use5186" />
      </g>
      <g
         id="i">
        <use
           transform="matrix(0.06172839506172839,0,0,0.06172839506172839,0,0)"
           xlink:href="#A"
           id="use5189" />
        <use
           transform="matrix(0.06172839506172839,0,0,0.06172839506172839,14.814814814814813,0)"
           xlink:href="#B"
           id="use5191" />
        <use
           transform="matrix(0.06172839506172839,0,0,0.06172839506172839,27.160493827160494,0)"
           xlink:href="#D"
           id="use5193" />
        <use
           transform="matrix(0.06172839506172839,0,0,0.06172839506172839,39.50617283950617,0)"
           xlink:href="#w"
           id="use5195" />
        <use
           transform="matrix(0.06172839506172839,0,0,0.06172839506172839,45.67901234567901,0)"
           xlink:href="#C"
           id="use5197" />
        <use
           transform="matrix(0.06172839506172839,0,0,0.06172839506172839,58.02469135802469,0)"
           xlink:href="#K"
           id="use5199" />
        <use
           transform="matrix(0.06172839506172839,0,0,0.06172839506172839,70.37037037037037,0)"
           xlink:href="#M"
           id="use5201" />
        <use
           transform="matrix(0.06172839506172839,0,0,0.06172839506172839,86.35802469135803,0)"
           xlink:href="#F"
           id="use5203" />
      </g>
      <path
         d="M212-179c-10-28-35-45-73-45-59 0-87 40-87 99 0 60 29 101 89 101 43 0 62-24 78-52l27 14C228-24 195 4 139 4 59 4 22-46 18-125c-6-104 99-153 187-111 19 9 31 26 39 46"
         id="N" />
      <path
         d="M194 0L95-120 63-95V0H30v-248h33v124l119-124h40L117-140 236 0h-42"
         id="O" />
      <g
         id="j">
        <use
           transform="matrix(0.06172839506172839,0,0,0.06172839506172839,0,0)"
           xlink:href="#z"
           id="use5208" />
        <use
           transform="matrix(0.06172839506172839,0,0,0.06172839506172839,14.814814814814813,0)"
           xlink:href="#N"
           id="use5210" />
        <use
           transform="matrix(0.06172839506172839,0,0,0.06172839506172839,30.80246913580247,0)"
           xlink:href="#O"
           id="use5212" />
      </g>
      <path
         d="M127-220V0H93v-220H8v-28h204v28h-85"
         id="P" />
      <path
         d="M210-169c-67 3-38 105-44 169h-31v-121c0-29-5-50-35-48C34-165 62-65 56 0H25l-1-190h30c1 10-1 24 2 32 10-44 99-50 107 0 11-21 27-35 58-36 85-2 47 119 55 194h-31v-121c0-29-5-49-35-48"
         id="Q" />
      <g
         id="k">
        <use
           transform="matrix(0.07407407407407408,0,0,0.07407407407407408,0,0)"
           xlink:href="#P"
           id="use5217" />
        <use
           transform="matrix(0.07407407407407408,0,0,0.07407407407407408,13.259259259259261,0)"
           xlink:href="#t"
           id="use5219" />
        <use
           transform="matrix(0.07407407407407408,0,0,0.07407407407407408,28.074074074074076,0)"
           xlink:href="#H"
           id="use5221" />
        <use
           transform="matrix(0.07407407407407408,0,0,0.07407407407407408,36.88888888888889,0)"
           xlink:href="#Q"
           id="use5223" />
        <use
           transform="matrix(0.07407407407407408,0,0,0.07407407407407408,59.037037037037045,0)"
           xlink:href="#x"
           id="use5225" />
        <use
           transform="matrix(0.07407407407407408,0,0,0.07407407407407408,64.8888888888889,0)"
           xlink:href="#F"
           id="use5227" />
        <use
           transform="matrix(0.07407407407407408,0,0,0.07407407407407408,79.70370370370374,0)"
           xlink:href="#u"
           id="use5229" />
        <use
           transform="matrix(0.07407407407407408,0,0,0.07407407407407408,94.51851851851853,0)"
           xlink:href="#w"
           id="use5231" />
        <use
           transform="matrix(0.07407407407407408,0,0,0.07407407407407408,101.92592592592594,0)"
           xlink:href="#x"
           id="use5233" />
        <use
           transform="matrix(0.07407407407407408,0,0,0.07407407407407408,107.77777777777779,0)"
           xlink:href="#K"
           id="use5235" />
        <use
           transform="matrix(0.07407407407407408,0,0,0.07407407407407408,122.59259259259261,0)"
           xlink:href="#F"
           id="use5237" />
      </g>
      <path
         d="M140-251c81 0 123 46 123 126C263-46 219 4 140 4 59 4 17-45 17-125s42-126 123-126zm0 227c63 0 89-41 89-101s-29-99-89-99c-61 0-89 39-89 99S79-25 140-24"
         id="R" />
      <g
         id="l">
        <use
           transform="matrix(0.07407407407407408,0,0,0.07407407407407408,0,0)"
           xlink:href="#R"
           id="use5241" />
        <use
           transform="matrix(0.07407407407407408,0,0,0.07407407407407408,20.740740740740744,0)"
           xlink:href="#H"
           id="use5243" />
        <use
           transform="matrix(0.07407407407407408,0,0,0.07407407407407408,29.55555555555556,0)"
           xlink:href="#C"
           id="use5245" />
        <use
           transform="matrix(0.07407407407407408,0,0,0.07407407407407408,44.37037037037039,0)"
           xlink:href="#t"
           id="use5247" />
        <use
           transform="matrix(0.07407407407407408,0,0,0.07407407407407408,59.185185185185205,0)"
           xlink:href="#H"
           id="use5249" />
      </g>
      <path
         d="M24 0v-248h52v208h133V0H24"
         id="S" />
      <path
         d="M24 0v-248h195v40H76v63h132v40H76v65h150V0H24"
         id="T" />
      <path
         d="M67-125c0 54 23 88 75 88 28 0 53-7 68-21v-34h-60v-39h108v91C232-14 192 4 140 4 58 4 20-42 15-125 8-236 126-280 215-234c19 10 29 26 37 47l-47 15c-11-23-29-39-63-39-53 1-75 33-75 86"
         id="U" />
      <path
         d="M175 0L67-191c6 58 2 128 3 191H24v-248h59L193-55c-6-58-2-129-3-193h46V0h-61"
         id="V" />
      <path
         d="M24-248c120-7 223 5 221 122C244-46 201 0 124 0H24v-248zM76-40c74 7 117-18 117-86 0-67-45-88-117-82v168"
         id="W" />
      <g
         id="m">
        <use
           transform="matrix(0.06790123456790124,0,0,0.06790123456790124,0,0)"
           xlink:href="#S"
           id="use5257" />
        <use
           transform="matrix(0.06790123456790124,0,0,0.06790123456790124,14.870370370370372,0)"
           xlink:href="#T"
           id="use5259" />
        <use
           transform="matrix(0.06790123456790124,0,0,0.06790123456790124,31.16666666666667,0)"
           xlink:href="#U"
           id="use5261" />
        <use
           transform="matrix(0.06790123456790124,0,0,0.06790123456790124,50.17901234567902,0)"
           xlink:href="#T"
           id="use5263" />
        <use
           transform="matrix(0.06790123456790124,0,0,0.06790123456790124,66.47530864197532,0)"
           xlink:href="#V"
           id="use5265" />
        <use
           transform="matrix(0.06790123456790124,0,0,0.06790123456790124,84.06172839506173,0)"
           xlink:href="#W"
           id="use5267" />
      </g>
      <path
         d="M160-131c35 5 61 23 61 61C221 17 115-2 30 0v-248c76 3 177-17 177 60 0 33-19 50-47 57zm-97-11c50-1 110 9 110-42 0-47-63-36-110-37v79zm0 115c55-2 124 14 124-45 0-56-70-42-124-44v89"
         id="X" />
      <path
         d="M143 0L79-87 56-68V0H24v-261h32v163l83-92h37l-77 82L181 0h-38"
         id="Y" />
      <g
         id="n">
        <use
           transform="matrix(0.05,0,0,0.05,0,0)"
           xlink:href="#X"
           id="use5272" />
        <use
           transform="matrix(0.05,0,0,0.05,12,0)"
           xlink:href="#E"
           id="use5274" />
        <use
           transform="matrix(0.05,0,0,0.05,15.949999999999998,0)"
           xlink:href="#K"
           id="use5276" />
        <use
           transform="matrix(0.05,0,0,0.05,25.950000000000003,0)"
           xlink:href="#v"
           id="use5278" />
        <use
           transform="matrix(0.05,0,0,0.05,34.95,0)"
           xlink:href="#Y"
           id="use5280" />
        <use
           transform="matrix(0.05,0,0,0.05,43.95,0)"
           xlink:href="#x"
           id="use5282" />
        <use
           transform="matrix(0.05,0,0,0.05,47.900000000000006,0)"
           xlink:href="#F"
           id="use5284" />
        <use
           transform="matrix(0.05,0,0,0.05,57.900000000000006,0)"
           xlink:href="#G"
           id="use5286" />
      </g>
      <path
         d="M0 4l72-265h28L28 4H0"
         id="Z" />
      <path
         d="M33 0v-248h34V0H33"
         id="aa" />
      <g
         id="o">
        <use
           transform="matrix(0.05,0,0,0.05,0,0)"
           xlink:href="#L"
           id="use5291" />
        <use
           transform="matrix(0.05,0,0,0.05,14.950000000000001,0)"
           xlink:href="#t"
           id="use5293" />
        <use
           transform="matrix(0.05,0,0,0.05,24.950000000000003,0)"
           xlink:href="#J"
           id="use5295" />
        <use
           transform="matrix(0.05,0,0,0.05,33.95,0)"
           xlink:href="#J"
           id="use5297" />
        <use
           transform="matrix(0.05,0,0,0.05,42.95,0)"
           xlink:href="#u"
           id="use5299" />
        <use
           transform="matrix(0.05,0,0,0.05,52.95,0)"
           xlink:href="#G"
           id="use5301" />
        <use
           transform="matrix(0.05,0,0,0.05,62.95,0)"
           xlink:href="#t"
           id="use5303" />
        <use
           transform="matrix(0.05,0,0,0.05,72.95,0)"
           xlink:href="#Z"
           id="use5305" />
        <use
           transform="matrix(0.05,0,0,0.05,77.95,0)"
           xlink:href="#aa"
           id="use5307" />
        <use
           transform="matrix(0.05,0,0,0.05,82.95,0)"
           xlink:href="#F"
           id="use5309" />
        <use
           transform="matrix(0.05,0,0,0.05,92.95,0)"
           xlink:href="#y"
           id="use5311" />
        <use
           transform="matrix(0.05,0,0,0.05,101.95,0)"
           xlink:href="#K"
           id="use5313" />
        <use
           transform="matrix(0.05,0,0,0.05,111.95,0)"
           xlink:href="#v"
           id="use5315" />
        <use
           transform="matrix(0.05,0,0,0.05,120.95,0)"
           xlink:href="#u"
           id="use5317" />
        <use
           transform="matrix(0.05,0,0,0.05,130.95,0)"
           xlink:href="#w"
           id="use5319" />
        <use
           transform="matrix(0.05,0,0,0.05,135.95,0)"
           xlink:href="#x"
           id="use5321" />
        <use
           transform="matrix(0.05,0,0,0.05,139.89999999999998,0)"
           xlink:href="#K"
           id="use5323" />
        <use
           transform="matrix(0.05,0,0,0.05,149.89999999999998,0)"
           xlink:href="#F"
           id="use5325" />
      </g>
      <g
         id="p">
        <use
           transform="matrix(0.05,0,0,0.05,0,0)"
           xlink:href="#s"
           id="use5328" />
        <use
           transform="matrix(0.05,0,0,0.05,12.950000000000001,0)"
           xlink:href="#t"
           id="use5330" />
        <use
           transform="matrix(0.05,0,0,0.05,22.950000000000003,0)"
           xlink:href="#w"
           id="use5332" />
        <use
           transform="matrix(0.05,0,0,0.05,27.950000000000003,0)"
           xlink:href="#D"
           id="use5334" />
        <use
           transform="matrix(0.05,0,0,0.05,37.95,0)"
           xlink:href="#H"
           id="use5336" />
        <use
           transform="matrix(0.05,0,0,0.05,43.900000000000006,0)"
           xlink:href="#F"
           id="use5338" />
        <use
           transform="matrix(0.05,0,0,0.05,53.900000000000006,0)"
           xlink:href="#Z"
           id="use5340" />
      </g>
      <g
         id="q">
        <use
           transform="matrix(0.05,0,0,0.05,0,0)"
           xlink:href="#L"
           id="use5343" />
        <use
           transform="matrix(0.05,0,0,0.05,14.950000000000001,0)"
           xlink:href="#t"
           id="use5345" />
        <use
           transform="matrix(0.05,0,0,0.05,24.950000000000003,0)"
           xlink:href="#J"
           id="use5347" />
        <use
           transform="matrix(0.05,0,0,0.05,33.95,0)"
           xlink:href="#J"
           id="use5349" />
        <use
           transform="matrix(0.05,0,0,0.05,42.95,0)"
           xlink:href="#u"
           id="use5351" />
        <use
           transform="matrix(0.05,0,0,0.05,52.95,0)"
           xlink:href="#G"
           id="use5353" />
        <use
           transform="matrix(0.05,0,0,0.05,62.95,0)"
           xlink:href="#t"
           id="use5355" />
      </g>
      <path
         d="M115-194c55 1 70 41 70 98S169 2 115 4C84 4 66-9 55-30l1 105H24l-1-265h31l2 30c10-21 28-34 59-34zm-8 174c40 0 45-34 45-75s-6-73-45-74c-42 0-51 32-51 76 0 43 10 73 51 73"
         id="ab" />
      <path
         d="M179-190L93 31C79 59 56 82 12 73V49c39 6 53-20 64-50L1-190h34L92-34l54-156h33"
         id="ac" />
      <g
         id="r">
        <use
           transform="matrix(0.05,0,0,0.05,0,0)"
           xlink:href="#s"
           id="use5360" />
        <use
           transform="matrix(0.05,0,0,0.05,12.950000000000001,0)"
           xlink:href="#t"
           id="use5362" />
        <use
           transform="matrix(0.05,0,0,0.05,22.950000000000003,0)"
           xlink:href="#ab"
           id="use5364" />
        <use
           transform="matrix(0.05,0,0,0.05,32.95,0)"
           xlink:href="#E"
           id="use5366" />
        <use
           transform="matrix(0.05,0,0,0.05,36.900000000000006,0)"
           xlink:href="#ac"
           id="use5368" />
      </g>
    </defs>
  </g>
</svg>
