<?xml version="1.0" encoding="UTF-8"?>
<svg xmlns="http://www.w3.org/2000/svg" xmlns:xlink="http://www.w3.org/1999/xlink" width="1293.2339pt" height="642pt" viewBox="0 0 1293.2339 642" version="1.1">
<g id="surface1">
<path style="fill-rule:nonzero;fill:rgb(100%,100%,100%);fill-opacity:1;stroke-width:2;stroke-linecap:butt;stroke-linejoin:miter;stroke:rgb(0%,0%,0%);stroke-opacity:1;stroke-miterlimit:4;" d="M 380.000449 480 C 380.000449 524.179688 344.180137 560 300.000449 560 C 255.820762 560 220.000449 524.179688 220.000449 480 C 220.000449 435.820312 255.820762 400 300.000449 400 C 344.180137 400 380.000449 435.820312 380.000449 480 Z M 380.000449 480 " transform="matrix(1,0,0,1,-46.766074,-159)"/>
<path style="fill-rule:nonzero;fill:rgb(100%,100%,100%);fill-opacity:1;stroke-width:2;stroke-linecap:butt;stroke-linejoin:miter;stroke:rgb(0%,0%,0%);stroke-opacity:1;stroke-miterlimit:4;" d="M 1020.000449 240 C 1020.000449 284.179688 984.180137 320 940.000449 320 C 895.820762 320 860.000449 284.179688 860.000449 240 C 860.000449 195.820312 895.820762 160 940.000449 160 C 984.180137 160 1020.000449 195.820312 1020.000449 240 Z M 1020.000449 240 " transform="matrix(1,0,0,1,-46.766074,-159)"/>
<path style="fill-rule:nonzero;fill:rgb(100%,100%,100%);fill-opacity:1;stroke-width:2;stroke-linecap:butt;stroke-linejoin:miter;stroke:rgb(0%,0%,0%);stroke-opacity:1;stroke-miterlimit:4;" d="M 1020.000449 720 C 1020.000449 764.179688 984.180137 800 940.000449 800 C 895.820762 800 860.000449 764.179688 860.000449 720 C 860.000449 675.820312 895.820762 640 940.000449 640 C 984.180137 640 1020.000449 675.820312 1020.000449 720 Z M 1020.000449 720 " transform="matrix(1,0,0,1,-46.766074,-159)"/>
<path style="fill:none;stroke-width:2;stroke-linecap:butt;stroke-linejoin:miter;stroke:rgb(0%,0%,0%);stroke-opacity:1;stroke-miterlimit:4;" d="M 300.000449 560 L 300.000449 720 L 860.000449 720 " transform="matrix(1,0,0,1,-46.766074,-159)"/>
<path style=" stroke:none;fill-rule:nonzero;fill:rgb(0%,0%,0%);fill-opacity:1;" d="M 253.234375 401 L 252.234375 401 L 252.234375 400.96875 Z M 254.234375 401 L 253.234375 401 L 253.914062 401 L 254.234375 400.980469 Z M 813.234375 561 L 798.964844 565.640625 L 798.964844 556.359375 Z M 813.234375 561 "/>
<path style=" stroke:none;fill-rule:nonzero;fill:rgb(0%,0%,0%);fill-opacity:1;" d="M 813.265625 559.960938 L 813.234375 561 L 813.234375 561.679688 L 813.253906 562.050781 L 797.953125 567.011719 L 797.953125 555.011719 Z M 799.964844 564.261719 L 809.992188 561 L 799.964844 557.738281 Z M 799.964844 564.261719 "/>
<path style=" stroke:none;fill-rule:nonzero;fill:rgb(100%,100%,100%);fill-opacity:1;" d="M 381.804688 550.199219 L 524.652344 550.199219 L 524.652344 571.800781 L 381.804688 571.800781 Z M 381.804688 550.199219 "/>
<path style=" stroke:none;fill-rule:nonzero;fill:rgb(0%,0%,0%);fill-opacity:1;" d="M 391.058594 555.148438 C 390.808594 552.75 384.910156 552.449219 384.859375 555.25 C 385.558594 559 392.757812 555.949219 393.007812 561.199219 C 393.160156 565.101562 386.957031 565.550781 384.257812 563.949219 C 383.410156 563.449219 382.859375 562.648438 382.609375 561.648438 L 384.257812 561.300781 C 384.507812 564.101562 391.308594 564.449219 391.308594 561.25 C 391.308594 557.351562 383.558594 560.550781 383.207031 555.351562 C 382.957031 551.25 390.457031 551.148438 392.160156 553.648438 C 392.410156 554 392.558594 554.449219 392.707031 554.898438 "/>
<path style=" stroke:none;fill-rule:nonzero;fill:rgb(0%,0%,0%);fill-opacity:1;" d="M 399.109375 556.148438 C 395.507812 556.148438 396.910156 561.25 396.660156 564.601562 L 395.058594 564.601562 L 395.058594 551.550781 L 396.660156 551.550781 L 396.609375 556.699219 C 397.207031 555.648438 398.007812 554.898438 399.660156 554.898438 C 404.109375 554.898438 402.308594 560.699219 402.660156 564.601562 L 401.058594 564.601562 L 401.058594 558.550781 C 401.160156 556.949219 400.660156 556.101562 399.109375 556.148438 "/>
<path style=" stroke:none;fill-rule:nonzero;fill:rgb(0%,0%,0%);fill-opacity:1;" d="M 408.007812 564.800781 C 403.558594 565 405.308594 559 404.957031 555.101562 L 406.558594 555.101562 L 406.558594 561.101562 C 406.558594 562.648438 406.910156 563.601562 408.507812 563.550781 C 412.109375 563.449219 410.757812 558.5 411.007812 555.101562 L 412.558594 555.101562 L 412.609375 564.601562 L 411.109375 564.601562 C 411.058594 564.101562 411.160156 563.351562 411.007812 562.949219 C 410.457031 564.050781 409.609375 564.75 408.007812 564.800781 "/>
<path style=" stroke:none;fill-rule:nonzero;fill:rgb(0%,0%,0%);fill-opacity:1;" d="M 416.757812 562.25 C 416.660156 563.449219 417.660156 563.699219 418.660156 563.351562 L 418.660156 564.550781 C 417.007812 565.050781 415.160156 564.800781 415.160156 562.601562 L 415.160156 556.25 L 414.058594 556.25 L 414.058594 555.101562 L 415.257812 555.101562 L 415.707031 552.949219 L 416.757812 552.949219 L 416.757812 555.101562 L 418.507812 555.101562 L 418.507812 556.25 L 416.757812 556.25 L 416.757812 562.25 "/>
<path style=" stroke:none;fill-rule:nonzero;fill:rgb(0%,0%,0%);fill-opacity:1;" d="M 423.058594 554.898438 C 424.609375 554.898438 425.457031 555.550781 426.058594 556.550781 L 426.007812 551.550781 L 427.609375 551.550781 L 427.660156 564.601562 L 426.160156 564.601562 C 426.058594 564.101562 426.160156 563.449219 426.007812 563.050781 C 425.507812 564.199219 424.609375 564.800781 423.058594 564.800781 C 420.410156 564.800781 419.609375 562.851562 419.558594 559.898438 C 419.558594 556.601562 420.707031 554.898438 423.058594 554.898438 Z M 423.507812 556.101562 C 421.507812 556.101562 421.207031 557.800781 421.207031 559.851562 C 421.207031 561.851562 421.507812 563.550781 423.457031 563.550781 C 425.558594 563.550781 426.007812 561.949219 426.007812 559.75 C 426.007812 557.648438 425.558594 556.050781 423.507812 556.101562 "/>
<path style=" stroke:none;fill-rule:nonzero;fill:rgb(0%,0%,0%);fill-opacity:1;" d="M 433.808594 554.898438 C 436.910156 554.851562 438.058594 556.75 438.058594 559.851562 C 438.109375 563 436.707031 564.800781 433.757812 564.800781 C 430.808594 564.800781 429.609375 562.851562 429.558594 559.851562 C 429.558594 556.550781 430.957031 554.898438 433.808594 554.898438 Z M 433.757812 563.601562 C 435.957031 563.648438 436.410156 562.050781 436.410156 559.851562 C 436.410156 557.699219 436.007812 556.101562 433.859375 556.101562 C 431.707031 556.101562 431.207031 557.699219 431.207031 559.851562 C 431.207031 562 431.707031 563.550781 433.757812 563.601562 "/>
<path style=" stroke:none;fill-rule:nonzero;fill:rgb(0%,0%,0%);fill-opacity:1;" d="M 449.109375 564.601562 L 447.308594 564.601562 L 445.308594 556.398438 L 443.257812 564.601562 L 441.457031 564.601562 L 438.757812 555.101562 L 440.359375 555.101562 L 442.308594 563.300781 L 444.457031 555.101562 L 446.160156 555.101562 L 448.207031 563.300781 L 450.308594 555.101562 L 451.859375 555.101562 "/>
<path style=" stroke:none;fill-rule:nonzero;fill:rgb(0%,0%,0%);fill-opacity:1;" d="M 457.609375 554.898438 C 462.058594 554.699219 460.257812 560.699219 460.609375 564.601562 L 459.007812 564.601562 L 459.007812 558.550781 C 459.007812 557 458.609375 556.101562 457.058594 556.148438 C 453.457031 556.25 454.859375 561.25 454.609375 564.601562 L 453.007812 564.601562 L 452.957031 555.101562 L 454.457031 555.101562 C 454.507812 555.601562 454.410156 556.300781 454.558594 556.699219 C 455.109375 555.601562 456.007812 554.949219 457.609375 554.898438 "/>
<path style=" stroke:none;fill-rule:nonzero;fill:rgb(0%,0%,0%);fill-opacity:1;" d="M 461.507812 568.199219 L 461.507812 567.050781 L 471.957031 567.050781 L 471.957031 568.199219 L 461.507812 568.199219 "/>
<path style=" stroke:none;fill-rule:nonzero;fill:rgb(0%,0%,0%);fill-opacity:1;" d="M 482.257812 556.148438 C 478.910156 556.300781 480.359375 561.398438 480.058594 564.601562 L 478.507812 564.601562 L 478.507812 558.550781 C 478.507812 557.101562 478.257812 556.050781 476.757812 556.148438 C 473.457031 556.351562 474.859375 561.351562 474.558594 564.601562 L 473.007812 564.601562 L 472.957031 555.101562 L 474.457031 555.101562 C 474.507812 555.601562 474.410156 556.300781 474.558594 556.699219 C 475.058594 554.5 479.507812 554.199219 479.910156 556.699219 C 480.457031 555.648438 481.257812 554.949219 482.808594 554.898438 C 487.058594 554.800781 485.160156 560.851562 485.558594 564.601562 L 484.007812 564.601562 L 484.007812 558.550781 C 484.007812 557.101562 483.757812 556.101562 482.257812 556.148438 "/>
<path style=" stroke:none;fill-rule:nonzero;fill:rgb(0%,0%,0%);fill-opacity:1;" d="M 497.007812 564.601562 L 495.207031 564.601562 L 493.207031 556.398438 L 491.160156 564.601562 L 489.359375 564.601562 L 486.660156 555.101562 L 488.257812 555.101562 L 490.207031 563.300781 L 492.359375 555.101562 L 494.058594 555.101562 L 496.109375 563.300781 L 498.207031 555.101562 L 499.757812 555.101562 "/>
<path style=" stroke:none;fill-rule:nonzero;fill:rgb(0%,0%,0%);fill-opacity:1;" d="M 519.707031 552.050781 C 523.808594 551.699219 524.359375 556.398438 521.859375 558.648438 L 518.757812 561.398438 C 518.207031 561.949219 517.609375 562.5 517.308594 563.25 L 523.757812 563.25 L 523.757812 564.601562 L 515.558594 564.601562 C 515.660156 559.648438 521.957031 559.898438 521.957031 555.5 C 521.957031 554.101562 521.160156 553.351562 519.707031 553.351562 C 518.257812 553.351562 517.410156 554.101562 517.257812 555.398438 L 515.660156 555.25 C 515.957031 553.199219 517.359375 552.25 519.707031 552.050781 "/>
<path style="fill:none;stroke-width:2;stroke-linecap:butt;stroke-linejoin:miter;stroke:rgb(0%,0%,0%);stroke-opacity:1;stroke-miterlimit:4;" d="M 300.000449 400 L 300.000449 240 L 860.000449 240 " transform="matrix(1,0,0,1,-46.766074,-159)"/>
<path style=" stroke:none;fill-rule:nonzero;fill:rgb(0%,0%,0%);fill-opacity:1;" d="M 254.234375 241.03125 L 253.234375 241 L 252.554688 241 L 252.234375 241.019531 L 252.234375 241 L 254.234375 241 Z M 813.234375 81 L 798.964844 85.640625 L 798.964844 76.359375 Z M 813.234375 81 "/>
<path style=" stroke:none;fill-rule:nonzero;fill:rgb(0%,0%,0%);fill-opacity:1;" d="M 813.265625 79.960938 L 813.234375 81 L 813.234375 81.679688 L 813.253906 82.050781 L 797.953125 87.011719 L 797.953125 75.011719 Z M 799.964844 84.261719 L 809.992188 81 L 799.964844 77.738281 Z M 799.964844 84.261719 "/>
<path style=" stroke:none;fill-rule:nonzero;fill:rgb(100%,100%,100%);fill-opacity:1;" d="M 433.132812 70.199219 L 575.992188 70.199219 L 575.992188 91.800781 L 433.132812 91.800781 Z M 433.132812 70.199219 "/>
<path style=" stroke:none;fill-rule:nonzero;fill:rgb(0%,0%,0%);fill-opacity:1;" d="M 442.390625 75.148438 C 442.140625 72.75 436.242188 72.449219 436.191406 75.25 C 436.890625 79 444.09375 75.949219 444.34375 81.199219 C 444.492188 85.101562 438.292969 85.550781 435.59375 83.949219 C 434.742188 83.449219 434.191406 82.648438 433.941406 81.648438 L 435.59375 81.300781 C 435.84375 84.101562 442.640625 84.449219 442.640625 81.25 C 442.640625 77.351562 434.890625 80.550781 434.542969 75.351562 C 434.292969 71.25 441.792969 71.148438 443.492188 73.648438 C 443.742188 74 443.890625 74.449219 444.042969 74.898438 "/>
<path style=" stroke:none;fill-rule:nonzero;fill:rgb(0%,0%,0%);fill-opacity:1;" d="M 450.441406 76.148438 C 446.84375 76.148438 448.242188 81.25 447.992188 84.601562 L 446.390625 84.601562 L 446.390625 71.550781 L 447.992188 71.550781 L 447.941406 76.699219 C 448.542969 75.648438 449.34375 74.898438 450.992188 74.898438 C 455.441406 74.898438 453.640625 80.699219 453.992188 84.601562 L 452.390625 84.601562 L 452.390625 78.550781 C 452.492188 76.949219 451.992188 76.101562 450.441406 76.148438 "/>
<path style=" stroke:none;fill-rule:nonzero;fill:rgb(0%,0%,0%);fill-opacity:1;" d="M 459.34375 84.800781 C 454.890625 85 456.640625 79 456.292969 75.101562 L 457.890625 75.101562 L 457.890625 81.101562 C 457.890625 82.648438 458.242188 83.601562 459.84375 83.550781 C 463.441406 83.449219 462.09375 78.5 462.34375 75.101562 L 463.890625 75.101562 L 463.941406 84.601562 L 462.441406 84.601562 C 462.390625 84.101562 462.492188 83.351562 462.34375 82.949219 C 461.792969 84.050781 460.941406 84.75 459.34375 84.800781 "/>
<path style=" stroke:none;fill-rule:nonzero;fill:rgb(0%,0%,0%);fill-opacity:1;" d="M 468.09375 82.25 C 467.992188 83.449219 468.992188 83.699219 469.992188 83.351562 L 469.992188 84.550781 C 468.34375 85.050781 466.492188 84.800781 466.492188 82.601562 L 466.492188 76.25 L 465.390625 76.25 L 465.390625 75.101562 L 466.59375 75.101562 L 467.042969 72.949219 L 468.09375 72.949219 L 468.09375 75.101562 L 469.84375 75.101562 L 469.84375 76.25 L 468.09375 76.25 L 468.09375 82.25 "/>
<path style=" stroke:none;fill-rule:nonzero;fill:rgb(0%,0%,0%);fill-opacity:1;" d="M 474.390625 74.898438 C 475.941406 74.898438 476.792969 75.550781 477.390625 76.550781 L 477.34375 71.550781 L 478.941406 71.550781 L 478.992188 84.601562 L 477.492188 84.601562 C 477.390625 84.101562 477.492188 83.449219 477.34375 83.050781 C 476.84375 84.199219 475.941406 84.800781 474.390625 84.800781 C 471.742188 84.800781 470.941406 82.851562 470.890625 79.898438 C 470.890625 76.601562 472.042969 74.898438 474.390625 74.898438 Z M 474.84375 76.101562 C 472.84375 76.101562 472.542969 77.800781 472.542969 79.851562 C 472.542969 81.851562 472.84375 83.550781 474.792969 83.550781 C 476.890625 83.550781 477.34375 81.949219 477.34375 79.75 C 477.34375 77.648438 476.890625 76.050781 474.84375 76.101562 "/>
<path style=" stroke:none;fill-rule:nonzero;fill:rgb(0%,0%,0%);fill-opacity:1;" d="M 485.140625 74.898438 C 488.242188 74.851562 489.390625 76.75 489.390625 79.851562 C 489.441406 83 488.042969 84.800781 485.09375 84.800781 C 482.140625 84.800781 480.941406 82.851562 480.890625 79.851562 C 480.890625 76.550781 482.292969 74.898438 485.140625 74.898438 Z M 485.09375 83.601562 C 487.292969 83.648438 487.742188 82.050781 487.742188 79.851562 C 487.742188 77.699219 487.34375 76.101562 485.191406 76.101562 C 483.042969 76.101562 482.542969 77.699219 482.542969 79.851562 C 482.542969 82 483.042969 83.550781 485.09375 83.601562 "/>
<path style=" stroke:none;fill-rule:nonzero;fill:rgb(0%,0%,0%);fill-opacity:1;" d="M 500.441406 84.601562 L 498.640625 84.601562 L 496.640625 76.398438 L 494.59375 84.601562 L 492.792969 84.601562 L 490.09375 75.101562 L 491.691406 75.101562 L 493.640625 83.300781 L 495.792969 75.101562 L 497.492188 75.101562 L 499.542969 83.300781 L 501.640625 75.101562 L 503.191406 75.101562 "/>
<path style=" stroke:none;fill-rule:nonzero;fill:rgb(0%,0%,0%);fill-opacity:1;" d="M 508.941406 74.898438 C 513.390625 74.699219 511.59375 80.699219 511.941406 84.601562 L 510.34375 84.601562 L 510.34375 78.550781 C 510.34375 77 509.941406 76.101562 508.390625 76.148438 C 504.792969 76.25 506.191406 81.25 505.941406 84.601562 L 504.34375 84.601562 L 504.292969 75.101562 L 505.792969 75.101562 C 505.84375 75.601562 505.742188 76.300781 505.890625 76.699219 C 506.441406 75.601562 507.34375 74.949219 508.941406 74.898438 "/>
<path style=" stroke:none;fill-rule:nonzero;fill:rgb(0%,0%,0%);fill-opacity:1;" d="M 512.84375 88.199219 L 512.84375 87.050781 L 523.292969 87.050781 L 523.292969 88.199219 L 512.84375 88.199219 "/>
<path style=" stroke:none;fill-rule:nonzero;fill:rgb(0%,0%,0%);fill-opacity:1;" d="M 533.59375 76.148438 C 530.242188 76.300781 531.691406 81.398438 531.390625 84.601562 L 529.84375 84.601562 L 529.84375 78.550781 C 529.84375 77.101562 529.59375 76.050781 528.09375 76.148438 C 524.792969 76.351562 526.191406 81.351562 525.890625 84.601562 L 524.34375 84.601562 L 524.292969 75.101562 L 525.792969 75.101562 C 525.84375 75.601562 525.742188 76.300781 525.890625 76.699219 C 526.390625 74.5 530.84375 74.199219 531.242188 76.699219 C 531.792969 75.648438 532.59375 74.949219 534.140625 74.898438 C 538.390625 74.800781 536.492188 80.851562 536.890625 84.601562 L 535.34375 84.601562 L 535.34375 78.550781 C 535.34375 77.101562 535.09375 76.101562 533.59375 76.148438 "/>
<path style=" stroke:none;fill-rule:nonzero;fill:rgb(0%,0%,0%);fill-opacity:1;" d="M 548.34375 84.601562 L 546.542969 84.601562 L 544.542969 76.398438 L 542.492188 84.601562 L 540.691406 84.601562 L 537.992188 75.101562 L 539.59375 75.101562 L 541.542969 83.300781 L 543.691406 75.101562 L 545.390625 75.101562 L 547.441406 83.300781 L 549.542969 75.101562 L 551.09375 75.101562 "/>
<path style=" stroke:none;fill-rule:nonzero;fill:rgb(0%,0%,0%);fill-opacity:1;" d="M 571.042969 72.050781 C 575.140625 71.699219 575.691406 76.398438 573.191406 78.648438 L 570.09375 81.398438 C 569.542969 81.949219 568.941406 82.5 568.640625 83.25 L 575.09375 83.25 L 575.09375 84.601562 L 566.890625 84.601562 C 566.992188 79.648438 573.292969 79.898438 573.292969 75.5 C 573.292969 74.101562 572.492188 73.351562 571.042969 73.351562 C 569.59375 73.351562 568.742188 74.101562 568.59375 75.398438 L 566.992188 75.25 C 567.292969 73.199219 568.691406 72.25 571.042969 72.050781 "/>
<path style="fill:none;stroke-width:2;stroke-linecap:butt;stroke-linejoin:miter;stroke:rgb(0%,0%,0%);stroke-opacity:1;stroke-miterlimit:4;" d="M 1012.031699 683 L 1180.000449 683 " transform="matrix(1,0,0,1,-46.766074,-159)"/>
<path style=" stroke:none;fill-rule:nonzero;fill:rgb(0%,0%,0%);fill-opacity:1;" d="M 965.265625 525 L 964.664062 525 L 963.625 523 L 965.253906 523 Z M 965.265625 525 "/>
<path style="fill-rule:nonzero;fill:rgb(0%,0%,0%);fill-opacity:1;stroke-width:2;stroke-linecap:butt;stroke-linejoin:miter;stroke:rgb(0%,0%,0%);stroke-opacity:1;stroke-miterlimit:4;" d="M 1180.000449 683 L 1165.730918 687.628906 L 1165.730918 678.359375 Z M 1180.000449 683 " transform="matrix(1,0,0,1,-46.766074,-159)"/>
<path style=" stroke:none;fill-rule:nonzero;fill:rgb(100%,100%,100%);fill-opacity:1;" d="M 990.332031 513.199219 L 1108.175781 513.199219 L 1108.175781 534.800781 L 990.332031 534.800781 Z M 990.332031 513.199219 "/>
<path style=" stroke:none;fill-rule:nonzero;fill:rgb(0%,0%,0%);fill-opacity:1;" d="M 999.574219 518.144531 C 999.324219 515.746094 993.421875 515.445312 993.375 518.246094 C 994.074219 521.996094 1001.273438 518.945312 1001.523438 524.195312 C 1001.671875 528.097656 995.472656 528.546875 992.773438 526.945312 C 991.921875 526.445312 991.375 525.644531 991.125 524.644531 L 992.773438 524.296875 C 993.023438 527.097656 999.824219 527.445312 999.824219 524.246094 C 999.824219 520.347656 992.074219 523.546875 991.722656 518.347656 C 991.472656 514.246094 998.972656 514.144531 1000.671875 516.644531 C 1000.921875 516.996094 1001.074219 517.445312 1001.222656 517.894531 "/>
<path style=" stroke:none;fill-rule:nonzero;fill:rgb(0%,0%,0%);fill-opacity:1;" d="M 1007.625 519.144531 C 1004.023438 519.144531 1005.421875 524.246094 1005.171875 527.597656 L 1003.574219 527.597656 L 1003.574219 514.546875 L 1005.171875 514.546875 L 1005.125 519.695312 C 1005.722656 518.644531 1006.523438 517.894531 1008.171875 517.894531 C 1012.625 517.894531 1010.824219 523.695312 1011.171875 527.597656 L 1009.574219 527.597656 L 1009.574219 521.546875 C 1009.671875 519.945312 1009.171875 519.097656 1007.625 519.144531 "/>
<path style=" stroke:none;fill-rule:nonzero;fill:rgb(0%,0%,0%);fill-opacity:1;" d="M 1016.523438 527.796875 C 1012.074219 527.996094 1013.824219 521.996094 1013.472656 518.097656 L 1015.074219 518.097656 L 1015.074219 524.097656 C 1015.074219 525.644531 1015.421875 526.597656 1017.023438 526.546875 C 1020.625 526.445312 1019.273438 521.496094 1019.523438 518.097656 L 1021.074219 518.097656 L 1021.125 527.597656 L 1019.625 527.597656 C 1019.574219 527.097656 1019.671875 526.347656 1019.523438 525.945312 C 1018.972656 527.046875 1018.125 527.746094 1016.523438 527.796875 "/>
<path style=" stroke:none;fill-rule:nonzero;fill:rgb(0%,0%,0%);fill-opacity:1;" d="M 1025.273438 525.246094 C 1025.171875 526.445312 1026.171875 526.695312 1027.171875 526.347656 L 1027.171875 527.546875 C 1025.523438 528.046875 1023.671875 527.796875 1023.671875 525.597656 L 1023.671875 519.246094 L 1022.574219 519.246094 L 1022.574219 518.097656 L 1023.773438 518.097656 L 1024.222656 515.945312 L 1025.273438 515.945312 L 1025.273438 518.097656 L 1027.023438 518.097656 L 1027.023438 519.246094 L 1025.273438 519.246094 L 1025.273438 525.246094 "/>
<path style=" stroke:none;fill-rule:nonzero;fill:rgb(0%,0%,0%);fill-opacity:1;" d="M 1031.574219 517.894531 C 1033.125 517.894531 1033.972656 518.546875 1034.574219 519.546875 L 1034.523438 514.546875 L 1036.125 514.546875 L 1036.171875 527.597656 L 1034.671875 527.597656 C 1034.574219 527.097656 1034.671875 526.445312 1034.523438 526.046875 C 1034.023438 527.195312 1033.125 527.796875 1031.574219 527.796875 C 1028.921875 527.796875 1028.125 525.847656 1028.074219 522.894531 C 1028.074219 519.597656 1029.222656 517.894531 1031.574219 517.894531 Z M 1032.023438 519.097656 C 1030.023438 519.097656 1029.722656 520.796875 1029.722656 522.847656 C 1029.722656 524.847656 1030.023438 526.546875 1031.972656 526.546875 C 1034.074219 526.546875 1034.523438 524.945312 1034.523438 522.746094 C 1034.523438 520.644531 1034.074219 519.046875 1032.023438 519.097656 "/>
<path style=" stroke:none;fill-rule:nonzero;fill:rgb(0%,0%,0%);fill-opacity:1;" d="M 1042.324219 517.894531 C 1045.421875 517.847656 1046.574219 519.746094 1046.574219 522.847656 C 1046.625 525.996094 1045.222656 527.796875 1042.273438 527.796875 C 1039.324219 527.796875 1038.125 525.847656 1038.074219 522.847656 C 1038.074219 519.546875 1039.472656 517.894531 1042.324219 517.894531 Z M 1042.273438 526.597656 C 1044.472656 526.644531 1044.921875 525.046875 1044.921875 522.847656 C 1044.921875 520.695312 1044.523438 519.097656 1042.375 519.097656 C 1040.222656 519.097656 1039.722656 520.695312 1039.722656 522.847656 C 1039.722656 524.996094 1040.222656 526.546875 1042.273438 526.597656 "/>
<path style=" stroke:none;fill-rule:nonzero;fill:rgb(0%,0%,0%);fill-opacity:1;" d="M 1057.625 527.597656 L 1055.824219 527.597656 L 1053.824219 519.394531 L 1051.773438 527.597656 L 1049.972656 527.597656 L 1047.273438 518.097656 L 1048.875 518.097656 L 1050.824219 526.296875 L 1052.972656 518.097656 L 1054.671875 518.097656 L 1056.722656 526.296875 L 1058.824219 518.097656 L 1060.375 518.097656 "/>
<path style=" stroke:none;fill-rule:nonzero;fill:rgb(0%,0%,0%);fill-opacity:1;" d="M 1066.125 517.894531 C 1070.574219 517.695312 1068.773438 523.695312 1069.125 527.597656 L 1067.523438 527.597656 L 1067.523438 521.546875 C 1067.523438 519.996094 1067.125 519.097656 1065.574219 519.144531 C 1061.972656 519.246094 1063.375 524.246094 1063.125 527.597656 L 1061.523438 527.597656 L 1061.472656 518.097656 L 1062.972656 518.097656 C 1063.023438 518.597656 1062.921875 519.296875 1063.074219 519.695312 C 1063.625 518.597656 1064.523438 517.945312 1066.125 517.894531 "/>
<path style=" stroke:none;fill-rule:nonzero;fill:rgb(0%,0%,0%);fill-opacity:1;" d="M 1070.023438 531.195312 L 1070.023438 530.046875 L 1080.472656 530.046875 L 1080.472656 531.195312 L 1070.023438 531.195312 "/>
<path style=" stroke:none;fill-rule:nonzero;fill:rgb(0%,0%,0%);fill-opacity:1;" d="M 1090.773438 519.144531 C 1087.421875 519.296875 1088.875 524.394531 1088.574219 527.597656 L 1087.023438 527.597656 L 1087.023438 521.546875 C 1087.023438 520.097656 1086.773438 519.046875 1085.273438 519.144531 C 1081.972656 519.347656 1083.375 524.347656 1083.074219 527.597656 L 1081.523438 527.597656 L 1081.472656 518.097656 L 1082.972656 518.097656 C 1083.023438 518.597656 1082.921875 519.296875 1083.074219 519.695312 C 1083.574219 517.496094 1088.023438 517.195312 1088.421875 519.695312 C 1088.972656 518.644531 1089.773438 517.945312 1091.324219 517.894531 C 1095.574219 517.796875 1093.671875 523.847656 1094.074219 527.597656 L 1092.523438 527.597656 L 1092.523438 521.546875 C 1092.523438 520.097656 1092.273438 519.097656 1090.773438 519.144531 "/>
<path style=" stroke:none;fill-rule:nonzero;fill:rgb(0%,0%,0%);fill-opacity:1;" d="M 1105.523438 527.597656 L 1103.722656 527.597656 L 1101.722656 519.394531 L 1099.671875 527.597656 L 1097.875 527.597656 L 1095.171875 518.097656 L 1096.773438 518.097656 L 1098.722656 526.296875 L 1100.875 518.097656 L 1102.574219 518.097656 L 1104.625 526.296875 L 1106.722656 518.097656 L 1108.273438 518.097656 "/>
<path style="fill:none;stroke-width:2;stroke-linecap:butt;stroke-linejoin:miter;stroke:rgb(0%,0%,0%);stroke-opacity:1;stroke-miterlimit:4;" d="M 1180.000449 765.800781 L 1006.781699 765.800781 " transform="matrix(1,0,0,1,-46.766074,-159)"/>
<path style=" stroke:none;fill-rule:nonzero;fill:rgb(0%,0%,0%);fill-opacity:1;" d="M 974.273438 611.429688 L 960.015625 606.789062 L 974.273438 602.148438 Z M 974.273438 611.429688 "/>
<path style=" stroke:none;fill-rule:nonzero;fill:rgb(0%,0%,0%);fill-opacity:1;" d="M 975.273438 612.800781 L 958.445312 607.328125 L 959.382812 605.949219 L 975.285156 600.78125 Z M 963.242188 606.800781 L 973.285156 610.050781 L 973.285156 603.53125 Z M 963.242188 606.800781 "/>
<path style=" stroke:none;fill-rule:nonzero;fill:rgb(100%,100%,100%);fill-opacity:1;" d="M 1027.953125 596 L 1095.855469 596 L 1095.855469 617.601562 L 1027.953125 617.601562 Z M 1027.953125 596 "/>
<path style=" stroke:none;fill-rule:nonzero;fill:rgb(0%,0%,0%);fill-opacity:1;" d="M 1038.199219 610.390625 L 1036.800781 606.792969 L 1031.152344 606.792969 L 1029.75 610.390625 L 1028 610.390625 L 1033.050781 597.992188 L 1034.949219 597.992188 L 1039.902344 610.390625 Z M 1036.300781 605.441406 L 1033.949219 599.292969 C 1033.351562 601.542969 1032.402344 603.390625 1031.652344 605.441406 L 1036.300781 605.441406 "/>
<path style=" stroke:none;fill-rule:nonzero;fill:rgb(0%,0%,0%);fill-opacity:1;" d="M 1044.75 601.941406 C 1042.75 601.941406 1042.351562 603.59375 1042.351562 605.59375 C 1042.351562 607.59375 1042.800781 609.34375 1044.75 609.34375 C 1045.949219 609.34375 1046.800781 608.640625 1046.902344 607.441406 L 1048.5 607.542969 C 1048.199219 609.390625 1046.949219 610.59375 1044.800781 610.59375 C 1041.851562 610.59375 1041 608.542969 1040.699219 605.640625 C 1040.199219 600.992188 1045.75 599.09375 1048.050781 602.441406 C 1048.25 602.792969 1048.300781 603.140625 1048.402344 603.542969 L 1046.800781 603.691406 C 1046.601562 602.640625 1046 601.941406 1044.75 601.941406 "/>
<path style=" stroke:none;fill-rule:nonzero;fill:rgb(0%,0%,0%);fill-opacity:1;" d="M 1056.101562 610.390625 L 1052.902344 606.042969 L 1051.75 606.992188 L 1051.75 610.390625 L 1050.152344 610.390625 L 1050.152344 597.34375 L 1051.75 597.34375 L 1051.75 605.492188 L 1055.902344 600.890625 L 1057.75 600.890625 L 1053.902344 604.992188 L 1058 610.390625 L 1056.101562 610.390625 "/>
<path style=" stroke:none;fill-rule:nonzero;fill:rgb(0%,0%,0%);fill-opacity:1;" d="M 1057.699219 613.992188 L 1057.699219 612.84375 L 1068.152344 612.84375 L 1068.152344 613.992188 L 1057.699219 613.992188 "/>
<path style=" stroke:none;fill-rule:nonzero;fill:rgb(0%,0%,0%);fill-opacity:1;" d="M 1078.449219 601.941406 C 1075.101562 602.09375 1076.550781 607.191406 1076.25 610.390625 L 1074.699219 610.390625 L 1074.699219 604.34375 C 1074.699219 602.890625 1074.449219 601.84375 1072.949219 601.941406 C 1069.652344 602.140625 1071.050781 607.140625 1070.75 610.390625 L 1069.199219 610.390625 L 1069.152344 600.890625 L 1070.652344 600.890625 C 1070.699219 601.390625 1070.601562 602.09375 1070.75 602.492188 C 1071.25 600.292969 1075.699219 599.992188 1076.101562 602.492188 C 1076.652344 601.441406 1077.449219 600.742188 1079 600.691406 C 1083.25 600.59375 1081.351562 606.640625 1081.75 610.390625 L 1080.199219 610.390625 L 1080.199219 604.34375 C 1080.199219 602.890625 1079.949219 601.890625 1078.449219 601.941406 "/>
<path style=" stroke:none;fill-rule:nonzero;fill:rgb(0%,0%,0%);fill-opacity:1;" d="M 1093.199219 610.390625 L 1091.402344 610.390625 L 1089.402344 602.191406 L 1087.351562 610.390625 L 1085.550781 610.390625 L 1082.851562 600.890625 L 1084.449219 600.890625 L 1086.402344 609.09375 L 1088.550781 600.890625 L 1090.25 600.890625 L 1092.300781 609.09375 L 1094.402344 600.890625 L 1095.949219 600.890625 "/>
<path style="fill:none;stroke-width:2;stroke-linecap:butt;stroke-linejoin:miter;stroke:rgb(0%,0%,0%);stroke-opacity:1;stroke-miterlimit:4;" d="M 1180.000449 288.660156 L 1004.719199 288.660156 " transform="matrix(1,0,0,1,-46.766074,-159)"/>
<path style=" stroke:none;fill-rule:nonzero;fill:rgb(0%,0%,0%);fill-opacity:1;" d="M 972.234375 134.300781 L 957.953125 129.660156 L 972.222656 125.019531 Z M 972.234375 134.300781 "/>
<path style=" stroke:none;fill-rule:nonzero;fill:rgb(0%,0%,0%);fill-opacity:1;" d="M 973.234375 135.671875 L 956.292969 130.171875 L 957.355469 128.800781 L 973.222656 123.640625 Z M 961.195312 129.671875 L 971.222656 132.910156 L 971.222656 126.410156 Z M 961.195312 129.671875 "/>
<path style=" stroke:none;fill-rule:nonzero;fill:rgb(100%,100%,100%);fill-opacity:1;" d="M 999.953125 118.859375 L 1067.855469 118.859375 L 1067.855469 140.460938 L 999.953125 140.460938 Z M 999.953125 118.859375 "/>
<path style=" stroke:none;fill-rule:nonzero;fill:rgb(0%,0%,0%);fill-opacity:1;" d="M 1010.199219 133.253906 L 1008.800781 129.65625 L 1003.152344 129.65625 L 1001.75 133.253906 L 1000 133.253906 L 1005.050781 120.855469 L 1006.949219 120.855469 L 1011.902344 133.253906 Z M 1008.300781 128.304688 L 1005.949219 122.15625 C 1005.351562 124.40625 1004.402344 126.253906 1003.652344 128.304688 L 1008.300781 128.304688 "/>
<path style=" stroke:none;fill-rule:nonzero;fill:rgb(0%,0%,0%);fill-opacity:1;" d="M 1016.75 124.804688 C 1014.75 124.804688 1014.351562 126.453125 1014.351562 128.453125 C 1014.351562 130.453125 1014.800781 132.203125 1016.75 132.203125 C 1017.949219 132.203125 1018.800781 131.503906 1018.902344 130.304688 L 1020.5 130.40625 C 1020.199219 132.253906 1018.949219 133.453125 1016.800781 133.453125 C 1013.851562 133.453125 1013 131.40625 1012.699219 128.503906 C 1012.199219 123.855469 1017.75 121.953125 1020.050781 125.304688 C 1020.25 125.65625 1020.300781 126.003906 1020.402344 126.40625 L 1018.800781 126.554688 C 1018.601562 125.503906 1018 124.804688 1016.75 124.804688 "/>
<path style=" stroke:none;fill-rule:nonzero;fill:rgb(0%,0%,0%);fill-opacity:1;" d="M 1028.101562 133.253906 L 1024.902344 128.90625 L 1023.75 129.855469 L 1023.75 133.253906 L 1022.152344 133.253906 L 1022.152344 120.203125 L 1023.75 120.203125 L 1023.75 128.355469 L 1027.902344 123.753906 L 1029.75 123.753906 L 1025.902344 127.855469 L 1030 133.253906 L 1028.101562 133.253906 "/>
<path style=" stroke:none;fill-rule:nonzero;fill:rgb(0%,0%,0%);fill-opacity:1;" d="M 1029.699219 136.855469 L 1029.699219 135.703125 L 1040.152344 135.703125 L 1040.152344 136.855469 L 1029.699219 136.855469 "/>
<path style=" stroke:none;fill-rule:nonzero;fill:rgb(0%,0%,0%);fill-opacity:1;" d="M 1050.449219 124.804688 C 1047.101562 124.953125 1048.550781 130.054688 1048.25 133.253906 L 1046.699219 133.253906 L 1046.699219 127.203125 C 1046.699219 125.753906 1046.449219 124.703125 1044.949219 124.804688 C 1041.652344 125.003906 1043.050781 130.003906 1042.75 133.253906 L 1041.199219 133.253906 L 1041.152344 123.753906 L 1042.652344 123.753906 C 1042.699219 124.253906 1042.601562 124.953125 1042.75 125.355469 C 1043.25 123.15625 1047.699219 122.855469 1048.101562 125.355469 C 1048.652344 124.304688 1049.449219 123.605469 1051 123.554688 C 1055.25 123.453125 1053.351562 129.503906 1053.75 133.253906 L 1052.199219 133.253906 L 1052.199219 127.203125 C 1052.199219 125.753906 1051.949219 124.753906 1050.449219 124.804688 "/>
<path style=" stroke:none;fill-rule:nonzero;fill:rgb(0%,0%,0%);fill-opacity:1;" d="M 1065.199219 133.253906 L 1063.402344 133.253906 L 1061.402344 125.054688 L 1059.351562 133.253906 L 1057.550781 133.253906 L 1054.851562 123.753906 L 1056.449219 123.753906 L 1058.402344 131.953125 L 1060.550781 123.753906 L 1062.25 123.753906 L 1064.300781 131.953125 L 1066.402344 123.753906 L 1067.949219 123.753906 "/>
<path style="fill:none;stroke-width:2;stroke-linecap:butt;stroke-linejoin:miter;stroke:rgb(0%,0%,0%);stroke-opacity:1;stroke-miterlimit:4;" d="M 1009.258262 198.039062 L 1180.000449 198.039062 " transform="matrix(1,0,0,1,-46.766074,-159)"/>
<path style=" stroke:none;fill-rule:nonzero;fill:rgb(0%,0%,0%);fill-opacity:1;" d="M 962.492188 40.039062 L 961.925781 40.039062 L 960.722656 38.039062 L 962.484375 38.039062 Z M 962.492188 40.039062 "/>
<path style="fill-rule:nonzero;fill:rgb(0%,0%,0%);fill-opacity:1;stroke-width:2;stroke-linecap:butt;stroke-linejoin:miter;stroke:rgb(0%,0%,0%);stroke-opacity:1;stroke-miterlimit:4;" d="M 1180.000449 198.039062 L 1165.730918 202.679688 L 1165.730918 193.410156 Z M 1180.000449 198.039062 " transform="matrix(1,0,0,1,-46.766074,-159)"/>
<path style=" stroke:none;fill-rule:nonzero;fill:rgb(100%,100%,100%);fill-opacity:1;" d="M 988.933594 28.238281 L 1106.785156 28.238281 L 1106.785156 49.839844 L 988.933594 49.839844 Z M 988.933594 28.238281 "/>
<path style=" stroke:none;fill-rule:nonzero;fill:rgb(0%,0%,0%);fill-opacity:1;" d="M 998.1875 33.191406 C 997.9375 30.792969 992.035156 30.492188 991.988281 33.292969 C 992.6875 37.042969 999.886719 33.992188 1000.136719 39.242188 C 1000.285156 43.140625 994.085938 43.59375 991.386719 41.992188 C 990.535156 41.492188 989.988281 40.691406 989.738281 39.691406 L 991.386719 39.34375 C 991.636719 42.140625 998.4375 42.492188 998.4375 39.292969 C 998.4375 35.390625 990.6875 38.59375 990.335938 33.390625 C 990.085938 29.292969 997.585938 29.191406 999.285156 31.691406 C 999.535156 32.042969 999.6875 32.492188 999.835938 32.941406 "/>
<path style=" stroke:none;fill-rule:nonzero;fill:rgb(0%,0%,0%);fill-opacity:1;" d="M 1006.238281 34.191406 C 1002.636719 34.191406 1004.035156 39.292969 1003.785156 42.640625 L 1002.1875 42.640625 L 1002.1875 29.59375 L 1003.785156 29.59375 L 1003.738281 34.742188 C 1004.335938 33.691406 1005.136719 32.941406 1006.785156 32.941406 C 1011.238281 32.941406 1009.4375 38.742188 1009.785156 42.640625 L 1008.1875 42.640625 L 1008.1875 36.59375 C 1008.285156 34.992188 1007.785156 34.140625 1006.238281 34.191406 "/>
<path style=" stroke:none;fill-rule:nonzero;fill:rgb(0%,0%,0%);fill-opacity:1;" d="M 1015.136719 42.84375 C 1010.6875 43.042969 1012.4375 37.042969 1012.085938 33.140625 L 1013.6875 33.140625 L 1013.6875 39.140625 C 1013.6875 40.691406 1014.035156 41.640625 1015.636719 41.59375 C 1019.238281 41.492188 1017.886719 36.542969 1018.136719 33.140625 L 1019.6875 33.140625 L 1019.738281 42.640625 L 1018.238281 42.640625 C 1018.1875 42.140625 1018.285156 41.390625 1018.136719 40.992188 C 1017.585938 42.09375 1016.738281 42.792969 1015.136719 42.84375 "/>
<path style=" stroke:none;fill-rule:nonzero;fill:rgb(0%,0%,0%);fill-opacity:1;" d="M 1023.886719 40.292969 C 1023.785156 41.492188 1024.785156 41.742188 1025.785156 41.390625 L 1025.785156 42.59375 C 1024.136719 43.09375 1022.285156 42.84375 1022.285156 40.640625 L 1022.285156 34.292969 L 1021.1875 34.292969 L 1021.1875 33.140625 L 1022.386719 33.140625 L 1022.835938 30.992188 L 1023.886719 30.992188 L 1023.886719 33.140625 L 1025.636719 33.140625 L 1025.636719 34.292969 L 1023.886719 34.292969 L 1023.886719 40.292969 "/>
<path style=" stroke:none;fill-rule:nonzero;fill:rgb(0%,0%,0%);fill-opacity:1;" d="M 1030.1875 32.941406 C 1031.738281 32.941406 1032.585938 33.59375 1033.1875 34.59375 L 1033.136719 29.59375 L 1034.738281 29.59375 L 1034.785156 42.640625 L 1033.285156 42.640625 C 1033.1875 42.140625 1033.285156 41.492188 1033.136719 41.09375 C 1032.636719 42.242188 1031.738281 42.84375 1030.1875 42.84375 C 1027.535156 42.84375 1026.738281 40.890625 1026.6875 37.941406 C 1026.6875 34.640625 1027.835938 32.941406 1030.1875 32.941406 Z M 1030.636719 34.140625 C 1028.636719 34.140625 1028.335938 35.84375 1028.335938 37.890625 C 1028.335938 39.890625 1028.636719 41.59375 1030.585938 41.59375 C 1032.6875 41.59375 1033.136719 39.992188 1033.136719 37.792969 C 1033.136719 35.691406 1032.6875 34.09375 1030.636719 34.140625 "/>
<path style=" stroke:none;fill-rule:nonzero;fill:rgb(0%,0%,0%);fill-opacity:1;" d="M 1040.9375 32.941406 C 1044.035156 32.890625 1045.1875 34.792969 1045.1875 37.890625 C 1045.238281 41.042969 1043.835938 42.84375 1040.886719 42.84375 C 1037.9375 42.84375 1036.738281 40.890625 1036.6875 37.890625 C 1036.6875 34.59375 1038.085938 32.941406 1040.9375 32.941406 Z M 1040.886719 41.640625 C 1043.085938 41.691406 1043.535156 40.09375 1043.535156 37.890625 C 1043.535156 35.742188 1043.136719 34.140625 1040.988281 34.140625 C 1038.835938 34.140625 1038.335938 35.742188 1038.335938 37.890625 C 1038.335938 40.042969 1038.835938 41.59375 1040.886719 41.640625 "/>
<path style=" stroke:none;fill-rule:nonzero;fill:rgb(0%,0%,0%);fill-opacity:1;" d="M 1056.238281 42.640625 L 1054.4375 42.640625 L 1052.4375 34.441406 L 1050.386719 42.640625 L 1048.585938 42.640625 L 1045.886719 33.140625 L 1047.488281 33.140625 L 1049.4375 41.34375 L 1051.585938 33.140625 L 1053.285156 33.140625 L 1055.335938 41.34375 L 1057.4375 33.140625 L 1058.988281 33.140625 "/>
<path style=" stroke:none;fill-rule:nonzero;fill:rgb(0%,0%,0%);fill-opacity:1;" d="M 1064.738281 32.941406 C 1069.1875 32.742188 1067.386719 38.742188 1067.738281 42.640625 L 1066.136719 42.640625 L 1066.136719 36.59375 C 1066.136719 35.042969 1065.738281 34.140625 1064.1875 34.191406 C 1060.585938 34.292969 1061.988281 39.292969 1061.738281 42.640625 L 1060.136719 42.640625 L 1060.085938 33.140625 L 1061.585938 33.140625 C 1061.636719 33.640625 1061.535156 34.34375 1061.6875 34.742188 C 1062.238281 33.640625 1063.136719 32.992188 1064.738281 32.941406 "/>
<path style=" stroke:none;fill-rule:nonzero;fill:rgb(0%,0%,0%);fill-opacity:1;" d="M 1068.636719 46.242188 L 1068.636719 45.09375 L 1079.085938 45.09375 L 1079.085938 46.242188 L 1068.636719 46.242188 "/>
<path style=" stroke:none;fill-rule:nonzero;fill:rgb(0%,0%,0%);fill-opacity:1;" d="M 1089.386719 34.191406 C 1086.035156 34.34375 1087.488281 39.441406 1087.1875 42.640625 L 1085.636719 42.640625 L 1085.636719 36.59375 C 1085.636719 35.140625 1085.386719 34.09375 1083.886719 34.191406 C 1080.585938 34.390625 1081.988281 39.390625 1081.6875 42.640625 L 1080.136719 42.640625 L 1080.085938 33.140625 L 1081.585938 33.140625 C 1081.636719 33.640625 1081.535156 34.34375 1081.6875 34.742188 C 1082.1875 32.542969 1086.636719 32.242188 1087.035156 34.742188 C 1087.585938 33.691406 1088.386719 32.992188 1089.9375 32.941406 C 1094.1875 32.84375 1092.285156 38.890625 1092.6875 42.640625 L 1091.136719 42.640625 L 1091.136719 36.59375 C 1091.136719 35.140625 1090.886719 34.140625 1089.386719 34.191406 "/>
<path style=" stroke:none;fill-rule:nonzero;fill:rgb(0%,0%,0%);fill-opacity:1;" d="M 1104.136719 42.640625 L 1102.335938 42.640625 L 1100.335938 34.441406 L 1098.285156 42.640625 L 1096.488281 42.640625 L 1093.785156 33.140625 L 1095.386719 33.140625 L 1097.335938 41.34375 L 1099.488281 33.140625 L 1101.1875 33.140625 L 1103.238281 41.34375 L 1105.335938 33.140625 L 1106.886719 33.140625 "/>
<path style=" stroke:none;fill-rule:nonzero;fill:rgb(0%,0%,0%);fill-opacity:1;" d="M 249.285156 363.800781 L 249.382812 352.898438 C 248.234375 356.699219 246.683594 360.148438 245.382812 363.800781 L 244.234375 363.800781 L 240.183594 352.898438 L 240.234375 363.800781 L 238.785156 363.800781 L 238.785156 351.398438 L 240.984375 351.398438 L 244.832031 361.949219 C 245.882812 358.199219 247.382812 354.949219 248.632812 351.398438 L 250.785156 351.398438 L 250.785156 363.800781 L 249.285156 363.800781 "/>
<path style=" stroke:none;fill-rule:nonzero;fill:rgb(0%,0%,0%);fill-opacity:1;" d="M 265.535156 363.800781 L 263.535156 363.800781 L 260.734375 353.300781 L 257.984375 363.800781 L 255.984375 363.800781 L 252.332031 351.398438 L 254.082031 351.398438 L 257.035156 362.300781 L 257.785156 359.101562 L 259.933594 351.398438 L 261.535156 351.398438 L 264.484375 362.300781 L 267.433594 351.398438 L 269.183594 351.398438 "/>
<path style=" stroke:none;fill-rule:nonzero;fill:rgb(0%,0%,0%);fill-opacity:1;" d="M 251.433594 385.398438 C 251.582031 380.5 253.832031 377.449219 255.832031 374.351562 L 249.132812 374.351562 L 249.132812 373 L 257.332031 373 L 257.332031 374.300781 C 255.382812 377.550781 253.132812 380.351562 253.082031 385.398438 L 251.433594 385.398438 "/>
<path style="fill:none;stroke-width:2;stroke-linecap:butt;stroke-linejoin:miter;stroke:rgb(0%,0%,0%);stroke-opacity:1;stroke-miterlimit:4;" d="M 220.000449 480 L 381.000449 480 " transform="matrix(1,0,0,1,-46.766074,-159)"/>
<path style=" stroke:none;fill-rule:nonzero;fill:rgb(0%,0%,0%);fill-opacity:1;" d="M 173.234375 322 L 170.234375 322 L 170.234375 320 L 173.234375 320 Z M 337.234375 322 L 334.234375 322 L 334.234375 320 L 337.234375 320 Z M 337.234375 322 "/>
<path style="fill:none;stroke-width:2;stroke-linecap:butt;stroke-linejoin:miter;stroke:rgb(0%,0%,0%);stroke-opacity:1;stroke-miterlimit:4;" d="M 860.000449 720 L 1020.000449 720 " transform="matrix(1,0,0,1,-46.766074,-159)"/>
<path style=" stroke:none;fill-rule:nonzero;fill:rgb(0%,0%,0%);fill-opacity:1;" d="M 813.234375 562 L 810.234375 562 L 810.234375 560 L 813.234375 560 Z M 976.234375 562 L 973.234375 562 L 973.234375 560 L 976.234375 560 Z M 976.234375 562 "/>
<path style="fill:none;stroke-width:2;stroke-linecap:butt;stroke-linejoin:miter;stroke:rgb(0%,0%,0%);stroke-opacity:1;stroke-miterlimit:4;" d="M 860.000449 240 L 1020.000449 240 " transform="matrix(1,0,0,1,-46.766074,-159)"/>
<path style=" stroke:none;fill-rule:nonzero;fill:rgb(0%,0%,0%);fill-opacity:1;" d="M 813.234375 82 L 810.234375 82 L 810.234375 80 L 813.234375 80 Z M 976.234375 82 L 973.234375 82 L 973.234375 80 L 976.234375 80 Z M 976.234375 82 "/>
<path style=" stroke:none;fill-rule:nonzero;fill:rgb(0%,0%,0%);fill-opacity:1;" d="M 889.285156 603.800781 L 889.382812 592.898438 C 888.234375 596.699219 886.683594 600.148438 885.382812 603.800781 L 884.234375 603.800781 L 880.183594 592.898438 L 880.234375 603.800781 L 878.785156 603.800781 L 878.785156 591.398438 L 880.984375 591.398438 L 884.832031 601.949219 C 885.882812 598.199219 887.382812 594.949219 888.632812 591.398438 L 890.785156 591.398438 L 890.785156 603.800781 L 889.285156 603.800781 "/>
<path style=" stroke:none;fill-rule:nonzero;fill:rgb(0%,0%,0%);fill-opacity:1;" d="M 905.535156 603.800781 L 903.535156 603.800781 L 900.734375 593.300781 L 897.984375 603.800781 L 895.984375 603.800781 L 892.332031 591.398438 L 894.082031 591.398438 L 897.035156 602.300781 L 897.785156 599.101562 L 899.933594 591.398438 L 901.535156 591.398438 L 904.484375 602.300781 L 907.433594 591.398438 L 909.183594 591.398438 "/>
<path style=" stroke:none;fill-rule:nonzero;fill:rgb(0%,0%,0%);fill-opacity:1;" d="M 890.933594 618.300781 C 893.332031 616.550781 897.785156 617.898438 897.484375 621.351562 C 898.035156 626.300781 889.785156 627.050781 888.933594 622.648438 L 890.535156 622.449219 C 890.882812 623.601562 891.632812 624.300781 893.132812 624.300781 C 894.882812 624.25 895.683594 623.199219 895.832031 621.398438 C 896.035156 618.648438 892.183594 618.148438 890.882812 619.699219 L 889.332031 619.699219 L 889.734375 613 L 896.785156 613 L 896.785156 614.351562 L 891.183594 614.351562 "/>
<path style=" stroke:none;fill-rule:nonzero;fill:rgb(0%,0%,0%);fill-opacity:1;" d="M 889.285156 123.800781 L 889.382812 112.898438 C 888.234375 116.699219 886.683594 120.148438 885.382812 123.800781 L 884.234375 123.800781 L 880.183594 112.898438 L 880.234375 123.800781 L 878.785156 123.800781 L 878.785156 111.398438 L 880.984375 111.398438 L 884.832031 121.949219 C 885.882812 118.199219 887.382812 114.949219 888.632812 111.398438 L 890.785156 111.398438 L 890.785156 123.800781 L 889.285156 123.800781 "/>
<path style=" stroke:none;fill-rule:nonzero;fill:rgb(0%,0%,0%);fill-opacity:1;" d="M 905.535156 123.800781 L 903.535156 123.800781 L 900.734375 113.300781 L 897.984375 123.800781 L 895.984375 123.800781 L 892.332031 111.398438 L 894.082031 111.398438 L 897.035156 122.300781 L 897.785156 119.101562 L 899.933594 111.398438 L 901.535156 111.398438 L 904.484375 122.300781 L 907.433594 111.398438 L 909.183594 111.398438 "/>
<path style=" stroke:none;fill-rule:nonzero;fill:rgb(0%,0%,0%);fill-opacity:1;" d="M 890.933594 138.300781 C 893.332031 136.550781 897.785156 137.898438 897.484375 141.351562 C 898.035156 146.300781 889.785156 147.050781 888.933594 142.648438 L 890.535156 142.449219 C 890.882812 143.601562 891.632812 144.300781 893.132812 144.300781 C 894.882812 144.25 895.683594 143.199219 895.832031 141.398438 C 896.035156 138.648438 892.183594 138.148438 890.882812 139.699219 L 889.332031 139.699219 L 889.734375 133 L 896.785156 133 L 896.785156 134.351562 L 891.183594 134.351562 "/>
<path style=" stroke:none;fill-rule:nonzero;fill:rgb(0%,0%,0%);fill-opacity:1;" d="M 1175.984375 81.800781 L 1175.984375 84.601562 L 1174.484375 84.601562 L 1174.484375 81.800781 L 1168.632812 81.800781 L 1168.632812 80.550781 L 1174.332031 72.199219 L 1175.984375 72.199219 L 1175.984375 80.550781 L 1177.734375 80.550781 L 1177.734375 81.800781 Z M 1174.484375 74 C 1173.132812 76.300781 1171.582031 78.5 1170.082031 80.550781 L 1174.484375 80.550781 L 1174.484375 74 "/>
<path style=" stroke:none;fill-rule:nonzero;fill:rgb(0%,0%,0%);fill-opacity:1;" d="M 1175.984375 571.800781 L 1175.984375 574.601562 L 1174.484375 574.601562 L 1174.484375 571.800781 L 1168.632812 571.800781 L 1168.632812 570.550781 L 1174.332031 562.199219 L 1175.984375 562.199219 L 1175.984375 570.550781 L 1177.734375 570.550781 L 1177.734375 571.800781 Z M 1174.484375 564 C 1173.132812 566.300781 1171.582031 568.5 1170.082031 570.550781 L 1174.484375 570.550781 L 1174.484375 564 "/>
<path style=" stroke:none;fill-rule:nonzero;fill:rgb(0%,0%,0%);fill-opacity:1;" d="M 885.484375 523.898438 L 884.082031 520.300781 L 878.433594 520.300781 L 877.035156 523.898438 L 875.285156 523.898438 L 880.332031 511.5 L 882.234375 511.5 L 887.183594 523.898438 Z M 883.582031 518.949219 L 881.234375 512.800781 C 880.632812 515.050781 879.683594 516.898438 878.933594 518.949219 L 883.582031 518.949219 "/>
<path style=" stroke:none;fill-rule:nonzero;fill:rgb(0%,0%,0%);fill-opacity:1;" d="M 888.734375 511.5 C 893.082031 511.550781 898.285156 510.75 898.285156 515.25 C 898.285156 519.148438 894.433594 519.25 890.382812 519.050781 L 890.382812 523.898438 L 888.734375 523.898438 Z M 890.382812 517.75 C 893.234375 517.75 896.582031 518.300781 896.582031 515.25 C 896.582031 512.300781 893.183594 512.898438 890.382812 512.851562 L 890.382812 517.75 "/>
<path style=" stroke:none;fill-rule:nonzero;fill:rgb(0%,0%,0%);fill-opacity:1;" d="M 900.734375 511.5 C 905.082031 511.550781 910.285156 510.75 910.285156 515.25 C 910.285156 519.148438 906.433594 519.25 902.382812 519.050781 L 902.382812 523.898438 L 900.734375 523.898438 Z M 902.382812 517.75 C 905.234375 517.75 908.582031 518.300781 908.582031 515.25 C 908.582031 512.300781 905.183594 512.898438 902.382812 512.851562 L 902.382812 517.75 "/>
<path style=" stroke:none;fill-rule:nonzero;fill:rgb(0%,0%,0%);fill-opacity:1;" d="M 894.535156 539.148438 C 896.183594 539.449219 897.433594 540.148438 897.433594 542.101562 C 897.433594 546.5 890.484375 546.699219 889.234375 543.550781 C 889.082031 543.148438 888.984375 542.75 888.933594 542.300781 L 890.535156 542.148438 C 890.832031 543.5 891.582031 544.351562 893.234375 544.351562 C 894.832031 544.351562 895.832031 543.601562 895.832031 542.050781 C 895.832031 540.148438 894.035156 539.75 891.882812 539.898438 L 891.882812 538.5 C 893.832031 538.550781 895.484375 538.300781 895.484375 536.398438 C 895.484375 535.050781 894.632812 534.25 893.183594 534.25 C 891.785156 534.25 890.832031 535 890.734375 536.300781 L 889.132812 536.148438 C 889.433594 534.050781 890.882812 533 893.183594 532.949219 C 895.582031 532.898438 897.132812 534 897.132812 536.199219 C 897.132812 538 896.082031 538.800781 894.535156 539.148438 "/>
<path style=" stroke:none;fill-rule:nonzero;fill:rgb(0%,0%,0%);fill-opacity:1;" d="M 885.660156 43.800781 L 884.257812 40.199219 L 878.609375 40.199219 L 877.207031 43.800781 L 875.457031 43.800781 L 880.507812 31.398438 L 882.410156 31.398438 L 887.359375 43.800781 Z M 883.757812 38.851562 L 881.410156 32.699219 C 880.808594 34.949219 879.859375 36.800781 879.109375 38.851562 L 883.757812 38.851562 "/>
<path style=" stroke:none;fill-rule:nonzero;fill:rgb(0%,0%,0%);fill-opacity:1;" d="M 888.910156 31.398438 C 893.257812 31.449219 898.457031 30.648438 898.457031 35.148438 C 898.457031 39.050781 894.609375 39.148438 890.558594 38.949219 L 890.558594 43.800781 L 888.910156 43.800781 Z M 890.558594 37.648438 C 893.410156 37.648438 896.757812 38.199219 896.757812 35.148438 C 896.757812 32.199219 893.359375 32.800781 890.558594 32.75 L 890.558594 37.648438 "/>
<path style=" stroke:none;fill-rule:nonzero;fill:rgb(0%,0%,0%);fill-opacity:1;" d="M 900.910156 31.398438 C 905.257812 31.449219 910.457031 30.648438 910.457031 35.148438 C 910.457031 39.050781 906.609375 39.148438 902.558594 38.949219 L 902.558594 43.800781 L 900.910156 43.800781 Z M 902.558594 37.648438 C 905.410156 37.648438 908.757812 38.199219 908.757812 35.148438 C 908.757812 32.199219 905.359375 32.800781 902.558594 32.75 L 902.558594 37.648438 "/>
<path style=" stroke:none;fill-rule:nonzero;fill:rgb(0%,0%,0%);fill-opacity:1;" d="M 894.535156 59.050781 C 896.183594 59.351562 897.433594 60.050781 897.433594 62 C 897.433594 66.398438 890.484375 66.601562 889.234375 63.449219 C 889.082031 63.050781 888.984375 62.648438 888.933594 62.199219 L 890.535156 62.050781 C 890.832031 63.398438 891.582031 64.25 893.234375 64.25 C 894.832031 64.25 895.832031 63.5 895.832031 61.949219 C 895.832031 60.050781 894.035156 59.648438 891.882812 59.800781 L 891.882812 58.398438 C 893.832031 58.449219 895.484375 58.199219 895.484375 56.300781 C 895.484375 54.949219 894.632812 54.148438 893.183594 54.148438 C 891.785156 54.148438 890.832031 54.898438 890.734375 56.199219 L 889.132812 56.050781 C 889.433594 53.949219 890.882812 52.898438 893.183594 52.851562 C 895.582031 52.800781 897.132812 53.898438 897.132812 56.101562 C 897.132812 57.898438 896.082031 58.699219 894.535156 59.050781 "/>
<path style="fill:none;stroke-width:2;stroke-linecap:butt;stroke-linejoin:miter;stroke:rgb(0%,0%,0%);stroke-opacity:1;stroke-miterlimit:4;" d="M 864.961387 270.539062 L 616.500449 270.539062 L 616.500449 436.078125 L 368.070762 436.078125 " transform="matrix(1,0,0,1,-46.766074,-159)"/>
<path style=" stroke:none;fill-rule:nonzero;fill:rgb(0%,0%,0%);fill-opacity:1;" d="M 819.015625 110.898438 L 819.714844 112.539062 L 818.195312 112.539062 L 818.195312 110.539062 L 818.875 110.539062 Z M 335.5625 281.71875 L 321.292969 277.078125 L 335.5625 272.441406 Z M 335.5625 281.71875 "/>
<path style=" stroke:none;fill-rule:nonzero;fill:rgb(0%,0%,0%);fill-opacity:1;" d="M 336.5625 283.101562 L 320.664062 277.921875 L 320.605469 277.839844 L 319.703125 276.539062 L 336.5625 271.070312 Z M 324.535156 277.078125 L 334.5625 280.339844 L 334.5625 273.820312 Z M 324.535156 277.078125 "/>
<path style=" stroke:none;fill-rule:nonzero;fill:rgb(100%,100%,100%);fill-opacity:1;" d="M 523.292969 219.460938 L 616.195312 219.460938 L 616.195312 241.058594 L 523.292969 241.058594 Z M 523.292969 219.460938 "/>
<path style=" stroke:none;fill-rule:nonzero;fill:rgb(0%,0%,0%);fill-opacity:1;" d="M 533.546875 233.859375 L 532.144531 230.257812 L 526.496094 230.257812 L 525.097656 233.859375 L 523.347656 233.859375 L 528.394531 221.460938 L 530.296875 221.460938 L 535.246094 233.859375 Z M 531.644531 228.910156 L 529.296875 222.757812 C 528.695312 225.007812 527.746094 226.859375 526.996094 228.910156 L 531.644531 228.910156 "/>
<path style=" stroke:none;fill-rule:nonzero;fill:rgb(0%,0%,0%);fill-opacity:1;" d="M 540.097656 225.410156 C 538.097656 225.410156 537.695312 227.058594 537.695312 229.058594 C 537.695312 231.058594 538.144531 232.808594 540.097656 232.808594 C 541.296875 232.808594 542.144531 232.109375 542.246094 230.910156 L 543.847656 231.007812 C 543.546875 232.859375 542.296875 234.058594 540.144531 234.058594 C 537.195312 234.058594 536.347656 232.007812 536.046875 229.109375 C 535.546875 224.460938 541.097656 222.558594 543.394531 225.910156 C 543.597656 226.257812 543.644531 226.609375 543.746094 227.007812 L 542.144531 227.160156 C 541.945312 226.109375 541.347656 225.410156 540.097656 225.410156 "/>
<path style=" stroke:none;fill-rule:nonzero;fill:rgb(0%,0%,0%);fill-opacity:1;" d="M 551.445312 233.859375 L 548.246094 229.507812 L 547.097656 230.460938 L 547.097656 233.859375 L 545.496094 233.859375 L 545.496094 220.808594 L 547.097656 220.808594 L 547.097656 228.960938 L 551.246094 224.359375 L 553.097656 224.359375 L 549.246094 228.460938 L 553.347656 233.859375 L 551.445312 233.859375 "/>
<path style=" stroke:none;fill-rule:nonzero;fill:rgb(0%,0%,0%);fill-opacity:1;" d="M 553.046875 237.460938 L 553.046875 236.308594 L 563.496094 236.308594 L 563.496094 237.460938 L 553.046875 237.460938 "/>
<path style=" stroke:none;fill-rule:nonzero;fill:rgb(0%,0%,0%);fill-opacity:1;" d="M 573.796875 225.410156 C 570.445312 225.558594 571.894531 230.660156 571.597656 233.859375 L 570.046875 233.859375 L 570.046875 227.808594 C 570.046875 226.359375 569.796875 225.308594 568.296875 225.410156 C 564.996094 225.609375 566.394531 230.609375 566.097656 233.859375 L 564.546875 233.859375 L 564.496094 224.359375 L 565.996094 224.359375 C 566.046875 224.859375 565.945312 225.558594 566.097656 225.960938 C 566.597656 223.757812 571.046875 223.460938 571.445312 225.960938 C 571.996094 224.910156 572.796875 224.210938 574.347656 224.160156 C 578.597656 224.058594 576.695312 230.109375 577.097656 233.859375 L 575.546875 233.859375 L 575.546875 227.808594 C 575.546875 226.359375 575.296875 225.359375 573.796875 225.410156 "/>
<path style=" stroke:none;fill-rule:nonzero;fill:rgb(0%,0%,0%);fill-opacity:1;" d="M 588.546875 233.859375 L 586.746094 233.859375 L 584.746094 225.660156 L 582.695312 233.859375 L 580.894531 233.859375 L 578.195312 224.359375 L 579.796875 224.359375 L 581.746094 232.558594 L 583.894531 224.359375 L 585.597656 224.359375 L 587.644531 232.558594 L 589.746094 224.359375 L 591.296875 224.359375 "/>
<path style=" stroke:none;fill-rule:nonzero;fill:rgb(0%,0%,0%);fill-opacity:1;" d="M 611.695312 225.859375 C 614.097656 225.910156 615.394531 227.359375 615.394531 229.808594 C 615.394531 232.460938 613.996094 234.058594 611.394531 234.058594 C 608.144531 234.058594 607.246094 231.308594 607.097656 227.960938 C 606.847656 223.460938 609.597656 219.859375 613.746094 221.859375 C 614.445312 222.210938 614.847656 222.910156 615.097656 223.808594 L 613.546875 224.109375 C 613.296875 222.109375 610.195312 222.210938 609.445312 223.808594 C 608.996094 224.757812 608.695312 226.007812 608.695312 227.507812 C 609.246094 226.507812 610.195312 225.808594 611.695312 225.859375 Z M 611.347656 232.757812 C 613.046875 232.757812 613.796875 231.609375 613.796875 229.859375 C 613.796875 228.109375 612.996094 227.058594 611.296875 227.058594 C 609.847656 227.058594 608.796875 227.859375 608.847656 229.507812 C 608.894531 231.308594 609.597656 232.757812 611.347656 232.757812 "/>
<path style="fill:none;stroke-width:2;stroke-linecap:butt;stroke-linejoin:miter;stroke:rgb(0%,0%,0%);stroke-opacity:1;stroke-miterlimit:4;" d="M 872.820762 674.800781 L 619.781699 674.800781 L 619.781699 525.839844 L 366.750449 525.839844 " transform="matrix(1,0,0,1,-46.766074,-159)"/>
<path style=" stroke:none;fill-rule:nonzero;fill:rgb(0%,0%,0%);fill-opacity:1;" d="M 826.582031 516.800781 L 826.054688 516.800781 L 826.054688 514.800781 L 827.933594 514.800781 Z M 334.234375 371.46875 L 319.984375 366.839844 L 334.234375 362.199219 Z M 334.234375 371.46875 "/>
<path style=" stroke:none;fill-rule:nonzero;fill:rgb(0%,0%,0%);fill-opacity:1;" d="M 335.234375 372.851562 L 318.414062 367.378906 L 319.34375 365.980469 L 335.242188 360.828125 Z M 323.214844 366.851562 L 333.234375 370.101562 L 333.234375 363.578125 Z M 323.214844 366.851562 "/>
<path style=" stroke:none;fill-rule:nonzero;fill:rgb(100%,100%,100%);fill-opacity:1;" d="M 526.5625 386.25 L 619.464844 386.25 L 619.464844 407.851562 L 526.5625 407.851562 Z M 526.5625 386.25 "/>
<path style=" stroke:none;fill-rule:nonzero;fill:rgb(0%,0%,0%);fill-opacity:1;" d="M 536.816406 400.65625 L 535.417969 397.054688 L 529.765625 397.054688 L 528.367188 400.65625 L 526.617188 400.65625 L 531.667969 388.253906 L 533.566406 388.253906 L 538.515625 400.65625 Z M 534.917969 395.703125 L 532.566406 389.554688 C 531.96875 391.804688 531.015625 393.65625 530.265625 395.703125 L 534.917969 395.703125 "/>
<path style=" stroke:none;fill-rule:nonzero;fill:rgb(0%,0%,0%);fill-opacity:1;" d="M 543.367188 392.203125 C 541.367188 392.203125 540.96875 393.855469 540.96875 395.855469 C 540.96875 397.855469 541.417969 399.605469 543.367188 399.605469 C 544.566406 399.605469 545.417969 398.90625 545.515625 397.703125 L 547.117188 397.804688 C 546.816406 399.65625 545.566406 400.855469 543.417969 400.855469 C 540.46875 400.855469 539.617188 398.804688 539.316406 395.90625 C 538.816406 391.253906 544.367188 389.355469 546.667969 392.703125 C 546.867188 393.054688 546.917969 393.40625 547.015625 393.804688 L 545.417969 393.953125 C 545.21875 392.90625 544.617188 392.203125 543.367188 392.203125 "/>
<path style=" stroke:none;fill-rule:nonzero;fill:rgb(0%,0%,0%);fill-opacity:1;" d="M 554.71875 400.65625 L 551.515625 396.304688 L 550.367188 397.253906 L 550.367188 400.65625 L 548.765625 400.65625 L 548.765625 387.605469 L 550.367188 387.605469 L 550.367188 395.753906 L 554.515625 391.15625 L 556.367188 391.15625 L 552.515625 395.253906 L 556.617188 400.65625 L 554.71875 400.65625 "/>
<path style=" stroke:none;fill-rule:nonzero;fill:rgb(0%,0%,0%);fill-opacity:1;" d="M 556.316406 404.253906 L 556.316406 403.105469 L 566.765625 403.105469 L 566.765625 404.253906 L 556.316406 404.253906 "/>
<path style=" stroke:none;fill-rule:nonzero;fill:rgb(0%,0%,0%);fill-opacity:1;" d="M 577.066406 392.203125 C 573.71875 392.355469 575.167969 397.453125 574.867188 400.65625 L 573.316406 400.65625 L 573.316406 394.605469 C 573.316406 393.15625 573.066406 392.105469 571.566406 392.203125 C 568.265625 392.40625 569.667969 397.40625 569.367188 400.65625 L 567.816406 400.65625 L 567.765625 391.15625 L 569.265625 391.15625 C 569.316406 391.65625 569.21875 392.355469 569.367188 392.753906 C 569.867188 390.554688 574.316406 390.253906 574.71875 392.753906 C 575.265625 391.703125 576.066406 391.003906 577.617188 390.953125 C 581.867188 390.855469 579.96875 396.90625 580.367188 400.65625 L 578.816406 400.65625 L 578.816406 394.605469 C 578.816406 393.15625 578.566406 392.15625 577.066406 392.203125 "/>
<path style=" stroke:none;fill-rule:nonzero;fill:rgb(0%,0%,0%);fill-opacity:1;" d="M 591.816406 400.65625 L 590.015625 400.65625 L 588.015625 392.453125 L 585.96875 400.65625 L 584.167969 400.65625 L 581.46875 391.15625 L 583.066406 391.15625 L 585.015625 399.355469 L 587.167969 391.15625 L 588.867188 391.15625 L 590.917969 399.355469 L 593.015625 391.15625 L 594.566406 391.15625 "/>
<path style=" stroke:none;fill-rule:nonzero;fill:rgb(0%,0%,0%);fill-opacity:1;" d="M 614.96875 392.65625 C 617.367188 392.703125 618.667969 394.15625 618.667969 396.605469 C 618.667969 399.253906 617.265625 400.855469 614.667969 400.855469 C 611.417969 400.855469 610.515625 398.105469 610.367188 394.753906 C 610.117188 390.253906 612.867188 386.65625 617.015625 388.65625 C 617.71875 389.003906 618.117188 389.703125 618.367188 390.605469 L 616.816406 390.90625 C 616.566406 388.90625 613.46875 389.003906 612.71875 390.605469 C 612.265625 391.554688 611.96875 392.804688 611.96875 394.304688 C 612.515625 393.304688 613.46875 392.605469 614.96875 392.65625 Z M 614.617188 399.554688 C 616.316406 399.554688 617.066406 398.40625 617.066406 396.65625 C 617.066406 394.90625 616.265625 393.855469 614.566406 393.855469 C 613.117188 393.855469 612.066406 394.65625 612.117188 396.304688 C 612.167969 398.105469 612.867188 399.554688 614.617188 399.554688 "/>
<path style=" stroke:none;fill-rule:nonzero;fill:rgb(0%,0%,0%);fill-opacity:1;" d="M 245.484375 283.898438 L 244.082031 280.300781 L 238.433594 280.300781 L 237.035156 283.898438 L 235.285156 283.898438 L 240.332031 271.5 L 242.234375 271.5 L 247.183594 283.898438 Z M 243.582031 278.949219 L 241.234375 272.800781 C 240.632812 275.050781 239.683594 276.898438 238.933594 278.949219 L 243.582031 278.949219 "/>
<path style=" stroke:none;fill-rule:nonzero;fill:rgb(0%,0%,0%);fill-opacity:1;" d="M 248.734375 271.5 C 253.082031 271.550781 258.285156 270.75 258.285156 275.25 C 258.285156 279.148438 254.433594 279.25 250.382812 279.050781 L 250.382812 283.898438 L 248.734375 283.898438 Z M 250.382812 277.75 C 253.234375 277.75 256.582031 278.300781 256.582031 275.25 C 256.582031 272.300781 253.183594 272.898438 250.382812 272.851562 L 250.382812 277.75 "/>
<path style=" stroke:none;fill-rule:nonzero;fill:rgb(0%,0%,0%);fill-opacity:1;" d="M 260.734375 271.5 C 265.082031 271.550781 270.285156 270.75 270.285156 275.25 C 270.285156 279.148438 266.433594 279.25 262.382812 279.050781 L 262.382812 283.898438 L 260.734375 283.898438 Z M 262.382812 277.75 C 265.234375 277.75 268.582031 278.300781 268.582031 275.25 C 268.582031 272.300781 265.183594 272.898438 262.382812 272.851562 L 262.382812 277.75 "/>
<path style=" stroke:none;fill-rule:nonzero;fill:rgb(0%,0%,0%);fill-opacity:1;" d="M 249.582031 305.5 L 249.582031 304.148438 L 252.785156 304.148438 L 252.785156 294.648438 L 249.984375 296.601562 L 249.984375 295.148438 L 252.882812 293.101562 L 254.332031 293.101562 L 254.332031 304.148438 L 257.382812 304.148438 L 257.382812 305.5 L 249.582031 305.5 "/>
<path style="fill:none;stroke-width:2;stroke-linecap:butt;stroke-linejoin:miter;stroke:rgb(0%,0%,0%);stroke-opacity:1;stroke-miterlimit:4;" d="M 50.000449 440 L 140.258262 440 L 140.258262 438.421875 L 230.508262 438.421875 " transform="matrix(1,0,0,1,-46.766074,-159)"/>
<path style=" stroke:none;fill-rule:nonzero;fill:rgb(0%,0%,0%);fill-opacity:1;" d="M 183.734375 279.421875 L 169.484375 284.050781 L 169.484375 274.78125 Z M 183.734375 279.421875 "/>
<path style=" stroke:none;fill-rule:nonzero;fill:rgb(0%,0%,0%);fill-opacity:1;" d="M 185.234375 278.851562 L 184.414062 280.25 L 168.484375 285.429688 L 168.484375 273.398438 Z M 170.484375 282.679688 L 180.515625 279.421875 L 170.484375 276.160156 Z M 170.484375 282.679688 "/>
<path style=" stroke:none;fill-rule:nonzero;fill:rgb(100%,100%,100%);fill-opacity:1;" d="M 34.5625 269.398438 L 152.414062 269.398438 L 152.414062 291 L 34.5625 291 Z M 34.5625 269.398438 "/>
<path style=" stroke:none;fill-rule:nonzero;fill:rgb(0%,0%,0%);fill-opacity:1;" d="M 43.816406 274.359375 C 43.566406 271.960938 37.667969 271.660156 37.617188 274.460938 C 38.316406 278.210938 45.515625 275.160156 45.765625 280.410156 C 45.917969 284.308594 39.714844 284.757812 37.015625 283.160156 C 36.167969 282.660156 35.617188 281.859375 35.367188 280.859375 L 37.015625 280.507812 C 37.265625 283.308594 44.066406 283.660156 44.066406 280.460938 C 44.066406 276.558594 36.316406 279.757812 35.964844 274.558594 C 35.714844 270.460938 43.214844 270.359375 44.917969 272.859375 C 45.167969 273.210938 45.316406 273.660156 45.464844 274.109375 "/>
<path style=" stroke:none;fill-rule:nonzero;fill:rgb(0%,0%,0%);fill-opacity:1;" d="M 51.867188 275.359375 C 48.265625 275.359375 49.667969 280.460938 49.417969 283.808594 L 47.816406 283.808594 L 47.816406 270.757812 L 49.417969 270.757812 L 49.367188 275.910156 C 49.964844 274.859375 50.765625 274.109375 52.417969 274.109375 C 56.867188 274.109375 55.066406 279.910156 55.417969 283.808594 L 53.816406 283.808594 L 53.816406 277.757812 C 53.917969 276.160156 53.417969 275.308594 51.867188 275.359375 "/>
<path style=" stroke:none;fill-rule:nonzero;fill:rgb(0%,0%,0%);fill-opacity:1;" d="M 60.765625 284.007812 C 56.316406 284.210938 58.066406 278.210938 57.714844 274.308594 L 59.316406 274.308594 L 59.316406 280.308594 C 59.316406 281.859375 59.667969 282.808594 61.265625 282.757812 C 64.867188 282.660156 63.515625 277.710938 63.765625 274.308594 L 65.316406 274.308594 L 65.367188 283.808594 L 63.867188 283.808594 C 63.816406 283.308594 63.917969 282.558594 63.765625 282.160156 C 63.214844 283.257812 62.367188 283.960938 60.765625 284.007812 "/>
<path style=" stroke:none;fill-rule:nonzero;fill:rgb(0%,0%,0%);fill-opacity:1;" d="M 69.515625 281.460938 C 69.417969 282.660156 70.417969 282.910156 71.417969 282.558594 L 71.417969 283.757812 C 69.765625 284.257812 67.917969 284.007812 67.917969 281.808594 L 67.917969 275.460938 L 66.816406 275.460938 L 66.816406 274.308594 L 68.015625 274.308594 L 68.464844 272.160156 L 69.515625 272.160156 L 69.515625 274.308594 L 71.265625 274.308594 L 71.265625 275.460938 L 69.515625 275.460938 L 69.515625 281.460938 "/>
<path style=" stroke:none;fill-rule:nonzero;fill:rgb(0%,0%,0%);fill-opacity:1;" d="M 75.816406 274.109375 C 77.367188 274.109375 78.214844 274.757812 78.816406 275.757812 L 78.765625 270.757812 L 80.367188 270.757812 L 80.417969 283.808594 L 78.917969 283.808594 C 78.816406 283.308594 78.917969 282.660156 78.765625 282.257812 C 78.265625 283.410156 77.367188 284.007812 75.816406 284.007812 C 73.167969 284.007812 72.367188 282.058594 72.316406 279.109375 C 72.316406 275.808594 73.464844 274.109375 75.816406 274.109375 Z M 76.265625 275.308594 C 74.265625 275.308594 73.964844 277.007812 73.964844 279.058594 C 73.964844 281.058594 74.265625 282.757812 76.214844 282.757812 C 78.316406 282.757812 78.765625 281.160156 78.765625 278.960938 C 78.765625 276.859375 78.316406 275.257812 76.265625 275.308594 "/>
<path style=" stroke:none;fill-rule:nonzero;fill:rgb(0%,0%,0%);fill-opacity:1;" d="M 86.566406 274.109375 C 89.667969 274.058594 90.816406 275.960938 90.816406 279.058594 C 90.867188 282.210938 89.464844 284.007812 86.515625 284.007812 C 83.566406 284.007812 82.367188 282.058594 82.316406 279.058594 C 82.316406 275.757812 83.714844 274.109375 86.566406 274.109375 Z M 86.515625 282.808594 C 88.714844 282.859375 89.167969 281.257812 89.167969 279.058594 C 89.167969 276.910156 88.765625 275.308594 86.617188 275.308594 C 84.464844 275.308594 83.964844 276.910156 83.964844 279.058594 C 83.964844 281.210938 84.464844 282.757812 86.515625 282.808594 "/>
<path style=" stroke:none;fill-rule:nonzero;fill:rgb(0%,0%,0%);fill-opacity:1;" d="M 101.867188 283.808594 L 100.066406 283.808594 L 98.066406 275.609375 L 96.015625 283.808594 L 94.214844 283.808594 L 91.515625 274.308594 L 93.117188 274.308594 L 95.066406 282.507812 L 97.214844 274.308594 L 98.917969 274.308594 L 100.964844 282.507812 L 103.066406 274.308594 L 104.617188 274.308594 "/>
<path style=" stroke:none;fill-rule:nonzero;fill:rgb(0%,0%,0%);fill-opacity:1;" d="M 110.367188 274.109375 C 114.816406 273.910156 113.015625 279.910156 113.367188 283.808594 L 111.765625 283.808594 L 111.765625 277.757812 C 111.765625 276.210938 111.367188 275.308594 109.816406 275.359375 C 106.214844 275.460938 107.617188 280.460938 107.367188 283.808594 L 105.765625 283.808594 L 105.714844 274.308594 L 107.214844 274.308594 C 107.265625 274.808594 107.167969 275.507812 107.316406 275.910156 C 107.867188 274.808594 108.765625 274.160156 110.367188 274.109375 "/>
<path style=" stroke:none;fill-rule:nonzero;fill:rgb(0%,0%,0%);fill-opacity:1;" d="M 114.265625 287.410156 L 114.265625 286.257812 L 124.714844 286.257812 L 124.714844 287.410156 L 114.265625 287.410156 "/>
<path style=" stroke:none;fill-rule:nonzero;fill:rgb(0%,0%,0%);fill-opacity:1;" d="M 135.015625 275.359375 C 131.667969 275.507812 133.117188 280.609375 132.816406 283.808594 L 131.265625 283.808594 L 131.265625 277.757812 C 131.265625 276.308594 131.015625 275.257812 129.515625 275.359375 C 126.214844 275.558594 127.617188 280.558594 127.316406 283.808594 L 125.765625 283.808594 L 125.714844 274.308594 L 127.214844 274.308594 C 127.265625 274.808594 127.167969 275.507812 127.316406 275.910156 C 127.816406 273.710938 132.265625 273.410156 132.667969 275.910156 C 133.214844 274.859375 134.015625 274.160156 135.566406 274.109375 C 139.816406 274.007812 137.917969 280.058594 138.316406 283.808594 L 136.765625 283.808594 L 136.765625 277.757812 C 136.765625 276.308594 136.515625 275.308594 135.015625 275.359375 "/>
<path style=" stroke:none;fill-rule:nonzero;fill:rgb(0%,0%,0%);fill-opacity:1;" d="M 149.765625 283.808594 L 147.964844 283.808594 L 145.964844 275.609375 L 143.917969 283.808594 L 142.117188 283.808594 L 139.417969 274.308594 L 141.015625 274.308594 L 142.964844 282.507812 L 145.117188 274.308594 L 146.816406 274.308594 L 148.867188 282.507812 L 150.964844 274.308594 L 152.515625 274.308594 "/>
<path style="fill:none;stroke-width:2;stroke-linecap:butt;stroke-linejoin:miter;stroke:rgb(0%,0%,0%);stroke-opacity:1;stroke-miterlimit:4;" d="M 228.531699 518.101562 L 139.26998 518.101562 L 139.26998 520 L 50.000449 520 " transform="matrix(1,0,0,1,-46.766074,-159)"/>
<path style=" stroke:none;fill-rule:nonzero;fill:rgb(0%,0%,0%);fill-opacity:1;" d="M 183.304688 359.878906 L 183.425781 360.078125 L 181.753906 360.078125 L 181.753906 358.078125 L 182.355469 358.078125 Z M 183.304688 359.878906 "/>
<path style="fill-rule:nonzero;fill:rgb(0%,0%,0%);fill-opacity:1;stroke-width:2;stroke-linecap:butt;stroke-linejoin:miter;stroke:rgb(0%,0%,0%);stroke-opacity:1;stroke-miterlimit:4;" d="M 50.000449 520 L 64.26998 515.359375 L 64.26998 524.640625 Z M 50.000449 520 " transform="matrix(1,0,0,1,-46.766074,-159)"/>
<path style=" stroke:none;fill-rule:nonzero;fill:rgb(100%,100%,100%);fill-opacity:1;" d="M 58.554688 349.25 L 126.453125 349.25 L 126.453125 370.851562 L 58.554688 370.851562 Z M 58.554688 349.25 "/>
<path style=" stroke:none;fill-rule:nonzero;fill:rgb(0%,0%,0%);fill-opacity:1;" d="M 68.800781 363.644531 L 67.402344 360.046875 L 61.75 360.046875 L 60.351562 363.644531 L 58.601562 363.644531 L 63.652344 351.246094 L 65.550781 351.246094 L 70.5 363.644531 Z M 66.902344 358.695312 L 64.550781 352.546875 C 63.949219 354.796875 63 356.644531 62.25 358.695312 L 66.902344 358.695312 "/>
<path style=" stroke:none;fill-rule:nonzero;fill:rgb(0%,0%,0%);fill-opacity:1;" d="M 75.351562 355.195312 C 73.351562 355.195312 72.949219 356.84375 72.949219 358.84375 C 72.949219 360.84375 73.402344 362.59375 75.351562 362.59375 C 76.550781 362.59375 77.402344 361.894531 77.5 360.695312 L 79.101562 360.796875 C 78.800781 362.644531 77.550781 363.84375 75.402344 363.84375 C 72.449219 363.84375 71.601562 361.796875 71.300781 358.894531 C 70.800781 354.246094 76.351562 352.34375 78.652344 355.695312 C 78.851562 356.046875 78.902344 356.394531 79 356.796875 L 77.402344 356.945312 C 77.199219 355.894531 76.601562 355.195312 75.351562 355.195312 "/>
<path style=" stroke:none;fill-rule:nonzero;fill:rgb(0%,0%,0%);fill-opacity:1;" d="M 86.699219 363.644531 L 83.5 359.296875 L 82.351562 360.246094 L 82.351562 363.644531 L 80.75 363.644531 L 80.75 350.59375 L 82.351562 350.59375 L 82.351562 358.746094 L 86.5 354.144531 L 88.351562 354.144531 L 84.5 358.246094 L 88.601562 363.644531 L 86.699219 363.644531 "/>
<path style=" stroke:none;fill-rule:nonzero;fill:rgb(0%,0%,0%);fill-opacity:1;" d="M 88.300781 367.246094 L 88.300781 366.09375 L 98.75 366.09375 L 98.75 367.246094 L 88.300781 367.246094 "/>
<path style=" stroke:none;fill-rule:nonzero;fill:rgb(0%,0%,0%);fill-opacity:1;" d="M 109.050781 355.195312 C 105.699219 355.34375 107.152344 360.445312 106.851562 363.644531 L 105.300781 363.644531 L 105.300781 357.59375 C 105.300781 356.144531 105.050781 355.09375 103.550781 355.195312 C 100.25 355.394531 101.652344 360.394531 101.351562 363.644531 L 99.800781 363.644531 L 99.75 354.144531 L 101.25 354.144531 C 101.300781 354.644531 101.199219 355.34375 101.351562 355.746094 C 101.851562 353.546875 106.300781 353.246094 106.699219 355.746094 C 107.25 354.695312 108.050781 353.996094 109.601562 353.945312 C 113.851562 353.84375 111.949219 359.894531 112.351562 363.644531 L 110.800781 363.644531 L 110.800781 357.59375 C 110.800781 356.144531 110.550781 355.144531 109.050781 355.195312 "/>
<path style=" stroke:none;fill-rule:nonzero;fill:rgb(0%,0%,0%);fill-opacity:1;" d="M 123.800781 363.644531 L 122 363.644531 L 120 355.445312 L 117.949219 363.644531 L 116.152344 363.644531 L 113.449219 354.144531 L 115.050781 354.144531 L 117 362.34375 L 119.152344 354.144531 L 120.851562 354.144531 L 122.902344 362.34375 L 125 354.144531 L 126.550781 354.144531 "/>
<path style=" stroke:none;fill-rule:nonzero;fill:rgb(0%,0%,0%);fill-opacity:1;" d="M 54.933594 318.050781 C 56.332031 318.5 57.535156 319.25 57.484375 321.148438 C 57.433594 323.648438 55.785156 324.800781 53.234375 324.800781 C 50.683594 324.800781 49.082031 323.648438 49.035156 321.148438 C 49.035156 319.351562 50.082031 318.449219 51.484375 318.101562 C 47.734375 316.851562 49.234375 311.800781 53.183594 312.050781 C 55.484375 312.199219 57.082031 312.949219 57.132812 315.199219 C 57.132812 316.851562 56.285156 317.75 54.933594 318.050781 Z M 53.234375 317.5 C 54.785156 317.550781 55.535156 316.75 55.535156 315.300781 C 55.535156 313.898438 54.683594 313.148438 53.183594 313.199219 C 51.734375 313.199219 50.882812 313.851562 50.933594 315.300781 C 50.984375 316.699219 51.734375 317.5 53.234375 317.5 Z M 53.285156 323.601562 C 55.035156 323.601562 55.832031 322.699219 55.832031 321 C 55.832031 319.5 54.933594 318.699219 53.183594 318.699219 C 51.535156 318.699219 50.632812 319.550781 50.632812 321.050781 C 50.632812 322.75 51.582031 323.601562 53.285156 323.601562 "/>
</g>
</svg>
