<?xml version="1.0" encoding="UTF-8" standalone="no"?>
<svg
   xmlns:dc="http://purl.org/dc/elements/1.1/"
   xmlns:cc="http://creativecommons.org/ns#"
   xmlns:rdf="http://www.w3.org/1999/02/22-rdf-syntax-ns#"
   xmlns:svg="http://www.w3.org/2000/svg"
   xmlns="http://www.w3.org/2000/svg"
   xmlns:xlink="http://www.w3.org/1999/xlink"
   version="1.1"
   id="svg3656"
   height="640"
   width="1343.2">
  <metadata
     id="metadata3936">
    <rdf:RDF>
      <cc:Work
         rdf:about="">
        <dc:format>image/svg+xml</dc:format>
        <dc:type
           rdf:resource="http://purl.org/dc/dcmitype/StillImage" />
        <dc:title></dc:title>
      </cc:Work>
    </rdf:RDF>
  </metadata>
  <defs
     id="defs3934" />
  <g
     id="g3658"
     transform="translate(0 -20)">
    <path
       id="path3660"
       fill="#fff"
       stroke-width="2"
       stroke="#000"
       d="M375.9 280.83c1.87-2.04 4.9-2.04 6.76 0L414 315.05c1.87 2.04 1.87 5.34 0 7.38l-31.34 34.22c-1.86 2.03-4.9 2.03-6.75 0l-31.33-34.22c-1.87-2.04-1.87-5.34 0-7.38z" />
    <use
       id="use3662"
       transform="matrix(1,0,0,1,341.19047619047615,277.14139073290437) translate(38.005 49.361111111111114)"
       xlink:href="#a" />
    <path
       id="path3664"
       fill="#fff"
       stroke-width="2"
       stroke="#000"
       d="M640 159c0 2.76 2.24 5 5 5h108c2.76 0 5-2.24 5-5V69c0-2.76-2.24-5-5-5H645c-2.76 0-5 2.24-5 5z" />
    <use
       id="use3666"
       transform="matrix(1,0,0,1,645,69) translate(54 53.66666666666667)"
       xlink:href="#a" />
    <path
       id="path3668"
       fill="#fff"
       stroke-width="2"
       stroke="#000"
       d="M634.96 280.83c1.86-2.04 4.9-2.04 6.75 0l31.35 34.22c1.87 2.04 1.87 5.34 0 7.38l-31.34 34.22c-1.85 2.03-4.88 2.03-6.74 0l-31.34-34.22c-1.87-2.04-1.87-5.34 0-7.38z" />
    <use
       id="use3670"
       transform="matrix(1,0,0,1,600.2380952380952,277.14139073290437) translate(38.005 49.361111111111114)"
       xlink:href="#a" />
    <path
       id="path3672"
       fill="#fff"
       stroke-width="2"
       stroke="#000"
       d="M1010.34 280.83c1.86-2.04 4.9-2.04 6.75 0l31.33 34.22c1.87 2.04 1.87 5.34 0 7.38l-31.34 34.22c-1.87 2.04-4.9 2.04-6.76 0L979 322.43c-1.87-2.04-1.87-5.34 0-7.38z" />
    <use
       id="use3674"
       transform="matrix(1,0,0,1,975.6190475090341,277.143087862251) translate(38.005 49.361111111111114)"
       xlink:href="#a" />
    <path
       id="path3676"
       fill="none"
       stroke-width="2"
       stroke="#000"
       d="M699 164v.63l-.05.6-.07.63-.1.6-.1.62-.15.6-.17.63-.2.63-.24.63-.27.64-.3.66-.36.68-.4.7-.47.7-.52.75-.58.77-.67.82-.77.85-.9.9-1.03.97-1.2 1.04-1.4 1.12-1.7 1.2-2 1.34-2.42 1.47-3 1.63-3.73 1.86-4.8 2.1-6.3 2.5-8.58 2.98-12.37 3.7-19.54 5-39.74 8.3-131.18 24.9-19.55 4.97-12.37 3.72-8.6 2.97-6.28 2.5-4.8 2.12-3.73 1.85-3 1.65-2.42 1.47-2 1.33-1.68 1.2-1.4 1.13-1.22 1.04-1.03.97-.9.9-.76.86-.68.8-.6.8-.5.73-.46.7-.4.7-.36.68-.3.66-.28.64-.23.63-.2.63-.18.62-.14.6-.1.62-.1.6-.06.63-.04.62v.62" />
    <path
       id="path3678"
       d="M699.9 164.44l-.9-.44h1.1zM389.7 266.34l-10.4 10.8 2.06-14.85z" />
    <path
       id="path3680"
       d="M391.37 266.04L378.4 279.5l-.46.04 2.62-18.76zm-10.67 8.2l7.32-7.6-5.86-2.85z" />
    <path
       id="path3682"
       fill="none"
       stroke-width="2"
       stroke="#000"
       d="M699 164l-.07 3.36-.2 3.13-.33 2.9-.43 2.77-.53 2.63-.63 2.5-.7 2.45-.82 2.36-.92 2.34-1.02 2.3-1.15 2.3-1.3 2.32-1.48 2.38-1.68 2.48-1.97 2.64-2.38 2.9-3.06 3.4-4.56 4.67-18.8 18.14-3.04 3.4-2.38 2.9-1.97 2.65-1.7 2.48-1.46 2.38-1.3 2.32-1.14 2.3-1.03 2.3-.92 2.33-.8 2.37-.73 2.43-.62 2.5-.53 2.64-.43 2.76-.33 2.93-.2 3.12-.07 3.36" />
    <path
       id="path3684"
       d="M700 164.1l-1.02-.1H700zM644.45 263.45l-6.12 13.7-3.1-14.7z" />
    <path
       id="path3686"
       d="M645.93 262.6l-7.5 16.8-.63.07-3.83-18.15zm-7.25 11.32l4.3-9.62-6.48-.7z" />
    <path
       id="path3688"
       fill="none"
       stroke-width="2"
       stroke="#000"
       d="M699 164v.64l.05.62.07.63.1.6.1.63.15.62.18.62.2.63.24.64.27.66.3.66.37.7.4.7.47.72.53.75.6.8.68.8.8.88.9.93 1.04.98 1.22 1.06 1.43 1.13 1.68 1.22 2.02 1.34 2.46 1.5 3.02 1.64 3.78 1.87 4.83 2.15 6.35 2.5 8.68 3.02 12.53 3.77 19.9 5.08 41.92 8.75 122.06 23.44 19.9 5.07 12.54 3.76 8.7 3 6.34 2.52 4.84 2.15 3.78 1.87 3.02 1.66 2.45 1.48 2.04 1.34 1.7 1.23 1.42 1.13 1.2 1.05 1.06.98.9.93.78.87.7.83.58.78.53.77.47.72.4.7.36.68.32.67.27.65.24.64.2.63.18.63.15.62.1.62.1.62.06.62.04.63v.64" />
    <path
       id="path3690"
       d="M698.1 164.43l-.2-.43h1.1zM1013.7 277.14l-10.34-10.85 8.35-4.02z" />
    <path
       id="path3692"
       d="M1015.06 279.64l-.58-.25-12.8-13.4 10.84-5.22zm-10.03-13.04l7.28 7.63-1.4-10.46z" />
    <path
       id="path3694"
       fill="none"
       d="M730 318.74h220" />
    <path
       id="path3696"
       d="M734 318.74c0 2.2-1.8 4-4 4s-4-1.8-4-4 1.8-4 4-4 4 1.8 4 4zm31.43 0c0 2.2-1.8 4-4 4s-4-1.8-4-4 1.8-4 4-4 4 1.8 4 4zm31.43 0c0 2.2-1.8 4-4 4s-4-1.8-4-4 1.8-4 4-4 4 1.8 4 4zm31.43 0c0 2.2-1.8 4-4 4-2.22 0-4-1.8-4-4s1.78-4 4-4c2.2 0 4 1.8 4 4zm31.42 0c0 2.2-1.8 4-4 4s-4-1.8-4-4 1.8-4 4-4 4 1.8 4 4zm31.42 0c0 2.2-1.8 4-4 4s-4-1.8-4-4 1.8-4 4-4 4 1.8 4 4zm31.43 0c0 2.2-1.8 4-4 4s-4-1.8-4-4 1.8-4 4-4 4 1.8 4 4z" />
    <path
       id="path3698"
       fill="none"
       stroke-width="2"
       stroke="#000"
       d="M638.33 358.54l.2 2.9.08 2.78-.03 2.64-.14 2.55-.25 2.47-.34 2.4-.43 2.33-.5 2.3-.63 2.27-.72 2.25-.82 2.25-.94 2.27-1.07 2.3-1.2 2.34-1.38 2.4-1.57 2.5-1.8 2.62-2.1 2.8-2.48 3.03-3.02 3.4-3.86 3.98-5.45 5.18-33.14 29.1-4 4.12-3.16 3.55-2.6 3.2-2.23 2.94-1.9 2.77-1.67 2.66-1.47 2.58-1.3 2.52-1.14 2.47-1 2.44-.9 2.45-.8 2.44-.66 2.48-.58 2.52-.47 2.56-.38 2.64-.26 2.72-.16 2.82L552 500" />
    <path
       id="path3700"
       d="M639.33 358.57l-2-.05.02-.53.3.12 1.7-.16zM558.22 486.35L552 500l-3-14.7z" />
    <path
       id="path3702"
       d="M559.7 485.5l-6.64 14.58L552 500l-1 .05-3.25-15.9zm-7.33 11.28l4.36-9.6-6.47-.73z" />
    <path
       id="path3704"
       fill="none"
       stroke-width="2"
       stroke="#000"
       d="M638.33 358.54l.38 3.44.52 3.3.63 3.18.74 3.1.86 3 .98 3 1.12 2.93 1.25 2.92 1.42 2.95 1.58 2.98 1.8 3.06 2.03 3.17 2.34 3.33 2.75 3.57 3.3 3.95 4.22 4.6 6.06 6.1 29.28 27.65 4.03 4.42 3.16 3.75 2.6 3.36 2.2 3.13 1.88 2.95 1.66 2.83 1.46 2.76 1.3 2.7 1.13 2.68 1 2.67.9 2.7.78 2.72.66 2.77.56 2.83.45 2.93.34 3.04.2 3.17.1 3.34v.5" />
    <path
       id="path3706"
       d="M637.66 358.12l1.58-.15.08.4-1.97.36-.15-.8zM724 500l-6.02-13.74 9.22-.92z" />
    <path
       id="path3708"
       d="M725 500.07l-1-.07-1.07.05-6.42-14.65 11.98-1.2zm-5.55-12.95l4.23 9.66 2.25-10.3z" />
    <path
       id="path3710"
       fill="none"
       stroke-width="2"
       stroke="#000"
       d="M1013.7 358.55l.22 3 .08 2.86-.04 2.75-.15 2.64-.24 2.55-.36 2.5-.45 2.44-.55 2.4-.65 2.4-.76 2.37-.88 2.4-1 2.4-1.14 2.46-1.3 2.52-1.5 2.62-1.7 2.74-2.02 2.94-2.4 3.2-2.9 3.56-3.77 4.2-5.44 5.6-29.6 28.5-3.9 4.38-3.06 3.73-2.5 3.35-2.13 3.1-1.83 2.9-1.6 2.8-1.38 2.7-1.23 2.64-1.07 2.6-.95 2.58-.8 2.6-.72 2.6-.6 2.63-.5 2.7-.4 2.74-.27 2.82-.15 2.93-.05 2.6" />
    <path
       id="path3712"
       d="M1014.7 358.57l-2-.05.03-.53.3.12 1.7-.15zM940.16 486.32L934 500l-3.06-14.68z" />
    <path
       id="path3714"
       d="M941.63 485.48l-6.57 14.6L934 500l-1 .05-3.32-15.88zm-7.28 11.3l4.33-9.6-6.48-.72z" />
    <path
       id="path3716"
       fill="none"
       stroke-width="2"
       stroke="#000"
       d="M1013.7 358.55l.38 3.3.5 3.15.6 3.05.7 2.95.82 2.88.94 2.83 1.05 2.8 1.17 2.76 1.33 2.76 1.47 2.8 1.66 2.8 1.86 2.9 2.1 3 2.43 3.17 2.84 3.38 3.42 3.74 4.3 4.34 6.06 5.6 32.67 28.16 4.12 4.15 3.25 3.56 2.68 3.2 2.28 2.96 1.97 2.8 1.73 2.68 1.53 2.6 1.34 2.56 1.2 2.53 1.1 2.52.95 2.52.83 2.55.74 2.6.64 2.64.55 2.73.43 2.8.32 2.93.2 3.05.1 3.22v.48" />
    <path
       id="path3718"
       d="M1013.04 358.12l1.58-.14.08.38-1.97.37-.15-.8zM1106 500l-6.07-13.72 9.22-.95z" />
    <path
       id="path3720"
       d="M1107 500.07l-1-.07-1.07.05-6.47-14.62 11.96-1.23zm-5.6-12.93l4.27 9.64 2.22-10.3z" />
    <path
       id="path3722"
       fill="none"
       stroke-width="2"
       stroke="#000"
       d="M379.3 358.54l.18 2.78.07 2.62-.04 2.5-.12 2.4-.23 2.3-.32 2.25-.4 2.16-.5 2.13-.56 2.08-.65 2.06-.75 2.05-.85 2.03-.95 2.05-1.06 2.07-1.2 2.1-1.34 2.16-1.52 2.22-1.73 2.3-1.97 2.43-2.3 2.58-2.7 2.8-3.3 3.13-4.17 3.63-5.76 4.6-11.32 8.26-22.48 16.07-5.93 4.75-4.33 3.78-3.44 3.26-2.85 2.95-2.43 2.72-2.1 2.56-1.84 2.45-1.62 2.38-1.45 2.3-1.27 2.27-1.16 2.23-1.02 2.22-.92 2.22-.82 2.23-.7 2.25-.63 2.3-.53 2.33-.44 2.4-.35 2.46-.26 2.55-.16 2.66-.04 2.4" />
    <path
       id="path3724"
       d="M380.3 358.58l-2-.07v-.5l.3.12 1.7-.16zM285.3 486.4L279 500l-2.9-14.72z" />
    <path
       id="path3726"
       d="M286.8 485.56l-6.73 14.52L279 500l-1 .05-3.15-15.93zm-7.4 11.23l4.42-9.58-6.47-.78z" />
    <path
       id="path3728"
       fill="none"
       stroke-width="2"
       stroke="#000"
       d="M379.3 358.54l.4 3.86.6 3.7.7 3.6.84 3.53 1 3.46 1.13 3.42 1.3 3.42 1.47 3.47 1.7 3.54 1.94 3.67 2.26 3.87 2.7 4.2 3.34 4.73 4.48 5.82 8.32 9.86 16.94 19.65 4.3 5.6 3.18 4.5 2.54 3.94 2.12 3.62 1.8 3.4 1.56 3.25 1.36 3.17 1.18 3.12 1.03 3.1.88 3.12.76 3.15.63 3.22.5 3.3.4 3.4.23 3.53.1 3.7v.55" />
    <path
       id="path3730"
       d="M378.6 358.12l1.6-.15.07.4-1.97.35-.14-.8zM451 500l-5.87-13.8 9.24-.82z" />
    <path
       id="path3732"
       d="M452 500.07l-1-.07-1.06.05-6.27-14.73 11.98-1.06zm-5.4-13l4.12 9.7 2.36-10.27z" />
    <path
       id="path3734"
       fill="none"
       stroke-width="4"
       stroke="#000"
       d="M104.5 580V90" />
    <path
       id="path3736"
       stroke-width="4"
       stroke="#000"
       d="M104.5 90l4.64 14.27h-9.28z" />
    <path
       id="path3738"
       fill="none"
       stroke-width="4"
       stroke="#000"
       d="M1210 560V100" />
    <path
       id="path3740"
       stroke-width="4"
       stroke="#000"
       d="M1210 560l-4.64-14.27h9.28z" />
    <path
       id="path3742"
       fill="none"
       d="M20 585c0-2.76 2.24-5 5-5h159c2.76 0 5 2.24 5 5v50c0 2.76-2.24 5-5 5H25c-2.76 0-5-2.24-5-5z" />
    <use
       id="use3744"
       transform="matrix(1,0,0,1,20,580) translate(10.070987654320987 35.77777777777778)"
       xlink:href="#b" />
    <path
       id="path3746"
       fill="none"
       d="M1083.2 45c0-2.76 2.24-5 5-5h230c2.76 0 5 2.24 5 5v50c0 2.76-2.24 5-5 5h-230c-2.76 0-5-2.24-5-5z" />
    <use
       id="use3748"
       transform="matrix(1,0,0,1,1083.1999999999998,40) translate(58.25 35.77777777777778)"
       xlink:href="#c" />
    <path
       id="path3750"
       fill="#fff"
       stroke-width="2"
       stroke="#000"
       d="M313 530c0 16.57-15.22 30-34 30s-34-13.43-34-30 15.22-30 34-30 34 13.43 34 30z" />
    <use
       id="use3752"
       transform="matrix(1,0,0,1,245,499.99830287065333) translate(34.005 36.9)"
       xlink:href="#d" />
    <path
       id="path3754"
       fill="#fff"
       stroke-width="2"
       stroke="#000"
       d="M485 530c0 16.57-15.22 30-34 30s-34-13.43-34-30 15.22-30 34-30 34 13.43 34 30z" />
    <use
       id="use3756"
       transform="matrix(1,0,0,1,417,499.99830287065333) translate(34.005 36.9)"
       xlink:href="#d" />
    <path
       id="path3758"
       fill="none"
       d="M335 530h81" />
    <path
       id="path3760"
       d="M338 530c0 1.66-1.34 3-3 3s-3-1.34-3-3 1.34-3 3-3 3 1.34 3 3zm27 0c0 1.66-1.34 3-3 3s-3-1.34-3-3 1.34-3 3-3 3 1.34 3 3zm27 0c0 1.66-1.34 3-3 3s-3-1.34-3-3 1.34-3 3-3 3 1.34 3 3zM417 530l.13 2.68.06.32H416v-6h1.22z" />
    <path
       id="path3762"
       fill="#fff"
       stroke-width="2"
       stroke="#000"
       d="M586 530c0 16.57-15.22 30-34 30s-34-13.43-34-30 15.22-30 34-30 34 13.43 34 30z" />
    <use
       id="use3764"
       transform="matrix(1,0,0,1,518,499.99830287065333) translate(34.005 36.9)"
       xlink:href="#d" />
    <path
       id="path3766"
       fill="#fff"
       stroke-width="2"
       stroke="#000"
       d="M758 530c0 16.57-15.22 30-34 30s-34-13.43-34-30 15.22-30 34-30 34 13.43 34 30z" />
    <use
       id="use3768"
       transform="matrix(1,0,0,1,690,499.99830287065333) translate(34.005 36.9)"
       xlink:href="#d" />
    <path
       id="path3770"
       fill="none"
       d="M608 530h81" />
    <path
       id="path3772"
       d="M611 530c0 1.66-1.34 3-3 3s-3-1.34-3-3 1.34-3 3-3 3 1.34 3 3zm27 0c0 1.66-1.34 3-3 3s-3-1.34-3-3 1.34-3 3-3 3 1.34 3 3zm27 0c0 1.66-1.34 3-3 3s-3-1.34-3-3 1.34-3 3-3 3 1.34 3 3zM690 530l.13 2.68.06.32H689v-6h1.22z" />
    <path
       id="path3774"
       fill="#fff"
       stroke-width="2"
       stroke="#000"
       d="M968 530c0 16.57-15.22 30-34 30s-34-13.43-34-30 15.22-30 34-30 34 13.43 34 30z" />
    <use
       id="use3776"
       transform="matrix(1,0,0,1,900,500) translate(34.005 36.9)"
       xlink:href="#d" />
    <path
       id="path3778"
       fill="#fff"
       stroke-width="2"
       stroke="#000"
       d="M1140 530c0 16.57-15.22 30-34 30s-34-13.43-34-30 15.22-30 34-30 34 13.43 34 30z" />
    <use
       id="use3780"
       transform="matrix(1,0,0,1,1072,500) translate(34.005 36.9)"
       xlink:href="#d" />
    <path
       id="path3782"
       fill="none"
       d="M990 530h81" />
    <path
       id="path3784"
       d="M993 530c0 1.66-1.34 3-3 3s-3-1.34-3-3 1.34-3 3-3 3 1.34 3 3zm27 0c0 1.66-1.34 3-3 3s-3-1.34-3-3 1.34-3 3-3 3 1.34 3 3zm27 0c0 1.66-1.34 3-3 3s-3-1.34-3-3 1.34-3 3-3 3 1.34 3 3zM1072 530l.13 2.7.06.3h-1.2v-6h1.22z" />
    <path
       id="path3786"
       fill="none"
       d="M511 64c-2.76 0-5 2.24-5 5v90c0 2.76 2.24 5 5 5h70c2.76 0 5-2.24 5-5V69c0-2.76-2.24-5-5-5z" />
    <path
       id="path3788"
       fill="none"
       stroke-width="2"
       stroke="#000"
       d="M586 164c-3.45 0-6.25-2.8-6.25-6.25v-37.5c0-3.45-2.8-6.25-6.25-6.25 3.45 0 6.25-2.8 6.25-6.25v-37.5c0-3.45 2.8-6.25 6.25-6.25" />
    <use
       id="use3790"
       transform="matrix(1,0,0,1,506,64) translate(7.099999999999996 55.025)"
       xlink:href="#e" />
    <path
       id="path3792"
       fill="none"
       d="M105 269.92c-2.76 0-5 2.24-5 5v88.16c0 2.76 2.24 5 5 5h170c2.76 0 5-2.24 5-5v-88.16c0-2.76-2.24-5-5-5z" />
    <path
       id="path3794"
       fill="none"
       stroke-width="2"
       stroke="#000"
       d="M280 368.08c-3.4 0-6.14-2.74-6.14-6.13v-36.8c0-3.4-2.74-6.15-6.13-6.15 3.4 0 6.13-2.75 6.13-6.14v-36.8c0-3.4 2.75-6.14 6.14-6.14" />
    <use
       id="use3796"
       transform="matrix(1,0,0,1,100,269.91666666666663) translate(10.543209876543196 54.44097222222222)"
       xlink:href="#f" />
    <use
       id="use3798"
       transform="matrix(1,0,0,1,100,269.91666666666663) translate(84.51851851851852 54.44097222222222)"
       xlink:href="#g" />
    <use
       id="use3800"
       transform="matrix(1,0,0,1,100,269.91666666666663) translate(99.82716049382717 54.44097222222222)"
       xlink:href="#h" />
    <path
       id="path3802"
       fill="none"
       d="M125 500c-2.76 0-5 2.24-5 5v50c0 2.76 2.24 5 5 5h90c2.76 0 5-2.24 5-5v-50c0-2.76-2.24-5-5-5z" />
    <path
       id="path3804"
       fill="none"
       stroke-width="2"
       stroke="#000"
       d="M220 560c-2.07 0-3.75-1.68-3.75-3.75v-22.5c0-2.07-1.68-3.75-3.75-3.75 2.07 0 3.75-1.68 3.75-3.75v-22.5c0-2.07 1.68-3.75 3.75-3.75" />
    <g
       id="g3806">
      <use
         id="use3808"
         transform="matrix(1,0,0,1,120,500) translate(22.53 33.15)"
         xlink:href="#i" />
    </g>
    <defs
       id="defs3810">
      <path
         id="j"
         d="M127-220V0H93v-220H8v-28h204v28h-85" />
      <path
         id="k"
         d="M100-194c63 0 86 42 84 106H49c0 40 14 67 53 68 26 1 43-12 49-29l28 8c-11 28-37 45-77 45C44 4 14-33 15-96c1-61 26-98 85-98zm52 81c6-60-76-77-97-28-3 7-6 17-6 28h103" />
      <path
         id="l"
         d="M114-163C36-179 61-72 57 0H25l-1-190h30c1 12-1 29 2 39 6-27 23-49 58-41v29" />
      <path
         id="m"
         d="M210-169c-67 3-38 105-44 169h-31v-121c0-29-5-50-35-48C34-165 62-65 56 0H25l-1-190h30c1 10-1 24 2 32 10-44 99-50 107 0 11-21 27-35 58-36 85-2 47 119 55 194h-31v-121c0-29-5-49-35-48" />
      <path
         id="n"
         d="M24-231v-30h32v30H24zM24 0v-190h32V0H24" />
      <path
         id="o"
         d="M117-194c89-4 53 116 60 194h-32v-121c0-31-8-49-39-48C34-167 62-67 57 0H25l-1-190h30c1 10-1 24 2 32 11-22 29-35 61-36" />
      <path
         id="p"
         d="M141-36C126-15 110 5 73 4 37 3 15-17 15-53c-1-64 63-63 125-63 3-35-9-54-41-54-24 1-41 7-42 31l-33-3c5-37 33-52 76-52 45 0 72 20 72 64v82c-1 20 7 32 28 27v20c-31 9-61-2-59-35zM48-53c0 20 12 33 32 33 41-3 63-29 60-74-43 2-92-5-92 41" />
      <path
         id="q"
         d="M59-47c-2 24 18 29 38 22v24C64 9 27 4 27-40v-127H5v-23h24l9-43h21v43h35v23H59v120" />
      <path
         id="r"
         d="M100-194c62-1 85 37 85 99 1 63-27 99-86 99S16-35 15-95c0-66 28-99 85-99zM99-20c44 1 53-31 53-75 0-43-8-75-51-75s-53 32-53 75 10 74 51 75" />
      <g
         id="b">
        <use
           id="use3822"
           xlink:href="#j"
           transform="matrix(0.08024691358024691,0,0,0.08024691358024691,0,0)" />
        <use
           id="use3824"
           xlink:href="#k"
           transform="matrix(0.08024691358024691,0,0,0.08024691358024691,14.364197530864196,0)" />
        <use
           id="use3826"
           xlink:href="#l"
           transform="matrix(0.08024691358024691,0,0,0.08024691358024691,30.41358024691358,0)" />
        <use
           id="use3828"
           xlink:href="#m"
           transform="matrix(0.08024691358024691,0,0,0.08024691358024691,39.96296296296296,0)" />
        <use
           id="use3830"
           xlink:href="#n"
           transform="matrix(0.08024691358024691,0,0,0.08024691358024691,63.956790123456784,0)" />
        <use
           id="use3832"
           xlink:href="#o"
           transform="matrix(0.08024691358024691,0,0,0.08024691358024691,70.29629629629629,0)" />
        <use
           id="use3834"
           xlink:href="#p"
           transform="matrix(0.08024691358024691,0,0,0.08024691358024691,86.34567901234567,0)" />
        <use
           id="use3836"
           xlink:href="#q"
           transform="matrix(0.08024691358024691,0,0,0.08024691358024691,102.39506172839505,0)" />
        <use
           id="use3838"
           xlink:href="#n"
           transform="matrix(0.08024691358024691,0,0,0.08024691358024691,110.41975308641975,0)" />
        <use
           id="use3840"
           xlink:href="#r"
           transform="matrix(0.08024691358024691,0,0,0.08024691358024691,116.75925925925925,0)" />
        <use
           id="use3842"
           xlink:href="#o"
           transform="matrix(0.08024691358024691,0,0,0.08024691358024691,132.80864197530863,0)" />
      </g>
      <path
         id="s"
         d="M160-131c35 5 61 23 61 61C221 17 115-2 30 0v-248c76 3 177-17 177 60 0 33-19 50-47 57zm-97-11c50-1 110 9 110-42 0-47-63-36-110-37v79zm0 115c55-2 124 14 124-45 0-56-70-42-124-44v89" />
      <path
         id="t"
         d="M135-143c-3-34-86-38-87 0 15 53 115 12 119 90S17 21 10-45l28-5c4 36 97 45 98 0-10-56-113-15-118-90-4-57 82-63 122-42 12 7 21 19 24 35" />
      <path
         id="u"
         d="M115-194c55 1 70 41 70 98S169 2 115 4C84 4 66-9 55-30l1 105H24l-1-265h31l2 30c10-21 28-34 59-34zm-8 174c40 0 45-34 45-75s-6-73-45-74c-42 0-51 32-51 76 0 43 10 73 51 73" />
      <g
         id="c">
        <use
           id="use3848"
           xlink:href="#s"
           transform="matrix(0.08024691358024691,0,0,0.08024691358024691,0,0)" />
        <use
           id="use3850"
           xlink:href="#r"
           transform="matrix(0.08024691358024691,0,0,0.08024691358024691,19.25925925925926,0)" />
        <use
           id="use3852"
           xlink:href="#r"
           transform="matrix(0.08024691358024691,0,0,0.08024691358024691,35.308641975308646,0)" />
        <use
           id="use3854"
           xlink:href="#q"
           transform="matrix(0.08024691358024691,0,0,0.08024691358024691,51.358024691358025,0)" />
        <use
           id="use3856"
           xlink:href="#t"
           transform="matrix(0.08024691358024691,0,0,0.08024691358024691,59.382716049382715,0)" />
        <use
           id="use3858"
           xlink:href="#q"
           transform="matrix(0.08024691358024691,0,0,0.08024691358024691,73.82716049382717,0)" />
        <use
           id="use3860"
           xlink:href="#l"
           transform="matrix(0.08024691358024691,0,0,0.08024691358024691,81.85185185185186,0)" />
        <use
           id="use3862"
           xlink:href="#p"
           transform="matrix(0.08024691358024691,0,0,0.08024691358024691,91.40123456790124,0)" />
        <use
           id="use3864"
           xlink:href="#u"
           transform="matrix(0.08024691358024691,0,0,0.08024691358024691,107.45061728395063,0)" />
      </g>
      <path
         id="v"
         d="M240 0l2-218c-23 76-54 145-80 218h-23L58-218 59 0H30v-248h44l77 211c21-75 51-140 76-211h43V0h-30" />
      <g
         id="e">
        <use
           id="use3868"
           xlink:href="#v"
           transform="matrix(0.05,0,0,0.05,0,0)" />
        <use
           id="use3870"
           xlink:href="#p"
           transform="matrix(0.05,0,0,0.05,14.950000000000001,0)" />
        <use
           id="use3872"
           xlink:href="#t"
           transform="matrix(0.05,0,0,0.05,24.950000000000003,0)" />
        <use
           id="use3874"
           xlink:href="#q"
           transform="matrix(0.05,0,0,0.05,33.95,0)" />
        <use
           id="use3876"
           xlink:href="#k"
           transform="matrix(0.05,0,0,0.05,38.95,0)" />
        <use
           id="use3878"
           xlink:href="#l"
           transform="matrix(0.05,0,0,0.05,48.95,0)" />
      </g>
      <path
         id="w"
         d="M233-177c-1 41-23 64-60 70L243 0h-38l-65-103H63V0H30v-248c88 3 205-21 203 71zM63-129c60-2 137 13 137-47 0-61-80-42-137-45v92" />
      <path
         id="x"
         d="M96-169c-40 0-48 33-48 73s9 75 48 75c24 0 41-14 43-38l32 2c-6 37-31 61-74 61-59 0-76-41-82-99-10-93 101-131 147-64 4 7 5 14 7 22l-32 3c-4-21-16-35-41-35" />
      <path
         id="y"
         d="M108 0H70L1-190h34L89-25l56-165h34" />
      <g
         id="f">
        <use
           id="use3884"
           xlink:href="#w"
           transform="matrix(0.04938271604938272,0,0,0.04938271604938272,0,0)" />
        <use
           id="use3886"
           xlink:href="#k"
           transform="matrix(0.04938271604938272,0,0,0.04938271604938272,12.790123456790125,0)" />
        <use
           id="use3888"
           xlink:href="#p"
           transform="matrix(0.04938271604938272,0,0,0.04938271604938272,22.66666666666667,0)" />
        <use
           id="use3890"
           xlink:href="#x"
           transform="matrix(0.04938271604938272,0,0,0.04938271604938272,32.543209876543216,0)" />
        <use
           id="use3892"
           xlink:href="#q"
           transform="matrix(0.04938271604938272,0,0,0.04938271604938272,41.4320987654321,0)" />
        <use
           id="use3894"
           xlink:href="#n"
           transform="matrix(0.04938271604938272,0,0,0.04938271604938272,46.370370370370374,0)" />
        <use
           id="use3896"
           xlink:href="#y"
           transform="matrix(0.04938271604938272,0,0,0.04938271604938272,50.27160493827161,0)" />
        <use
           id="use3898"
           xlink:href="#k"
           transform="matrix(0.04938271604938272,0,0,0.04938271604938272,59.1604938271605,0)" />
      </g>
      <path
         id="z"
         d="M118-107v75H92v-75H18v-26h74v-75h26v75h74v26h-74" />
      <use
         id="g"
         xlink:href="#z"
         transform="matrix(0.04938271604938272,0,0,0.04938271604938272,0,0)" />
      <path
         id="A"
         d="M30-248c87 1 191-15 191 75 0 78-77 80-158 76V0H30v-248zm33 125c57 0 124 11 124-50 0-59-68-47-124-48v98" />
      <g
         id="h">
        <use
           id="use3904"
           xlink:href="#A"
           transform="matrix(0.04938271604938272,0,0,0.04938271604938272,0,0)" />
        <use
           id="use3906"
           xlink:href="#p"
           transform="matrix(0.04938271604938272,0,0,0.04938271604938272,11.851851851851853,0)" />
        <use
           id="use3908"
           xlink:href="#t"
           transform="matrix(0.04938271604938272,0,0,0.04938271604938272,21.7283950617284,0)" />
        <use
           id="use3910"
           xlink:href="#t"
           transform="matrix(0.04938271604938272,0,0,0.04938271604938272,30.617283950617285,0)" />
        <use
           id="use3912"
           xlink:href="#n"
           transform="matrix(0.04938271604938272,0,0,0.04938271604938272,39.50617283950618,0)" />
        <use
           id="use3914"
           xlink:href="#y"
           transform="matrix(0.04938271604938272,0,0,0.04938271604938272,43.40740740740741,0)" />
        <use
           id="use3916"
           xlink:href="#k"
           transform="matrix(0.04938271604938272,0,0,0.04938271604938272,52.2962962962963,0)" />
      </g>
      <path
         id="B"
         d="M205 0l-28-72H64L36 0H1l101-248h38L239 0h-34zm-38-99l-47-123c-12 45-31 82-46 123h93" />
      <g
         id="i">
        <use
           id="use3920"
           xlink:href="#B"
           transform="matrix(0.05,0,0,0.05,0,0)" />
        <use
           id="use3922"
           xlink:href="#x"
           transform="matrix(0.05,0,0,0.05,12,0)" />
        <use
           id="use3924"
           xlink:href="#q"
           transform="matrix(0.05,0,0,0.05,21,0)" />
        <use
           id="use3926"
           xlink:href="#n"
           transform="matrix(0.05,0,0,0.05,26,0)" />
        <use
           id="use3928"
           xlink:href="#y"
           transform="matrix(0.05,0,0,0.05,29.950000000000003,0)" />
        <use
           id="use3930"
           xlink:href="#k"
           transform="matrix(0.05,0,0,0.05,38.95,0)" />
      </g>
    </defs>
  </g>
</svg>
