<?xml version="1.0" encoding="UTF-8"?>
<svg xmlns="http://www.w3.org/2000/svg" xmlns:xlink="http://www.w3.org/1999/xlink" width="1260pt" height="642pt" viewBox="0 0 1260 642" version="1.1">
<g id="surface1">
<path style="fill-rule:nonzero;fill:rgb(100%,100%,100%);fill-opacity:1;stroke-width:2;stroke-linecap:butt;stroke-linejoin:miter;stroke:rgb(0%,0%,0%);stroke-opacity:1;stroke-miterlimit:4;" d="M 320 480 C 320 524.179688 284.179688 560 240 560 C 195.820312 560 160 524.179688 160 480 C 160 435.820312 195.820312 400 240 400 C 284.179688 400 320 435.820312 320 480 Z M 320 480 " transform="matrix(1,0,0,1,-20,-159)"/>
<path style="fill-rule:nonzero;fill:rgb(100%,100%,100%);fill-opacity:1;stroke-width:2;stroke-linecap:butt;stroke-linejoin:miter;stroke:rgb(0%,0%,0%);stroke-opacity:1;stroke-miterlimit:4;" d="M 960 240 C 960 284.179688 924.179688 320 880 320 C 835.820312 320 800 284.179688 800 240 C 800 195.820312 835.820312 160 880 160 C 924.179688 160 960 195.820312 960 240 Z M 960 240 " transform="matrix(1,0,0,1,-20,-159)"/>
<path style="fill-rule:nonzero;fill:rgb(100%,100%,100%);fill-opacity:1;stroke-width:2;stroke-linecap:butt;stroke-linejoin:miter;stroke:rgb(0%,0%,0%);stroke-opacity:1;stroke-miterlimit:4;" d="M 960 720 C 960 764.179688 924.179688 800 880 800 C 835.820312 800 800 764.179688 800 720 C 800 675.820312 835.820312 640 880 640 C 924.179688 640 960 675.820312 960 720 Z M 960 720 " transform="matrix(1,0,0,1,-20,-159)"/>
<path style="fill:none;stroke-width:2;stroke-linecap:butt;stroke-linejoin:miter;stroke:rgb(0%,0%,0%);stroke-opacity:1;stroke-miterlimit:4;" d="M 240 560 L 240 720 L 800 720 " transform="matrix(1,0,0,1,-20,-159)"/>
<path style=" stroke:none;fill-rule:nonzero;fill:rgb(0%,0%,0%);fill-opacity:1;" d="M 220 401 L 219 401 L 219 400.96875 Z M 221 401 L 220 401 L 220.679688 401 L 221 400.980469 Z M 780 561 L 765.730469 565.640625 L 765.730469 556.359375 Z M 780 561 "/>
<path style=" stroke:none;fill-rule:nonzero;fill:rgb(0%,0%,0%);fill-opacity:1;" d="M 780.03125 559.960938 L 780 561 L 780 561.679688 L 780.019531 562.050781 L 764.71875 567.011719 L 764.71875 555.011719 Z M 766.730469 564.261719 L 776.761719 561 L 766.730469 557.738281 Z M 766.730469 564.261719 "/>
<path style=" stroke:none;fill-rule:nonzero;fill:rgb(100%,100%,100%);fill-opacity:1;" d="M 369.570312 550.199219 L 470.421875 550.199219 L 470.421875 571.800781 L 369.570312 571.800781 Z M 369.570312 550.199219 "/>
<path style=" stroke:none;fill-rule:nonzero;fill:rgb(0%,0%,0%);fill-opacity:1;" d="M 378.824219 555.148438 C 378.574219 552.75 372.675781 552.449219 372.625 555.25 C 373.324219 559 380.523438 555.949219 380.773438 561.199219 C 380.925781 565.101562 374.726562 565.550781 372.023438 563.949219 C 371.175781 563.449219 370.625 562.648438 370.375 561.648438 L 372.023438 561.300781 C 372.273438 564.101562 379.074219 564.449219 379.074219 561.25 C 379.074219 557.351562 371.324219 560.550781 370.976562 555.351562 C 370.726562 551.25 378.226562 551.148438 379.925781 553.648438 C 380.175781 554 380.324219 554.449219 380.476562 554.898438 "/>
<path style=" stroke:none;fill-rule:nonzero;fill:rgb(0%,0%,0%);fill-opacity:1;" d="M 384.523438 562.25 C 384.425781 563.449219 385.425781 563.699219 386.425781 563.351562 L 386.425781 564.550781 C 384.773438 565.050781 382.925781 564.800781 382.925781 562.601562 L 382.925781 556.25 L 381.824219 556.25 L 381.824219 555.101562 L 383.023438 555.101562 L 383.476562 552.949219 L 384.523438 552.949219 L 384.523438 555.101562 L 386.273438 555.101562 L 386.273438 556.25 L 384.523438 556.25 L 384.523438 562.25 "/>
<path style=" stroke:none;fill-rule:nonzero;fill:rgb(0%,0%,0%);fill-opacity:1;" d="M 393.625 562.800781 C 392.875 563.851562 392.074219 564.851562 390.226562 564.800781 C 388.425781 564.75 387.324219 563.75 387.324219 561.949219 C 387.273438 558.75 390.476562 558.800781 393.574219 558.800781 C 393.726562 557.050781 393.125 556.101562 391.523438 556.101562 C 390.324219 556.148438 389.476562 556.449219 389.425781 557.648438 L 387.773438 557.5 C 388.023438 555.648438 389.425781 554.898438 391.574219 554.898438 C 393.824219 554.898438 395.175781 555.898438 395.175781 558.101562 L 395.175781 562.199219 C 395.125 563.199219 395.523438 563.800781 396.574219 563.550781 L 396.574219 564.550781 C 395.023438 565 393.523438 564.449219 393.625 562.800781 Z M 388.976562 561.949219 C 388.976562 562.949219 389.574219 563.601562 390.574219 563.601562 C 392.625 563.449219 393.726562 562.148438 393.574219 559.898438 C 391.425781 560 388.976562 559.648438 388.976562 561.949219 "/>
<path style=" stroke:none;fill-rule:nonzero;fill:rgb(0%,0%,0%);fill-opacity:1;" d="M 402.273438 556.449219 C 398.375 555.648438 399.625 561 399.425781 564.601562 L 397.824219 564.601562 L 397.773438 555.101562 L 399.273438 555.101562 C 399.324219 555.699219 399.226562 556.550781 399.375 557.050781 C 399.675781 555.699219 400.523438 554.601562 402.273438 555 L 402.273438 556.449219 "/>
<path style=" stroke:none;fill-rule:nonzero;fill:rgb(0%,0%,0%);fill-opacity:1;" d="M 405.476562 562.25 C 405.375 563.449219 406.375 563.699219 407.375 563.351562 L 407.375 564.550781 C 405.726562 565.050781 403.875 564.800781 403.875 562.601562 L 403.875 556.25 L 402.773438 556.25 L 402.773438 555.101562 L 403.976562 555.101562 L 404.425781 552.949219 L 405.476562 552.949219 L 405.476562 555.101562 L 407.226562 555.101562 L 407.226562 556.25 L 405.476562 556.25 L 405.476562 562.25 "/>
<path style=" stroke:none;fill-rule:nonzero;fill:rgb(0%,0%,0%);fill-opacity:1;" d="M 407.273438 568.199219 L 407.273438 567.050781 L 417.726562 567.050781 L 417.726562 568.199219 L 407.273438 568.199219 "/>
<path style=" stroke:none;fill-rule:nonzero;fill:rgb(0%,0%,0%);fill-opacity:1;" d="M 428.023438 556.148438 C 424.675781 556.300781 426.125 561.398438 425.824219 564.601562 L 424.273438 564.601562 L 424.273438 558.550781 C 424.273438 557.101562 424.023438 556.050781 422.523438 556.148438 C 419.226562 556.351562 420.625 561.351562 420.324219 564.601562 L 418.773438 564.601562 L 418.726562 555.101562 L 420.226562 555.101562 C 420.273438 555.601562 420.175781 556.300781 420.324219 556.699219 C 420.824219 554.5 425.273438 554.199219 425.675781 556.699219 C 426.226562 555.648438 427.023438 554.949219 428.574219 554.898438 C 432.824219 554.800781 430.925781 560.851562 431.324219 564.601562 L 429.773438 564.601562 L 429.773438 558.550781 C 429.773438 557.101562 429.523438 556.101562 428.023438 556.148438 "/>
<path style=" stroke:none;fill-rule:nonzero;fill:rgb(0%,0%,0%);fill-opacity:1;" d="M 442.773438 564.601562 L 440.976562 564.601562 L 438.976562 556.398438 L 436.925781 564.601562 L 435.125 564.601562 L 432.425781 555.101562 L 434.023438 555.101562 L 435.976562 563.300781 L 438.125 555.101562 L 439.824219 555.101562 L 441.875 563.300781 L 443.976562 555.101562 L 445.523438 555.101562 "/>
<path style=" stroke:none;fill-rule:nonzero;fill:rgb(0%,0%,0%);fill-opacity:1;" d="M 465.476562 552.050781 C 469.574219 551.699219 470.125 556.398438 467.625 558.648438 L 464.523438 561.398438 C 463.976562 561.949219 463.375 562.5 463.074219 563.25 L 469.523438 563.25 L 469.523438 564.601562 L 461.324219 564.601562 C 461.425781 559.648438 467.726562 559.898438 467.726562 555.5 C 467.726562 554.101562 466.925781 553.351562 465.476562 553.351562 C 464.023438 553.351562 463.175781 554.101562 463.023438 555.398438 L 461.425781 555.25 C 461.726562 553.199219 463.125 552.25 465.476562 552.050781 "/>
<path style="fill:none;stroke-width:2;stroke-linecap:butt;stroke-linejoin:miter;stroke:rgb(0%,0%,0%);stroke-opacity:1;stroke-miterlimit:4;" d="M 240 400 L 240 240 L 800 240 " transform="matrix(1,0,0,1,-20,-159)"/>
<path style=" stroke:none;fill-rule:nonzero;fill:rgb(0%,0%,0%);fill-opacity:1;" d="M 221 241.03125 L 220 241 L 219.320312 241 L 219 241.019531 L 219 241 L 221 241 Z M 780 81 L 765.730469 85.640625 L 765.730469 76.359375 Z M 780 81 "/>
<path style=" stroke:none;fill-rule:nonzero;fill:rgb(0%,0%,0%);fill-opacity:1;" d="M 780.03125 79.960938 L 780 81 L 780 81.679688 L 780.019531 82.050781 L 764.71875 87.011719 L 764.71875 75.011719 Z M 766.730469 84.261719 L 776.761719 81 L 766.730469 77.738281 Z M 766.730469 84.261719 "/>
<path style=" stroke:none;fill-rule:nonzero;fill:rgb(100%,100%,100%);fill-opacity:1;" d="M 420.898438 70.199219 L 521.761719 70.199219 L 521.761719 91.800781 L 420.898438 91.800781 Z M 420.898438 70.199219 "/>
<path style=" stroke:none;fill-rule:nonzero;fill:rgb(0%,0%,0%);fill-opacity:1;" d="M 430.160156 75.148438 C 429.910156 72.75 424.007812 72.449219 423.957031 75.25 C 424.660156 79 431.859375 75.949219 432.109375 81.199219 C 432.257812 85.101562 426.058594 85.550781 423.359375 83.949219 C 422.507812 83.449219 421.957031 82.648438 421.707031 81.648438 L 423.359375 81.300781 C 423.609375 84.101562 430.410156 84.449219 430.410156 81.25 C 430.410156 77.351562 422.660156 80.550781 422.308594 75.351562 C 422.058594 71.25 429.558594 71.148438 431.257812 73.648438 C 431.507812 74 431.660156 74.449219 431.808594 74.898438 "/>
<path style=" stroke:none;fill-rule:nonzero;fill:rgb(0%,0%,0%);fill-opacity:1;" d="M 435.859375 82.25 C 435.757812 83.449219 436.757812 83.699219 437.757812 83.351562 L 437.757812 84.550781 C 436.109375 85.050781 434.257812 84.800781 434.257812 82.601562 L 434.257812 76.25 L 433.160156 76.25 L 433.160156 75.101562 L 434.359375 75.101562 L 434.808594 72.949219 L 435.859375 72.949219 L 435.859375 75.101562 L 437.609375 75.101562 L 437.609375 76.25 L 435.859375 76.25 L 435.859375 82.25 "/>
<path style=" stroke:none;fill-rule:nonzero;fill:rgb(0%,0%,0%);fill-opacity:1;" d="M 444.957031 82.800781 C 444.207031 83.851562 443.410156 84.851562 441.558594 84.800781 C 439.757812 84.75 438.660156 83.75 438.660156 81.949219 C 438.609375 78.75 441.808594 78.800781 444.910156 78.800781 C 445.058594 77.050781 444.457031 76.101562 442.859375 76.101562 C 441.660156 76.148438 440.808594 76.449219 440.757812 77.648438 L 439.109375 77.5 C 439.359375 75.648438 440.757812 74.898438 442.910156 74.898438 C 445.160156 74.898438 446.507812 75.898438 446.507812 78.101562 L 446.507812 82.199219 C 446.457031 83.199219 446.859375 83.800781 447.910156 83.550781 L 447.910156 84.550781 C 446.359375 85 444.859375 84.449219 444.957031 82.800781 Z M 440.308594 81.949219 C 440.308594 82.949219 440.910156 83.601562 441.910156 83.601562 C 443.957031 83.449219 445.058594 82.148438 444.910156 79.898438 C 442.757812 80 440.308594 79.648438 440.308594 81.949219 "/>
<path style=" stroke:none;fill-rule:nonzero;fill:rgb(0%,0%,0%);fill-opacity:1;" d="M 453.609375 76.449219 C 449.707031 75.648438 450.957031 81 450.757812 84.601562 L 449.160156 84.601562 L 449.109375 75.101562 L 450.609375 75.101562 C 450.660156 75.699219 450.558594 76.550781 450.707031 77.050781 C 451.007812 75.699219 451.859375 74.601562 453.609375 75 L 453.609375 76.449219 "/>
<path style=" stroke:none;fill-rule:nonzero;fill:rgb(0%,0%,0%);fill-opacity:1;" d="M 456.808594 82.25 C 456.707031 83.449219 457.707031 83.699219 458.707031 83.351562 L 458.707031 84.550781 C 457.058594 85.050781 455.207031 84.800781 455.207031 82.601562 L 455.207031 76.25 L 454.109375 76.25 L 454.109375 75.101562 L 455.308594 75.101562 L 455.757812 72.949219 L 456.808594 72.949219 L 456.808594 75.101562 L 458.558594 75.101562 L 458.558594 76.25 L 456.808594 76.25 L 456.808594 82.25 "/>
<path style=" stroke:none;fill-rule:nonzero;fill:rgb(0%,0%,0%);fill-opacity:1;" d="M 458.609375 88.199219 L 458.609375 87.050781 L 469.058594 87.050781 L 469.058594 88.199219 L 458.609375 88.199219 "/>
<path style=" stroke:none;fill-rule:nonzero;fill:rgb(0%,0%,0%);fill-opacity:1;" d="M 479.359375 76.148438 C 476.007812 76.300781 477.457031 81.398438 477.160156 84.601562 L 475.609375 84.601562 L 475.609375 78.550781 C 475.609375 77.101562 475.359375 76.050781 473.859375 76.148438 C 470.558594 76.351562 471.957031 81.351562 471.660156 84.601562 L 470.109375 84.601562 L 470.058594 75.101562 L 471.558594 75.101562 C 471.609375 75.601562 471.507812 76.300781 471.660156 76.699219 C 472.160156 74.5 476.609375 74.199219 477.007812 76.699219 C 477.558594 75.648438 478.359375 74.949219 479.910156 74.898438 C 484.160156 74.800781 482.257812 80.851562 482.660156 84.601562 L 481.109375 84.601562 L 481.109375 78.550781 C 481.109375 77.101562 480.859375 76.101562 479.359375 76.148438 "/>
<path style=" stroke:none;fill-rule:nonzero;fill:rgb(0%,0%,0%);fill-opacity:1;" d="M 494.109375 84.601562 L 492.308594 84.601562 L 490.308594 76.398438 L 488.257812 84.601562 L 486.457031 84.601562 L 483.757812 75.101562 L 485.359375 75.101562 L 487.308594 83.300781 L 489.457031 75.101562 L 491.160156 75.101562 L 493.207031 83.300781 L 495.308594 75.101562 L 496.859375 75.101562 "/>
<path style=" stroke:none;fill-rule:nonzero;fill:rgb(0%,0%,0%);fill-opacity:1;" d="M 516.808594 72.050781 C 520.910156 71.699219 521.457031 76.398438 518.957031 78.648438 L 515.859375 81.398438 C 515.308594 81.949219 514.707031 82.5 514.410156 83.25 L 520.859375 83.25 L 520.859375 84.601562 L 512.660156 84.601562 C 512.757812 79.648438 519.058594 79.898438 519.058594 75.5 C 519.058594 74.101562 518.257812 73.351562 516.808594 73.351562 C 515.359375 73.351562 514.507812 74.101562 514.359375 75.398438 L 512.757812 75.25 C 513.058594 73.199219 514.457031 72.25 516.808594 72.050781 "/>
<path style="fill:none;stroke-width:2;stroke-linecap:butt;stroke-linejoin:miter;stroke:rgb(0%,0%,0%);stroke-opacity:1;stroke-miterlimit:4;" d="M 952.03125 683 L 1120 683 " transform="matrix(1,0,0,1,-20,-159)"/>
<path style=" stroke:none;fill-rule:nonzero;fill:rgb(0%,0%,0%);fill-opacity:1;" d="M 932.03125 525 L 931.429688 525 L 930.390625 523 L 932.019531 523 Z M 932.03125 525 "/>
<path style="fill-rule:nonzero;fill:rgb(0%,0%,0%);fill-opacity:1;stroke-width:2;stroke-linecap:butt;stroke-linejoin:miter;stroke:rgb(0%,0%,0%);stroke-opacity:1;stroke-miterlimit:4;" d="M 1120 683 L 1105.730469 687.628906 L 1105.730469 678.359375 Z M 1120 683 " transform="matrix(1,0,0,1,-20,-159)"/>
<path style=" stroke:none;fill-rule:nonzero;fill:rgb(100%,100%,100%);fill-opacity:1;" d="M 978.101562 513.199219 L 1053.941406 513.199219 L 1053.941406 534.800781 L 978.101562 534.800781 Z M 978.101562 513.199219 "/>
<path style=" stroke:none;fill-rule:nonzero;fill:rgb(0%,0%,0%);fill-opacity:1;" d="M 987.339844 518.144531 C 987.089844 515.746094 981.1875 515.445312 981.140625 518.246094 C 981.839844 521.996094 989.039062 518.945312 989.289062 524.195312 C 989.4375 528.097656 983.238281 528.546875 980.539062 526.945312 C 979.6875 526.445312 979.140625 525.644531 978.890625 524.644531 L 980.539062 524.296875 C 980.789062 527.097656 987.589844 527.445312 987.589844 524.246094 C 987.589844 520.347656 979.839844 523.546875 979.488281 518.347656 C 979.238281 514.246094 986.738281 514.144531 988.4375 516.644531 C 988.6875 516.996094 988.839844 517.445312 988.988281 517.894531 "/>
<path style=" stroke:none;fill-rule:nonzero;fill:rgb(0%,0%,0%);fill-opacity:1;" d="M 993.039062 525.246094 C 992.9375 526.445312 993.9375 526.695312 994.9375 526.347656 L 994.9375 527.546875 C 993.289062 528.046875 991.4375 527.796875 991.4375 525.597656 L 991.4375 519.246094 L 990.339844 519.246094 L 990.339844 518.097656 L 991.539062 518.097656 L 991.988281 515.945312 L 993.039062 515.945312 L 993.039062 518.097656 L 994.789062 518.097656 L 994.789062 519.246094 L 993.039062 519.246094 L 993.039062 525.246094 "/>
<path style=" stroke:none;fill-rule:nonzero;fill:rgb(0%,0%,0%);fill-opacity:1;" d="M 1002.140625 525.796875 C 1001.390625 526.847656 1000.589844 527.847656 998.738281 527.796875 C 996.9375 527.746094 995.839844 526.746094 995.839844 524.945312 C 995.789062 521.746094 998.988281 521.796875 1002.089844 521.796875 C 1002.238281 520.046875 1001.640625 519.097656 1000.039062 519.097656 C 998.839844 519.144531 997.988281 519.445312 997.9375 520.644531 L 996.289062 520.496094 C 996.539062 518.644531 997.9375 517.894531 1000.089844 517.894531 C 1002.339844 517.894531 1003.6875 518.894531 1003.6875 521.097656 L 1003.6875 525.195312 C 1003.640625 526.195312 1004.039062 526.796875 1005.089844 526.546875 L 1005.089844 527.546875 C 1003.539062 527.996094 1002.039062 527.445312 1002.140625 525.796875 Z M 997.488281 524.945312 C 997.488281 525.945312 998.089844 526.597656 999.089844 526.597656 C 1001.140625 526.445312 1002.238281 525.144531 1002.089844 522.894531 C 999.9375 522.996094 997.488281 522.644531 997.488281 524.945312 "/>
<path style=" stroke:none;fill-rule:nonzero;fill:rgb(0%,0%,0%);fill-opacity:1;" d="M 1010.789062 519.445312 C 1006.890625 518.644531 1008.140625 523.996094 1007.9375 527.597656 L 1006.339844 527.597656 L 1006.289062 518.097656 L 1007.789062 518.097656 C 1007.839844 518.695312 1007.738281 519.546875 1007.890625 520.046875 C 1008.1875 518.695312 1009.039062 517.597656 1010.789062 517.996094 L 1010.789062 519.445312 "/>
<path style=" stroke:none;fill-rule:nonzero;fill:rgb(0%,0%,0%);fill-opacity:1;" d="M 1013.988281 525.246094 C 1013.890625 526.445312 1014.890625 526.695312 1015.890625 526.347656 L 1015.890625 527.546875 C 1014.238281 528.046875 1012.390625 527.796875 1012.390625 525.597656 L 1012.390625 519.246094 L 1011.289062 519.246094 L 1011.289062 518.097656 L 1012.488281 518.097656 L 1012.9375 515.945312 L 1013.988281 515.945312 L 1013.988281 518.097656 L 1015.738281 518.097656 L 1015.738281 519.246094 L 1013.988281 519.246094 L 1013.988281 525.246094 "/>
<path style=" stroke:none;fill-rule:nonzero;fill:rgb(0%,0%,0%);fill-opacity:1;" d="M 1015.789062 531.195312 L 1015.789062 530.046875 L 1026.238281 530.046875 L 1026.238281 531.195312 L 1015.789062 531.195312 "/>
<path style=" stroke:none;fill-rule:nonzero;fill:rgb(0%,0%,0%);fill-opacity:1;" d="M 1036.539062 519.144531 C 1033.1875 519.296875 1034.640625 524.394531 1034.339844 527.597656 L 1032.789062 527.597656 L 1032.789062 521.546875 C 1032.789062 520.097656 1032.539062 519.046875 1031.039062 519.144531 C 1027.738281 519.347656 1029.140625 524.347656 1028.839844 527.597656 L 1027.289062 527.597656 L 1027.238281 518.097656 L 1028.738281 518.097656 C 1028.789062 518.597656 1028.6875 519.296875 1028.839844 519.695312 C 1029.339844 517.496094 1033.789062 517.195312 1034.1875 519.695312 C 1034.738281 518.644531 1035.539062 517.945312 1037.089844 517.894531 C 1041.339844 517.796875 1039.4375 523.847656 1039.839844 527.597656 L 1038.289062 527.597656 L 1038.289062 521.546875 C 1038.289062 520.097656 1038.039062 519.097656 1036.539062 519.144531 "/>
<path style=" stroke:none;fill-rule:nonzero;fill:rgb(0%,0%,0%);fill-opacity:1;" d="M 1051.289062 527.597656 L 1049.488281 527.597656 L 1047.488281 519.394531 L 1045.4375 527.597656 L 1043.640625 527.597656 L 1040.9375 518.097656 L 1042.539062 518.097656 L 1044.488281 526.296875 L 1046.640625 518.097656 L 1048.339844 518.097656 L 1050.390625 526.296875 L 1052.488281 518.097656 L 1054.039062 518.097656 "/>
<path style="fill:none;stroke-width:2;stroke-linecap:butt;stroke-linejoin:miter;stroke:rgb(0%,0%,0%);stroke-opacity:1;stroke-miterlimit:4;" d="M 1120 765.800781 L 946.78125 765.800781 " transform="matrix(1,0,0,1,-20,-159)"/>
<path style=" stroke:none;fill-rule:nonzero;fill:rgb(0%,0%,0%);fill-opacity:1;" d="M 941.039062 611.429688 L 926.78125 606.789062 L 941.039062 602.148438 Z M 941.039062 611.429688 "/>
<path style=" stroke:none;fill-rule:nonzero;fill:rgb(0%,0%,0%);fill-opacity:1;" d="M 942.039062 612.800781 L 925.210938 607.328125 L 926.148438 605.949219 L 942.050781 600.78125 Z M 930.011719 606.800781 L 940.050781 610.050781 L 940.050781 603.53125 Z M 930.011719 606.800781 "/>
<path style=" stroke:none;fill-rule:nonzero;fill:rgb(100%,100%,100%);fill-opacity:1;" d="M 994.71875 596 L 1062.621094 596 L 1062.621094 617.601562 L 994.71875 617.601562 Z M 994.71875 596 "/>
<path style=" stroke:none;fill-rule:nonzero;fill:rgb(0%,0%,0%);fill-opacity:1;" d="M 1004.964844 610.390625 L 1003.566406 606.792969 L 997.917969 606.792969 L 996.515625 610.390625 L 994.765625 610.390625 L 999.816406 597.992188 L 1001.714844 597.992188 L 1006.667969 610.390625 Z M 1003.066406 605.441406 L 1000.714844 599.292969 C 1000.117188 601.542969 999.167969 603.390625 998.417969 605.441406 L 1003.066406 605.441406 "/>
<path style=" stroke:none;fill-rule:nonzero;fill:rgb(0%,0%,0%);fill-opacity:1;" d="M 1011.515625 601.941406 C 1009.515625 601.941406 1009.117188 603.59375 1009.117188 605.59375 C 1009.117188 607.59375 1009.566406 609.34375 1011.515625 609.34375 C 1012.714844 609.34375 1013.566406 608.640625 1013.667969 607.441406 L 1015.265625 607.542969 C 1014.964844 609.390625 1013.714844 610.59375 1011.566406 610.59375 C 1008.617188 610.59375 1007.765625 608.542969 1007.464844 605.640625 C 1006.964844 600.992188 1012.515625 599.09375 1014.816406 602.441406 C 1015.015625 602.792969 1015.066406 603.140625 1015.167969 603.542969 L 1013.566406 603.691406 C 1013.367188 602.640625 1012.765625 601.941406 1011.515625 601.941406 "/>
<path style=" stroke:none;fill-rule:nonzero;fill:rgb(0%,0%,0%);fill-opacity:1;" d="M 1022.867188 610.390625 L 1019.667969 606.042969 L 1018.515625 606.992188 L 1018.515625 610.390625 L 1016.917969 610.390625 L 1016.917969 597.34375 L 1018.515625 597.34375 L 1018.515625 605.492188 L 1022.667969 600.890625 L 1024.515625 600.890625 L 1020.667969 604.992188 L 1024.765625 610.390625 L 1022.867188 610.390625 "/>
<path style=" stroke:none;fill-rule:nonzero;fill:rgb(0%,0%,0%);fill-opacity:1;" d="M 1024.464844 613.992188 L 1024.464844 612.84375 L 1034.917969 612.84375 L 1034.917969 613.992188 L 1024.464844 613.992188 "/>
<path style=" stroke:none;fill-rule:nonzero;fill:rgb(0%,0%,0%);fill-opacity:1;" d="M 1045.214844 601.941406 C 1041.867188 602.09375 1043.316406 607.191406 1043.015625 610.390625 L 1041.464844 610.390625 L 1041.464844 604.34375 C 1041.464844 602.890625 1041.214844 601.84375 1039.714844 601.941406 C 1036.417969 602.140625 1037.816406 607.140625 1037.515625 610.390625 L 1035.964844 610.390625 L 1035.917969 600.890625 L 1037.417969 600.890625 C 1037.464844 601.390625 1037.367188 602.09375 1037.515625 602.492188 C 1038.015625 600.292969 1042.464844 599.992188 1042.867188 602.492188 C 1043.417969 601.441406 1044.214844 600.742188 1045.765625 600.691406 C 1050.015625 600.59375 1048.117188 606.640625 1048.515625 610.390625 L 1046.964844 610.390625 L 1046.964844 604.34375 C 1046.964844 602.890625 1046.714844 601.890625 1045.214844 601.941406 "/>
<path style=" stroke:none;fill-rule:nonzero;fill:rgb(0%,0%,0%);fill-opacity:1;" d="M 1059.964844 610.390625 L 1058.167969 610.390625 L 1056.167969 602.191406 L 1054.117188 610.390625 L 1052.316406 610.390625 L 1049.617188 600.890625 L 1051.214844 600.890625 L 1053.167969 609.09375 L 1055.316406 600.890625 L 1057.015625 600.890625 L 1059.066406 609.09375 L 1061.167969 600.890625 L 1062.714844 600.890625 "/>
<path style="fill:none;stroke-width:2;stroke-linecap:butt;stroke-linejoin:miter;stroke:rgb(0%,0%,0%);stroke-opacity:1;stroke-miterlimit:4;" d="M 1120 288.660156 L 944.71875 288.660156 " transform="matrix(1,0,0,1,-20,-159)"/>
<path style=" stroke:none;fill-rule:nonzero;fill:rgb(0%,0%,0%);fill-opacity:1;" d="M 939 134.300781 L 924.71875 129.660156 L 938.988281 125.019531 Z M 939 134.300781 "/>
<path style=" stroke:none;fill-rule:nonzero;fill:rgb(0%,0%,0%);fill-opacity:1;" d="M 940 135.671875 L 923.058594 130.171875 L 924.121094 128.800781 L 939.988281 123.640625 Z M 927.960938 129.671875 L 938 132.898438 L 938 126.398438 Z M 927.960938 129.671875 "/>
<path style=" stroke:none;fill-rule:nonzero;fill:rgb(100%,100%,100%);fill-opacity:1;" d="M 966.71875 118.859375 L 1034.621094 118.859375 L 1034.621094 140.460938 L 966.71875 140.460938 Z M 966.71875 118.859375 "/>
<path style=" stroke:none;fill-rule:nonzero;fill:rgb(0%,0%,0%);fill-opacity:1;" d="M 976.964844 133.253906 L 975.566406 129.65625 L 969.917969 129.65625 L 968.515625 133.253906 L 966.765625 133.253906 L 971.816406 120.855469 L 973.714844 120.855469 L 978.667969 133.253906 Z M 975.066406 128.304688 L 972.714844 122.15625 C 972.117188 124.40625 971.167969 126.253906 970.417969 128.304688 L 975.066406 128.304688 "/>
<path style=" stroke:none;fill-rule:nonzero;fill:rgb(0%,0%,0%);fill-opacity:1;" d="M 983.515625 124.804688 C 981.515625 124.804688 981.117188 126.453125 981.117188 128.453125 C 981.117188 130.453125 981.566406 132.203125 983.515625 132.203125 C 984.714844 132.203125 985.566406 131.503906 985.667969 130.304688 L 987.265625 130.40625 C 986.964844 132.253906 985.714844 133.453125 983.566406 133.453125 C 980.617188 133.453125 979.765625 131.40625 979.464844 128.503906 C 978.964844 123.855469 984.515625 121.953125 986.816406 125.304688 C 987.015625 125.65625 987.066406 126.003906 987.167969 126.40625 L 985.566406 126.554688 C 985.367188 125.503906 984.765625 124.804688 983.515625 124.804688 "/>
<path style=" stroke:none;fill-rule:nonzero;fill:rgb(0%,0%,0%);fill-opacity:1;" d="M 994.867188 133.253906 L 991.667969 128.90625 L 990.515625 129.855469 L 990.515625 133.253906 L 988.917969 133.253906 L 988.917969 120.203125 L 990.515625 120.203125 L 990.515625 128.355469 L 994.667969 123.753906 L 996.515625 123.753906 L 992.667969 127.855469 L 996.765625 133.253906 L 994.867188 133.253906 "/>
<path style=" stroke:none;fill-rule:nonzero;fill:rgb(0%,0%,0%);fill-opacity:1;" d="M 996.464844 136.855469 L 996.464844 135.703125 L 1006.917969 135.703125 L 1006.917969 136.855469 L 996.464844 136.855469 "/>
<path style=" stroke:none;fill-rule:nonzero;fill:rgb(0%,0%,0%);fill-opacity:1;" d="M 1017.214844 124.804688 C 1013.867188 124.953125 1015.316406 130.054688 1015.015625 133.253906 L 1013.464844 133.253906 L 1013.464844 127.203125 C 1013.464844 125.753906 1013.214844 124.703125 1011.714844 124.804688 C 1008.417969 125.003906 1009.816406 130.003906 1009.515625 133.253906 L 1007.964844 133.253906 L 1007.917969 123.753906 L 1009.417969 123.753906 C 1009.464844 124.253906 1009.367188 124.953125 1009.515625 125.355469 C 1010.015625 123.15625 1014.464844 122.855469 1014.867188 125.355469 C 1015.417969 124.304688 1016.214844 123.605469 1017.765625 123.554688 C 1022.015625 123.453125 1020.117188 129.503906 1020.515625 133.253906 L 1018.964844 133.253906 L 1018.964844 127.203125 C 1018.964844 125.753906 1018.714844 124.753906 1017.214844 124.804688 "/>
<path style=" stroke:none;fill-rule:nonzero;fill:rgb(0%,0%,0%);fill-opacity:1;" d="M 1031.964844 133.253906 L 1030.167969 133.253906 L 1028.167969 125.054688 L 1026.117188 133.253906 L 1024.316406 133.253906 L 1021.617188 123.753906 L 1023.214844 123.753906 L 1025.167969 131.953125 L 1027.316406 123.753906 L 1029.015625 123.753906 L 1031.066406 131.953125 L 1033.167969 123.753906 L 1034.714844 123.753906 "/>
<path style="fill:none;stroke-width:2;stroke-linecap:butt;stroke-linejoin:miter;stroke:rgb(0%,0%,0%);stroke-opacity:1;stroke-miterlimit:4;" d="M 949.261719 198.039062 L 1120 198.039062 " transform="matrix(1,0,0,1,-20,-159)"/>
<path style=" stroke:none;fill-rule:nonzero;fill:rgb(0%,0%,0%);fill-opacity:1;" d="M 929.261719 40.039062 L 928.691406 40.039062 L 927.488281 38.039062 L 929.25 38.039062 Z M 929.261719 40.039062 "/>
<path style="fill-rule:nonzero;fill:rgb(0%,0%,0%);fill-opacity:1;stroke-width:2;stroke-linecap:butt;stroke-linejoin:miter;stroke:rgb(0%,0%,0%);stroke-opacity:1;stroke-miterlimit:4;" d="M 1120 198.039062 L 1105.730469 202.679688 L 1105.730469 193.410156 Z M 1120 198.039062 " transform="matrix(1,0,0,1,-20,-159)"/>
<path style=" stroke:none;fill-rule:nonzero;fill:rgb(100%,100%,100%);fill-opacity:1;" d="M 990.738281 28.238281 L 1066.589844 28.238281 L 1066.589844 49.839844 L 990.730469 49.839844 Z M 990.738281 28.238281 "/>
<path style=" stroke:none;fill-rule:nonzero;fill:rgb(0%,0%,0%);fill-opacity:1;" d="M 999.992188 33.191406 C 999.742188 30.792969 993.839844 30.492188 993.792969 33.292969 C 994.492188 37.042969 1001.691406 33.992188 1001.941406 39.242188 C 1002.089844 43.140625 995.890625 43.59375 993.191406 41.992188 C 992.339844 41.492188 991.792969 40.691406 991.542969 39.691406 L 993.191406 39.34375 C 993.441406 42.140625 1000.242188 42.492188 1000.242188 39.292969 C 1000.242188 35.390625 992.492188 38.59375 992.140625 33.390625 C 991.890625 29.292969 999.390625 29.191406 1001.089844 31.691406 C 1001.339844 32.042969 1001.492188 32.492188 1001.640625 32.941406 "/>
<path style=" stroke:none;fill-rule:nonzero;fill:rgb(0%,0%,0%);fill-opacity:1;" d="M 1005.691406 40.292969 C 1005.589844 41.492188 1006.589844 41.742188 1007.589844 41.390625 L 1007.589844 42.59375 C 1005.941406 43.09375 1004.089844 42.84375 1004.089844 40.640625 L 1004.089844 34.292969 L 1002.992188 34.292969 L 1002.992188 33.140625 L 1004.191406 33.140625 L 1004.640625 30.992188 L 1005.691406 30.992188 L 1005.691406 33.140625 L 1007.441406 33.140625 L 1007.441406 34.292969 L 1005.691406 34.292969 L 1005.691406 40.292969 "/>
<path style=" stroke:none;fill-rule:nonzero;fill:rgb(0%,0%,0%);fill-opacity:1;" d="M 1014.792969 40.84375 C 1014.042969 41.890625 1013.242188 42.890625 1011.390625 42.84375 C 1009.589844 42.792969 1008.492188 41.792969 1008.492188 39.992188 C 1008.441406 36.792969 1011.640625 36.84375 1014.742188 36.84375 C 1014.890625 35.09375 1014.292969 34.140625 1012.691406 34.140625 C 1011.492188 34.191406 1010.640625 34.492188 1010.589844 35.691406 L 1008.941406 35.542969 C 1009.191406 33.691406 1010.589844 32.941406 1012.742188 32.941406 C 1014.992188 32.941406 1016.339844 33.941406 1016.339844 36.140625 L 1016.339844 40.242188 C 1016.292969 41.242188 1016.691406 41.84375 1017.742188 41.59375 L 1017.742188 42.59375 C 1016.191406 43.042969 1014.691406 42.492188 1014.792969 40.84375 Z M 1010.140625 39.992188 C 1010.140625 40.992188 1010.742188 41.640625 1011.742188 41.640625 C 1013.792969 41.492188 1014.890625 40.191406 1014.742188 37.941406 C 1012.589844 38.042969 1010.140625 37.691406 1010.140625 39.992188 "/>
<path style=" stroke:none;fill-rule:nonzero;fill:rgb(0%,0%,0%);fill-opacity:1;" d="M 1023.441406 34.492188 C 1019.542969 33.691406 1020.792969 39.042969 1020.589844 42.640625 L 1018.992188 42.640625 L 1018.941406 33.140625 L 1020.441406 33.140625 C 1020.492188 33.742188 1020.390625 34.59375 1020.542969 35.09375 C 1020.839844 33.742188 1021.691406 32.640625 1023.441406 33.042969 L 1023.441406 34.492188 "/>
<path style=" stroke:none;fill-rule:nonzero;fill:rgb(0%,0%,0%);fill-opacity:1;" d="M 1026.640625 40.292969 C 1026.542969 41.492188 1027.542969 41.742188 1028.542969 41.390625 L 1028.542969 42.59375 C 1026.890625 43.09375 1025.042969 42.84375 1025.042969 40.640625 L 1025.042969 34.292969 L 1023.941406 34.292969 L 1023.941406 33.140625 L 1025.140625 33.140625 L 1025.589844 30.992188 L 1026.640625 30.992188 L 1026.640625 33.140625 L 1028.390625 33.140625 L 1028.390625 34.292969 L 1026.640625 34.292969 L 1026.640625 40.292969 "/>
<path style=" stroke:none;fill-rule:nonzero;fill:rgb(0%,0%,0%);fill-opacity:1;" d="M 1028.441406 46.242188 L 1028.441406 45.09375 L 1038.890625 45.09375 L 1038.890625 46.242188 L 1028.441406 46.242188 "/>
<path style=" stroke:none;fill-rule:nonzero;fill:rgb(0%,0%,0%);fill-opacity:1;" d="M 1049.191406 34.191406 C 1045.839844 34.34375 1047.292969 39.441406 1046.992188 42.640625 L 1045.441406 42.640625 L 1045.441406 36.59375 C 1045.441406 35.140625 1045.191406 34.09375 1043.691406 34.191406 C 1040.390625 34.390625 1041.792969 39.390625 1041.492188 42.640625 L 1039.941406 42.640625 L 1039.890625 33.140625 L 1041.390625 33.140625 C 1041.441406 33.640625 1041.339844 34.34375 1041.492188 34.742188 C 1041.992188 32.542969 1046.441406 32.242188 1046.839844 34.742188 C 1047.390625 33.691406 1048.191406 32.992188 1049.742188 32.941406 C 1053.992188 32.84375 1052.089844 38.890625 1052.492188 42.640625 L 1050.941406 42.640625 L 1050.941406 36.59375 C 1050.941406 35.140625 1050.691406 34.140625 1049.191406 34.191406 "/>
<path style=" stroke:none;fill-rule:nonzero;fill:rgb(0%,0%,0%);fill-opacity:1;" d="M 1063.941406 42.640625 L 1062.140625 42.640625 L 1060.140625 34.441406 L 1058.089844 42.640625 L 1056.292969 42.640625 L 1053.589844 33.140625 L 1055.191406 33.140625 L 1057.140625 41.34375 L 1059.292969 33.140625 L 1060.992188 33.140625 L 1063.042969 41.34375 L 1065.140625 33.140625 L 1066.691406 33.140625 "/>
<path style=" stroke:none;fill-rule:nonzero;fill:rgb(0%,0%,0%);fill-opacity:1;" d="M 216.050781 363.800781 L 216.148438 352.898438 C 215 356.699219 213.449219 360.148438 212.148438 363.800781 L 211 363.800781 L 206.949219 352.898438 L 207 363.800781 L 205.550781 363.800781 L 205.550781 351.398438 L 207.75 351.398438 L 211.601562 361.949219 C 212.648438 358.199219 214.148438 354.949219 215.398438 351.398438 L 217.550781 351.398438 L 217.550781 363.800781 L 216.050781 363.800781 "/>
<path style=" stroke:none;fill-rule:nonzero;fill:rgb(0%,0%,0%);fill-opacity:1;" d="M 232.300781 363.800781 L 230.300781 363.800781 L 227.5 353.300781 L 224.75 363.800781 L 222.75 363.800781 L 219.101562 351.398438 L 220.851562 351.398438 L 223.800781 362.300781 L 224.550781 359.101562 L 226.699219 351.398438 L 228.300781 351.398438 L 231.25 362.300781 L 234.199219 351.398438 L 235.949219 351.398438 "/>
<path style=" stroke:none;fill-rule:nonzero;fill:rgb(0%,0%,0%);fill-opacity:1;" d="M 216.351562 385.398438 L 216.351562 384.050781 L 219.550781 384.050781 L 219.550781 374.550781 L 216.75 376.5 L 216.75 375.050781 L 219.648438 373 L 221.101562 373 L 221.101562 384.050781 L 224.148438 384.050781 L 224.148438 385.398438 L 216.351562 385.398438 "/>
<path style="fill:none;stroke-width:2;stroke-linecap:butt;stroke-linejoin:miter;stroke:rgb(0%,0%,0%);stroke-opacity:1;stroke-miterlimit:4;" d="M 160 480 L 321 480 " transform="matrix(1,0,0,1,-20,-159)"/>
<path style=" stroke:none;fill-rule:nonzero;fill:rgb(0%,0%,0%);fill-opacity:1;" d="M 304 322 L 301 322 L 301 320 L 304 320 Z M 304 322 "/>
<path style="fill:none;stroke-width:2;stroke-linecap:butt;stroke-linejoin:miter;stroke:rgb(0%,0%,0%);stroke-opacity:1;stroke-miterlimit:4;" d="M 800 720 L 961 720 M 799 240 L 960 240 " transform="matrix(1,0,0,1,-20,-159)"/>
<path style=" stroke:none;fill-rule:nonzero;fill:rgb(0%,0%,0%);fill-opacity:1;" d="M 856.050781 603.800781 L 856.148438 592.898438 C 855 596.699219 853.449219 600.148438 852.148438 603.800781 L 851 603.800781 L 846.949219 592.898438 L 847 603.800781 L 845.550781 603.800781 L 845.550781 591.398438 L 847.75 591.398438 L 851.601562 601.949219 C 852.648438 598.199219 854.148438 594.949219 855.398438 591.398438 L 857.550781 591.398438 L 857.550781 603.800781 L 856.050781 603.800781 "/>
<path style=" stroke:none;fill-rule:nonzero;fill:rgb(0%,0%,0%);fill-opacity:1;" d="M 872.300781 603.800781 L 870.300781 603.800781 L 867.5 593.300781 L 864.75 603.800781 L 862.75 603.800781 L 859.101562 591.398438 L 860.851562 591.398438 L 863.800781 602.300781 L 864.550781 599.101562 L 866.699219 591.398438 L 868.300781 591.398438 L 871.25 602.300781 L 874.199219 591.398438 L 875.949219 591.398438 "/>
<path style=" stroke:none;fill-rule:nonzero;fill:rgb(0%,0%,0%);fill-opacity:1;" d="M 861.300781 619.050781 C 862.949219 619.351562 864.199219 620.050781 864.199219 622 C 864.199219 626.398438 857.25 626.601562 856 623.449219 C 855.851562 623.050781 855.75 622.648438 855.699219 622.199219 L 857.300781 622.050781 C 857.601562 623.398438 858.351562 624.25 860 624.25 C 861.601562 624.25 862.601562 623.5 862.601562 621.949219 C 862.601562 620.050781 860.800781 619.648438 858.648438 619.800781 L 858.648438 618.398438 C 860.601562 618.449219 862.25 618.199219 862.25 616.300781 C 862.25 614.949219 861.398438 614.148438 859.949219 614.148438 C 858.550781 614.148438 857.601562 614.898438 857.5 616.199219 L 855.898438 616.050781 C 856.199219 613.949219 857.648438 612.898438 859.949219 612.851562 C 862.351562 612.800781 863.898438 613.898438 863.898438 616.101562 C 863.898438 617.898438 862.851562 618.699219 861.300781 619.050781 "/>
<path style=" stroke:none;fill-rule:nonzero;fill:rgb(0%,0%,0%);fill-opacity:1;" d="M 856.050781 123.800781 L 856.148438 112.898438 C 855 116.699219 853.449219 120.148438 852.148438 123.800781 L 851 123.800781 L 846.949219 112.898438 L 847 123.800781 L 845.550781 123.800781 L 845.550781 111.398438 L 847.75 111.398438 L 851.601562 121.949219 C 852.648438 118.199219 854.148438 114.949219 855.398438 111.398438 L 857.550781 111.398438 L 857.550781 123.800781 L 856.050781 123.800781 "/>
<path style=" stroke:none;fill-rule:nonzero;fill:rgb(0%,0%,0%);fill-opacity:1;" d="M 872.300781 123.800781 L 870.300781 123.800781 L 867.5 113.300781 L 864.75 123.800781 L 862.75 123.800781 L 859.101562 111.398438 L 860.851562 111.398438 L 863.800781 122.300781 L 864.550781 119.101562 L 866.699219 111.398438 L 868.300781 111.398438 L 871.25 122.300781 L 874.199219 111.398438 L 875.949219 111.398438 "/>
<path style=" stroke:none;fill-rule:nonzero;fill:rgb(0%,0%,0%);fill-opacity:1;" d="M 861.300781 139.050781 C 862.949219 139.351562 864.199219 140.050781 864.199219 142 C 864.199219 146.398438 857.25 146.601562 856 143.449219 C 855.851562 143.050781 855.75 142.648438 855.699219 142.199219 L 857.300781 142.050781 C 857.601562 143.398438 858.351562 144.25 860 144.25 C 861.601562 144.25 862.601562 143.5 862.601562 141.949219 C 862.601562 140.050781 860.800781 139.648438 858.648438 139.800781 L 858.648438 138.398438 C 860.601562 138.449219 862.25 138.199219 862.25 136.300781 C 862.25 134.949219 861.398438 134.148438 859.949219 134.148438 C 858.550781 134.148438 857.601562 134.898438 857.5 136.199219 L 855.898438 136.050781 C 856.199219 133.949219 857.648438 132.898438 859.949219 132.851562 C 862.351562 132.800781 863.898438 133.898438 863.898438 136.101562 C 863.898438 137.898438 862.851562 138.699219 861.300781 139.050781 "/>
<path style=" stroke:none;fill-rule:nonzero;fill:rgb(0%,0%,0%);fill-opacity:1;" d="M 1142.75 81.800781 L 1142.75 84.601562 L 1141.25 84.601562 L 1141.25 81.800781 L 1135.398438 81.800781 L 1135.398438 80.550781 L 1141.101562 72.199219 L 1142.75 72.199219 L 1142.75 80.550781 L 1144.5 80.550781 L 1144.5 81.800781 Z M 1141.25 74 C 1139.898438 76.300781 1138.351562 78.5 1136.851562 80.550781 L 1141.25 80.550781 L 1141.25 74 "/>
<path style=" stroke:none;fill-rule:nonzero;fill:rgb(0%,0%,0%);fill-opacity:1;" d="M 1142.75 571.800781 L 1142.75 574.601562 L 1141.25 574.601562 L 1141.25 571.800781 L 1135.398438 571.800781 L 1135.398438 570.550781 L 1141.101562 562.199219 L 1142.75 562.199219 L 1142.75 570.550781 L 1144.5 570.550781 L 1144.5 571.800781 Z M 1141.25 564 C 1139.898438 566.300781 1138.351562 568.5 1136.851562 570.550781 L 1141.25 570.550781 L 1141.25 564 "/>
<path style=" stroke:none;fill-rule:nonzero;fill:rgb(0%,0%,0%);fill-opacity:1;" d="M 852.25 523.800781 L 850.851562 520.199219 L 845.199219 520.199219 L 843.800781 523.800781 L 842.050781 523.800781 L 847.101562 511.398438 L 849 511.398438 L 853.949219 523.800781 Z M 850.351562 518.851562 L 848 512.699219 C 847.398438 514.949219 846.449219 516.800781 845.699219 518.851562 L 850.351562 518.851562 "/>
<path style=" stroke:none;fill-rule:nonzero;fill:rgb(0%,0%,0%);fill-opacity:1;" d="M 855.5 511.398438 C 859.851562 511.449219 865.050781 510.648438 865.050781 515.148438 C 865.050781 519.050781 861.199219 519.148438 857.148438 518.949219 L 857.148438 523.800781 L 855.5 523.800781 Z M 857.148438 517.648438 C 860 517.648438 863.351562 518.199219 863.351562 515.148438 C 863.351562 512.199219 859.949219 512.800781 857.148438 512.75 L 857.148438 517.648438 "/>
<path style=" stroke:none;fill-rule:nonzero;fill:rgb(0%,0%,0%);fill-opacity:1;" d="M 867.5 511.398438 C 871.851562 511.449219 877.050781 510.648438 877.050781 515.148438 C 877.050781 519.050781 873.199219 519.148438 869.148438 518.949219 L 869.148438 523.800781 L 867.5 523.800781 Z M 869.148438 517.648438 C 872 517.648438 875.351562 518.199219 875.351562 515.148438 C 875.351562 512.199219 871.949219 512.800781 869.148438 512.75 L 869.148438 517.648438 "/>
<path style=" stroke:none;fill-rule:nonzero;fill:rgb(0%,0%,0%);fill-opacity:1;" d="M 857.699219 538.300781 C 860.101562 536.550781 864.550781 537.898438 864.25 541.351562 C 864.800781 546.300781 856.550781 547.050781 855.699219 542.648438 L 857.300781 542.449219 C 857.648438 543.601562 858.398438 544.300781 859.898438 544.300781 C 861.648438 544.25 862.449219 543.199219 862.601562 541.398438 C 862.800781 538.648438 858.949219 538.148438 857.648438 539.699219 L 856.101562 539.699219 L 856.5 533 L 863.550781 533 L 863.550781 534.351562 L 857.949219 534.351562 "/>
<path style=" stroke:none;fill-rule:nonzero;fill:rgb(0%,0%,0%);fill-opacity:1;" d="M 852.425781 43.800781 L 851.023438 40.199219 L 845.375 40.199219 L 843.976562 43.800781 L 842.226562 43.800781 L 847.273438 31.398438 L 849.175781 31.398438 L 854.125 43.800781 Z M 850.523438 38.851562 L 848.175781 32.699219 C 847.574219 34.949219 846.625 36.800781 845.875 38.851562 L 850.523438 38.851562 "/>
<path style=" stroke:none;fill-rule:nonzero;fill:rgb(0%,0%,0%);fill-opacity:1;" d="M 855.675781 31.398438 C 860.023438 31.449219 865.226562 30.648438 865.226562 35.148438 C 865.226562 39.050781 861.375 39.148438 857.324219 38.949219 L 857.324219 43.800781 L 855.675781 43.800781 Z M 857.324219 37.648438 C 860.175781 37.648438 863.523438 38.199219 863.523438 35.148438 C 863.523438 32.199219 860.125 32.800781 857.324219 32.75 L 857.324219 37.648438 "/>
<path style=" stroke:none;fill-rule:nonzero;fill:rgb(0%,0%,0%);fill-opacity:1;" d="M 867.675781 31.398438 C 872.023438 31.449219 877.226562 30.648438 877.226562 35.148438 C 877.226562 39.050781 873.375 39.148438 869.324219 38.949219 L 869.324219 43.800781 L 867.675781 43.800781 Z M 869.324219 37.648438 C 872.175781 37.648438 875.523438 38.199219 875.523438 35.148438 C 875.523438 32.199219 872.125 32.800781 869.324219 32.75 L 869.324219 37.648438 "/>
<path style=" stroke:none;fill-rule:nonzero;fill:rgb(0%,0%,0%);fill-opacity:1;" d="M 857.699219 58.300781 C 860.101562 56.550781 864.550781 57.898438 864.25 61.351562 C 864.800781 66.300781 856.550781 67.050781 855.699219 62.648438 L 857.300781 62.449219 C 857.648438 63.601562 858.398438 64.300781 859.898438 64.300781 C 861.648438 64.25 862.449219 63.199219 862.601562 61.398438 C 862.800781 58.648438 858.949219 58.148438 857.648438 59.699219 L 856.101562 59.699219 L 856.5 53 L 863.550781 53 L 863.550781 54.351562 L 857.949219 54.351562 "/>
<path style="fill:none;stroke-width:2;stroke-linecap:butt;stroke-linejoin:miter;stroke:rgb(0%,0%,0%);stroke-opacity:1;stroke-miterlimit:4;" d="M 804.960938 270.539062 L 780 270.539062 L 780 436.078125 L 308.058594 436.078125 " transform="matrix(1,0,0,1,-20,-159)"/>
<path style=" stroke:none;fill-rule:nonzero;fill:rgb(0%,0%,0%);fill-opacity:1;" d="M 785.78125 110.898438 L 786.480469 112.539062 L 784.960938 112.539062 L 784.960938 110.539062 L 785.640625 110.539062 Z M 302.328125 281.71875 L 288.058594 277.078125 L 302.328125 272.441406 Z M 302.328125 281.71875 "/>
<path style=" stroke:none;fill-rule:nonzero;fill:rgb(0%,0%,0%);fill-opacity:1;" d="M 303.328125 283.101562 L 287.429688 277.921875 L 287.371094 277.839844 L 286.46875 276.539062 L 303.328125 271.070312 Z M 291.300781 277.078125 L 301.328125 280.339844 L 301.328125 273.820312 Z M 291.300781 277.078125 "/>
<path style=" stroke:none;fill-rule:nonzero;fill:rgb(100%,100%,100%);fill-opacity:1;" d="M 536.878906 266.28125 L 629.78125 266.28125 L 629.78125 287.878906 L 536.878906 287.878906 Z M 536.878906 266.28125 "/>
<path style=" stroke:none;fill-rule:nonzero;fill:rgb(0%,0%,0%);fill-opacity:1;" d="M 547.132812 280.679688 L 545.734375 277.082031 L 540.082031 277.082031 L 538.683594 280.679688 L 536.933594 280.679688 L 541.984375 268.28125 L 543.882812 268.28125 L 548.832031 280.679688 Z M 545.234375 275.730469 L 542.882812 269.582031 C 542.285156 271.832031 541.332031 273.679688 540.582031 275.730469 L 545.234375 275.730469 "/>
<path style=" stroke:none;fill-rule:nonzero;fill:rgb(0%,0%,0%);fill-opacity:1;" d="M 553.683594 272.230469 C 551.683594 272.230469 551.285156 273.878906 551.285156 275.878906 C 551.285156 277.878906 551.734375 279.628906 553.683594 279.628906 C 554.882812 279.628906 555.734375 278.929688 555.832031 277.730469 L 557.433594 277.832031 C 557.132812 279.679688 555.882812 280.878906 553.734375 280.878906 C 550.785156 280.878906 549.933594 278.832031 549.632812 275.929688 C 549.132812 271.28125 554.683594 269.378906 556.984375 272.730469 C 557.183594 273.082031 557.234375 273.429688 557.332031 273.832031 L 555.734375 273.980469 C 555.535156 272.929688 554.933594 272.230469 553.683594 272.230469 "/>
<path style=" stroke:none;fill-rule:nonzero;fill:rgb(0%,0%,0%);fill-opacity:1;" d="M 565.035156 280.679688 L 561.832031 276.332031 L 560.683594 277.28125 L 560.683594 280.679688 L 559.082031 280.679688 L 559.082031 267.628906 L 560.683594 267.628906 L 560.683594 275.78125 L 564.832031 271.179688 L 566.683594 271.179688 L 562.832031 275.28125 L 566.933594 280.679688 L 565.035156 280.679688 "/>
<path style=" stroke:none;fill-rule:nonzero;fill:rgb(0%,0%,0%);fill-opacity:1;" d="M 566.632812 284.28125 L 566.632812 283.128906 L 577.082031 283.128906 L 577.082031 284.28125 L 566.632812 284.28125 "/>
<path style=" stroke:none;fill-rule:nonzero;fill:rgb(0%,0%,0%);fill-opacity:1;" d="M 587.382812 272.230469 C 584.035156 272.378906 585.484375 277.480469 585.183594 280.679688 L 583.632812 280.679688 L 583.632812 274.628906 C 583.632812 273.179688 583.382812 272.128906 581.882812 272.230469 C 578.582031 272.429688 579.984375 277.429688 579.683594 280.679688 L 578.132812 280.679688 L 578.082031 271.179688 L 579.582031 271.179688 C 579.632812 271.679688 579.535156 272.378906 579.683594 272.78125 C 580.183594 270.582031 584.632812 270.28125 585.035156 272.78125 C 585.582031 271.730469 586.382812 271.03125 587.933594 270.980469 C 592.183594 270.878906 590.285156 276.929688 590.683594 280.679688 L 589.132812 280.679688 L 589.132812 274.628906 C 589.132812 273.179688 588.882812 272.179688 587.382812 272.230469 "/>
<path style=" stroke:none;fill-rule:nonzero;fill:rgb(0%,0%,0%);fill-opacity:1;" d="M 602.132812 280.679688 L 600.332031 280.679688 L 598.332031 272.480469 L 596.285156 280.679688 L 594.484375 280.679688 L 591.785156 271.179688 L 593.382812 271.179688 L 595.332031 279.378906 L 597.484375 271.179688 L 599.183594 271.179688 L 601.234375 279.378906 L 603.332031 271.179688 L 604.882812 271.179688 "/>
<path style=" stroke:none;fill-rule:nonzero;fill:rgb(0%,0%,0%);fill-opacity:1;" d="M 625.285156 272.679688 C 627.683594 272.730469 628.984375 274.179688 628.984375 276.628906 C 628.984375 279.28125 627.582031 280.878906 624.984375 280.878906 C 621.734375 280.878906 620.832031 278.128906 620.683594 274.78125 C 620.433594 270.28125 623.183594 266.679688 627.332031 268.679688 C 628.035156 269.03125 628.433594 269.730469 628.683594 270.628906 L 627.132812 270.929688 C 626.882812 268.929688 623.785156 269.03125 623.035156 270.628906 C 622.582031 271.582031 622.285156 272.832031 622.285156 274.332031 C 622.832031 273.332031 623.785156 272.628906 625.285156 272.679688 Z M 624.933594 279.582031 C 626.632812 279.582031 627.382812 278.429688 627.382812 276.679688 C 627.382812 274.929688 626.582031 273.878906 624.882812 273.878906 C 623.433594 273.878906 622.382812 274.679688 622.433594 276.332031 C 622.484375 278.128906 623.183594 279.582031 624.933594 279.582031 "/>
<path style="fill:none;stroke-width:2;stroke-linecap:butt;stroke-linejoin:miter;stroke:rgb(0%,0%,0%);stroke-opacity:1;stroke-miterlimit:4;" d="M 812.820312 674.800781 L 780 674.800781 L 780 525.839844 L 306.75 525.839844 " transform="matrix(1,0,0,1,-20,-159)"/>
<path style=" stroke:none;fill-rule:nonzero;fill:rgb(0%,0%,0%);fill-opacity:1;" d="M 793.351562 516.800781 L 792.820312 516.800781 L 792.820312 514.800781 L 794.699219 514.800781 Z M 301 371.46875 L 286.75 366.839844 L 301 362.199219 Z M 301 371.46875 "/>
<path style=" stroke:none;fill-rule:nonzero;fill:rgb(0%,0%,0%);fill-opacity:1;" d="M 302 372.851562 L 285.179688 367.378906 L 286.109375 365.980469 L 302.011719 360.828125 Z M 289.980469 366.851562 L 300 370.101562 L 300 363.578125 Z M 289.980469 366.851562 "/>
<path style=" stroke:none;fill-rule:nonzero;fill:rgb(100%,100%,100%);fill-opacity:1;" d="M 523.550781 356.039062 L 616.449219 356.039062 L 616.449219 377.640625 L 523.550781 377.640625 Z M 523.550781 356.039062 "/>
<path style=" stroke:none;fill-rule:nonzero;fill:rgb(0%,0%,0%);fill-opacity:1;" d="M 533.800781 370.4375 L 532.398438 366.839844 L 526.75 366.839844 L 525.351562 370.4375 L 523.601562 370.4375 L 528.648438 358.039062 L 530.550781 358.039062 L 535.5 370.4375 Z M 531.898438 365.488281 L 529.550781 359.339844 C 528.949219 361.589844 528 363.4375 527.25 365.488281 L 531.898438 365.488281 "/>
<path style=" stroke:none;fill-rule:nonzero;fill:rgb(0%,0%,0%);fill-opacity:1;" d="M 540.351562 361.988281 C 538.351562 361.988281 537.949219 363.636719 537.949219 365.636719 C 537.949219 367.636719 538.398438 369.386719 540.351562 369.386719 C 541.550781 369.386719 542.398438 368.6875 542.5 367.488281 L 544.101562 367.589844 C 543.800781 369.4375 542.550781 370.636719 540.398438 370.636719 C 537.449219 370.636719 536.601562 368.589844 536.300781 365.6875 C 535.800781 361.039062 541.351562 359.136719 543.648438 362.488281 C 543.851562 362.839844 543.898438 363.1875 544 363.589844 L 542.398438 363.738281 C 542.199219 362.6875 541.601562 361.988281 540.351562 361.988281 "/>
<path style=" stroke:none;fill-rule:nonzero;fill:rgb(0%,0%,0%);fill-opacity:1;" d="M 551.699219 370.4375 L 548.5 366.089844 L 547.351562 367.039062 L 547.351562 370.4375 L 545.75 370.4375 L 545.75 357.386719 L 547.351562 357.386719 L 547.351562 365.539062 L 551.5 360.9375 L 553.351562 360.9375 L 549.5 365.039062 L 553.601562 370.4375 L 551.699219 370.4375 "/>
<path style=" stroke:none;fill-rule:nonzero;fill:rgb(0%,0%,0%);fill-opacity:1;" d="M 553.300781 374.039062 L 553.300781 372.886719 L 563.75 372.886719 L 563.75 374.039062 L 553.300781 374.039062 "/>
<path style=" stroke:none;fill-rule:nonzero;fill:rgb(0%,0%,0%);fill-opacity:1;" d="M 574.050781 361.988281 C 570.699219 362.136719 572.148438 367.238281 571.851562 370.4375 L 570.300781 370.4375 L 570.300781 364.386719 C 570.300781 362.9375 570.050781 361.886719 568.550781 361.988281 C 565.25 362.1875 566.648438 367.1875 566.351562 370.4375 L 564.800781 370.4375 L 564.75 360.9375 L 566.25 360.9375 C 566.300781 361.4375 566.199219 362.136719 566.351562 362.539062 C 566.851562 360.339844 571.300781 360.039062 571.699219 362.539062 C 572.25 361.488281 573.050781 360.789062 574.601562 360.738281 C 578.851562 360.636719 576.949219 366.6875 577.351562 370.4375 L 575.800781 370.4375 L 575.800781 364.386719 C 575.800781 362.9375 575.550781 361.9375 574.050781 361.988281 "/>
<path style=" stroke:none;fill-rule:nonzero;fill:rgb(0%,0%,0%);fill-opacity:1;" d="M 588.800781 370.4375 L 587 370.4375 L 585 362.238281 L 582.949219 370.4375 L 581.148438 370.4375 L 578.449219 360.9375 L 580.050781 360.9375 L 582 369.136719 L 584.148438 360.9375 L 585.851562 360.9375 L 587.898438 369.136719 L 590 360.9375 L 591.550781 360.9375 "/>
<path style=" stroke:none;fill-rule:nonzero;fill:rgb(0%,0%,0%);fill-opacity:1;" d="M 611.949219 362.4375 C 614.351562 362.488281 615.648438 363.9375 615.648438 366.386719 C 615.648438 369.039062 614.25 370.636719 611.648438 370.636719 C 608.398438 370.636719 607.5 367.886719 607.351562 364.539062 C 607.101562 360.039062 609.851562 356.4375 614 358.4375 C 614.699219 358.789062 615.101562 359.488281 615.351562 360.386719 L 613.800781 360.6875 C 613.550781 358.6875 610.449219 358.789062 609.699219 360.386719 C 609.25 361.339844 608.949219 362.589844 608.949219 364.089844 C 609.5 363.089844 610.449219 362.386719 611.949219 362.4375 Z M 611.601562 369.339844 C 613.300781 369.339844 614.050781 368.1875 614.050781 366.4375 C 614.050781 364.6875 613.25 363.636719 611.550781 363.636719 C 610.101562 363.636719 609.050781 364.4375 609.101562 366.089844 C 609.148438 367.886719 609.851562 369.339844 611.601562 369.339844 "/>
<path style=" stroke:none;fill-rule:nonzero;fill:rgb(0%,0%,0%);fill-opacity:1;" d="M 212.25 283.800781 L 210.851562 280.199219 L 205.199219 280.199219 L 203.800781 283.800781 L 202.050781 283.800781 L 207.101562 271.398438 L 209 271.398438 L 213.949219 283.800781 Z M 210.351562 278.851562 L 208 272.699219 C 207.398438 274.949219 206.449219 276.800781 205.699219 278.851562 L 210.351562 278.851562 "/>
<path style=" stroke:none;fill-rule:nonzero;fill:rgb(0%,0%,0%);fill-opacity:1;" d="M 215.5 271.398438 C 219.851562 271.449219 225.050781 270.648438 225.050781 275.148438 C 225.050781 279.050781 221.199219 279.148438 217.148438 278.949219 L 217.148438 283.800781 L 215.5 283.800781 Z M 217.148438 277.648438 C 220 277.648438 223.351562 278.199219 223.351562 275.148438 C 223.351562 272.199219 219.949219 272.800781 217.148438 272.75 L 217.148438 277.648438 "/>
<path style=" stroke:none;fill-rule:nonzero;fill:rgb(0%,0%,0%);fill-opacity:1;" d="M 227.5 271.398438 C 231.851562 271.449219 237.050781 270.648438 237.050781 275.148438 C 237.050781 279.050781 233.199219 279.148438 229.148438 278.949219 L 229.148438 283.800781 L 227.5 283.800781 Z M 229.148438 277.648438 C 232 277.648438 235.351562 278.199219 235.351562 275.148438 C 235.351562 272.199219 231.949219 272.800781 229.148438 272.75 L 229.148438 277.648438 "/>
<path style=" stroke:none;fill-rule:nonzero;fill:rgb(0%,0%,0%);fill-opacity:1;" d="M 218.199219 305.398438 C 218.351562 300.5 220.601562 297.449219 222.601562 294.351562 L 215.898438 294.351562 L 215.898438 293 L 224.101562 293 L 224.101562 294.300781 C 222.148438 297.550781 219.898438 300.351562 219.851562 305.398438 L 218.199219 305.398438 "/>
<path style="fill:none;stroke-width:2;stroke-linecap:butt;stroke-linejoin:miter;stroke:rgb(0%,0%,0%);stroke-opacity:1;stroke-miterlimit:4;" d="M 30 438.421875 L 170.5 438.421875 " transform="matrix(1,0,0,1,-20,-159)"/>
<path style=" stroke:none;fill-rule:nonzero;fill:rgb(0%,0%,0%);fill-opacity:1;" d="M 150.5 279.421875 L 136.25 284.050781 L 136.25 274.78125 Z M 150.5 279.421875 "/>
<path style=" stroke:none;fill-rule:nonzero;fill:rgb(0%,0%,0%);fill-opacity:1;" d="M 152 278.851562 L 151.179688 280.25 L 135.25 285.429688 L 135.25 273.398438 Z M 137.25 282.679688 L 147.28125 279.421875 L 137.25 276.160156 Z M 137.25 282.679688 "/>
<path style=" stroke:none;fill-rule:nonzero;fill:rgb(100%,100%,100%);fill-opacity:1;" d="M 42.328125 268.621094 L 118.179688 268.621094 L 118.179688 290.21875 L 42.328125 290.21875 Z M 42.328125 268.621094 "/>
<path style=" stroke:none;fill-rule:nonzero;fill:rgb(0%,0%,0%);fill-opacity:1;" d="M 51.582031 273.570312 C 51.332031 271.167969 45.433594 270.871094 45.382812 273.667969 C 46.082031 277.417969 53.28125 274.371094 53.53125 279.621094 C 53.683594 283.519531 47.480469 283.96875 44.78125 282.371094 C 43.933594 281.871094 43.382812 281.070312 43.132812 280.070312 L 44.78125 279.71875 C 45.03125 282.519531 51.832031 282.871094 51.832031 279.667969 C 51.832031 275.769531 44.082031 278.96875 43.730469 273.769531 C 43.480469 269.667969 50.980469 269.570312 52.683594 272.070312 C 52.933594 272.417969 53.082031 272.871094 53.230469 273.320312 "/>
<path style=" stroke:none;fill-rule:nonzero;fill:rgb(0%,0%,0%);fill-opacity:1;" d="M 57.28125 280.667969 C 57.183594 281.871094 58.183594 282.121094 59.183594 281.769531 L 59.183594 282.96875 C 57.53125 283.46875 55.683594 283.21875 55.683594 281.019531 L 55.683594 274.667969 L 54.582031 274.667969 L 54.582031 273.519531 L 55.78125 273.519531 L 56.230469 271.371094 L 57.28125 271.371094 L 57.28125 273.519531 L 59.03125 273.519531 L 59.03125 274.667969 L 57.28125 274.667969 L 57.28125 280.667969 "/>
<path style=" stroke:none;fill-rule:nonzero;fill:rgb(0%,0%,0%);fill-opacity:1;" d="M 66.382812 281.21875 C 65.632812 282.269531 64.832031 283.269531 62.980469 283.21875 C 61.183594 283.167969 60.082031 282.167969 60.082031 280.371094 C 60.03125 277.167969 63.230469 277.21875 66.332031 277.21875 C 66.480469 275.46875 65.882812 274.519531 64.28125 274.519531 C 63.082031 274.570312 62.230469 274.871094 62.183594 276.070312 L 60.53125 275.917969 C 60.78125 274.070312 62.183594 273.320312 64.332031 273.320312 C 66.582031 273.320312 67.933594 274.320312 67.933594 276.519531 L 67.933594 280.621094 C 67.882812 281.621094 68.28125 282.21875 69.332031 281.96875 L 69.332031 282.96875 C 67.78125 283.417969 66.28125 282.871094 66.382812 281.21875 Z M 61.730469 280.371094 C 61.730469 281.371094 62.332031 282.019531 63.332031 282.019531 C 65.382812 281.871094 66.480469 280.570312 66.332031 278.320312 C 64.183594 278.417969 61.730469 278.070312 61.730469 280.371094 "/>
<path style=" stroke:none;fill-rule:nonzero;fill:rgb(0%,0%,0%);fill-opacity:1;" d="M 75.03125 274.871094 C 71.132812 274.070312 72.382812 279.417969 72.183594 283.019531 L 70.582031 283.019531 L 70.53125 273.519531 L 72.03125 273.519531 C 72.082031 274.121094 71.980469 274.96875 72.132812 275.46875 C 72.433594 274.121094 73.28125 273.019531 75.03125 273.417969 L 75.03125 274.871094 "/>
<path style=" stroke:none;fill-rule:nonzero;fill:rgb(0%,0%,0%);fill-opacity:1;" d="M 78.230469 280.667969 C 78.132812 281.871094 79.132812 282.121094 80.132812 281.769531 L 80.132812 282.96875 C 78.480469 283.46875 76.632812 283.21875 76.632812 281.019531 L 76.632812 274.667969 L 75.53125 274.667969 L 75.53125 273.519531 L 76.730469 273.519531 L 77.183594 271.371094 L 78.230469 271.371094 L 78.230469 273.519531 L 79.980469 273.519531 L 79.980469 274.667969 L 78.230469 274.667969 L 78.230469 280.667969 "/>
<path style=" stroke:none;fill-rule:nonzero;fill:rgb(0%,0%,0%);fill-opacity:1;" d="M 80.03125 286.621094 L 80.03125 285.46875 L 90.480469 285.46875 L 90.480469 286.621094 L 80.03125 286.621094 "/>
<path style=" stroke:none;fill-rule:nonzero;fill:rgb(0%,0%,0%);fill-opacity:1;" d="M 100.78125 274.570312 C 97.433594 274.71875 98.882812 279.820312 98.582031 283.019531 L 97.03125 283.019531 L 97.03125 276.96875 C 97.03125 275.519531 96.78125 274.46875 95.28125 274.570312 C 91.980469 274.769531 93.382812 279.769531 93.082031 283.019531 L 91.53125 283.019531 L 91.480469 273.519531 L 92.980469 273.519531 C 93.03125 274.019531 92.933594 274.71875 93.082031 275.121094 C 93.582031 272.917969 98.03125 272.621094 98.433594 275.121094 C 98.980469 274.070312 99.78125 273.371094 101.332031 273.320312 C 105.582031 273.21875 103.683594 279.269531 104.082031 283.019531 L 102.53125 283.019531 L 102.53125 276.96875 C 102.53125 275.519531 102.28125 274.519531 100.78125 274.570312 "/>
<path style=" stroke:none;fill-rule:nonzero;fill:rgb(0%,0%,0%);fill-opacity:1;" d="M 115.53125 283.019531 L 113.730469 283.019531 L 111.730469 274.820312 L 109.683594 283.019531 L 107.882812 283.019531 L 105.183594 273.519531 L 106.78125 273.519531 L 108.730469 281.71875 L 110.882812 273.519531 L 112.582031 273.519531 L 114.632812 281.71875 L 116.730469 273.519531 L 118.28125 273.519531 "/>
<path style="fill:none;stroke-width:2;stroke-linecap:butt;stroke-linejoin:miter;stroke:rgb(0%,0%,0%);stroke-opacity:1;stroke-miterlimit:4;" d="M 168.53125 518.101562 L 40 518.101562 " transform="matrix(1,0,0,1,-20,-159)"/>
<path style=" stroke:none;fill-rule:nonzero;fill:rgb(0%,0%,0%);fill-opacity:1;" d="M 150.070312 359.878906 L 150.191406 360.078125 L 148.519531 360.078125 L 148.519531 358.078125 L 149.121094 358.078125 Z M 150.070312 359.878906 "/>
<path style="fill-rule:nonzero;fill:rgb(0%,0%,0%);fill-opacity:1;stroke-width:2;stroke-linecap:butt;stroke-linejoin:miter;stroke:rgb(0%,0%,0%);stroke-opacity:1;stroke-miterlimit:4;" d="M 40 518.101562 L 54.269531 513.460938 L 54.269531 522.730469 Z M 40 518.101562 " transform="matrix(1,0,0,1,-20,-159)"/>
<path style=" stroke:none;fill-rule:nonzero;fill:rgb(100%,100%,100%);fill-opacity:1;" d="M 50.320312 348.300781 L 118.21875 348.300781 L 118.21875 369.898438 L 50.320312 369.898438 Z M 50.320312 348.300781 "/>
<path style=" stroke:none;fill-rule:nonzero;fill:rgb(0%,0%,0%);fill-opacity:1;" d="M 60.566406 362.691406 L 59.167969 359.089844 L 53.515625 359.089844 L 52.117188 362.691406 L 50.367188 362.691406 L 55.417969 350.292969 L 57.316406 350.292969 L 62.265625 362.691406 Z M 58.667969 357.742188 L 56.316406 351.589844 C 55.714844 353.839844 54.765625 355.691406 54.015625 357.742188 L 58.667969 357.742188 "/>
<path style=" stroke:none;fill-rule:nonzero;fill:rgb(0%,0%,0%);fill-opacity:1;" d="M 67.117188 354.242188 C 65.117188 354.242188 64.714844 355.890625 64.714844 357.890625 C 64.714844 359.890625 65.167969 361.640625 67.117188 361.640625 C 68.316406 361.640625 69.167969 360.941406 69.265625 359.742188 L 70.867188 359.839844 C 70.566406 361.691406 69.316406 362.890625 67.167969 362.890625 C 64.214844 362.890625 63.367188 360.839844 63.066406 357.941406 C 62.566406 353.292969 68.117188 351.390625 70.417969 354.742188 C 70.617188 355.089844 70.667969 355.441406 70.765625 355.839844 L 69.167969 355.992188 C 68.964844 354.941406 68.367188 354.242188 67.117188 354.242188 "/>
<path style=" stroke:none;fill-rule:nonzero;fill:rgb(0%,0%,0%);fill-opacity:1;" d="M 78.464844 362.691406 L 75.265625 358.339844 L 74.117188 359.292969 L 74.117188 362.691406 L 72.515625 362.691406 L 72.515625 349.640625 L 74.117188 349.640625 L 74.117188 357.792969 L 78.265625 353.191406 L 80.117188 353.191406 L 76.265625 357.292969 L 80.367188 362.691406 L 78.464844 362.691406 "/>
<path style=" stroke:none;fill-rule:nonzero;fill:rgb(0%,0%,0%);fill-opacity:1;" d="M 80.066406 366.292969 L 80.066406 365.140625 L 90.515625 365.140625 L 90.515625 366.292969 L 80.066406 366.292969 "/>
<path style=" stroke:none;fill-rule:nonzero;fill:rgb(0%,0%,0%);fill-opacity:1;" d="M 100.816406 354.242188 C 97.464844 354.390625 98.917969 359.492188 98.617188 362.691406 L 97.066406 362.691406 L 97.066406 356.640625 C 97.066406 355.191406 96.816406 354.140625 95.316406 354.242188 C 92.015625 354.441406 93.417969 359.441406 93.117188 362.691406 L 91.566406 362.691406 L 91.515625 353.191406 L 93.015625 353.191406 C 93.066406 353.691406 92.964844 354.390625 93.117188 354.792969 C 93.617188 352.589844 98.066406 352.292969 98.464844 354.792969 C 99.015625 353.742188 99.816406 353.042969 101.367188 352.992188 C 105.617188 352.890625 103.714844 358.941406 104.117188 362.691406 L 102.566406 362.691406 L 102.566406 356.640625 C 102.566406 355.191406 102.316406 354.191406 100.816406 354.242188 "/>
<path style=" stroke:none;fill-rule:nonzero;fill:rgb(0%,0%,0%);fill-opacity:1;" d="M 115.566406 362.691406 L 113.765625 362.691406 L 111.765625 354.492188 L 109.714844 362.691406 L 107.917969 362.691406 L 105.214844 353.191406 L 106.816406 353.191406 L 108.765625 361.390625 L 110.917969 353.191406 L 112.617188 353.191406 L 114.667969 361.390625 L 116.765625 353.191406 L 118.316406 353.191406 "/>
<path style=" stroke:none;fill-rule:nonzero;fill:rgb(0%,0%,0%);fill-opacity:1;" d="M 21.699219 318.050781 C 23.101562 318.5 24.300781 319.25 24.25 321.148438 C 24.199219 323.648438 22.550781 324.800781 20 324.800781 C 17.449219 324.800781 15.851562 323.648438 15.800781 321.148438 C 15.800781 319.351562 16.851562 318.449219 18.25 318.101562 C 14.5 316.851562 16 311.800781 19.949219 312.050781 C 22.25 312.199219 23.851562 312.949219 23.898438 315.199219 C 23.898438 316.851562 23.050781 317.75 21.699219 318.050781 Z M 20 317.5 C 21.550781 317.550781 22.300781 316.75 22.300781 315.300781 C 22.300781 313.898438 21.449219 313.148438 19.949219 313.199219 C 18.5 313.199219 17.648438 313.851562 17.699219 315.300781 C 17.75 316.699219 18.5 317.5 20 317.5 Z M 20.050781 323.601562 C 21.800781 323.601562 22.601562 322.699219 22.601562 321 C 22.601562 319.5 21.699219 318.699219 19.949219 318.699219 C 18.300781 318.699219 17.398438 319.550781 17.398438 321.050781 C 17.398438 322.75 18.351562 323.601562 20.050781 323.601562 "/>
</g>
</svg>
