<?xml version="1.0" encoding="UTF-8" standalone="no"?>
<svg
   xmlns:dc="http://purl.org/dc/elements/1.1/"
   xmlns:cc="http://creativecommons.org/ns#"
   xmlns:rdf="http://www.w3.org/1999/02/22-rdf-syntax-ns#"
   xmlns:svg="http://www.w3.org/2000/svg"
   xmlns="http://www.w3.org/2000/svg"
   xmlns:xlink="http://www.w3.org/1999/xlink"
   version="1.1"
   id="svg2"
   height="769"
   width="740">
  <metadata
     id="metadata469">
    <rdf:RDF>
      <cc:Work
         rdf:about="">
        <dc:format>image/svg+xml</dc:format>
        <dc:type
           rdf:resource="http://purl.org/dc/dcmitype/StillImage" />
        <dc:title></dc:title>
      </cc:Work>
    </rdf:RDF>
  </metadata>
  <defs
     id="defs467" />
  <g
     id="g4"
     transform="translate(0 -44)">
    <path
       style="fill:none"
       id="path6"
       d="m 235.13445,566.67912 c 0,-2.22786 1.72696,-4.03599 3.85482,-4.03599 l 208.15999,0 c 2.12785,0 3.85482,1.80813 3.85482,4.03599 l 0,40.35985 c 0,2.22786 -1.72697,4.03599 -3.85482,4.03599 l -208.15999,0 c -2.12786,0 -3.85482,-1.80813 -3.85482,-4.03599 z" />
    <use
       height="100%"
       width="100%"
       y="0"
       x="0"
       id="use8"
       transform="matrix(0.77096292,0,0,0.80719704,101.6072,302.893)"
       xlink:href="#a" />
    <use
       height="100%"
       width="100%"
       y="0"
       x="0"
       id="use10"
       transform="matrix(0.77096292,0,0,0.80719704,114.95282,302.893)"
       xlink:href="#b" />
    <use
       height="100%"
       width="100%"
       y="0"
       x="0"
       id="use12"
       transform="matrix(0.77096292,0,0,0.80719704,171.48992,302.893)"
       xlink:href="#c" />
    <use
       id="use14"
       transform="matrix(1,0,0,1,300,682) translate(41.592592592592595 53.333333333333336)"
       xlink:href="#d" />
    <use
       height="100%"
       width="100%"
       y="0"
       x="0"
       id="use16"
       transform="matrix(0.77096292,0,0,0.80719704,114.78148,328.72331)"
       xlink:href="#e" />
    <use
       height="100%"
       width="100%"
       y="0"
       x="0"
       id="use18"
       transform="matrix(0.77096292,0,0,0.80719704,191.13519,328.72331)"
       xlink:href="#f" />
    <path
       style="fill:#ffffff;stroke:#000000;stroke-width:1.01577508"
       id="path20"
       d="m 19.294921,309.9455 c -6.989026,0 -12.6593706,-5.25706 -12.6593706,-11.73669 0,-5.1837 3.4285816,-9.56051 8.7455126,-11.16453 -0.305929,-15.24302 20.793012,-18.1772 29.232593,-12.30884 4.219787,-8.80251 25.318735,-5.86836 25.318735,2.93417 12.659363,-2.93417 25.318733,8.80251 16.879157,23.47337 8.439576,11.73669 0,26.40756 -16.879157,20.53921 -4.219794,7.62884 -21.098948,7.62884 -25.318735,0 -8.439581,5.86835 -25.318735,2.93417 -25.318735,-11.73669 z" />
    <use
       id="use22"
       transform="matrix(1,0,0,1,100,652) translate(78.50500000000001 66.9)"
       xlink:href="#g" />
    <path
       style="fill:#ffffff;stroke:#000000;stroke-width:1.57774401"
       id="path24"
       d="m 77.437424,93.639388 c 0,17.839052 -13.80024,32.287872 -30.83852,32.287872 -17.03827,0 -30.83851,-14.44882 -30.83851,-32.287872 0,-17.839052 13.80024,-32.287879 30.83851,-32.287879 17.03828,0 30.83852,14.448827 30.83852,32.287879 z" />
    <use
       id="use26"
       transform="matrix(1,0,0,1,140,64) translate(40.005 44.4)"
       xlink:href="#g" />
    <path
       style="fill:none"
       id="path28"
       d="m 238.55642,75.90332 c 0,-2.227864 1.72696,-4.035984 3.85482,-4.035984 l 192.74073,0 c 2.12785,0 3.85481,1.80812 3.85481,4.035984 l 0,40.35986 c 0,2.22785 -1.72696,4.03598 -3.85481,4.03598 l -192.74073,0 c -2.12786,0 -3.85482,-1.80813 -3.85482,-4.03598 z" />
    <use
       height="100%"
       width="100%"
       y="0"
       x="0"
       id="use30"
       transform="matrix(0.77096292,0,0,0.80719704,100.79257,97.944434)"
       xlink:href="#h" />
    <use
       height="100%"
       width="100%"
       y="0"
       x="0"
       id="use32"
       transform="matrix(0.77096292,0,0,0.80719704,119.86742,96.315197)"
       xlink:href="#i" />
    <use
       height="100%"
       width="100%"
       y="0"
       x="0"
       id="use34"
       transform="matrix(0.77096292,0,0,0.80719704,189.82499,96.315197)"
       xlink:href="#j" />
    <path
       id="path36"
       fill="none"
       d="M20 405c0-2.76 2.24-5 5-5h690c2.76 0 5 2.24 5 5v98c0 2.76-2.24 5-5 5H25c-2.76 0-5-2.24-5-5z" />
    <use
       height="100%"
       width="100%"
       y="0"
       x="0"
       id="use38"
       transform="matrix(0.77096292,0,0,0.80719704,306.11552,181.81521)"
       xlink:href="#k" />
    <use
       height="100%"
       width="100%"
       y="0"
       x="0"
       id="use40"
       transform="matrix(0.77096292,0,0,0.80719704,408.71842,181.8152)"
       xlink:href="#l" />
    <use
       height="100%"
       width="100%"
       y="0"
       x="0"
       id="use42"
       transform="matrix(0.77096292,0,0,0.80719704,429.39561,181.00058)"
       xlink:href="#m" />
    <use
       height="100%"
       width="100%"
       y="0"
       x="0"
       id="use44"
       transform="matrix(0.77096292,0,0,0.80719704,517.51363,181.00058)"
       xlink:href="#n" />
    <use
       height="100%"
       width="100%"
       y="0"
       x="0"
       id="use46"
       transform="matrix(0.77096292,0,0,0.80719704,593.92462,181.00058)"
       xlink:href="#o" />
    <use
       id="use48"
       transform="matrix(1,0,0,1,20,400) translate(40.62962962962956 75.33333333333334)"
       xlink:href="#p" />
    <use
       height="100%"
       width="100%"
       y="0"
       x="0"
       id="use50"
       transform="matrix(0.77096292,0,0,0.80719704,429.73824,206.83089)"
       xlink:href="#q" />
    <use
       height="100%"
       width="100%"
       y="0"
       x="0"
       id="use52"
       transform="matrix(0.77096292,0,0,0.80719704,505.97774,206.83089)"
       xlink:href="#r" />
    <use
       height="100%"
       width="100%"
       y="0"
       x="0"
       id="use54"
       transform="matrix(0.77096292,0,0,0.80719704,621.16531,206.83089)"
       xlink:href="#s" />
    <path
       style="fill:none;stroke:#000000;stroke-width:1.57774401"
       id="path56"
       d="m 14.567713,241.98201 77.09629,0" />
    <path
       style="stroke:#000000;stroke-width:1.57774401"
       id="path58"
       d="m 91.664003,241.98201 -11.00164,3.7454 0,-7.49079 z" />
    <path
       style="fill:none"
       id="path60"
       d="m 303.75732,239.83327 77.09629,0" />
    <path
       style="fill:none;stroke:#000000;stroke-width:1.57774401"
       id="path62"
       d="m 303.75732,239.83327 8.55768,0 m 8.57311,0 17.1385,0 m 8.55769,0 17.13851,0 m 8.55768,0 8.57312,0" />
    <path
       style="stroke:#000000;stroke-width:1.57774401"
       id="path64"
       d="m 380.85361,239.83327 -11.00164,3.7454 0,-7.4908 z" />
    <path
       id="path66"
       fill="none"
       d="M232.1 763.63V766l.14 2.04.26 1.8.35 1.57.43 1.45.5 1.32.58 1.24.66 1.17.74 1.12.84 1.07.95 1.06 1.1 1.06 1.3 1.05 1.53 1.08 1.87 1.13 2.38 1.2 3.2 1.34 4.88 1.6 37.24 9.58 4.78 2 3.8 1.9.38.22" />
    <path
       id="path68"
       d="m 69.930092,322.03083 c 0,0.28424 -0.206624,0.5168 -0.469599,0.5168 -0.258279,0 -0.469599,-0.23256 -0.469599,-0.5168 0,-0.28424 0.21132,-0.51681 0.469599,-0.51681 0.262975,0 0.469599,0.23257 0.469599,0.51681 z m 0.328718,3.93807 c 0,0.28425 -0.206623,0.51681 -0.469598,0.51681 -0.253583,0 -0.469599,-0.23256 -0.469599,-0.51681 0,-0.28425 0.216016,-0.51681 0.469599,-0.51681 0.262975,0 0.469598,0.23256 0.469598,0.51681 z m 1.549677,3.55564 c 0,0.28424 -0.21132,0.5168 -0.4696,0.5168 -0.262974,0 -0.469598,-0.23256 -0.469598,-0.5168 0,-0.28942 0.206624,-0.51681 0.469598,-0.51681 0.25828,0 0.4696,0.22739 0.4696,0.51681 z m 2.667321,2.63571 c 0,0.27908 -0.206624,0.51681 -0.4696,0.51681 -0.258278,0 -0.469598,-0.23773 -0.469598,-0.51681 0,-0.28941 0.21132,-0.5168 0.469598,-0.5168 0.262976,0 0.4696,0.22739 0.4696,0.5168 z m 3.240231,1.73131 c 0,0.28941 -0.216016,0.5168 -0.469599,0.5168 -0.262975,0 -0.469599,-0.22739 -0.469599,-0.5168 0,-0.28424 0.206624,-0.51681 0.469599,-0.51681 0.253583,0 0.469599,0.23257 0.469599,0.51681 z m 3.42807,1.18865 c 0,0.27908 -0.206623,0.51681 -0.469598,0.51681 -0.253583,0 -0.469599,-0.23773 -0.469599,-0.51681 0,-0.29457 0.216016,-0.5168 0.469599,-0.5168 0.262975,0 0.469598,0.22223 0.469598,0.5168 z m 3.498511,0.98194 c 0,0.28424 -0.21132,0.51681 -0.469598,0.51681 -0.262976,0 -0.469599,-0.23257 -0.469599,-0.51681 0,-0.28425 0.206623,-0.5168 0.469599,-0.5168 0.258278,0 0.469598,0.23255 0.469598,0.5168 z m 3.489117,0.98193 c 0,0.28941 -0.21132,0.51681 -0.469599,0.51681 -0.258279,0 -0.469599,-0.2274 -0.469599,-0.51681 0,-0.27907 0.21132,-0.51681 0.469599,-0.51681 0.258279,0 0.469599,0.23774 0.469599,0.51681 z m 3.493814,0.99227 c 0,0.28425 -0.21132,0.51681 -0.469598,0.51681 -0.262976,0 -0.4696,-0.23256 -0.4696,-0.51681 0,-0.28424 0.206624,-0.5168 0.4696,-0.5168 0.258278,0 0.469598,0.23256 0.469598,0.5168 z m 3.489122,0.98194 c 0,0.28941 -0.211325,0.51681 -0.4696,0.51681 -0.258282,0 -0.4696,-0.2274 -0.4696,-0.51681 0,-0.27908 0.211318,-0.51681 0.4696,-0.51681 0.258275,0 0.4696,0.23773 0.4696,0.51681 z m 3.446848,1.14731 c 0,0.28425 -0.211317,0.51681 -0.469592,0.51681 -0.262978,0 -0.4696,-0.23256 -0.4696,-0.51681 0,-0.28424 0.206622,-0.51681 0.4696,-0.51681 0.258275,0 0.469592,0.23257 0.469592,0.51681 z" />
    <path
       style="fill:none"
       id="path72"
       d="m 235.13445,474.65865 c 0,-2.22785 1.72696,-4.03598 3.85482,-4.03598 l 269.83702,0 c 2.12785,0 3.85481,1.80813 3.85481,4.03598 l 0,40.35986 c 0,2.22786 -1.72696,4.03599 -3.85481,4.03599 l -269.83702,0 c -2.12786,0 -3.85482,-1.80813 -3.85482,-4.03599 z" />
    <g
       transform="matrix(0.77096292,0,0,0.80719704,170.02778,-242.02626)"
       id="g74">
      <use
         height="100%"
         width="100%"
         y="0"
         x="0"
         id="use76"
         transform="translate(301.14767,603.33333)"
         xlink:href="#a" />
      <use
         height="100%"
         width="100%"
         y="0"
         x="0"
         id="use78"
         transform="translate(336.85703,601.31494)"
         xlink:href="#t" />
      <use
         height="100%"
         width="100%"
         y="0"
         x="0"
         id="use80"
         transform="translate(470.1531,601.31494)"
         xlink:href="#u" />
      <use
         height="100%"
         width="100%"
         y="0"
         x="0"
         id="use82"
         transform="translate(499.78273,601.31494)"
         xlink:href="#v" />
      <use
         height="100%"
         width="100%"
         y="0"
         x="0"
         id="use84"
         transform="translate(522.00495,601.31494)"
         xlink:href="#w" />
    </g>
    <path
       style="fill:none"
       id="path86"
       d="m 238.55642,426.22684 c 0,-2.22788 1.72696,-4.03599 3.85482,-4.03599 l 223.57924,0 c 2.12786,0 3.85481,1.80811 3.85481,4.03599 l 0,40.35985 c 0,2.22786 -1.72695,4.03598 -3.85481,4.03598 l -223.57924,0 c -2.12786,0 -3.85482,-1.80812 -3.85482,-4.03598 z" />
    <g
       transform="matrix(0.77096292,0,0,0.80719704,-133.01035,-190.70528)"
       id="g88">
      <use
         height="100%"
         width="100%"
         y="0"
         x="0"
         id="use90"
         transform="translate(301.14767,543.33333)"
         xlink:href="#a" />
      <use
         height="100%"
         width="100%"
         y="0"
         x="0"
         id="use92"
         transform="translate(321.91476,541.31494)"
         xlink:href="#x" />
    </g>
    <path
       style="fill:#c92d39;stroke:#000000;stroke-width:1.57774401"
       id="path94"
       d="m 366.62704,90.334638 c 0,17.839052 -13.80024,32.287872 -30.83852,32.287872 -17.03827,0 -30.83851,-14.44882 -30.83851,-32.287872 0,-17.83907 13.80024,-32.28789 30.83851,-32.28789 17.03828,0 30.83852,14.44882 30.83852,32.28789 z" />
    <g
       id="g96">
      <use
         id="use98"
         transform="matrix(1,0,0,1,140,180) translate(40.005 44.4)"
         xlink:href="#g" />
    </g>
    <path
       style="fill:#498a44;stroke:#000000;stroke-width:1.57774401"
       id="path100"
       d="m 76.622805,172.56482 c 0,17.83906 -13.80024,32.28789 -30.83852,32.28789 -17.03827,0 -30.83851,-14.44883 -30.83851,-32.28789 0,-17.83905 13.80024,-32.28787 30.83851,-32.28787 17.03828,0 30.83852,14.44882 30.83852,32.28787 z" />
    <g
       id="g102">
      <use
         id="use104"
         transform="matrix(1,0,0,1,140,296) translate(40.005 44.4)"
         xlink:href="#g" />
    </g>
    <path
       style="fill:none"
       id="path106"
       d="m 235.13445,177.61015 c 0,-2.22787 1.72696,-4.03598 3.85482,-4.03598 l 146.48295,0 c 2.12786,0 3.85482,1.80811 3.85482,4.03598 l 0,40.35984 c 0,2.22788 -1.72696,4.03599 -3.85482,4.03599 l -146.48295,0 c -2.12786,0 -3.85482,-1.80811 -3.85482,-4.03599 z" />
    <g
       transform="matrix(0.77096292,0,0,0.80719704,172.47164,-87.248718)"
       id="g108">
      <use
         height="100%"
         width="100%"
         y="0"
         x="0"
         id="use110"
         transform="translate(301.14815,235.33333)"
         xlink:href="#a" />
      <use
         height="100%"
         width="100%"
         y="0"
         x="0"
         id="use112"
         transform="translate(331.57369,235.33333)"
         xlink:href="#y" />
      <use
         height="100%"
         width="100%"
         y="0"
         x="0"
         id="use114"
         transform="translate(402.61072,235.33333)"
         xlink:href="#j" />
    </g>
    <path
       style="fill:none"
       id="path116"
       d="m 119.45861,160.45687 c 0,-2.22786 1.72696,-4.03599 3.85482,-4.03599 l 208.15999,0 c 2.12785,0 3.85482,1.80813 3.85482,4.03599 l 0,40.35985 c 0,2.22786 -1.72697,4.03599 -3.85482,4.03599 l -208.15999,0 c -2.12786,0 -3.85482,-1.80813 -3.85482,-4.03599 z" />
    <g
       transform="matrix(0.77096292,0,0,0.80719704,-131.38111,-98.653379)"
       id="g118">
      <use
         height="100%"
         width="100%"
         y="0"
         x="0"
         id="use120"
         transform="translate(301.14767,351.33333)"
         xlink:href="#a" />
      <use
         height="100%"
         width="100%"
         y="0"
         x="0"
         id="use122"
         transform="translate(324.17753,350.32414)"
         xlink:href="#b" />
      <use
         height="100%"
         width="100%"
         y="0"
         x="0"
         id="use124"
         transform="translate(396.10323,350.32414)"
         xlink:href="#z" />
      <use
         height="100%"
         width="100%"
         y="0"
         x="0"
         id="use126"
         transform="translate(422.69582,350.32414)"
         xlink:href="#A" />
    </g>
    <defs
       id="defs128">
      <path
         id="B"
         d="M18-150v-26h174v26H18zm0 90v-26h174v26H18" />
      <use
         id="a"
         xlink:href="#B"
         transform="matrix(0.07407407407407408,0,0,0.07407407407407408,0,0)" />
      <path
         id="C"
         d="M190 0L58-211 59 0H30v-248h39L202-35l-2-213h31V0h-41" />
      <path
         id="D"
         d="M100-194c62-1 85 37 85 99 1 63-27 99-86 99S16-35 15-95c0-66 28-99 85-99zM99-20c44 1 53-31 53-75 0-43-8-75-51-75s-53 32-53 75 10 74 51 75" />
      <path
         id="E"
         d="M85-194c31 0 48 13 60 33l-1-100h32l1 261h-30c-2-10 0-23-3-31C134-8 116 4 85 4 32 4 16-35 15-94c0-66 23-100 70-100zm9 24c-40 0-46 34-46 75 0 40 6 74 45 74 42 0 51-32 51-76 0-42-9-74-50-73" />
      <path
         id="F"
         d="M100-194c63 0 86 42 84 106H49c0 40 14 67 53 68 26 1 43-12 49-29l28 8c-11 28-37 45-77 45C44 4 14-33 15-96c1-61 26-98 85-98zm52 81c6-60-76-77-97-28-3 7-6 17-6 28h103" />
      <g
         id="b">
        <use
           id="use137"
           xlink:href="#C"
           transform="matrix(0.07407407407407408,0,0,0.07407407407407408,0,0)" />
        <use
           id="use139"
           xlink:href="#D"
           transform="matrix(0.07407407407407408,0,0,0.07407407407407408,19.185185185185187,0)" />
        <use
           id="use141"
           xlink:href="#E"
           transform="matrix(0.07407407407407408,0,0,0.07407407407407408,34,0)" />
        <use
           id="use143"
           xlink:href="#F"
           transform="matrix(0.07407407407407408,0,0,0.07407407407407408,48.81481481481481,0)" />
      </g>
      <path
         id="G"
         d="M143 0L79-87 56-68V0H24v-261h32v163l83-92h37l-77 82L181 0h-38" />
      <path
         id="H"
         d="M117-194c89-4 53 116 60 194h-32v-121c0-31-8-49-39-48C34-167 62-67 57 0H25l-1-190h30c1 10-1 24 2 32 11-22 29-35 61-36" />
      <path
         id="I"
         d="M206 0h-36l-40-164L89 0H53L-1-190h32L70-26l43-164h34l41 164 42-164h31" />
      <path
         id="J"
         d="M24 0v-261h32V0H24" />
      <path
         id="K"
         d="M177-190C167-65 218 103 67 71c-23-6-38-20-44-43l32-5c15 47 100 32 89-28v-30C133-14 115 1 83 1 29 1 15-40 15-95c0-56 16-97 71-98 29-1 48 16 59 35 1-10 0-23 2-32h30zM94-22c36 0 50-32 50-73 0-42-14-75-50-75-39 0-46 34-46 75s6 73 46 73" />
      <path
         id="L"
         d="M0 4l72-265h28L28 4H0" />
      <g
         id="c">
        <use
           id="use152"
           xlink:href="#G"
           transform="matrix(0.07407407407407408,0,0,0.07407407407407408,0,0)" />
        <use
           id="use154"
           xlink:href="#H"
           transform="matrix(0.07407407407407408,0,0,0.07407407407407408,13.333333333333336,0)" />
        <use
           id="use156"
           xlink:href="#D"
           transform="matrix(0.07407407407407408,0,0,0.07407407407407408,28.148148148148152,0)" />
        <use
           id="use158"
           xlink:href="#I"
           transform="matrix(0.07407407407407408,0,0,0.07407407407407408,42.96296296296297,0)" />
        <use
           id="use160"
           xlink:href="#J"
           transform="matrix(0.07407407407407408,0,0,0.07407407407407408,62.14814814814816,0)" />
        <use
           id="use162"
           xlink:href="#F"
           transform="matrix(0.07407407407407408,0,0,0.07407407407407408,68,0)" />
        <use
           id="use164"
           xlink:href="#E"
           transform="matrix(0.07407407407407408,0,0,0.07407407407407408,82.81481481481481,0)" />
        <use
           id="use166"
           xlink:href="#K"
           transform="matrix(0.07407407407407408,0,0,0.07407407407407408,97.62962962962962,0)" />
        <use
           id="use168"
           xlink:href="#F"
           transform="matrix(0.07407407407407408,0,0,0.07407407407407408,112.44444444444443,0)" />
        <use
           id="use170"
           xlink:href="#L"
           transform="matrix(0.07407407407407408,0,0,0.07407407407407408,127.25925925925924,0)" />
      </g>
      <path
         id="M"
         d="M33 0v-248h34V0H33" />
      <path
         id="N"
         d="M59-47c-2 24 18 29 38 22v24C64 9 27 4 27-40v-127H5v-23h24l9-43h21v43h35v23H59v120" />
      <path
         id="O"
         d="M114-163C36-179 61-72 57 0H25l-1-190h30c1 12-1 29 2 39 6-27 23-49 58-41v29" />
      <path
         id="P"
         d="M141-36C126-15 110 5 73 4 37 3 15-17 15-53c-1-64 63-63 125-63 3-35-9-54-41-54-24 1-41 7-42 31l-33-3c5-37 33-52 76-52 45 0 72 20 72 64v82c-1 20 7 32 28 27v20c-31 9-61-2-59-35zM48-53c0 20 12 33 32 33 41-3 63-29 60-74-43 2-92-5-92 41" />
      <g
         id="e">
        <use
           id="use177"
           xlink:href="#M"
           transform="matrix(0.07407407407407408,0,0,0.07407407407407408,0,0)" />
        <use
           id="use179"
           xlink:href="#H"
           transform="matrix(0.07407407407407408,0,0,0.07407407407407408,7.407407407407408,0)" />
        <use
           id="use181"
           xlink:href="#N"
           transform="matrix(0.07407407407407408,0,0,0.07407407407407408,22.222222222222225,0)" />
        <use
           id="use183"
           xlink:href="#F"
           transform="matrix(0.07407407407407408,0,0,0.07407407407407408,29.629629629629633,0)" />
        <use
           id="use185"
           xlink:href="#O"
           transform="matrix(0.07407407407407408,0,0,0.07407407407407408,44.44444444444445,0)" />
        <use
           id="use187"
           xlink:href="#H"
           transform="matrix(0.07407407407407408,0,0,0.07407407407407408,53.25925925925927,0)" />
        <use
           id="use189"
           xlink:href="#P"
           transform="matrix(0.07407407407407408,0,0,0.07407407407407408,68.07407407407408,0)" />
        <use
           id="use191"
           xlink:href="#J"
           transform="matrix(0.07407407407407408,0,0,0.07407407407407408,82.88888888888889,0)" />
      </g>
      <path
         id="Q"
         d="M96-169c-40 0-48 33-48 73s9 75 48 75c24 0 41-14 43-38l32 2c-6 37-31 61-74 61-59 0-76-41-82-99-10-93 101-131 147-64 4 7 5 14 7 22l-32 3c-4-21-16-35-41-35" />
      <path
         id="R"
         d="M24-231v-30h32v30H24zM24 0v-190h32V0H24" />
      <g
         id="f">
        <use
           id="use196"
           xlink:href="#P"
           transform="matrix(0.07407407407407408,0,0,0.07407407407407408,0,0)" />
        <use
           id="use198"
           xlink:href="#Q"
           transform="matrix(0.07407407407407408,0,0,0.07407407407407408,14.814814814814817,0)" />
        <use
           id="use200"
           xlink:href="#N"
           transform="matrix(0.07407407407407408,0,0,0.07407407407407408,28.148148148148152,0)" />
        <use
           id="use202"
           xlink:href="#R"
           transform="matrix(0.07407407407407408,0,0,0.07407407407407408,35.55555555555556,0)" />
        <use
           id="use204"
           xlink:href="#D"
           transform="matrix(0.07407407407407408,0,0,0.07407407407407408,41.40740740740741,0)" />
        <use
           id="use206"
           xlink:href="#H"
           transform="matrix(0.07407407407407408,0,0,0.07407407407407408,56.22222222222223,0)" />
      </g>
      <use
         id="h"
         xlink:href="#B"
         transform="matrix(0.07407407407407408,0,0,0.07407407407407408,0,0)" />
      <path
         id="S"
         d="M205 0l-28-72H64L36 0H1l101-248h38L239 0h-34zm-38-99l-47-123c-12 45-31 82-46 123h93" />
      <path
         id="T"
         d="M108 0H70L1-190h34L89-25l56-165h34" />
      <g
         id="i">
        <use
           id="use212"
           xlink:href="#S"
           transform="matrix(0.07407407407407408,0,0,0.07407407407407408,0,0)" />
        <use
           id="use214"
           xlink:href="#Q"
           transform="matrix(0.07407407407407408,0,0,0.07407407407407408,17.77777777777778,0)" />
        <use
           id="use216"
           xlink:href="#N"
           transform="matrix(0.07407407407407408,0,0,0.07407407407407408,31.111111111111114,0)" />
        <use
           id="use218"
           xlink:href="#R"
           transform="matrix(0.07407407407407408,0,0,0.07407407407407408,38.51851851851851,0)" />
        <use
           id="use220"
           xlink:href="#T"
           transform="matrix(0.07407407407407408,0,0,0.07407407407407408,44.370370370370374,0)" />
        <use
           id="use222"
           xlink:href="#F"
           transform="matrix(0.07407407407407408,0,0,0.07407407407407408,57.70370370370371,0)" />
      </g>
      <g
         id="j">
        <use
           id="use225"
           xlink:href="#H"
           transform="matrix(0.07407407407407408,0,0,0.07407407407407408,0,0)" />
        <use
           id="use227"
           xlink:href="#D"
           transform="matrix(0.07407407407407408,0,0,0.07407407407407408,14.814814814814817,0)" />
        <use
           id="use229"
           xlink:href="#E"
           transform="matrix(0.07407407407407408,0,0,0.07407407407407408,29.629629629629633,0)" />
        <use
           id="use231"
           xlink:href="#F"
           transform="matrix(0.07407407407407408,0,0,0.07407407407407408,44.44444444444445,0)" />
      </g>
      <path
         id="U"
         d="M39-94c74 12-11 154 75 146v23c-44 4-70-10-70-52C44-23 55-84 6-82v-22c81 4-7-162 84-157h24v23c-82-15-2 131-75 144" />
      <path
         id="V"
         d="M68-38c1 34 0 65-14 84H32c9-13 17-26 17-46H33v-38h35" />
      <path
         id="W"
         d="M160-131c35 5 61 23 61 61C221 17 115-2 30 0v-248c76 3 177-17 177 60 0 33-19 50-47 57zm-97-11c50-1 110 9 110-42 0-47-63-36-110-37v79zm0 115c55-2 124 14 124-45 0-56-70-42-124-44v89" />
      <path
         id="X"
         d="M33 0v-38h34V0H33" />
      <path
         id="Y"
         d="M30 0v-248h187v28H63v79h144v27H63v87h162V0H30" />
      <path
         id="Z"
         d="M76-40C78 24 84 88 6 75V52C86 64 9-79 80-94c-40-6-34-59-34-106 1-29-11-41-40-38v-23c44-4 70 10 70 52 0 47-12 108 38 105v22c-26 1-39 14-38 42" />
      <g
         id="k">
        <use
           id="use240"
           xlink:href="#U"
           transform="matrix(0.07407407407407408,0,0,0.07407407407407408,0,0)" />
        <use
           id="use242"
           xlink:href="#S"
           transform="matrix(0.07407407407407408,0,0,0.07407407407407408,8.88888888888889,0)" />
        <use
           id="use244"
           xlink:href="#V"
           transform="matrix(0.07407407407407408,0,0,0.07407407407407408,26.666666666666664,0)" />
        <use
           id="use246"
           xlink:href="#W"
           transform="matrix(0.07407407407407408,0,0,0.07407407407407408,34.074074074074076,0)" />
        <use
           id="use248"
           xlink:href="#V"
           transform="matrix(0.07407407407407408,0,0,0.07407407407407408,51.85185185185186,0)" />
        <use
           id="use250"
           xlink:href="#X"
           transform="matrix(0.07407407407407408,0,0,0.07407407407407408,59.25925925925927,0)" />
        <use
           id="use252"
           xlink:href="#X"
           transform="matrix(0.07407407407407408,0,0,0.07407407407407408,66.66666666666667,0)" />
        <use
           id="use254"
           xlink:href="#V"
           transform="matrix(0.07407407407407408,0,0,0.07407407407407408,74.07407407407408,0)" />
        <use
           id="use256"
           xlink:href="#Y"
           transform="matrix(0.07407407407407408,0,0,0.07407407407407408,81.48148148148148,0)" />
        <use
           id="use258"
           xlink:href="#Z"
           transform="matrix(0.07407407407407408,0,0,0.07407407407407408,99.25925925925927,0)" />
      </g>
      <use
         id="l"
         xlink:href="#B"
         transform="matrix(0.07407407407407408,0,0,0.07407407407407408,0,0)" />
      <path
         id="aa"
         d="M30-248c87 1 191-15 191 75 0 78-77 80-158 76V0H30v-248zm33 125c57 0 124 11 124-50 0-59-68-47-124-48v98" />
      <path
         id="ab"
         d="M135-143c-3-34-86-38-87 0 15 53 115 12 119 90S17 21 10-45l28-5c4 36 97 45 98 0-10-56-113-15-118-90-4-57 82-63 122-42 12 7 21 19 24 35" />
      <g
         id="m">
        <use
           id="use264"
           xlink:href="#aa"
           transform="matrix(0.07407407407407408,0,0,0.07407407407407408,0,0)" />
        <use
           id="use266"
           xlink:href="#O"
           transform="matrix(0.07407407407407408,0,0,0.07407407407407408,17.77777777777778,0)" />
        <use
           id="use268"
           xlink:href="#R"
           transform="matrix(0.07407407407407408,0,0,0.07407407407407408,26.592592592592595,0)" />
        <use
           id="use270"
           xlink:href="#D"
           transform="matrix(0.07407407407407408,0,0,0.07407407407407408,32.44444444444445,0)" />
        <use
           id="use272"
           xlink:href="#O"
           transform="matrix(0.07407407407407408,0,0,0.07407407407407408,47.25925925925927,0)" />
        <use
           id="use274"
           xlink:href="#R"
           transform="matrix(0.07407407407407408,0,0,0.07407407407407408,56.07407407407408,0)" />
        <use
           id="use276"
           xlink:href="#N"
           transform="matrix(0.07407407407407408,0,0,0.07407407407407408,61.92592592592593,0)" />
        <use
           id="use278"
           xlink:href="#R"
           transform="matrix(0.07407407407407408,0,0,0.07407407407407408,69.33333333333334,0)" />
        <use
           id="use280"
           xlink:href="#F"
           transform="matrix(0.07407407407407408,0,0,0.07407407407407408,75.18518518518519,0)" />
        <use
           id="use282"
           xlink:href="#ab"
           transform="matrix(0.07407407407407408,0,0,0.07407407407407408,90,0)" />
      </g>
      <g
         id="n">
        <use
           id="use285"
           xlink:href="#D"
           transform="matrix(0.07407407407407408,0,0,0.07407407407407408,0,0)" />
        <use
           id="use287"
           xlink:href="#O"
           transform="matrix(0.07407407407407408,0,0,0.07407407407407408,14.814814814814817,0)" />
        <use
           id="use289"
           xlink:href="#E"
           transform="matrix(0.07407407407407408,0,0,0.07407407407407408,23.629629629629633,0)" />
        <use
           id="use291"
           xlink:href="#F"
           transform="matrix(0.07407407407407408,0,0,0.07407407407407408,38.44444444444445,0)" />
        <use
           id="use293"
           xlink:href="#O"
           transform="matrix(0.07407407407407408,0,0,0.07407407407407408,53.25925925925927,0)" />
        <use
           id="use295"
           xlink:href="#F"
           transform="matrix(0.07407407407407408,0,0,0.07407407407407408,62.07407407407408,0)" />
        <use
           id="use297"
           xlink:href="#E"
           transform="matrix(0.07407407407407408,0,0,0.07407407407407408,76.8888888888889,0)" />
      </g>
      <path
         id="ac"
         d="M115-194c53 0 69 39 70 98 0 66-23 100-70 100C84 3 66-7 56-30L54 0H23l1-261h32v101c10-23 28-34 59-34zm-8 174c40 0 45-34 45-75 0-40-5-75-45-74-42 0-51 32-51 76 0 43 10 73 51 73" />
      <path
         id="ad"
         d="M179-190L93 31C79 59 56 82 12 73V49c39 6 53-20 64-50L1-190h34L92-34l54-156h33" />
      <g
         id="o">
        <use
           id="use302"
           xlink:href="#ac"
           transform="matrix(0.07407407407407408,0,0,0.07407407407407408,0,0)" />
        <use
           id="use304"
           xlink:href="#ad"
           transform="matrix(0.07407407407407408,0,0,0.07407407407407408,14.814814814814817,0)" />
      </g>
      <g
         id="q">
        <use
           id="use307"
           xlink:href="#O"
           transform="matrix(0.07407407407407408,0,0,0.07407407407407408,0,0)" />
        <use
           id="use309"
           xlink:href="#F"
           transform="matrix(0.07407407407407408,0,0,0.07407407407407408,8.814814814814817,0)" />
        <use
           id="use311"
           xlink:href="#T"
           transform="matrix(0.07407407407407408,0,0,0.07407407407407408,23.629629629629633,0)" />
        <use
           id="use313"
           xlink:href="#F"
           transform="matrix(0.07407407407407408,0,0,0.07407407407407408,36.96296296296297,0)" />
        <use
           id="use315"
           xlink:href="#O"
           transform="matrix(0.07407407407407408,0,0,0.07407407407407408,51.777777777777786,0)" />
        <use
           id="use317"
           xlink:href="#ab"
           transform="matrix(0.07407407407407408,0,0,0.07407407407407408,60.5925925925926,0)" />
        <use
           id="use319"
           xlink:href="#F"
           transform="matrix(0.07407407407407408,0,0,0.07407407407407408,73.92592592592594,0)" />
      </g>
      <path
         id="ae"
         d="M115-194c55 1 70 41 70 98S169 2 115 4C84 4 66-9 55-30l1 105H24l-1-265h31l2 30c10-21 28-34 59-34zm-8 174c40 0 45-34 45-75s-6-73-45-74c-42 0-51 32-51 76 0 43 10 73 51 73" />
      <path
         id="af"
         d="M106-169C34-169 62-67 57 0H25v-261h32l-1 103c12-21 28-36 61-36 89 0 53 116 60 194h-32v-121c2-32-8-49-39-48" />
      <g
         id="r">
        <use
           id="use324"
           xlink:href="#P"
           transform="matrix(0.07407407407407408,0,0,0.07407407407407408,0,0)" />
        <use
           id="use326"
           xlink:href="#J"
           transform="matrix(0.07407407407407408,0,0,0.07407407407407408,14.814814814814817,0)" />
        <use
           id="use328"
           xlink:href="#ae"
           transform="matrix(0.07407407407407408,0,0,0.07407407407407408,20.666666666666668,0)" />
        <use
           id="use330"
           xlink:href="#af"
           transform="matrix(0.07407407407407408,0,0,0.07407407407407408,35.48148148148149,0)" />
        <use
           id="use332"
           xlink:href="#P"
           transform="matrix(0.07407407407407408,0,0,0.07407407407407408,50.296296296296305,0)" />
        <use
           id="use334"
           xlink:href="#ac"
           transform="matrix(0.07407407407407408,0,0,0.07407407407407408,65.11111111111111,0)" />
        <use
           id="use336"
           xlink:href="#F"
           transform="matrix(0.07407407407407408,0,0,0.07407407407407408,79.92592592592592,0)" />
        <use
           id="use338"
           xlink:href="#N"
           transform="matrix(0.07407407407407408,0,0,0.07407407407407408,94.74074074074073,0)" />
        <use
           id="use340"
           xlink:href="#R"
           transform="matrix(0.07407407407407408,0,0,0.07407407407407408,102.14814814814814,0)" />
        <use
           id="use342"
           xlink:href="#Q"
           transform="matrix(0.07407407407407408,0,0,0.07407407407407408,107.99999999999999,0)" />
        <use
           id="use344"
           xlink:href="#P"
           transform="matrix(0.07407407407407408,0,0,0.07407407407407408,121.33333333333331,0)" />
        <use
           id="use346"
           xlink:href="#J"
           transform="matrix(0.07407407407407408,0,0,0.07407407407407408,136.14814814814812,0)" />
      </g>
      <g
         id="s">
        <use
           id="use349"
           xlink:href="#D"
           transform="matrix(0.07407407407407408,0,0,0.07407407407407408,0,0)" />
        <use
           id="use351"
           xlink:href="#O"
           transform="matrix(0.07407407407407408,0,0,0.07407407407407408,14.814814814814817,0)" />
        <use
           id="use353"
           xlink:href="#E"
           transform="matrix(0.07407407407407408,0,0,0.07407407407407408,23.629629629629633,0)" />
        <use
           id="use355"
           xlink:href="#F"
           transform="matrix(0.07407407407407408,0,0,0.07407407407407408,38.44444444444445,0)" />
        <use
           id="use357"
           xlink:href="#O"
           transform="matrix(0.07407407407407408,0,0,0.07407407407407408,53.25925925925927,0)" />
      </g>
      <path
         id="ag"
         d="M233-177c-1 41-23 64-60 70L243 0h-38l-65-103H63V0H30v-248c88 3 205-21 203 71zM63-129c60-2 137 13 137-47 0-61-80-42-137-45v92" />
      <g
         id="t">
        <use
           id="use361"
           xlink:href="#ag"
           transform="matrix(0.07407407407407408,0,0,0.07407407407407408,0,0)" />
        <use
           id="use363"
           xlink:href="#F"
           transform="matrix(0.07407407407407408,0,0,0.07407407407407408,19.185185185185187,0)" />
        <use
           id="use365"
           xlink:href="#ab"
           transform="matrix(0.07407407407407408,0,0,0.07407407407407408,34,0)" />
        <use
           id="use367"
           xlink:href="#ae"
           transform="matrix(0.07407407407407408,0,0,0.07407407407407408,47.33333333333334,0)" />
        <use
           id="use369"
           xlink:href="#D"
           transform="matrix(0.07407407407407408,0,0,0.07407407407407408,62.14814814814816,0)" />
        <use
           id="use371"
           xlink:href="#H"
           transform="matrix(0.07407407407407408,0,0,0.07407407407407408,76.96296296296296,0)" />
        <use
           id="use373"
           xlink:href="#ab"
           transform="matrix(0.07407407407407408,0,0,0.07407407407407408,91.77777777777777,0)" />
        <use
           id="use375"
           xlink:href="#F"
           transform="matrix(0.07407407407407408,0,0,0.07407407407407408,105.11111111111111,0)" />
      </g>
      <g
         id="u">
        <use
           id="use378"
           xlink:href="#N"
           transform="matrix(0.07407407407407408,0,0,0.07407407407407408,0,0)" />
        <use
           id="use380"
           xlink:href="#D"
           transform="matrix(0.07407407407407408,0,0,0.07407407407407408,7.407407407407408,0)" />
      </g>
      <use
         id="v"
         xlink:href="#P"
         transform="matrix(0.07407407407407408,0,0,0.07407407407407408,0,0)" />
      <path
         id="ah"
         d="M145-31C134-9 116 4 85 4 32 4 16-35 15-94c0-59 17-99 70-100 32-1 48 14 60 33 0-11-1-24 2-32h30l-1 268h-32zM93-21c41 0 51-33 51-76s-8-73-50-73c-40 0-46 35-46 75s5 74 45 74" />
      <path
         id="ai"
         d="M84 4C-5 8 30-112 23-190h32v120c0 31 7 50 39 49 72-2 45-101 50-169h31l1 190h-30c-1-10 1-25-2-33-11 22-28 36-60 37" />
      <g
         id="w">
        <use
           id="use386"
           xlink:href="#ag"
           transform="matrix(0.07407407407407408,0,0,0.07407407407407408,0,0)" />
        <use
           id="use388"
           xlink:href="#F"
           transform="matrix(0.07407407407407408,0,0,0.07407407407407408,19.185185185185187,0)" />
        <use
           id="use390"
           xlink:href="#ah"
           transform="matrix(0.07407407407407408,0,0,0.07407407407407408,34,0)" />
        <use
           id="use392"
           xlink:href="#ai"
           transform="matrix(0.07407407407407408,0,0,0.07407407407407408,48.81481481481481,0)" />
        <use
           id="use394"
           xlink:href="#F"
           transform="matrix(0.07407407407407408,0,0,0.07407407407407408,63.629629629629626,0)" />
        <use
           id="use396"
           xlink:href="#ab"
           transform="matrix(0.07407407407407408,0,0,0.07407407407407408,78.44444444444446,0)" />
        <use
           id="use398"
           xlink:href="#N"
           transform="matrix(0.07407407407407408,0,0,0.07407407407407408,91.7777777777778,0)" />
      </g>
      <path
         id="aj"
         d="M212-179c-10-28-35-45-73-45-59 0-87 40-87 99 0 60 29 101 89 101 43 0 62-24 78-52l27 14C228-24 195 4 139 4 59 4 22-46 18-125c-6-104 99-153 187-111 19 9 31 26 39 46" />
      <path
         id="ak"
         d="M210-169c-67 3-38 105-44 169h-31v-121c0-29-5-50-35-48C34-165 62-65 56 0H25l-1-190h30c1 10-1 24 2 32 10-44 99-50 107 0 11-21 27-35 58-36 85-2 47 119 55 194h-31v-121c0-29-5-49-35-48" />
      <g
         id="x">
        <use
           id="use403"
           xlink:href="#aj"
           transform="matrix(0.07407407407407408,0,0,0.07407407407407408,0,0)" />
        <use
           id="use405"
           xlink:href="#D"
           transform="matrix(0.07407407407407408,0,0,0.07407407407407408,19.185185185185187,0)" />
        <use
           id="use407"
           xlink:href="#ak"
           transform="matrix(0.07407407407407408,0,0,0.07407407407407408,34,0)" />
        <use
           id="use409"
           xlink:href="#ak"
           transform="matrix(0.07407407407407408,0,0,0.07407407407407408,56.14814814814815,0)" />
        <use
           id="use411"
           xlink:href="#ai"
           transform="matrix(0.07407407407407408,0,0,0.07407407407407408,78.2962962962963,0)" />
        <use
           id="use413"
           xlink:href="#H"
           transform="matrix(0.07407407407407408,0,0,0.07407407407407408,93.1111111111111,0)" />
        <use
           id="use415"
           xlink:href="#R"
           transform="matrix(0.07407407407407408,0,0,0.07407407407407408,107.92592592592592,0)" />
        <use
           id="use417"
           xlink:href="#Q"
           transform="matrix(0.07407407407407408,0,0,0.07407407407407408,113.77777777777777,0)" />
        <use
           id="use419"
           xlink:href="#P"
           transform="matrix(0.07407407407407408,0,0,0.07407407407407408,127.11111111111111,0)" />
        <use
           id="use421"
           xlink:href="#N"
           transform="matrix(0.07407407407407408,0,0,0.07407407407407408,141.92592592592592,0)" />
        <use
           id="use423"
           xlink:href="#R"
           transform="matrix(0.07407407407407408,0,0,0.07407407407407408,149.33333333333334,0)" />
        <use
           id="use425"
           xlink:href="#D"
           transform="matrix(0.07407407407407408,0,0,0.07407407407407408,155.18518518518522,0)" />
        <use
           id="use427"
           xlink:href="#H"
           transform="matrix(0.07407407407407408,0,0,0.07407407407407408,170,0)" />
      </g>
      <path
         id="al"
         d="M30-248c118-7 216 8 213 122C240-48 200 0 122 0H30v-248zM63-27c89 8 146-16 146-99s-60-101-146-95v194" />
      <g
         id="y">
        <use
           id="use431"
           xlink:href="#al"
           transform="matrix(0.07407407407407408,0,0,0.07407407407407408,0,0)" />
        <use
           id="use433"
           xlink:href="#F"
           transform="matrix(0.07407407407407408,0,0,0.07407407407407408,19.185185185185187,0)" />
        <use
           id="use435"
           xlink:href="#P"
           transform="matrix(0.07407407407407408,0,0,0.07407407407407408,34,0)" />
        <use
           id="use437"
           xlink:href="#E"
           transform="matrix(0.07407407407407408,0,0,0.07407407407407408,48.81481481481481,0)" />
      </g>
      <g
         id="z">
        <use
           id="use440"
           xlink:href="#R"
           transform="matrix(0.07407407407407408,0,0,0.07407407407407408,0,0)" />
        <use
           id="use442"
           xlink:href="#ab"
           transform="matrix(0.07407407407407408,0,0,0.07407407407407408,5.851851851851853,0)" />
      </g>
      <g
         id="A">
        <use
           id="use445"
           xlink:href="#O"
           transform="matrix(0.07407407407407408,0,0,0.07407407407407408,0,0)" />
        <use
           id="use447"
           xlink:href="#F"
           transform="matrix(0.07407407407407408,0,0,0.07407407407407408,8.814814814814817,0)" />
        <use
           id="use449"
           xlink:href="#ab"
           transform="matrix(0.07407407407407408,0,0,0.07407407407407408,23.629629629629633,0)" />
        <use
           id="use451"
           xlink:href="#N"
           transform="matrix(0.07407407407407408,0,0,0.07407407407407408,36.96296296296297,0)" />
        <use
           id="use453"
           xlink:href="#P"
           transform="matrix(0.07407407407407408,0,0,0.07407407407407408,44.37037037037039,0)" />
        <use
           id="use455"
           xlink:href="#O"
           transform="matrix(0.07407407407407408,0,0,0.07407407407407408,59.185185185185205,0)" />
        <use
           id="use457"
           xlink:href="#N"
           transform="matrix(0.07407407407407408,0,0,0.07407407407407408,68.00000000000001,0)" />
        <use
           id="use459"
           xlink:href="#R"
           transform="matrix(0.07407407407407408,0,0,0.07407407407407408,75.40740740740742,0)" />
        <use
           id="use461"
           xlink:href="#H"
           transform="matrix(0.07407407407407408,0,0,0.07407407407407408,81.25925925925927,0)" />
        <use
           id="use463"
           xlink:href="#K"
           transform="matrix(0.07407407407407408,0,0,0.07407407407407408,96.07407407407408,0)" />
      </g>
    </defs>
  </g>
</svg>
