<?xml version="1.0" encoding="UTF-8" standalone="no"?>
<svg
   xmlns:dc="http://purl.org/dc/elements/1.1/"
   xmlns:cc="http://creativecommons.org/ns#"
   xmlns:rdf="http://www.w3.org/1999/02/22-rdf-syntax-ns#"
   xmlns:svg="http://www.w3.org/2000/svg"
   xmlns="http://www.w3.org/2000/svg"
   xmlns:xlink="http://www.w3.org/1999/xlink"
   xmlns:sodipodi="http://sodipodi.sourceforge.net/DTD/sodipodi-0.dtd"
   xmlns:inkscape="http://www.inkscape.org/namespaces/inkscape"
   width="740"
   height="769"
   id="svg2"
   version="1.1"
   inkscape:version="0.91 r13725"
   sodipodi:docname="election_legend.svg">
  <metadata
     id="metadata469">
    <rdf:RDF>
      <cc:Work
         rdf:about="">
        <dc:format>image/svg+xml</dc:format>
        <dc:type
           rdf:resource="http://purl.org/dc/dcmitype/StillImage" />
        <dc:title></dc:title>
      </cc:Work>
    </rdf:RDF>
  </metadata>
  <defs
     id="defs467" />
  <sodipodi:namedview
     pagecolor="#ffffff"
     bordercolor="#666666"
     borderopacity="1"
     objecttolerance="10"
     gridtolerance="10"
     guidetolerance="10"
     inkscape:pageopacity="0"
     inkscape:pageshadow="2"
     inkscape:window-width="1924"
     inkscape:window-height="983"
     id="namedview465"
     showgrid="false"
     inkscape:zoom="1.2275683"
     inkscape:cx="216.33538"
     inkscape:cy="341.00383"
     inkscape:window-x="0"
     inkscape:window-y="23"
     inkscape:window-maximized="0"
     inkscape:current-layer="g4" />
  <g
     transform="translate(0 -44)"
     id="g4">
    <path
       d="M300 687c0-2.76 2.24-5 5-5h270c2.76 0 5 2.24 5 5v50c0 2.76-2.24 5-5 5H305c-2.76 0-5-2.24-5-5z"
       fill="none"
       id="path6" />
    <use
       xlink:href="#a"
       transform="translate(301.14767,703.33333)"
       id="use8"
       x="0"
       y="0"
       width="100%"
       height="100%" />
    <use
       xlink:href="#b"
       transform="translate(368.55578,703.33333)"
       id="use10"
       x="0"
       y="0"
       width="100%"
       height="100%" />
    <use
       xlink:href="#c"
       transform="matrix(1,0,0,1,300,682) translate(141.8888888888889 21.333333333333336)"
       id="use12" />
    <use
       xlink:href="#d"
       transform="matrix(1,0,0,1,300,682) translate(41.592592592592595 53.333333333333336)"
       id="use14" />
    <use
       xlink:href="#e"
       transform="translate(368.33356,735.33333)"
       id="use16"
       x="0"
       y="0"
       width="100%"
       height="100%" />
    <use
       xlink:href="#f"
       transform="matrix(1,0,0,1,300,682) translate(167.37037037037038 53.333333333333336)"
       id="use18" />
    <path
       d="M124 736c-13.25 0-24-10.75-24-24 0-10.6 6.5-19.55 16.58-22.83C116 658 156 652 172 664c8-18 48-12 48 6 24-6 48 18 32 48 16 24 0 54-32 42-8 15.6-40 15.6-48 0-16 12-48 6-48-24z"
       stroke="#000"
       stroke-width="2"
       fill="#fff"
       id="path20" />
    <use
       xlink:href="#g"
       transform="matrix(1,0,0,1,100,652) translate(78.50500000000001 66.9)"
       id="use22" />
    <path
       d="M220 104c0 22.1-17.9 40-40 40s-40-17.9-40-40 17.9-40 40-40 40 17.9 40 40z"
       stroke="#000"
       stroke-width="2"
       fill="#fff"
       id="path24" />
    <use
       xlink:href="#g"
       transform="matrix(1,0,0,1,140,64) translate(40.005 44.4)"
       id="use26" />
    <path
       d="M280 79c0-2.76 2.24-5 5-5h250c2.76 0 5 2.24 5 5v50c0 2.76-2.24 5-5 5H285c-2.76 0-5-2.24-5-5z"
       fill="none"
       id="path28" />
    <use
       xlink:href="#h"
       transform="translate(301.14767,109.33333)"
       id="use30"
       x="0"
       y="0"
       width="100%"
       height="100%" />
    <use
       xlink:href="#i"
       transform="translate(370.70393,109.33333)"
       id="use32"
       x="0"
       y="0"
       width="100%"
       height="100%" />
    <use
       xlink:href="#j"
       transform="matrix(1,0,0,1,280,74) translate(181.44444444444446 35.333333333333336)"
       id="use34" />
    <path
       d="M20 405c0-2.76 2.24-5 5-5h690c2.76 0 5 2.24 5 5v98c0 2.76-2.24 5-5 5H25c-2.76 0-5-2.24-5-5z"
       fill="none"
       id="path36" />
    <use
       xlink:href="#k"
       transform="matrix(1,0,0,1,20,400) translate(109.88888888888883 43.333333333333336)"
       id="use38" />
    <use
       xlink:href="#l"
       transform="translate(301.14767,443.33333)"
       id="use40"
       x="0"
       y="0"
       width="100%"
       height="100%" />
    <use
       xlink:href="#m"
       transform="translate(368.55578,443.33333)"
       id="use42"
       x="0"
       y="0"
       width="100%"
       height="100%" />
    <use
       xlink:href="#n"
       transform="matrix(1,0,0,1,20,400) translate(462.85185185185185 43.333333333333336)"
       id="use44" />
    <use
       xlink:href="#o"
       transform="matrix(1,0,0,1,20,400) translate(561.962962962963 43.333333333333336)"
       id="use46" />
    <use
       xlink:href="#p"
       transform="matrix(1,0,0,1,20,400) translate(40.62962962962956 75.33333333333334)"
       id="use48" />
    <use
       xlink:href="#q"
       transform="translate(369.00022,475.33333)"
       id="use50"
       x="0"
       y="0"
       width="100%"
       height="100%" />
    <use
       xlink:href="#r"
       transform="matrix(1,0,0,1,20,400) translate(447.88888888888886 75.33333333333334)"
       id="use52" />
    <use
       xlink:href="#s"
       transform="matrix(1,0,0,1,20,400) translate(597.2962962962963 75.33333333333334)"
       id="use54" />
    <path
       d="M130 532h100"
       stroke="#000"
       stroke-width="2"
       fill="none"
       id="path56" />
    <path
       d="M230 532l-14.27 4.64v-9.28z"
       stroke="#000"
       stroke-width="2"
       id="path58" />
    <path
       d="M130 602h100"
       fill="none"
       id="path60" />
    <path
       d="M130 602h11.1m11.12 0h22.23m11.1 0h22.23m11.1 0H230"
       stroke="#000"
       stroke-width="2"
       fill="none"
       id="path62" />
    <path
       d="M230 602l-14.27 4.64v-9.28z"
       stroke="#000"
       stroke-width="2"
       id="path64" />
    <path
       d="M232.1 763.63V766l.14 2.04.26 1.8.35 1.57.43 1.45.5 1.32.58 1.24.66 1.17.74 1.12.84 1.07.95 1.06 1.1 1.06 1.3 1.05 1.53 1.08 1.87 1.13 2.38 1.2 3.2 1.34 4.88 1.6 37.24 9.58 4.78 2 3.8 1.9.38.22"
       fill="none"
       id="path66" />
    <path
       d="M233.1 763.63c0 .55-.44 1-1 1-.55 0-1-.45-1-1s.45-1 1-1c.56 0 1 .45 1 1zm.7 7.62c0 .55-.44 1-1 1-.54 0-1-.45-1-1s.46-1 1-1c.56 0 1 .45 1 1zm3.3 6.88c0 .55-.45 1-1 1-.56 0-1-.45-1-1 0-.56.44-1 1-1 .55 0 1 .44 1 1zm5.68 5.1c0 .54-.44 1-1 1-.55 0-1-.46-1-1 0-.56.45-1 1-1 .56 0 1 .44 1 1zm6.9 3.35c0 .56-.46 1-1 1-.56 0-1-.44-1-1 0-.55.44-1 1-1 .54 0 1 .45 1 1zm7.3 2.3c0 .54-.44 1-1 1-.54 0-1-.46-1-1 0-.57.46-1 1-1 .56 0 1 .43 1 1zm7.45 1.9c0 .55-.45 1-1 1-.56 0-1-.45-1-1s.44-1 1-1c.55 0 1 .45 1 1zm7.43 1.9c0 .56-.45 1-1 1s-1-.44-1-1c0-.54.45-1 1-1s1 .46 1 1zm7.44 1.92c0 .55-.45 1-1 1-.56 0-1-.45-1-1s.44-1 1-1c.55 0 1 .45 1 1zm7.43 1.9c0 .56-.45 1-1 1s-1-.44-1-1c0-.54.45-1 1-1s1 .46 1 1zm7.34 2.22c0 .55-.45 1-1 1-.56 0-1-.45-1-1s.44-1 1-1c.55 0 1 .45 1 1z"
       id="path68" />
    <path
       d="M232.88 762.66l.2.7-1.94.53-.35-1.33z"
       id="path70" />
    <path
       d="M300 573c0-2.76 2.24-5 5-5h350c2.76 0 5 2.24 5 5v50c0 2.76-2.24 5-5 5H305c-2.76 0-5-2.24-5-5z"
       fill="none"
       id="path72" />
    <g
       id="g74">
      <use
         xlink:href="#a"
         transform="translate(301.14767,603.33333)"
         id="use76"
         x="0"
         y="0"
         width="100%"
         height="100%" />
      <use
         xlink:href="#t"
         transform="translate(368.55578,603.33333)"
         id="use78"
         x="0"
         y="0"
         width="100%"
         height="100%" />
      <use
         xlink:href="#u"
         transform="matrix(1,0,0,1,300,568) translate(201.85185185185182 35.333333333333336)"
         id="use80" />
      <use
         xlink:href="#v"
         transform="matrix(1,0,0,1,300,568) translate(231.48148148148147 35.333333333333336)"
         id="use82" />
      <use
         xlink:href="#w"
         transform="matrix(1,0,0,1,300,568) translate(253.7037037037037 35.333333333333336)"
         id="use84" />
    </g>
    <path
       d="M280 513c0-2.76 2.24-5 5-5h290c2.76 0 5 2.24 5 5v50c0 2.76-2.24 5-5 5H285c-2.76 0-5-2.24-5-5z"
       fill="none"
       id="path86" />
    <g
       id="g88">
      <use
         xlink:href="#a"
         transform="translate(301.14767,543.33333)"
         id="use90"
         x="0"
         y="0"
         width="100%"
         height="100%" />
      <use
         xlink:href="#x"
         transform="translate(369.46288,543.33333)"
         id="use92"
         x="0"
         y="0"
         width="100%"
         height="100%" />
    </g>
    <path
       d="M220 220c0 22.1-17.9 40-40 40s-40-17.9-40-40 17.9-40 40-40 40 17.9 40 40z"
       stroke="#000"
       stroke-width="2"
       fill="#c92d39"
       id="path94" />
    <g
       id="g96">
      <use
         xlink:href="#g"
         transform="matrix(1,0,0,1,140,180) translate(40.005 44.4)"
         id="use98" />
    </g>
    <path
       d="M220 336c0 22.1-17.9 40-40 40s-40-17.9-40-40 17.9-40 40-40 40 17.9 40 40z"
       stroke="#000"
       stroke-width="2"
       fill="#498a44"
       id="path100" />
    <g
       id="g102">
      <use
         xlink:href="#g"
         transform="matrix(1,0,0,1,140,296) translate(40.005 44.4)"
         id="use104" />
    </g>
    <path
       d="M300 205c0-2.76 2.24-5 5-5h190c2.76 0 5 2.24 5 5v50c0 2.76-2.24 5-5 5H305c-2.76 0-5-2.24-5-5z"
       fill="none"
       id="path106" />
    <g
       id="g108">
      <use
         xlink:href="#a"
         transform="matrix(1,0,0,1,300,200) translate(1.1481481481481381 35.333333333333336)"
         id="use110" />
      <use
         xlink:href="#y"
         transform="matrix(1,0,0,1,300,200) translate(68.55555555555554 35.333333333333336)"
         id="use112" />
      <use
         xlink:href="#j"
         transform="matrix(1,0,0,1,300,200) translate(139.5925925925926 35.333333333333336)"
         id="use114" />
    </g>
    <path
       d="M300 321c0-2.76 2.24-5 5-5h270c2.76 0 5 2.24 5 5v50c0 2.76-2.24 5-5 5H305c-2.76 0-5-2.24-5-5z"
       fill="none"
       id="path116" />
    <g
       id="g118">
      <use
         xlink:href="#a"
         transform="translate(301.14767,351.33333)"
         id="use120"
         x="0"
         y="0"
         width="100%"
         height="100%" />
      <use
         xlink:href="#b"
         transform="translate(368.55578,351.33333)"
         id="use122"
         x="0"
         y="0"
         width="100%"
         height="100%" />
      <use
         xlink:href="#z"
         transform="matrix(1,0,0,1,300,316) translate(140.48148148148147 35.333333333333336)"
         id="use124" />
      <use
         xlink:href="#A"
         transform="matrix(1,0,0,1,300,316) translate(167.07407407407408 35.333333333333336)"
         id="use126" />
    </g>
    <defs
       id="defs128">
      <path
         d="M18-150v-26h174v26H18zm0 90v-26h174v26H18"
         id="B" />
      <use
         transform="matrix(0.07407407407407408,0,0,0.07407407407407408,0,0)"
         xlink:href="#B"
         id="a" />
      <path
         d="M190 0L58-211 59 0H30v-248h39L202-35l-2-213h31V0h-41"
         id="C" />
      <path
         d="M100-194c62-1 85 37 85 99 1 63-27 99-86 99S16-35 15-95c0-66 28-99 85-99zM99-20c44 1 53-31 53-75 0-43-8-75-51-75s-53 32-53 75 10 74 51 75"
         id="D" />
      <path
         d="M85-194c31 0 48 13 60 33l-1-100h32l1 261h-30c-2-10 0-23-3-31C134-8 116 4 85 4 32 4 16-35 15-94c0-66 23-100 70-100zm9 24c-40 0-46 34-46 75 0 40 6 74 45 74 42 0 51-32 51-76 0-42-9-74-50-73"
         id="E" />
      <path
         d="M100-194c63 0 86 42 84 106H49c0 40 14 67 53 68 26 1 43-12 49-29l28 8c-11 28-37 45-77 45C44 4 14-33 15-96c1-61 26-98 85-98zm52 81c6-60-76-77-97-28-3 7-6 17-6 28h103"
         id="F" />
      <g
         id="b">
        <use
           transform="matrix(0.07407407407407408,0,0,0.07407407407407408,0,0)"
           xlink:href="#C"
           id="use137" />
        <use
           transform="matrix(0.07407407407407408,0,0,0.07407407407407408,19.185185185185187,0)"
           xlink:href="#D"
           id="use139" />
        <use
           transform="matrix(0.07407407407407408,0,0,0.07407407407407408,34,0)"
           xlink:href="#E"
           id="use141" />
        <use
           transform="matrix(0.07407407407407408,0,0,0.07407407407407408,48.81481481481481,0)"
           xlink:href="#F"
           id="use143" />
      </g>
      <path
         d="M143 0L79-87 56-68V0H24v-261h32v163l83-92h37l-77 82L181 0h-38"
         id="G" />
      <path
         d="M117-194c89-4 53 116 60 194h-32v-121c0-31-8-49-39-48C34-167 62-67 57 0H25l-1-190h30c1 10-1 24 2 32 11-22 29-35 61-36"
         id="H" />
      <path
         d="M206 0h-36l-40-164L89 0H53L-1-190h32L70-26l43-164h34l41 164 42-164h31"
         id="I" />
      <path
         d="M24 0v-261h32V0H24"
         id="J" />
      <path
         d="M177-190C167-65 218 103 67 71c-23-6-38-20-44-43l32-5c15 47 100 32 89-28v-30C133-14 115 1 83 1 29 1 15-40 15-95c0-56 16-97 71-98 29-1 48 16 59 35 1-10 0-23 2-32h30zM94-22c36 0 50-32 50-73 0-42-14-75-50-75-39 0-46 34-46 75s6 73 46 73"
         id="K" />
      <path
         d="M0 4l72-265h28L28 4H0"
         id="L" />
      <g
         id="c">
        <use
           transform="matrix(0.07407407407407408,0,0,0.07407407407407408,0,0)"
           xlink:href="#G"
           id="use152" />
        <use
           transform="matrix(0.07407407407407408,0,0,0.07407407407407408,13.333333333333336,0)"
           xlink:href="#H"
           id="use154" />
        <use
           transform="matrix(0.07407407407407408,0,0,0.07407407407407408,28.148148148148152,0)"
           xlink:href="#D"
           id="use156" />
        <use
           transform="matrix(0.07407407407407408,0,0,0.07407407407407408,42.96296296296297,0)"
           xlink:href="#I"
           id="use158" />
        <use
           transform="matrix(0.07407407407407408,0,0,0.07407407407407408,62.14814814814816,0)"
           xlink:href="#J"
           id="use160" />
        <use
           transform="matrix(0.07407407407407408,0,0,0.07407407407407408,68,0)"
           xlink:href="#F"
           id="use162" />
        <use
           transform="matrix(0.07407407407407408,0,0,0.07407407407407408,82.81481481481481,0)"
           xlink:href="#E"
           id="use164" />
        <use
           transform="matrix(0.07407407407407408,0,0,0.07407407407407408,97.62962962962962,0)"
           xlink:href="#K"
           id="use166" />
        <use
           transform="matrix(0.07407407407407408,0,0,0.07407407407407408,112.44444444444443,0)"
           xlink:href="#F"
           id="use168" />
        <use
           transform="matrix(0.07407407407407408,0,0,0.07407407407407408,127.25925925925924,0)"
           xlink:href="#L"
           id="use170" />
      </g>
      <path
         d="M33 0v-248h34V0H33"
         id="M" />
      <path
         d="M59-47c-2 24 18 29 38 22v24C64 9 27 4 27-40v-127H5v-23h24l9-43h21v43h35v23H59v120"
         id="N" />
      <path
         d="M114-163C36-179 61-72 57 0H25l-1-190h30c1 12-1 29 2 39 6-27 23-49 58-41v29"
         id="O" />
      <path
         d="M141-36C126-15 110 5 73 4 37 3 15-17 15-53c-1-64 63-63 125-63 3-35-9-54-41-54-24 1-41 7-42 31l-33-3c5-37 33-52 76-52 45 0 72 20 72 64v82c-1 20 7 32 28 27v20c-31 9-61-2-59-35zM48-53c0 20 12 33 32 33 41-3 63-29 60-74-43 2-92-5-92 41"
         id="P" />
      <g
         id="e">
        <use
           transform="matrix(0.07407407407407408,0,0,0.07407407407407408,0,0)"
           xlink:href="#M"
           id="use177" />
        <use
           transform="matrix(0.07407407407407408,0,0,0.07407407407407408,7.407407407407408,0)"
           xlink:href="#H"
           id="use179" />
        <use
           transform="matrix(0.07407407407407408,0,0,0.07407407407407408,22.222222222222225,0)"
           xlink:href="#N"
           id="use181" />
        <use
           transform="matrix(0.07407407407407408,0,0,0.07407407407407408,29.629629629629633,0)"
           xlink:href="#F"
           id="use183" />
        <use
           transform="matrix(0.07407407407407408,0,0,0.07407407407407408,44.44444444444445,0)"
           xlink:href="#O"
           id="use185" />
        <use
           transform="matrix(0.07407407407407408,0,0,0.07407407407407408,53.25925925925927,0)"
           xlink:href="#H"
           id="use187" />
        <use
           transform="matrix(0.07407407407407408,0,0,0.07407407407407408,68.07407407407408,0)"
           xlink:href="#P"
           id="use189" />
        <use
           transform="matrix(0.07407407407407408,0,0,0.07407407407407408,82.88888888888889,0)"
           xlink:href="#J"
           id="use191" />
      </g>
      <path
         d="M96-169c-40 0-48 33-48 73s9 75 48 75c24 0 41-14 43-38l32 2c-6 37-31 61-74 61-59 0-76-41-82-99-10-93 101-131 147-64 4 7 5 14 7 22l-32 3c-4-21-16-35-41-35"
         id="Q" />
      <path
         d="M24-231v-30h32v30H24zM24 0v-190h32V0H24"
         id="R" />
      <g
         id="f">
        <use
           transform="matrix(0.07407407407407408,0,0,0.07407407407407408,0,0)"
           xlink:href="#P"
           id="use196" />
        <use
           transform="matrix(0.07407407407407408,0,0,0.07407407407407408,14.814814814814817,0)"
           xlink:href="#Q"
           id="use198" />
        <use
           transform="matrix(0.07407407407407408,0,0,0.07407407407407408,28.148148148148152,0)"
           xlink:href="#N"
           id="use200" />
        <use
           transform="matrix(0.07407407407407408,0,0,0.07407407407407408,35.55555555555556,0)"
           xlink:href="#R"
           id="use202" />
        <use
           transform="matrix(0.07407407407407408,0,0,0.07407407407407408,41.40740740740741,0)"
           xlink:href="#D"
           id="use204" />
        <use
           transform="matrix(0.07407407407407408,0,0,0.07407407407407408,56.22222222222223,0)"
           xlink:href="#H"
           id="use206" />
      </g>
      <use
         transform="matrix(0.07407407407407408,0,0,0.07407407407407408,0,0)"
         xlink:href="#B"
         id="h" />
      <path
         d="M205 0l-28-72H64L36 0H1l101-248h38L239 0h-34zm-38-99l-47-123c-12 45-31 82-46 123h93"
         id="S" />
      <path
         d="M108 0H70L1-190h34L89-25l56-165h34"
         id="T" />
      <g
         id="i">
        <use
           transform="matrix(0.07407407407407408,0,0,0.07407407407407408,0,0)"
           xlink:href="#S"
           id="use212" />
        <use
           transform="matrix(0.07407407407407408,0,0,0.07407407407407408,17.77777777777778,0)"
           xlink:href="#Q"
           id="use214" />
        <use
           transform="matrix(0.07407407407407408,0,0,0.07407407407407408,31.111111111111114,0)"
           xlink:href="#N"
           id="use216" />
        <use
           transform="matrix(0.07407407407407408,0,0,0.07407407407407408,38.51851851851851,0)"
           xlink:href="#R"
           id="use218" />
        <use
           transform="matrix(0.07407407407407408,0,0,0.07407407407407408,44.370370370370374,0)"
           xlink:href="#T"
           id="use220" />
        <use
           transform="matrix(0.07407407407407408,0,0,0.07407407407407408,57.70370370370371,0)"
           xlink:href="#F"
           id="use222" />
      </g>
      <g
         id="j">
        <use
           transform="matrix(0.07407407407407408,0,0,0.07407407407407408,0,0)"
           xlink:href="#H"
           id="use225" />
        <use
           transform="matrix(0.07407407407407408,0,0,0.07407407407407408,14.814814814814817,0)"
           xlink:href="#D"
           id="use227" />
        <use
           transform="matrix(0.07407407407407408,0,0,0.07407407407407408,29.629629629629633,0)"
           xlink:href="#E"
           id="use229" />
        <use
           transform="matrix(0.07407407407407408,0,0,0.07407407407407408,44.44444444444445,0)"
           xlink:href="#F"
           id="use231" />
      </g>
      <path
         d="M39-94c74 12-11 154 75 146v23c-44 4-70-10-70-52C44-23 55-84 6-82v-22c81 4-7-162 84-157h24v23c-82-15-2 131-75 144"
         id="U" />
      <path
         d="M68-38c1 34 0 65-14 84H32c9-13 17-26 17-46H33v-38h35"
         id="V" />
      <path
         d="M160-131c35 5 61 23 61 61C221 17 115-2 30 0v-248c76 3 177-17 177 60 0 33-19 50-47 57zm-97-11c50-1 110 9 110-42 0-47-63-36-110-37v79zm0 115c55-2 124 14 124-45 0-56-70-42-124-44v89"
         id="W" />
      <path
         d="M33 0v-38h34V0H33"
         id="X" />
      <path
         d="M30 0v-248h187v28H63v79h144v27H63v87h162V0H30"
         id="Y" />
      <path
         d="M76-40C78 24 84 88 6 75V52C86 64 9-79 80-94c-40-6-34-59-34-106 1-29-11-41-40-38v-23c44-4 70 10 70 52 0 47-12 108 38 105v22c-26 1-39 14-38 42"
         id="Z" />
      <g
         id="k">
        <use
           transform="matrix(0.07407407407407408,0,0,0.07407407407407408,0,0)"
           xlink:href="#U"
           id="use240" />
        <use
           transform="matrix(0.07407407407407408,0,0,0.07407407407407408,8.88888888888889,0)"
           xlink:href="#S"
           id="use242" />
        <use
           transform="matrix(0.07407407407407408,0,0,0.07407407407407408,26.666666666666664,0)"
           xlink:href="#V"
           id="use244" />
        <use
           transform="matrix(0.07407407407407408,0,0,0.07407407407407408,34.074074074074076,0)"
           xlink:href="#W"
           id="use246" />
        <use
           transform="matrix(0.07407407407407408,0,0,0.07407407407407408,51.85185185185186,0)"
           xlink:href="#V"
           id="use248" />
        <use
           transform="matrix(0.07407407407407408,0,0,0.07407407407407408,59.25925925925927,0)"
           xlink:href="#X"
           id="use250" />
        <use
           transform="matrix(0.07407407407407408,0,0,0.07407407407407408,66.66666666666667,0)"
           xlink:href="#X"
           id="use252" />
        <use
           transform="matrix(0.07407407407407408,0,0,0.07407407407407408,74.07407407407408,0)"
           xlink:href="#V"
           id="use254" />
        <use
           transform="matrix(0.07407407407407408,0,0,0.07407407407407408,81.48148148148148,0)"
           xlink:href="#Y"
           id="use256" />
        <use
           transform="matrix(0.07407407407407408,0,0,0.07407407407407408,99.25925925925927,0)"
           xlink:href="#Z"
           id="use258" />
      </g>
      <use
         transform="matrix(0.07407407407407408,0,0,0.07407407407407408,0,0)"
         xlink:href="#B"
         id="l" />
      <path
         d="M30-248c87 1 191-15 191 75 0 78-77 80-158 76V0H30v-248zm33 125c57 0 124 11 124-50 0-59-68-47-124-48v98"
         id="aa" />
      <path
         d="M135-143c-3-34-86-38-87 0 15 53 115 12 119 90S17 21 10-45l28-5c4 36 97 45 98 0-10-56-113-15-118-90-4-57 82-63 122-42 12 7 21 19 24 35"
         id="ab" />
      <g
         id="m">
        <use
           transform="matrix(0.07407407407407408,0,0,0.07407407407407408,0,0)"
           xlink:href="#aa"
           id="use264" />
        <use
           transform="matrix(0.07407407407407408,0,0,0.07407407407407408,17.77777777777778,0)"
           xlink:href="#O"
           id="use266" />
        <use
           transform="matrix(0.07407407407407408,0,0,0.07407407407407408,26.592592592592595,0)"
           xlink:href="#R"
           id="use268" />
        <use
           transform="matrix(0.07407407407407408,0,0,0.07407407407407408,32.44444444444445,0)"
           xlink:href="#D"
           id="use270" />
        <use
           transform="matrix(0.07407407407407408,0,0,0.07407407407407408,47.25925925925927,0)"
           xlink:href="#O"
           id="use272" />
        <use
           transform="matrix(0.07407407407407408,0,0,0.07407407407407408,56.07407407407408,0)"
           xlink:href="#R"
           id="use274" />
        <use
           transform="matrix(0.07407407407407408,0,0,0.07407407407407408,61.92592592592593,0)"
           xlink:href="#N"
           id="use276" />
        <use
           transform="matrix(0.07407407407407408,0,0,0.07407407407407408,69.33333333333334,0)"
           xlink:href="#R"
           id="use278" />
        <use
           transform="matrix(0.07407407407407408,0,0,0.07407407407407408,75.18518518518519,0)"
           xlink:href="#F"
           id="use280" />
        <use
           transform="matrix(0.07407407407407408,0,0,0.07407407407407408,90,0)"
           xlink:href="#ab"
           id="use282" />
      </g>
      <g
         id="n">
        <use
           transform="matrix(0.07407407407407408,0,0,0.07407407407407408,0,0)"
           xlink:href="#D"
           id="use285" />
        <use
           transform="matrix(0.07407407407407408,0,0,0.07407407407407408,14.814814814814817,0)"
           xlink:href="#O"
           id="use287" />
        <use
           transform="matrix(0.07407407407407408,0,0,0.07407407407407408,23.629629629629633,0)"
           xlink:href="#E"
           id="use289" />
        <use
           transform="matrix(0.07407407407407408,0,0,0.07407407407407408,38.44444444444445,0)"
           xlink:href="#F"
           id="use291" />
        <use
           transform="matrix(0.07407407407407408,0,0,0.07407407407407408,53.25925925925927,0)"
           xlink:href="#O"
           id="use293" />
        <use
           transform="matrix(0.07407407407407408,0,0,0.07407407407407408,62.07407407407408,0)"
           xlink:href="#F"
           id="use295" />
        <use
           transform="matrix(0.07407407407407408,0,0,0.07407407407407408,76.8888888888889,0)"
           xlink:href="#E"
           id="use297" />
      </g>
      <path
         d="M115-194c53 0 69 39 70 98 0 66-23 100-70 100C84 3 66-7 56-30L54 0H23l1-261h32v101c10-23 28-34 59-34zm-8 174c40 0 45-34 45-75 0-40-5-75-45-74-42 0-51 32-51 76 0 43 10 73 51 73"
         id="ac" />
      <path
         d="M179-190L93 31C79 59 56 82 12 73V49c39 6 53-20 64-50L1-190h34L92-34l54-156h33"
         id="ad" />
      <g
         id="o">
        <use
           transform="matrix(0.07407407407407408,0,0,0.07407407407407408,0,0)"
           xlink:href="#ac"
           id="use302" />
        <use
           transform="matrix(0.07407407407407408,0,0,0.07407407407407408,14.814814814814817,0)"
           xlink:href="#ad"
           id="use304" />
      </g>
      <g
         id="q">
        <use
           transform="matrix(0.07407407407407408,0,0,0.07407407407407408,0,0)"
           xlink:href="#O"
           id="use307" />
        <use
           transform="matrix(0.07407407407407408,0,0,0.07407407407407408,8.814814814814817,0)"
           xlink:href="#F"
           id="use309" />
        <use
           transform="matrix(0.07407407407407408,0,0,0.07407407407407408,23.629629629629633,0)"
           xlink:href="#T"
           id="use311" />
        <use
           transform="matrix(0.07407407407407408,0,0,0.07407407407407408,36.96296296296297,0)"
           xlink:href="#F"
           id="use313" />
        <use
           transform="matrix(0.07407407407407408,0,0,0.07407407407407408,51.777777777777786,0)"
           xlink:href="#O"
           id="use315" />
        <use
           transform="matrix(0.07407407407407408,0,0,0.07407407407407408,60.5925925925926,0)"
           xlink:href="#ab"
           id="use317" />
        <use
           transform="matrix(0.07407407407407408,0,0,0.07407407407407408,73.92592592592594,0)"
           xlink:href="#F"
           id="use319" />
      </g>
      <path
         d="M115-194c55 1 70 41 70 98S169 2 115 4C84 4 66-9 55-30l1 105H24l-1-265h31l2 30c10-21 28-34 59-34zm-8 174c40 0 45-34 45-75s-6-73-45-74c-42 0-51 32-51 76 0 43 10 73 51 73"
         id="ae" />
      <path
         d="M106-169C34-169 62-67 57 0H25v-261h32l-1 103c12-21 28-36 61-36 89 0 53 116 60 194h-32v-121c2-32-8-49-39-48"
         id="af" />
      <g
         id="r">
        <use
           transform="matrix(0.07407407407407408,0,0,0.07407407407407408,0,0)"
           xlink:href="#P"
           id="use324" />
        <use
           transform="matrix(0.07407407407407408,0,0,0.07407407407407408,14.814814814814817,0)"
           xlink:href="#J"
           id="use326" />
        <use
           transform="matrix(0.07407407407407408,0,0,0.07407407407407408,20.666666666666668,0)"
           xlink:href="#ae"
           id="use328" />
        <use
           transform="matrix(0.07407407407407408,0,0,0.07407407407407408,35.48148148148149,0)"
           xlink:href="#af"
           id="use330" />
        <use
           transform="matrix(0.07407407407407408,0,0,0.07407407407407408,50.296296296296305,0)"
           xlink:href="#P"
           id="use332" />
        <use
           transform="matrix(0.07407407407407408,0,0,0.07407407407407408,65.11111111111111,0)"
           xlink:href="#ac"
           id="use334" />
        <use
           transform="matrix(0.07407407407407408,0,0,0.07407407407407408,79.92592592592592,0)"
           xlink:href="#F"
           id="use336" />
        <use
           transform="matrix(0.07407407407407408,0,0,0.07407407407407408,94.74074074074073,0)"
           xlink:href="#N"
           id="use338" />
        <use
           transform="matrix(0.07407407407407408,0,0,0.07407407407407408,102.14814814814814,0)"
           xlink:href="#R"
           id="use340" />
        <use
           transform="matrix(0.07407407407407408,0,0,0.07407407407407408,107.99999999999999,0)"
           xlink:href="#Q"
           id="use342" />
        <use
           transform="matrix(0.07407407407407408,0,0,0.07407407407407408,121.33333333333331,0)"
           xlink:href="#P"
           id="use344" />
        <use
           transform="matrix(0.07407407407407408,0,0,0.07407407407407408,136.14814814814812,0)"
           xlink:href="#J"
           id="use346" />
      </g>
      <g
         id="s">
        <use
           transform="matrix(0.07407407407407408,0,0,0.07407407407407408,0,0)"
           xlink:href="#D"
           id="use349" />
        <use
           transform="matrix(0.07407407407407408,0,0,0.07407407407407408,14.814814814814817,0)"
           xlink:href="#O"
           id="use351" />
        <use
           transform="matrix(0.07407407407407408,0,0,0.07407407407407408,23.629629629629633,0)"
           xlink:href="#E"
           id="use353" />
        <use
           transform="matrix(0.07407407407407408,0,0,0.07407407407407408,38.44444444444445,0)"
           xlink:href="#F"
           id="use355" />
        <use
           transform="matrix(0.07407407407407408,0,0,0.07407407407407408,53.25925925925927,0)"
           xlink:href="#O"
           id="use357" />
      </g>
      <path
         d="M233-177c-1 41-23 64-60 70L243 0h-38l-65-103H63V0H30v-248c88 3 205-21 203 71zM63-129c60-2 137 13 137-47 0-61-80-42-137-45v92"
         id="ag" />
      <g
         id="t">
        <use
           transform="matrix(0.07407407407407408,0,0,0.07407407407407408,0,0)"
           xlink:href="#ag"
           id="use361" />
        <use
           transform="matrix(0.07407407407407408,0,0,0.07407407407407408,19.185185185185187,0)"
           xlink:href="#F"
           id="use363" />
        <use
           transform="matrix(0.07407407407407408,0,0,0.07407407407407408,34,0)"
           xlink:href="#ab"
           id="use365" />
        <use
           transform="matrix(0.07407407407407408,0,0,0.07407407407407408,47.33333333333334,0)"
           xlink:href="#ae"
           id="use367" />
        <use
           transform="matrix(0.07407407407407408,0,0,0.07407407407407408,62.14814814814816,0)"
           xlink:href="#D"
           id="use369" />
        <use
           transform="matrix(0.07407407407407408,0,0,0.07407407407407408,76.96296296296296,0)"
           xlink:href="#H"
           id="use371" />
        <use
           transform="matrix(0.07407407407407408,0,0,0.07407407407407408,91.77777777777777,0)"
           xlink:href="#ab"
           id="use373" />
        <use
           transform="matrix(0.07407407407407408,0,0,0.07407407407407408,105.11111111111111,0)"
           xlink:href="#F"
           id="use375" />
      </g>
      <g
         id="u">
        <use
           transform="matrix(0.07407407407407408,0,0,0.07407407407407408,0,0)"
           xlink:href="#N"
           id="use378" />
        <use
           transform="matrix(0.07407407407407408,0,0,0.07407407407407408,7.407407407407408,0)"
           xlink:href="#D"
           id="use380" />
      </g>
      <use
         transform="matrix(0.07407407407407408,0,0,0.07407407407407408,0,0)"
         xlink:href="#P"
         id="v" />
      <path
         d="M145-31C134-9 116 4 85 4 32 4 16-35 15-94c0-59 17-99 70-100 32-1 48 14 60 33 0-11-1-24 2-32h30l-1 268h-32zM93-21c41 0 51-33 51-76s-8-73-50-73c-40 0-46 35-46 75s5 74 45 74"
         id="ah" />
      <path
         d="M84 4C-5 8 30-112 23-190h32v120c0 31 7 50 39 49 72-2 45-101 50-169h31l1 190h-30c-1-10 1-25-2-33-11 22-28 36-60 37"
         id="ai" />
      <g
         id="w">
        <use
           transform="matrix(0.07407407407407408,0,0,0.07407407407407408,0,0)"
           xlink:href="#ag"
           id="use386" />
        <use
           transform="matrix(0.07407407407407408,0,0,0.07407407407407408,19.185185185185187,0)"
           xlink:href="#F"
           id="use388" />
        <use
           transform="matrix(0.07407407407407408,0,0,0.07407407407407408,34,0)"
           xlink:href="#ah"
           id="use390" />
        <use
           transform="matrix(0.07407407407407408,0,0,0.07407407407407408,48.81481481481481,0)"
           xlink:href="#ai"
           id="use392" />
        <use
           transform="matrix(0.07407407407407408,0,0,0.07407407407407408,63.629629629629626,0)"
           xlink:href="#F"
           id="use394" />
        <use
           transform="matrix(0.07407407407407408,0,0,0.07407407407407408,78.44444444444446,0)"
           xlink:href="#ab"
           id="use396" />
        <use
           transform="matrix(0.07407407407407408,0,0,0.07407407407407408,91.7777777777778,0)"
           xlink:href="#N"
           id="use398" />
      </g>
      <path
         d="M212-179c-10-28-35-45-73-45-59 0-87 40-87 99 0 60 29 101 89 101 43 0 62-24 78-52l27 14C228-24 195 4 139 4 59 4 22-46 18-125c-6-104 99-153 187-111 19 9 31 26 39 46"
         id="aj" />
      <path
         d="M210-169c-67 3-38 105-44 169h-31v-121c0-29-5-50-35-48C34-165 62-65 56 0H25l-1-190h30c1 10-1 24 2 32 10-44 99-50 107 0 11-21 27-35 58-36 85-2 47 119 55 194h-31v-121c0-29-5-49-35-48"
         id="ak" />
      <g
         id="x">
        <use
           transform="matrix(0.07407407407407408,0,0,0.07407407407407408,0,0)"
           xlink:href="#aj"
           id="use403" />
        <use
           transform="matrix(0.07407407407407408,0,0,0.07407407407407408,19.185185185185187,0)"
           xlink:href="#D"
           id="use405" />
        <use
           transform="matrix(0.07407407407407408,0,0,0.07407407407407408,34,0)"
           xlink:href="#ak"
           id="use407" />
        <use
           transform="matrix(0.07407407407407408,0,0,0.07407407407407408,56.14814814814815,0)"
           xlink:href="#ak"
           id="use409" />
        <use
           transform="matrix(0.07407407407407408,0,0,0.07407407407407408,78.2962962962963,0)"
           xlink:href="#ai"
           id="use411" />
        <use
           transform="matrix(0.07407407407407408,0,0,0.07407407407407408,93.1111111111111,0)"
           xlink:href="#H"
           id="use413" />
        <use
           transform="matrix(0.07407407407407408,0,0,0.07407407407407408,107.92592592592592,0)"
           xlink:href="#R"
           id="use415" />
        <use
           transform="matrix(0.07407407407407408,0,0,0.07407407407407408,113.77777777777777,0)"
           xlink:href="#Q"
           id="use417" />
        <use
           transform="matrix(0.07407407407407408,0,0,0.07407407407407408,127.11111111111111,0)"
           xlink:href="#P"
           id="use419" />
        <use
           transform="matrix(0.07407407407407408,0,0,0.07407407407407408,141.92592592592592,0)"
           xlink:href="#N"
           id="use421" />
        <use
           transform="matrix(0.07407407407407408,0,0,0.07407407407407408,149.33333333333334,0)"
           xlink:href="#R"
           id="use423" />
        <use
           transform="matrix(0.07407407407407408,0,0,0.07407407407407408,155.18518518518522,0)"
           xlink:href="#D"
           id="use425" />
        <use
           transform="matrix(0.07407407407407408,0,0,0.07407407407407408,170,0)"
           xlink:href="#H"
           id="use427" />
      </g>
      <path
         d="M30-248c118-7 216 8 213 122C240-48 200 0 122 0H30v-248zM63-27c89 8 146-16 146-99s-60-101-146-95v194"
         id="al" />
      <g
         id="y">
        <use
           transform="matrix(0.07407407407407408,0,0,0.07407407407407408,0,0)"
           xlink:href="#al"
           id="use431" />
        <use
           transform="matrix(0.07407407407407408,0,0,0.07407407407407408,19.185185185185187,0)"
           xlink:href="#F"
           id="use433" />
        <use
           transform="matrix(0.07407407407407408,0,0,0.07407407407407408,34,0)"
           xlink:href="#P"
           id="use435" />
        <use
           transform="matrix(0.07407407407407408,0,0,0.07407407407407408,48.81481481481481,0)"
           xlink:href="#E"
           id="use437" />
      </g>
      <g
         id="z">
        <use
           transform="matrix(0.07407407407407408,0,0,0.07407407407407408,0,0)"
           xlink:href="#R"
           id="use440" />
        <use
           transform="matrix(0.07407407407407408,0,0,0.07407407407407408,5.851851851851853,0)"
           xlink:href="#ab"
           id="use442" />
      </g>
      <g
         id="A">
        <use
           transform="matrix(0.07407407407407408,0,0,0.07407407407407408,0,0)"
           xlink:href="#O"
           id="use445" />
        <use
           transform="matrix(0.07407407407407408,0,0,0.07407407407407408,8.814814814814817,0)"
           xlink:href="#F"
           id="use447" />
        <use
           transform="matrix(0.07407407407407408,0,0,0.07407407407407408,23.629629629629633,0)"
           xlink:href="#ab"
           id="use449" />
        <use
           transform="matrix(0.07407407407407408,0,0,0.07407407407407408,36.96296296296297,0)"
           xlink:href="#N"
           id="use451" />
        <use
           transform="matrix(0.07407407407407408,0,0,0.07407407407407408,44.37037037037039,0)"
           xlink:href="#P"
           id="use453" />
        <use
           transform="matrix(0.07407407407407408,0,0,0.07407407407407408,59.185185185185205,0)"
           xlink:href="#O"
           id="use455" />
        <use
           transform="matrix(0.07407407407407408,0,0,0.07407407407407408,68.00000000000001,0)"
           xlink:href="#N"
           id="use457" />
        <use
           transform="matrix(0.07407407407407408,0,0,0.07407407407407408,75.40740740740742,0)"
           xlink:href="#R"
           id="use459" />
        <use
           transform="matrix(0.07407407407407408,0,0,0.07407407407407408,81.25925925925927,0)"
           xlink:href="#H"
           id="use461" />
        <use
           transform="matrix(0.07407407407407408,0,0,0.07407407407407408,96.07407407407408,0)"
           xlink:href="#K"
           id="use463" />
      </g>
    </defs>
  </g>
</svg>
