<?xml version="1.0" encoding="UTF-8" standalone="no"?>
<svg
   xmlns:lucid="lucid"
   xmlns:dc="http://purl.org/dc/elements/1.1/"
   xmlns:cc="http://creativecommons.org/ns#"
   xmlns:rdf="http://www.w3.org/1999/02/22-rdf-syntax-ns#"
   xmlns:svg="http://www.w3.org/2000/svg"
   xmlns="http://www.w3.org/2000/svg"
   xmlns:xlink="http://www.w3.org/1999/xlink"
   xmlns:sodipodi="http://sodipodi.sourceforge.net/DTD/sodipodi-0.dtd"
   xmlns:inkscape="http://www.inkscape.org/namespaces/inkscape"
   width="836.56"
   height="435"
   id="svg4653"
   version="1.1"
   inkscape:version="0.91 r13725"
   sodipodi:docname="overall.svg">
  <metadata
     id="metadata4984">
    <rdf:RDF>
      <cc:Work
         rdf:about="">
        <dc:format>image/svg+xml</dc:format>
        <dc:type
           rdf:resource="http://purl.org/dc/dcmitype/StillImage" />
        <dc:title></dc:title>
      </cc:Work>
    </rdf:RDF>
  </metadata>
  <defs
     id="defs4982" />
  <sodipodi:namedview
     pagecolor="#ffffff"
     bordercolor="#666666"
     borderopacity="1"
     objecttolerance="10"
     gridtolerance="10"
     guidetolerance="10"
     inkscape:pageopacity="0"
     inkscape:pageshadow="2"
     inkscape:window-width="640"
     inkscape:window-height="480"
     id="namedview4980"
     showgrid="false"
     inkscape:zoom="0.3275318"
     inkscape:cx="418.28"
     inkscape:cy="217.5"
     inkscape:window-x="0"
     inkscape:window-y="0"
     inkscape:window-maximized="0"
     inkscape:current-layer="svg4653" />
  <g
     transform="translate(-243.43827160493828 -1460)"
     lucid:page-tab-id="0_0"
     id="g4655">
    <path
       d="M820 1541h240v334H820z"
       fill-opacity="0"
       id="path4657" />
    <path
       d="M832 1541h8m8 0h8m8 0h8m8 0h8m8 0h8m8 0h8m8 0h8m8 0h8m8 0h8m8 0h8m8 0h8m8 0h8m8 0h8m8 0h8m8 0h4v3.98m0 7.95v7.95m0 7.95v7.96m0 7.94v7.95m0 7.94v7.96m0 7.95v7.95m0 7.95v7.95m0 7.96v7.95m0 7.96v7.95m0 7.97v7.95m0 7.95v7.95m0 7.96v7.95m0 7.95v7.95m0 7.96v7.94m0 7.95v7.94m0 7.96v7.95m0 7.95v7.95m0 7.95v7.96m0 7.95v7.96m0 7.95v7.97m0 7.95v7.95m0 7.95v3.98h-4m-8 0h-8m-8 0h-8m-8 0h-8m-8 0h-8m-8 0h-8m-8 0h-8m-8 0h-8m-8 0h-8m-8 0h-8m-8 0h-8m-8 0h-8m-8 0h-8m-8 0h-8m-8 0h-8m-8 0h-4v-3.98m0-7.95v-7.95m0-7.95v-7.96m0-7.94v-7.95m0-7.94v-7.96m0-7.95v-7.95m0-7.95v-7.95m0-7.96v-7.95m0-7.96v-7.95m0-7.97v-7.95m0-7.95v-7.95m0-7.96v-7.95m0-7.95v-7.95m0-7.96v-7.94m0-7.95v-7.94m0-7.96v-7.95m0-7.95v-7.95m0-7.95v-7.96m0-7.95v-7.96m0-7.95v-7.97m0-7.95v-7.95m0-7.95V1541h4"
       stroke="#000"
       stroke-width="2"
       fill="none"
       id="path4659" />
    <path
       d="M640 1740h160v120H640z"
       stroke="#000"
       stroke-width="2"
       fill-opacity="0"
       id="path4661" />
    <use
       xlink:href="#a"
       transform="matrix(1,0,0,1,640,1740) translate(53.55 63.6)"
       id="use4663" />
    <path
       d="M380 1540h240v335H380z"
       fill-opacity="0"
       id="path4665" />
    <path
       d="M392 1540h8m8 0h8m8 0h8m8 0h8m8 0h8m8 0h8m8 0h8m8 0h8m8 0h8m8 0h8m8 0h8m8 0h8m8 0h8m8 0h8m8 0h4v4m0 7.96v7.98m0 7.98v7.97m0 7.97v7.98m0 7.97v7.98m0 7.97v7.98m0 7.98v7.97m0 7.98v7.97m0 7.98v7.98m0 7.98v7.98m0 7.98v7.97m0 8v7.96m0 7.98v7.98m0 7.97v7.97m0 7.98v7.97m0 7.98v7.97m0 7.98v7.98m0 7.97v7.98m0 7.97v7.98m0 7.98v7.98m0 7.98v7.98m0 7.97v4h-4m-8 0h-8m-8 0h-8m-8 0h-8m-8 0h-8m-8 0h-8m-8 0h-8m-8 0h-8m-8 0h-8m-8 0h-8m-8 0h-8m-8 0h-8m-8 0h-8m-8 0h-8m-8 0h-8m-8 0h-4v-4m0-7.96v-7.98m0-7.98v-7.97m0-7.97v-7.98m0-7.97v-7.98m0-7.97v-7.98m0-7.98v-7.97m0-7.98v-7.97m0-7.98v-7.98m0-7.98v-7.98m0-7.98v-7.97m0-8v-7.96m0-7.98v-7.98m0-7.97v-7.97m0-7.98v-7.97m0-7.98v-7.97m0-7.98v-7.98m0-7.97v-7.98m0-7.97v-7.98m0-7.98v-7.98m0-7.98v-7.98m0-7.97v-4h4"
       stroke="#000"
       stroke-width="2"
       fill="none"
       id="path4667" />
    <path
       d="M420 1560h160v120H420z"
       stroke="#000"
       stroke-width="2"
       fill-opacity="0"
       id="path4669" />
    <use
       xlink:href="#b"
       transform="matrix(1,0,0,1,420,1560) translate(52.75 63.6)"
       id="use4671" />
    <path
       d="M420 1740h160v120H420z"
       stroke="#000"
       stroke-width="2"
       fill-opacity="0"
       id="path4673" />
    <use
       xlink:href="#c"
       transform="matrix(1,0,0,1,420,1740) translate(36.074999999999996 52.8)"
       id="use4675" />
    <use
       xlink:href="#d"
       transform="matrix(1,0,0,1,420,1740) translate(53.55 74.4)"
       id="use4677" />
    <path
       d="M640 1800h-59"
       stroke="#000"
       stroke-width="2"
       fill="none"
       id="path4679" />
    <path
       d="M640 1800l-14.27 4.64v-9.28z"
       id="path4681" />
    <path
       d="M640 1798.95v2.1l-15.27 4.96v-12zm-13.27 4.3l10.03-3.25-10.03-3.26zM595.27 1804.64L581 1800l14.27-4.64z"
       id="path4683" />
    <path
       d="M596.27 1806l-16.27-5.27v-1.46l16.27-5.28zm-12.03-6l10.03 3.26v-6.52z"
       id="path4685" />
    <path
       d="M500 1764v-118.67"
       stroke="#000"
       stroke-width="2"
       fill="none"
       id="path4687" />
    <path
       d="M500 1764l-4.64-14.27h9.28zM500 1645.33l4.64 14.27h-9.28z"
       stroke="#000"
       stroke-width="2"
       id="path4689" />
    <path
       d="M860 1740h170v120H860z"
       stroke="#000"
       stroke-width="2"
       fill-opacity="0"
       id="path4691" />
    <use
       xlink:href="#e"
       transform="matrix(1,0,0,1,860,1740) translate(39.12499999999999 63.6)"
       id="use4693" />
    <path
       d="M860 1560h170v120H860z"
       stroke="#000"
       stroke-width="2"
       fill-opacity="0"
       id="path4695" />
    <use
       xlink:href="#f"
       transform="matrix(1,0,0,1,860,1560) translate(41.074999999999996 63.6)"
       id="use4697" />
    <path
       d="M948 1773.33v-120"
       stroke="#000"
       stroke-width="2"
       fill="none"
       id="path4699" />
    <path
       d="M948 1773.33l-4.64-14.26h9.28zM948 1653.33l4.64 14.27h-9.28z"
       stroke="#000"
       stroke-width="2"
       id="path4701" />
    <path
       d="M860 1800h-59"
       stroke="#000"
       stroke-width="2"
       fill="none"
       id="path4703" />
    <path
       d="M860 1800l-14.27 4.64v-9.28z"
       id="path4705" />
    <path
       d="M860 1798.95v2.1l-15.27 4.96v-12zm-13.27 4.3l10.03-3.25-10.03-3.26zM815.27 1804.64L801 1800l14.27-4.64z"
       id="path4707" />
    <path
       d="M816.27 1806l-16.27-5.27v-1.46l16.27-5.28zm-12.03-6l10.03 3.26v-6.52z"
       id="path4709" />
    <path
       d="M314.58 1552.75c0 7.04-5.56 12.75-12.4 12.75-6.86 0-12.42-5.7-12.42-12.75 0-7.04 5.56-12.75 12.4-12.75 6.86 0 12.42 5.7 12.42 12.75z"
       stroke="#000"
       stroke-width="2"
       fill="#fff"
       id="path4711" />
    <path
       d="M290.12 1590.8v-13.26c0-6.75 5.48-12.23 12.23-12.23s12.23 5.5 12.23 12.24v13.27z"
       stroke="#000"
       stroke-width="2"
       fill="#fff"
       id="path4713" />
    <path
       d="M280.6 1596.25h43.15v16.88H280.6z"
       stroke="#000"
       stroke-opacity="0"
       stroke-width="2"
       fill="#fff"
       fill-opacity="0"
       id="path4715" />
    <use
       xlink:href="#g"
       transform="matrix(1,0,0,1,285.5925196850394,1601.25) translate(-18.74074074074074 17.77777777777778)"
       id="use4717" />
    <path
       d="M314 1799.63c0 7.04-5.57 12.74-12.42 12.74s-12.4-5.7-12.4-12.74c0-7.05 5.55-12.76 12.4-12.76 6.85 0 12.4 5.7 12.4 12.76z"
       stroke="#000"
       stroke-width="2"
       fill="#fff"
       id="path4719" />
    <path
       d="M289.53 1837.7v-13.28c0-6.76 5.48-12.23 12.23-12.23s12.23 5.46 12.23 12.22v13.27z"
       stroke="#000"
       stroke-width="2"
       fill="#fff"
       id="path4721" />
    <path
       d="M280 1843.13h43.16V1860H280z"
       stroke="#000"
       stroke-opacity="0"
       stroke-width="2"
       fill="#fff"
       fill-opacity="0"
       id="path4723" />
    <use
       xlink:href="#h"
       transform="matrix(1,0,0,1,285,1848.125) translate(-20.561728395061728 17.77777777777778)"
       id="use4725" />
    <path
       d="M314.24 1642.13c0 7.04-5.56 12.74-12.4 12.74-6.86 0-12.42-5.7-12.42-12.74 0-7.05 5.56-12.75 12.4-12.75 6.86 0 12.42 5.7 12.42 12.75z"
       stroke="#000"
       stroke-width="2"
       fill="#fff"
       id="path4727" />
    <path
       d="M289.78 1680.2v-13.28c0-6.76 5.48-12.23 12.23-12.23 6.76 0 12.24 5.46 12.24 12.22v13.27z"
       stroke="#000"
       stroke-width="2"
       fill="#fff"
       id="path4729" />
    <path
       d="M280.25 1685.63h43.16v16.87h-43.15z"
       stroke="#000"
       stroke-opacity="0"
       stroke-width="2"
       fill="#fff"
       fill-opacity="0"
       id="path4731" />
    <use
       xlink:href="#i"
       transform="matrix(1,0,0,1,285.25,1690.625) translate(-18.74074074074074 17.77777777777778)"
       id="use4733" />
    <path
       d="M280 1760h60"
       fill="none"
       id="path4735" />
    <path
       d="M282.5 1760c0 1.38-1.12 2.5-2.5 2.5s-2.5-1.12-2.5-2.5 1.12-2.5 2.5-2.5 2.5 1.12 2.5 2.5zm10 0c0 1.38-1.12 2.5-2.5 2.5s-2.5-1.12-2.5-2.5 1.12-2.5 2.5-2.5 2.5 1.12 2.5 2.5zm10 0c0 1.38-1.12 2.5-2.5 2.5s-2.5-1.12-2.5-2.5 1.12-2.5 2.5-2.5 2.5 1.12 2.5 2.5zm10 0c0 1.38-1.12 2.5-2.5 2.5s-2.5-1.12-2.5-2.5 1.12-2.5 2.5-2.5 2.5 1.12 2.5 2.5zm10 0c0 1.38-1.12 2.5-2.5 2.5s-2.5-1.12-2.5-2.5 1.12-2.5 2.5-2.5 2.5 1.12 2.5 2.5zm10 0c0 1.38-1.12 2.5-2.5 2.5s-2.5-1.12-2.5-2.5 1.12-2.5 2.5-2.5 2.5 1.12 2.5 2.5z"
       id="path4737" />
    <path
       d="M820 1481h240v60H820z"
       fill="#fff"
       fill-opacity="0"
       id="path4739" />
    <path
       d="M832 1481h8m8 0h8m8 0h8m8 0h8m8 0h8m8 0h8m8 0h8m8 0h8m8 0h8m8 0h8m8 0h8m8 0h8m8 0h8m8 0h8m8 0h4v3.75m0 7.5v7.5m0 7.5v7.5m0 7.5v7.5m0 7.5v3.75h-4m-8 0h-8m-8 0h-8m-8 0h-8m-8 0h-8m-8 0h-8m-8 0h-8m-8 0h-8m-8 0h-8m-8 0h-8m-8 0h-8m-8 0h-8m-8 0h-8m-8 0h-8m-8 0h-8m-8 0h-4v-3.75m0-7.5v-7.5m0-7.5v-7.5m0-7.5v-7.5m0-7.5V1481h4"
       stroke="#000"
       stroke-opacity="0"
       stroke-width="2"
       fill="none"
       id="path4741" />
    <use
       xlink:href="#j"
       transform="matrix(1,0,0,1,825,1486) translate(54.50617283950617 31.22222222222222)"
       id="use4743" />
    <path
       d="M380 1480h240v60H380z"
       fill="#fff"
       fill-opacity="0"
       id="path4745" />
    <path
       d="M392 1480h8m8 0h8m8 0h8m8 0h8m8 0h8m8 0h8m8 0h8m8 0h8m8 0h8m8 0h8m8 0h8m8 0h8m8 0h8m8 0h8m8 0h4v3.75m0 7.5v7.5m0 7.5v7.5m0 7.5v7.5m0 7.5v3.75h-4m-8 0h-8m-8 0h-8m-8 0h-8m-8 0h-8m-8 0h-8m-8 0h-8m-8 0h-8m-8 0h-8m-8 0h-8m-8 0h-8m-8 0h-8m-8 0h-8m-8 0h-8m-8 0h-8m-8 0h-4v-3.75m0-7.5v-7.5m0-7.5v-7.5m0-7.5v-7.5m0-7.5V1480h4"
       stroke="#000"
       stroke-opacity="0"
       stroke-width="2"
       fill="none"
       id="path4747" />
    <use
       xlink:href="#k"
       transform="matrix(1,0,0,1,385,1485) translate(52.864197530864196 31.22222222222222)"
       id="use4749" />
    <path
       d="M420 1620l-2.84-.07-2.65-.2-2.5-.28-2.38-.4-2.28-.5-2.2-.58-2.15-.7-2.1-.77-2.08-.88-2.06-1-2.07-1.12-2.1-1.28-2.17-1.45-2.24-1.68-2.4-1.97-2.6-2.35-2.96-2.95-3.67-4.03-6.5-7.87-12.06-14.98-3.67-4.03-2.95-2.95-2.6-2.35-2.4-1.96-2.23-1.68-2.16-1.45-2.1-1.28-2.08-1.12-2.06-1-2.07-.88-2.1-.78-2.15-.7-2.2-.57-2.3-.5-2.37-.4-2.5-.3-2.66-.18-2.84-.07"
       stroke="#000"
       stroke-width="2"
       fill="none"
       id="path4751" />
    <path
       d="M420 1620l-14.76 2.66 1.25-9.18z"
       id="path4753" />
    <path
       d="M420 1618.9v2.12l-15.94 2.87 1.63-11.92zm-13.6 2.54l10.4-1.88-9.5-4.58zM328.1 1559.27l-13.52-6.52 14.76-2.66z"
       id="path4755" />
    <path
       d="M328.9 1560.77l-14.46-6.98.14-1.05-.13-1 16.07-2.9zm-11.1-7.58l9.48 4.57.88-6.46z"
       id="path4757" />
    <path
       d="M420 1620l-3.14.07-3 .22-2.88.33-2.82.47-2.77.6-2.75.73-2.76.87-2.8 1.04-2.9 1.23-3.04 1.46-3.27 1.78-3.7 2.24-4.48 3.02-7 5.2-18.2 14.12-4.48 3-3.7 2.25-3.27 1.77-3.03 1.47-2.9 1.23-2.8 1.03-2.75.88-2.76.74-2.76.6-2.82.47-2.9.35-3 .2-3.12.1"
       stroke="#000"
       stroke-width="2"
       fill="none"
       id="path4759" />
    <path
       d="M420 1620l-13.62 6.3-1.1-9.22z"
       id="path4761" />
    <path
       d="M420 1618.98v2.12l-14.45 6.67-1.42-11.94zm-12.8 5.82l9.6-4.42-10.36-2.05zM328.95 1670.36l-14.7-2.92 13.6-6.3z"
       id="path4763" />
    <path
       d="M330.1 1671.6l-15.86-3.14v-1.54l-.08-.55 14.53-6.7zm-12.65-4.54l10.34 2.05-.77-6.46z"
       id="path4765" />
    <path
       d="M420 1620l-2.5.05-2.32.15-2.15.22-2 .3-1.9.36-1.77.4-1.68.48-1.6.53-1.54.56-1.47.6-1.42.68-1.37.72-1.33.76-1.3.83-1.26.88-1.25.94-1.22 1-1.2 1.1-1.2 1.16-1.17 1.25-1.18 1.37-1.17 1.48-1.16 1.6-1.18 1.8-1.2 1.95-1.18 2.17-1.2 2.44-1.24 2.74-1.24 3.15-1.27 3.63-1.3 4.3-1.3 5.15-1.37 6.42-1.4 8.4-1.54 12.32-6.38 73.4-1.42 8.42-1.36 6.42-1.32 5.16-1.3 4.3-1.25 3.63-1.26 3.14-1.22 2.75-1.2 2.44-1.2 2.16-1.2 1.96-1.17 1.77-1.17 1.6-1.18 1.5-1.17 1.35-1.18 1.26-1.2 1.18-1.2 1.08-1.22 1-1.24.95-1.27.9-1.3.8-1.33.78-1.37.72-1.4.66-1.48.62-1.54.57-1.6.52-1.68.47-1.77.42-1.9.36-2 .3-2.14.22-2.3.15-2.5.04"
       stroke="#000"
       stroke-width="2"
       fill="none"
       id="path4767" />
    <path
       d="M420 1620l-13.47 6.6-1.3-9.17z"
       id="path4769" />
    <path
       d="M420 1619v2.1l-14.26 7-1.7-11.9zm-12.67 6.1l9.46-4.64-10.4-1.8zM328.77 1827.5l-14.78-2.56 13.45-6.6z"
       id="path4771" />
    <path
       d="M329.95 1828.73l-15.96-2.78v-1.53l-.1-.56 14.35-7.04zm-12.76-4.25l10.38 1.8-.92-6.45z"
       id="path4773" />
    <defs
       id="defs4775">
      <path
         d="M160-131c35 5 61 23 61 61C221 17 115-2 30 0v-248c76 3 177-17 177 60 0 33-19 50-47 57zm-97-11c50-1 110 9 110-42 0-47-63-36-110-37v79zm0 115c55-2 124 14 124-45 0-56-70-42-124-44v89"
         id="l" />
      <path
         d="M114-163C36-179 61-72 57 0H25l-1-190h30c1 12-1 29 2 39 6-27 23-49 58-41v29"
         id="m" />
      <path
         d="M100-194c62-1 85 37 85 99 1 63-27 99-86 99S16-35 15-95c0-66 28-99 85-99zM99-20c44 1 53-31 53-75 0-43-8-75-51-75s-53 32-53 75 10 74 51 75"
         id="n" />
      <path
         d="M143 0L79-87 56-68V0H24v-261h32v163l83-92h37l-77 82L181 0h-38"
         id="o" />
      <path
         d="M100-194c63 0 86 42 84 106H49c0 40 14 67 53 68 26 1 43-12 49-29l28 8c-11 28-37 45-77 45C44 4 14-33 15-96c1-61 26-98 85-98zm52 81c6-60-76-77-97-28-3 7-6 17-6 28h103"
         id="p" />
      <g
         id="a">
        <use
           transform="matrix(0.05,0,0,0.05,0,0)"
           xlink:href="#l"
           id="use4783" />
        <use
           transform="matrix(0.05,0,0,0.05,12,0)"
           xlink:href="#m"
           id="use4785" />
        <use
           transform="matrix(0.05,0,0,0.05,17.95,0)"
           xlink:href="#n"
           id="use4787" />
        <use
           transform="matrix(0.05,0,0,0.05,27.950000000000003,0)"
           xlink:href="#o"
           id="use4789" />
        <use
           transform="matrix(0.05,0,0,0.05,36.95,0)"
           xlink:href="#p"
           id="use4791" />
        <use
           transform="matrix(0.05,0,0,0.05,46.95,0)"
           xlink:href="#m"
           id="use4793" />
      </g>
      <path
         d="M137 0h-34L2-248h35l83 218 83-218h36"
         id="q" />
      <path
         d="M24-231v-30h32v30H24zM24 0v-190h32V0H24"
         id="r" />
      <path
         d="M206 0h-36l-40-164L89 0H53L-1-190h32L70-26l43-164h34l41 164 42-164h31"
         id="s" />
      <g
         id="b">
        <use
           transform="matrix(0.05,0,0,0.05,0,0)"
           xlink:href="#q"
           id="use4799" />
        <use
           transform="matrix(0.05,0,0,0.05,11.65,0)"
           xlink:href="#r"
           id="use4801" />
        <use
           transform="matrix(0.05,0,0,0.05,15.600000000000001,0)"
           xlink:href="#p"
           id="use4803" />
        <use
           transform="matrix(0.05,0,0,0.05,25.6,0)"
           xlink:href="#s"
           id="use4805" />
        <use
           transform="matrix(0.05,0,0,0.05,38.550000000000004,0)"
           xlink:href="#p"
           id="use4807" />
        <use
           transform="matrix(0.05,0,0,0.05,48.550000000000004,0)"
           xlink:href="#m"
           id="use4809" />
      </g>
      <path
         d="M205 0l-28-72H64L36 0H1l101-248h38L239 0h-34zm-38-99l-47-123c-12 45-31 82-46 123h93"
         id="t" />
      <path
         d="M115-194c55 1 70 41 70 98S169 2 115 4C84 4 66-9 55-30l1 105H24l-1-265h31l2 30c10-21 28-34 59-34zm-8 174c40 0 45-34 45-75s-6-73-45-74c-42 0-51 32-51 76 0 43 10 73 51 73"
         id="u" />
      <path
         d="M24 0v-261h32V0H24"
         id="v" />
      <path
         d="M96-169c-40 0-48 33-48 73s9 75 48 75c24 0 41-14 43-38l32 2c-6 37-31 61-74 61-59 0-76-41-82-99-10-93 101-131 147-64 4 7 5 14 7 22l-32 3c-4-21-16-35-41-35"
         id="w" />
      <path
         d="M141-36C126-15 110 5 73 4 37 3 15-17 15-53c-1-64 63-63 125-63 3-35-9-54-41-54-24 1-41 7-42 31l-33-3c5-37 33-52 76-52 45 0 72 20 72 64v82c-1 20 7 32 28 27v20c-31 9-61-2-59-35zM48-53c0 20 12 33 32 33 41-3 63-29 60-74-43 2-92-5-92 41"
         id="x" />
      <path
         d="M59-47c-2 24 18 29 38 22v24C64 9 27 4 27-40v-127H5v-23h24l9-43h21v43h35v23H59v120"
         id="y" />
      <path
         d="M117-194c89-4 53 116 60 194h-32v-121c0-31-8-49-39-48C34-167 62-67 57 0H25l-1-190h30c1 10-1 24 2 32 11-22 29-35 61-36"
         id="z" />
      <g
         id="c">
        <use
           transform="matrix(0.05,0,0,0.05,0,0)"
           xlink:href="#t"
           id="use4819" />
        <use
           transform="matrix(0.05,0,0,0.05,12,0)"
           xlink:href="#u"
           id="use4821" />
        <use
           transform="matrix(0.05,0,0,0.05,22,0)"
           xlink:href="#u"
           id="use4823" />
        <use
           transform="matrix(0.05,0,0,0.05,32,0)"
           xlink:href="#v"
           id="use4825" />
        <use
           transform="matrix(0.05,0,0,0.05,35.95,0)"
           xlink:href="#r"
           id="use4827" />
        <use
           transform="matrix(0.05,0,0,0.05,39.900000000000006,0)"
           xlink:href="#w"
           id="use4829" />
        <use
           transform="matrix(0.05,0,0,0.05,48.900000000000006,0)"
           xlink:href="#x"
           id="use4831" />
        <use
           transform="matrix(0.05,0,0,0.05,58.900000000000006,0)"
           xlink:href="#y"
           id="use4833" />
        <use
           transform="matrix(0.05,0,0,0.05,63.900000000000006,0)"
           xlink:href="#r"
           id="use4835" />
        <use
           transform="matrix(0.05,0,0,0.05,67.85000000000001,0)"
           xlink:href="#n"
           id="use4837" />
        <use
           transform="matrix(0.05,0,0,0.05,77.85000000000001,0)"
           xlink:href="#z"
           id="use4839" />
      </g>
      <path
         d="M185-189c-5-48-123-54-124 2 14 75 158 14 163 119 3 78-121 87-175 55-17-10-28-26-33-46l33-7c5 56 141 63 141-1 0-78-155-14-162-118-5-82 145-84 179-34 5 7 8 16 11 25"
         id="A" />
      <path
         d="M108 0H70L1-190h34L89-25l56-165h34"
         id="B" />
      <g
         id="d">
        <use
           transform="matrix(0.05,0,0,0.05,0,0)"
           xlink:href="#A"
           id="use4844" />
        <use
           transform="matrix(0.05,0,0,0.05,12,0)"
           xlink:href="#p"
           id="use4846" />
        <use
           transform="matrix(0.05,0,0,0.05,22,0)"
           xlink:href="#m"
           id="use4848" />
        <use
           transform="matrix(0.05,0,0,0.05,27.950000000000003,0)"
           xlink:href="#B"
           id="use4850" />
        <use
           transform="matrix(0.05,0,0,0.05,36.95,0)"
           xlink:href="#p"
           id="use4852" />
        <use
           transform="matrix(0.05,0,0,0.05,46.95,0)"
           xlink:href="#m"
           id="use4854" />
      </g>
      <path
         d="M240 0l2-218c-23 76-54 145-80 218h-23L58-218 59 0H30v-248h44l77 211c21-75 51-140 76-211h43V0h-30"
         id="C" />
      <path
         d="M85-194c31 0 48 13 60 33l-1-100h32l1 261h-30c-2-10 0-23-3-31C134-8 116 4 85 4 32 4 16-35 15-94c0-66 23-100 70-100zm9 24c-40 0-46 34-46 75 0 40 6 74 45 74 42 0 51-32 51-76 0-42-9-74-50-73"
         id="D" />
      <g
         id="e">
        <use
           transform="matrix(0.05,0,0,0.05,0,0)"
           xlink:href="#C"
           id="use4859" />
        <use
           transform="matrix(0.05,0,0,0.05,14.950000000000001,0)"
           xlink:href="#r"
           id="use4861" />
        <use
           transform="matrix(0.05,0,0,0.05,18.900000000000002,0)"
           xlink:href="#D"
           id="use4863" />
        <use
           transform="matrix(0.05,0,0,0.05,28.900000000000002,0)"
           xlink:href="#D"
           id="use4865" />
        <use
           transform="matrix(0.05,0,0,0.05,38.900000000000006,0)"
           xlink:href="#v"
           id="use4867" />
        <use
           transform="matrix(0.05,0,0,0.05,42.85000000000001,0)"
           xlink:href="#p"
           id="use4869" />
        <use
           transform="matrix(0.05,0,0,0.05,52.85,0)"
           xlink:href="#s"
           id="use4871" />
        <use
           transform="matrix(0.05,0,0,0.05,65.80000000000001,0)"
           xlink:href="#x"
           id="use4873" />
        <use
           transform="matrix(0.05,0,0,0.05,75.80000000000001,0)"
           xlink:href="#m"
           id="use4875" />
        <use
           transform="matrix(0.05,0,0,0.05,81.75000000000001,0)"
           xlink:href="#p"
           id="use4877" />
      </g>
      <g
         id="f">
        <use
           transform="matrix(0.05,0,0,0.05,0,0)"
           xlink:href="#t"
           id="use4880" />
        <use
           transform="matrix(0.05,0,0,0.05,12,0)"
           xlink:href="#u"
           id="use4882" />
        <use
           transform="matrix(0.05,0,0,0.05,22,0)"
           xlink:href="#u"
           id="use4884" />
        <use
           transform="matrix(0.05,0,0,0.05,32,0)"
           xlink:href="#v"
           id="use4886" />
        <use
           transform="matrix(0.05,0,0,0.05,35.95,0)"
           xlink:href="#r"
           id="use4888" />
        <use
           transform="matrix(0.05,0,0,0.05,39.900000000000006,0)"
           xlink:href="#w"
           id="use4890" />
        <use
           transform="matrix(0.05,0,0,0.05,48.900000000000006,0)"
           xlink:href="#x"
           id="use4892" />
        <use
           transform="matrix(0.05,0,0,0.05,58.900000000000006,0)"
           xlink:href="#y"
           id="use4894" />
        <use
           transform="matrix(0.05,0,0,0.05,63.900000000000006,0)"
           xlink:href="#r"
           id="use4896" />
        <use
           transform="matrix(0.05,0,0,0.05,67.85000000000001,0)"
           xlink:href="#n"
           id="use4898" />
        <use
           transform="matrix(0.05,0,0,0.05,77.85000000000001,0)"
           xlink:href="#z"
           id="use4900" />
      </g>
      <path
         d="M232-93c-1 65-40 97-104 97C67 4 28-28 28-90v-158h33c8 89-33 224 67 224 102 0 64-133 71-224h33v155"
         id="E" />
      <path
         d="M135-143c-3-34-86-38-87 0 15 53 115 12 119 90S17 21 10-45l28-5c4 36 97 45 98 0-10-56-113-15-118-90-4-57 82-63 122-42 12 7 21 19 24 35"
         id="F" />
      <path
         d="M-5 72V49h209v23H-5"
         id="G" />
      <path
         d="M101-251c68 0 85 55 85 127S166 4 100 4C33 4 14-52 14-124c0-73 17-127 87-127zm-1 229c47 0 54-49 54-102s-4-102-53-102c-51 0-55 48-55 102 0 53 5 102 54 102"
         id="H" />
      <g
         id="g">
        <use
           transform="matrix(0.06172839506172839,0,0,0.06172839506172839,0,0)"
           xlink:href="#E"
           id="use4907" />
        <use
           transform="matrix(0.06172839506172839,0,0,0.06172839506172839,15.987654320987653,0)"
           xlink:href="#F"
           id="use4909" />
        <use
           transform="matrix(0.06172839506172839,0,0,0.06172839506172839,27.098765432098766,0)"
           xlink:href="#p"
           id="use4911" />
        <use
           transform="matrix(0.06172839506172839,0,0,0.06172839506172839,39.44444444444444,0)"
           xlink:href="#m"
           id="use4913" />
        <use
           transform="matrix(0.06172839506172839,0,0,0.06172839506172839,46.79012345679012,0)"
           xlink:href="#G"
           id="use4915" />
        <use
           transform="matrix(0.06172839506172839,0,0,0.06172839506172839,59.1358024691358,0)"
           xlink:href="#H"
           id="use4917" />
      </g>
      <path
         d="M190 0L58-211 59 0H30v-248h39L202-35l-2-213h31V0h-41"
         id="I" />
      <g
         id="h">
        <use
           transform="matrix(0.06172839506172839,0,0,0.06172839506172839,0,0)"
           xlink:href="#E"
           id="use4921" />
        <use
           transform="matrix(0.06172839506172839,0,0,0.06172839506172839,15.987654320987653,0)"
           xlink:href="#F"
           id="use4923" />
        <use
           transform="matrix(0.06172839506172839,0,0,0.06172839506172839,27.098765432098766,0)"
           xlink:href="#p"
           id="use4925" />
        <use
           transform="matrix(0.06172839506172839,0,0,0.06172839506172839,39.44444444444444,0)"
           xlink:href="#m"
           id="use4927" />
        <use
           transform="matrix(0.06172839506172839,0,0,0.06172839506172839,46.79012345679012,0)"
           xlink:href="#G"
           id="use4929" />
        <use
           transform="matrix(0.06172839506172839,0,0,0.06172839506172839,59.1358024691358,0)"
           xlink:href="#I"
           id="use4931" />
      </g>
      <path
         d="M27 0v-27h64v-190l-56 39v-29l58-41h29v221h61V0H27"
         id="J" />
      <g
         id="i">
        <use
           transform="matrix(0.06172839506172839,0,0,0.06172839506172839,0,0)"
           xlink:href="#E"
           id="use4935" />
        <use
           transform="matrix(0.06172839506172839,0,0,0.06172839506172839,15.987654320987653,0)"
           xlink:href="#F"
           id="use4937" />
        <use
           transform="matrix(0.06172839506172839,0,0,0.06172839506172839,27.098765432098766,0)"
           xlink:href="#p"
           id="use4939" />
        <use
           transform="matrix(0.06172839506172839,0,0,0.06172839506172839,39.44444444444444,0)"
           xlink:href="#m"
           id="use4941" />
        <use
           transform="matrix(0.06172839506172839,0,0,0.06172839506172839,46.79012345679012,0)"
           xlink:href="#G"
           id="use4943" />
        <use
           transform="matrix(0.06172839506172839,0,0,0.06172839506172839,59.1358024691358,0)"
           xlink:href="#J"
           id="use4945" />
      </g>
      <g
         id="j">
        <use
           transform="matrix(0.08641975308641976,0,0,0.08641975308641976,0,0)"
           xlink:href="#l"
           id="use4948" />
        <use
           transform="matrix(0.08641975308641976,0,0,0.08641975308641976,20.740740740740744,0)"
           xlink:href="#x"
           id="use4950" />
        <use
           transform="matrix(0.08641975308641976,0,0,0.08641975308641976,38.0246913580247,0)"
           xlink:href="#w"
           id="use4952" />
        <use
           transform="matrix(0.08641975308641976,0,0,0.08641975308641976,53.580246913580254,0)"
           xlink:href="#o"
           id="use4954" />
        <use
           transform="matrix(0.08641975308641976,0,0,0.08641975308641976,69.13580246913581,0)"
           xlink:href="#p"
           id="use4956" />
        <use
           transform="matrix(0.08641975308641976,0,0,0.08641975308641976,86.41975308641976,0)"
           xlink:href="#z"
           id="use4958" />
        <use
           transform="matrix(0.08641975308641976,0,0,0.08641975308641976,103.70370370370371,0)"
           xlink:href="#D"
           id="use4960" />
      </g>
      <path
         d="M63-220v92h138v28H63V0H30v-248h175v28H63"
         id="K" />
      <g
         id="k">
        <use
           transform="matrix(0.08641975308641976,0,0,0.08641975308641976,0,0)"
           xlink:href="#K"
           id="use4964" />
        <use
           transform="matrix(0.08641975308641976,0,0,0.08641975308641976,18.925925925925927,0)"
           xlink:href="#m"
           id="use4966" />
        <use
           transform="matrix(0.08641975308641976,0,0,0.08641975308641976,29.20987654320988,0)"
           xlink:href="#n"
           id="use4968" />
        <use
           transform="matrix(0.08641975308641976,0,0,0.08641975308641976,46.49382716049383,0)"
           xlink:href="#z"
           id="use4970" />
        <use
           transform="matrix(0.08641975308641976,0,0,0.08641975308641976,63.777777777777786,0)"
           xlink:href="#y"
           id="use4972" />
        <use
           transform="matrix(0.08641975308641976,0,0,0.08641975308641976,72.41975308641976,0)"
           xlink:href="#p"
           id="use4974" />
        <use
           transform="matrix(0.08641975308641976,0,0,0.08641975308641976,89.70370370370371,0)"
           xlink:href="#z"
           id="use4976" />
        <use
           transform="matrix(0.08641975308641976,0,0,0.08641975308641976,106.98765432098766,0)"
           xlink:href="#D"
           id="use4978" />
      </g>
    </defs>
  </g>
</svg>
